<?xml version="1.0" encoding="UTF-8"?>
<!-- Generator: visioncortex VTracer 0.6.4 -->
<svg version="1.1" xmlns="http://www.w3.org/2000/svg" width="150" height="139">
<path d="M0 0 C0.33 0 0.66 0 1 0 C1 2.97 1 5.94 1 9 C2.010625 9.144375 3.02125 9.28875 4.0625 9.4375 C9.44103812 10.93518236 12.09879242 15.51422785 15 20 C15.69178499 21.32047558 16.3680812 22.64985154 17 24 C14.69 23.34 12.38 22.68 10 22 C11.43174014 24.75303561 12.87139922 27.50185432 14.3125 30.25 C14.71662109 31.02730469 15.12074219 31.80460937 15.53710938 32.60546875 C17.89395182 37.11866729 17.89395182 37.11866729 20.84375 41.25 C22 43 22 43 21.85546875 45.359375 C21.63503906 46.14828125 21.41460937 46.9371875 21.1875 47.75 C20.97480469 48.54921875 20.76210937 49.3484375 20.54296875 50.171875 C20.36378906 50.77515625 20.18460938 51.3784375 20 52 C16.93865642 52.8095553 14.16683688 53.30259726 11 53 C9.12609302 51.46720611 7.93772014 49.81280758 6.53125 47.84765625 C3.9817462 44.77134172 0.59285697 43.56955035 -3 42 C-7.02596106 39.89552035 -9.57783762 37.89276097 -12 34 C-12.60265997 31.29807447 -12.81169528 28.77749465 -13 26 C-14.19584332 32.19664264 -13.8476512 35.19517255 -11 41 C-9.36492081 45.43807209 -10.6080994 48.46448812 -12.2109375 52.71875 C-13.82064917 57.37256987 -14.12043764 61.78716611 -14.3125 66.6875 C-14.93957308 75.90065069 -17.26412936 83.4097698 -24 90 C-37.89692494 98.99010946 -51.84571932 100.25869578 -67.8125 97.625 C-68.64458984 97.49867187 -69.47667969 97.37234375 -70.33398438 97.2421875 C-74.45742746 96.58084939 -77.17418321 95.9129084 -81 94 C-79.35 89.71 -77.7 85.42 -76 81 C-76.66 81 -77.32 81 -78 81 C-78.16242188 82.11375 -78.16242188 82.11375 -78.328125 83.25 C-80.3366043 91.47075249 -88.75715827 97.9310742 -94.64355469 103.65820312 C-99.17892514 108.07892282 -100.11132021 109.83178924 -100.31640625 116.1015625 C-100.35830078 117.31328125 -100.40019531 118.525 -100.44335938 119.7734375 C-100.48267578 121.04445313 -100.52199219 122.31546875 -100.5625 123.625 C-100.60568359 124.90375 -100.64886719 126.1825 -100.69335938 127.5 C-100.79969886 130.66655348 -100.90172833 133.83318753 -101 137 C-103.64 137 -106.28 137 -109 137 C-109.37435117 123.33419097 -109.70845128 109.66783052 -110 96 C-110.01651611 95.25423706 -110.03303223 94.50847412 -110.05004883 93.7401123 C-110.14286887 89.49347115 -110.2067045 85.24741607 -110.25 81 C-110.2819043 79.49397217 -110.2819043 79.49397217 -110.31445312 77.95751953 C-110.3475694 71.09653787 -109.713607 64.41876705 -105.31640625 58.87890625 C-104.73761719 58.44449219 -104.15882812 58.01007812 -103.5625 57.5625 C-102.98628906 57.11003906 -102.41007812 56.65757813 -101.81640625 56.19140625 C-100.91728516 55.60166016 -100.91728516 55.60166016 -100 55 C-99.46955078 54.65106689 -98.93910156 54.30213379 -98.39257812 53.94262695 C-94.94076854 52.58268442 -91.55790265 52.72172991 -87.90234375 52.7265625 C-86.27929024 52.70625246 -84.65624343 52.68540132 -83.03320312 52.6640625 C-80.49481562 52.64160537 -77.95669468 52.62504464 -75.41821289 52.61914062 C-58.88759533 52.88426814 -58.88759533 52.88426814 -45 45 C-49.455 45.495 -49.455 45.495 -54 46 C-49.2813638 39.29456962 -43.8757271 33.70120055 -38 28 C-36.66440487 26.66893231 -35.33026468 25.33639494 -34 24 C-37.96 24.495 -37.96 24.495 -42 25 C-39.1982 21.21360519 -36.33539855 18.53626518 -32.5 15.8125 C-31.5615625 15.13832031 -30.623125 14.46414063 -29.65625 13.76953125 C-24.99392108 10.66359743 -22.41310062 9.84604917 -16.75 9.8125 C-10.65665329 9.45608377 -7.71033908 8.02195379 -3.48828125 3.69140625 C-2.99714844 3.13324219 -2.50601563 2.57507813 -2 2 C-1.34 1.34 -0.68 0.68 0 0 Z M2 24 C2 25.32 2 26.64 2 28 C3.32 27.67 4.64 27.34 6 27 C5.67 26.01 5.34 25.02 5 24 C4.01 24 3.02 24 2 24 Z " fill="#000000" transform="translate(128,1)"/>
<path d="M0 0 C0.66 0.33 1.32 0.66 2 1 C1.72285156 1.50789063 1.44570313 2.01578125 1.16015625 2.5390625 C0.79792969 3.22742187 0.43570312 3.91578125 0.0625 4.625 C-0.29714844 5.29789063 -0.65679688 5.97078125 -1.02734375 6.6640625 C-3.14638256 11.75315973 -3.07412055 16.8401721 -2.9296875 22.27734375 C-2.54393339 50.54449017 -2.54393339 50.54449017 -12.43359375 60.87890625 C-15 63 -15 63 -17 63 C-16.7046901 52.23595403 -15.71708166 41.57702196 -14.38439941 30.89578247 C-14.21250339 29.51525515 -14.04408392 28.13429017 -13.87927246 26.75289917 C-11.89227498 10.23367937 -11.89227498 10.23367937 -7.24609375 5.0390625 C-6.64925781 4.57242188 -6.05242188 4.10578125 -5.4375 3.625 C-4.83808594 3.14289062 -4.23867187 2.66078125 -3.62109375 2.1640625 C-2 1 -2 1 0 0 Z " fill="#000000" transform="translate(18,58)"/>
<path d="M0 0 C1.73043711 1.62556214 3.37117768 3.27465487 5 5 C5.95326172 5.99966797 5.95326172 5.99966797 6.92578125 7.01953125 C7.56902344 7.75558594 8.21226563 8.49164063 8.875 9.25 C9.79925781 10.27867188 9.79925781 10.27867188 10.7421875 11.328125 C12.66424783 15.41101092 12.38988225 18.74209261 11 23 C9.04664357 25.99285369 6.68348985 28.39311164 4.125 30.875 C3.16787109 31.84953125 3.16787109 31.84953125 2.19140625 32.84375 C0.47856423 34.58162311 -1.2557111 36.29380294 -3 38 C-3.52223145 38.56219238 -4.04446289 39.12438477 -4.58251953 39.70361328 C-6 41 -6 41 -8 41 C-8.97063712 33.35623269 -8.97063712 33.35623269 -6.2890625 29.609375 C-4.84976099 28.0817409 -3.40052698 26.56340267 -1.94140625 25.0546875 C0.60725801 22.35730842 1.91964494 20.7766879 2 17 C0.44097755 14.74710277 -1.2625623 12.86248795 -3.203125 10.9296875 C-4.96747027 9.03493411 -5.97233833 7.3594273 -7 5 C-4.69 3.35 -2.38 1.7 0 0 Z " fill="#000000" transform="translate(109,91)"/>
<path d="M0 0 C2.97 0.495 2.97 0.495 6 1 C5.67386719 1.58007812 5.34773438 2.16015625 5.01171875 2.7578125 C4.57472656 3.53898437 4.13773438 4.32015625 3.6875 5.125 C3.25824219 5.89070313 2.82898437 6.65640625 2.38671875 7.4453125 C1.70029297 8.70988281 1.70029297 8.70988281 1 10 C0.3709375 10.88042969 -0.258125 11.76085937 -0.90625 12.66796875 C-2.6094713 17.85671079 -0.38003283 21.38894557 1.8125 26.1875 C2.59392164 27.97087499 3.37144841 29.75596314 4.14453125 31.54296875 C4.49878174 32.32696045 4.85303223 33.11095215 5.21801758 33.91870117 C6 36 6 36 6 39 C3.69 39 1.38 39 -1 39 C-2.65514646 35.60862954 -4.2974466 32.21119183 -5.9375 28.8125 C-6.40607422 27.85279297 -6.87464844 26.89308594 -7.35742188 25.90429688 C-7.80537109 24.97294922 -8.25332031 24.04160156 -8.71484375 23.08203125 C-9.12855225 22.22843018 -9.54226074 21.3748291 -9.96850586 20.49536133 C-11.01924196 17.9534504 -11.70975361 15.73652678 -12 13 C-10.234375 10.68359375 -10.234375 10.68359375 -7.75 8.4375 C-4.84257199 5.76618477 -2.26489342 3.24291558 0 0 Z " fill="#000000" transform="translate(43,99)"/>
<path d="M0 0 C0.02939331 4.43748574 0.04692963 8.87494593 0.0625 13.3125 C0.07087891 14.55580078 0.07925781 15.79910156 0.08789062 17.08007812 C0.1072306 24.44861031 -0.16096191 31.67757176 -1 39 C-3.31 39 -5.62 39 -8 39 C-8.33894456 34.68792207 -8.67013354 30.37528113 -9 26.0625 C-9.09539062 24.85013672 -9.19078125 23.63777344 -9.2890625 22.38867188 C-9.7811839 15.90321479 -10.11225718 9.50390043 -10 3 C-2.25 0 -2.25 0 0 0 Z " fill="#000000" transform="translate(98,99)"/>
</svg>
