<?xml version="1.0" encoding="UTF-8"?>
<svg id="menu" xmlns="http://www.w3.org/2000/svg" viewBox="0 0 1792 1792">
    <defs>
        <style>
            .cls-1 {
                fill-rule: evenodd;
            }
        </style>
    </defs>    
    
    <path
        d="M0 0 C2.5261876085961603 0.9672313368270551 4.50614656188003 2.251891488988079 6.7314453125 3.792724609375 C7.6302441406249955 4.410588378906247 8.529042968749991 5.028452148437502 9.455078125 5.6650390625 C10.407373046874994 6.328503417968747 11.359667968749989 6.991967773437494 12.3408203125 7.675537109375 C13.316318359375003 8.348669433593756 14.291816406250007 9.021801757812497 15.296875 9.71533203125 C17.28183045266894 11.085393406171931 19.265235657783762 12.457703558562756 21.2470703125 13.832275390625 C23.833796236052365 15.622641496023277 26.42828225395789 17.400675660372116 29.0283203125 19.171630859375 C29.762763671875007 19.6725927734375 30.497207031250014 20.1735546875 31.25390625 20.689697265625 C32.615933465564865 21.61864189205727 33.97853782100282 22.546741037192803 35.341796875 23.473876953125 C37.765392679167405 25.135160554859212 40.00804817305877 26.717764969933768 42.0908203125 28.800537109375 C36.23275391598679 35.59829333741078 30.171651417937426 42.202890340365116 24.0908203125 48.800537109375 C25.169681213858212 51.04269150437162 26.197413453495557 52.93992813990765 27.7158203125 54.925537109375 C29.0908203125 56.800537109375 29.0908203125 56.800537109375 29.0908203125 58.800537109375 C29.750820312499997 58.800537109375 30.410820312499993 58.800537109375 31.0908203125 58.800537109375 C31.3537890625 58.088974609375 31.616757812499998 57.377412109375 31.8876953125 56.644287109375 C34.91325491965969 49.49296440154299 39.257951590052244 41.78637719746952 46.0908203125 37.800537109375 C50.0450123636457 37.732361384355244 52.207045527697204 38.23401481142449 55.5283203125 40.363037109375 C57.8264825949324 43.94817026996955 57.37143514250613 46.59131465928297 57.0908203125 50.800537109375 C56.10082031249999 51.295537109375005 56.10082031249999 51.295537109375005 55.0908203125 51.800537109375 C54.4308203125 48.500537109375 53.77082031250001 45.200537109375006 53.0908203125 41.800537109375 C50.38491635415713 40.84686259337123 50.38491635415713 40.84686259337123 47.0908203125 40.800537109375 C42.229317440685804 44.20032636603969 39.260736984849075 47.97202126511024 36.2783203125 53.050537109375 C35.68869506835938 54.03872436523437 35.68869506835938 54.03872436523437 35.087158203125 55.046875 C32.25211381132402 60.0138338131209 30.989198414690378 64.0080889342269 31.0908203125 69.800537109375 C30.760820312500016 69.800537109375 30.430820312500003 69.800537109375 30.0908203125 69.800537109375 C29.78144531250001 67.851474609375 29.78144531250001 67.851474609375 29.4658203125 65.863037109375 C28.041208523668843 59.63404487407182 25.400977829152225 53.91600749413689 19.8720703125 50.382568359375 C9.495411851761077 45.5920110366672 -4.180587345981905 44.85703680257727 -15.2333984375 47.636474609375 C-20.954591521256845 50.24737129997155 -25.061886121211785 54.18559455207938 -27.9091796875 59.800537109375 C-28.861456170226006 62.7775567932369 -29.49354468142434 65.70477292619064 -29.9091796875 68.800537109375 C-29.228554687500008 68.676787109375 -28.547929687500016 68.553037109375 -27.8466796875 68.425537109375 C-23.41932007350715 68.99073195371452 -20.789694003328236 71.48522817983684 -17.9091796875 74.800537109375 C-16.9716796875 77.675537109375 -16.9716796875 77.675537109375 -16.9091796875 79.800537109375 C-18.56495504970806 78.14476174716694 -20.174611801807487 76.49849366895614 -21.7216796875 74.738037109375 C-24.303860987129752 72.45096224398867 -26.6091568280537 71.70054334376943 -29.9091796875 70.800537109375 C-29.9091796875 72.450537109375 -29.9091796875 74.10053710937501 -29.9091796875 75.800537109375 C-27.92917968750001 75.800537109375 -25.949179687499992 75.800537109375 -23.9091796875 75.800537109375 C-22.9091796875 78.800537109375 -22.9091796875 78.800537109375 -22.9091796875 81.800537109375 C-20.599179687499998 82.79053710937501 -18.289179687499995 83.78053710937502 -15.9091796875 84.800537109375 C-16.239179687499984 85.460537109375 -16.569179687499997 86.120537109375 -16.9091796875 86.800537109375 C-24.6591796875 86.050537109375 -24.6591796875 86.050537109375 -26.9091796875 83.800537109375 C-26.9091796875 82.480537109375 -26.9091796875 81.16053710937501 -26.9091796875 79.800537109375 C-27.89917968750001 79.305537109375 -27.89917968750001 79.305537109375 -28.9091796875 78.800537109375 C-26.98948597021507 88.4526284253327 -25.044444379393383 97.5590515794467 -20.8623046875 106.515380859375 C-19.9091796875 108.800537109375 -19.9091796875 108.800537109375 -19.9091796875 111.800537109375 C-19.249179687500003 111.800537109375 -18.589179687500007 111.800537109375 -17.9091796875 111.800537109375 C-17.727421875000005 113.15598632812501 -17.727421875000005 113.15598632812501 -17.5419921875 114.538818359375 C-17.290625000000006 116.30805664062501 -17.290625000000006 116.30805664062501 -17.0341796875 118.113037109375 C-16.871757812499993 119.284794921875 -16.709335937499986 120.45655273437501 -16.5419921875 121.663818359375 C-16.086173472535506 124.94584605982146 -16.086173472535506 124.94584605982146 -13.9091796875 127.800537109375 C-12.002113923099898 128.2014104170345 -12.002113923099898 128.2014104170345 -9.9091796875 128.050537109375 C-8.857304687500005 128.027333984375 -8.857304687500005 128.027333984375 -7.7841796875 128.003662109375 C-5.819813407851171 127.90097045043146 -5.819813407851171 127.90097045043146 -3.9091796875 126.800537109375 C-1.576193086219007 126.76031320245636 0.7578869677413422 126.75733464002764 3.0908203125 126.800537109375 C3.276445312500016 124.882412109375 3.276445312500016 124.882412109375 3.4658203125 122.925537109375 C3.8408203125 119.050537109375 3.8408203125 119.050537109375 6.0908203125 116.800537109375 C8.2158203125 117.175537109375 8.2158203125 117.175537109375 10.0908203125 117.800537109375 C8.770820312500007 119.120537109375 7.450820312500014 120.44053710937499 6.0908203125 121.800537109375 C8.67415260418619 119.55095377083347 8.67415260418619 119.55095377083347 11.0908203125 116.800537109375 C11.0908203125 115.480537109375 11.0908203125 114.16053710937501 11.0908203125 112.800537109375 C4.160820312499993 112.800537109375 -2.7691796875000136 112.800537109375 -9.9091796875 112.800537109375 C-10.239179687499984 114.450537109375 -10.569179687499997 116.10053710937501 -10.9091796875 117.800537109375 C-9.395743137522771 119.81845250934464 -8.159781017113687 120.67523644456816 -5.9091796875 121.800537109375 C-6.239179687499984 121.140537109375 -6.569179687499997 120.480537109375 -6.9091796875 119.800537109375 C-7.899179687500009 119.47053710937502 -8.88917968749999 119.140537109375 -9.9091796875 118.800537109375 C-9.9091796875 118.140537109375 -9.9091796875 117.480537109375 -9.9091796875 116.800537109375 C-6.0341796875 117.675537109375 -6.0341796875 117.675537109375 -4.9091796875 118.800537109375 C-4.868371858174953 120.8001207463019 -4.866636124518834 122.80098964926088 -4.9091796875 124.800537109375 C-11.980608258928555 121.65767996651786 -11.980608258928555 121.65767996651786 -13.9091796875 117.800537109375 C-13.771330529458254 114.9746293695193 -13.381669301232904 113.39875472858554 -11.623779296875 111.173095703125 C-9.47422276948788 109.4523486154174 -8.329712022369364 109.41433392419668 -5.6005859375 109.402099609375 C-4.771074218750016 109.39823242187498 -3.9415625000000034 109.39436523437502 -3.0869140625 109.390380859375 C-1.7923730468750136 109.407783203125 -1.7923730468750136 109.407783203125 -0.4716796875 109.425537109375 C0.38748046874999886 109.413935546875 1.2466406249999977 109.40233398437499 2.1318359375 109.390380859375 C5.771503254531041 109.40732267776303 8.379453649676634 109.4372629751588 11.6533203125 111.109130859375 C13.0908203125 112.800537109375 13.0908203125 112.800537109375 13.6533203125 116.238037109375 C13.0908203125 119.800537109375 13.0908203125 119.800537109375 10.7783203125 122.113037109375 C9.891445312499997 122.66991210937499 9.004570312499993 123.22678710937498 8.0908203125 123.800537109375 C7.100820312499991 124.460537109375 6.110820312499982 125.120537109375 5.0908203125 125.800537109375 C5.0908203125 126.460537109375 5.0908203125 127.120537109375 5.0908203125 127.800537109375 C6.528215438215199 127.82765777212435 7.9657589410099945 127.84698777986873 9.4033203125 127.863037109375 C10.203828125000001 127.874638671875 11.004335937500002 127.88624023437501 11.8291015625 127.898193359375 C14.259433651465145 127.89711565491271 14.259433651465145 127.89711565491271 17.0908203125 126.800537109375 C18.608902882209406 123.31787709651229 19.264089535860762 119.8300456994624 19.9033203125 116.113037109375 C20.615062746067707 112.29448246578949 21.743366481029057 109.30468461676207 23.5283203125 105.863037109375 C26.7187689433689 99.29446639876255 27.462199643371946 92.51063093479087 28.4150390625 85.351318359375 C28.99642145555498 81.06373765594759 29.968910112843503 76.97786232086202 31.0908203125 72.800537109375 C31.913242187500003 72.63038085937501 32.73566406250001 72.46022460937502 33.5830078125 72.284912109375 C49.6258883229454 68.8573793913258 49.6258883229454 68.8573793913258 61.0908203125 57.800537109375 C62.52783754481385 55.021997954275975 62.52783754481385 55.021997954275975 63.0908203125 52.800537109375 C63.42082031250004 52.800537109375 63.75082031249997 52.800537109375 64.0908203125 52.800537109375 C64.49900394942722 59.86027442509037 64.77762409043635 66.91694912798758 64.9697265625 73.98583984375 C65.04983682990712 76.38543307533888 65.15877731330818 78.78425357967109 65.2978515625 81.18115234375 C66.39004178351001 100.49926687786507 66.39004178351001 100.49926687786507 62.628875732421875 105.89962768554688 C58.93953535274426 109.44074419351932 54.68039571044332 111.70496771108594 50.07147216796875 113.84536743164063 C47.41553120724791 115.1261953896327 45.118144370624066 116.7658906822964 42.7509765625 118.515380859375 C41.987126464843755 119.05018066406251 41.22327636718751 119.58498046875002 40.436279296875 120.135986328125 C39.68290283203123 120.66466308593749 38.92952636718752 121.19333984374998 38.1533203125 121.738037109375 C37.321955566406245 122.3208544921875 36.49059082031249 122.90367187499999 35.634033203125 123.504150390625 C33.11877297450016 125.26839741106443 30.604566824962347 127.0341341157903 28.0908203125 128.800537109375 C26.9185791015625 129.62400634765623 26.9185791015625 129.62400634765623 25.72265625 130.464111328125 C17.126656798881754 136.50617389425554 8.559961583046686 142.58129729947032 0.0908203125 148.800537109375 C-6.030993356060662 145.07144894952413 -11.910834043807824 141.13783207304238 -17.6591796875 136.863037109375 C-24.9958675542899 131.41083515350618 -32.48018463626195 126.18512328775455 -39.998046875 120.986328125 C-41.88631121916018 119.67988145602675 -43.75178415437924 118.34006519419745 -45.596923828125 116.973388671875 C-48.257015823485176 115.22835891152226 -50.483989928441986 114.09324213787119 -53.375732421875 112.885498046875 C-58.637658785845105 110.41842307039343 -62.86958502078423 107.88778622109362 -65.9091796875 102.800537109375 C-68.70888990160071 91.99910313422697 -67.76341162357863 80.46064062603367 -67.30963134765625 69.41339111328125 C-67.19214911794234 66.09021750789017 -67.1536502767334 62.76824520078051 -67.11851215362549 59.44333076477051 C-67.07373076169765 55.460160357112045 -66.98908134056134 51.47818104753432 -66.8974609375 47.495849609375 C-66.88236291885377 46.7438440322876 -66.86726490020752 45.991838455200195 -66.85170936584473 45.217044830322266 C-66.80038511819143 43.079589492510365 -66.72144229899774 40.945045372721935 -66.633056640625 38.808837890625 C-66.59066360473633 37.59704864501953 -66.54827056884767 36.38525939941405 -66.50459289550781 35.136749267578125 C-65.66243202898633 30.41796358351081 -63.31869653534653 27.418871268013618 -60.2216796875 23.863037109375 C-56.44881259772072 22.12955763569262 -52.8700241900593 22.855178752492378 -48.9091796875 23.800537109375 C-47.83667968750001 24.357412109375005 -46.76417968749999 24.914287109374996 -45.6591796875 25.488037109375 C-43.016491459556704 27.13020410905125 -43.016491459556704 27.13020410905125 -40.506103515625 26.06201171875 C-38.01162907869076 24.85030264517293 -35.86409771827999 23.537438726822415 -33.6083984375 21.929443359375 C-32.80337890625 21.35975830078125 -31.998359375000007 20.790073242187503 -31.1689453125 20.203125 C-30.32009765625 19.595895996093745 -29.471249999999998 18.988666992187504 -28.5966796875 18.363037109375 C-26.8090275261321 17.102466908645198 -25.02126554387553 15.842052434991672 -23.2333984375 14.581787109375 C-19.871536477660413 12.199987202891862 -16.5217736641587 9.802371366929975 -13.1787109375 7.394287109375 C-11.755695195664686 6.38364323080458 -10.3325270244502 5.373213930134469 -8.9091796875 4.363037109375 C-8.257800292968739 3.884875488281253 -7.606420898437506 3.4067138671874986 -6.935302734375 2.9140625 C-2.442939573104013 -0.25522783008004524 -2.442939573104013 -0.25522783008004524 0 0 Z "
        fill="#5298A3" transform="translate(195.9091796875,58.199462890625)" />
    <path
        d="M0 0 C3.394145015964682 2.5456087619735115 5.451387810123322 5.081337849964257 7 9 C8.161495227057685 20.479894686035095 6.741201692884204 29.62522535215318 -0.5 38.8125 C-7.4228468601181135 46.069287524984674 -16.237330774331326 48.44601869865855 -26.015625 48.95703125 C-26.997890624999997 48.97830078125 -26.997890624999997 48.97830078125 -28 49 C-27.95875000000001 49.78375 -27.91749999999999 50.567499999999995 -27.875 51.375 C-28.00388540917578 55.11267686609759 -28.584723217179942 58.44969594588531 -29.375 62.09375 C-29.825984775888998 64.19082920788381 -30.23788026673543 66.2964474537082 -30.625 68.40625 C-31.907799237826225 75.11179147045527 -33.562908457227195 80.52573522300898 -36.87109375 86.48046875 C-38.59834865777299 90.33541482444141 -38.99908813501145 94.25976340919257 -39.4453125 98.43359375 C-40.06323618607999 101.29257869193344 -40.71908136063641 102.23540871432317 -43 104 C-45.40545638067232 105.20272819033616 -46.94996952704821 105.10071472104215 -49.625 105.0625 C-50.442265625000005 105.05347656250001 -51.25953125000001 105.04445312500002 -52.1015625 105.03515625 C-52.72804687499999 105.0235546875 -53.35453125000001 105.01195312499999 -54 105 C-54 103.68 -54 102.36000000000001 -54 101 C-52.46875000000003 99.76171875000003 -52.46875000000003 99.76171875000003 -50.5 98.6875 C-48.55767431005259 97.4948670272529 -48.55767431005259 97.4948670272529 -47 96 C-46.165540798959626 92.37111630214633 -46.165540798959626 92.37111630214633 -47 89 C-51.16737024853046 86.22175316764637 -54.60235060556127 86.63227733936765 -59.5 86.625 C-60.367539062499986 86.60050781249998 -61.235078125 86.576015625 -62.12890625 86.55078125 C-67.05750069654468 86.39898570797189 -67.05750069654468 86.39898570797189 -71.08984375 88.8671875 C-72.1539319242338 90.99698874527422 -72.1539319242338 90.99698874527422 -72.0625 93.5 C-70.5688162952172 97.01454989360656 -68.24270646734266 98.13716862514357 -65 100 C-65 98.35 -65 96.69999999999999 -65 95 C-66.32 94.34 -67.63999999999999 93.68 -69 93 C-69 93.66 -69 94.32 -69 95 C-67.68 95.32999999999998 -66.36000000000001 95.66 -65 96 C-65 96.66 -65 97.32 -65 98 C-67.43749999999997 97.3125 -67.43749999999997 97.3125 -70 96 C-70.9375 93.5625 -70.9375 93.5625 -71 91 C-69 88 -69 88 -67.076416015625 87.61181640625 C-66.30998779296874 87.6084326171875 -65.54355957031251 87.605048828125 -64.75390625 87.6015625 C-63.91666015625 87.59769531249998 -63.07941406250001 87.59382812500002 -62.216796875 87.58984375 C-60.902919921875 87.60724609375 -60.902919921875 87.60724609375 -59.5625 87.625 C-58.69044921874999 87.6133984375 -57.81839843750001 87.60179687499999 -56.919921875 87.58984375 C-56.08138671875 87.59371093750002 -55.24285156249999 87.59757812499998 -54.37890625 87.6015625 C-53.22757202148438 87.60663818359376 -53.22757202148438 87.60663818359376 -52.052978515625 87.61181640625 C-49.51841151554487 88.09106025571216 -48.62256514161771 89.04827023976623 -47 91 C-48.47692307692307 95.67692307692306 -48.47692307692307 95.67692307692306 -51.125 97.3125 C-51.743750000000006 97.539375 -52.36250000000001 97.76625000000001 -53 98 C-52.34 96.68 -51.68000000000001 95.36000000000001 -51 94 C-51.99000000000001 94.32999999999998 -52.97999999999999 94.66 -54 95 C-54.80212628014817 96.87387216331447 -54.80212628014817 96.87387216331447 -55.1875 99.0625 C-55.346054687499986 99.79597656250002 -55.504609375 100.529453125 -55.66796875 101.28515625 C-55.77753906250001 101.85105468749998 -55.887109374999994 102.41695312500002 -56 103 C-61.74926719533195 104.49055075434532 -67.05336992245114 105.61516862871196 -73 105 C-75.86862833400465 102.3164444617376 -76.94257307011966 99.45864401896046 -77.09765625 95.51953125 C-77.0860546875 94.62621093749999 -77.07445312499999 93.73289062499998 -77.0625 92.8125 C-77.04896484375001 91.46091796875001 -77.04896484375001 91.46091796875001 -77.03515625 90.08203125 C-77.0235546875 89.3949609375 -77.01195312499999 88.707890625 -77 88 C-77.66 88 -78.32 88 -79 88 C-88 66.12566844919786 -88 66.12566844919786 -88 55 C-87.00999999999999 55.329999999999984 -86.02000000000001 55.66 -85 56 C-84.66999999999999 57.650000000000006 -84.34 59.30000000000001 -84 61 C-81.36000000000001 61.329999999999984 -78.72 61.66 -76 62 C-78.93720507898331 60.4770047738605 -81.91686489923887 59.198996983629314 -85 58 C-84.00999999999999 57.504999999999995 -84.00999999999999 57.504999999999995 -83 57 C-83 55.68000000000001 -83 54.360000000000014 -83 53 C-84.97999999999999 52.670000000000016 -86.96000000000001 52.34 -89 52 C-89 50.349999999999994 -89 48.69999999999999 -89 47 C-83.64951938663262 47.37328934511865 -81.4908709291987 48.99576569886031 -78 53 C-79.39635618232754 49.62547255937514 -80.86063529509059 47.883618822945635 -84 46 C-86.64934822008112 45.285668793474656 -86.64934822008112 45.285668793474656 -89 45 C-88.97116770408826 38.77222408306284 -87.81362127679873 34.625451110328896 -83.8203125 29.79296875 C-76.23939330483705 22.325926023433922 -68.8222073172723 21.75263128712534 -58.69677734375 21.7490234375 C-49.81117153163507 21.85474724921798 -41.949882850825475 23.01986824463853 -35 29 C-32.408309486066656 32.479062809464864 -30.373508032472188 35.879475902583465 -29 40 C-28.648085937500014 39.238164062500005 -28.296171875 38.47632812500001 -27.93359375 37.69140625 C-24.074813288805842 29.621215259356376 -19.825990144191735 20.91435207873458 -12 16 C-8.875 16.125 -8.875 16.125 -6 17 C-3.7036617552734583 20.444507367089813 -3.4598351515656987 22.938122827836196 -3 27 C-2.561290671898746 21.829973162745617 -2.561290671898746 21.829973162745617 -4.0625 17.0625 C-7.111732514406015 15.39034023403542 -9.532410575426724 15.059786024561603 -13 15 C-17.542839068067508 17.89952911579229 -19.998959419377314 21.632559994606055 -22.75 26.125 C-23.148320312500005 26.757929687499995 -23.54664062500001 27.390859375000005 -23.95703125 28.04296875 C-25.386789819246758 30.325735821577055 -26.79469477111408 32.58938954222815 -28 35 C-28.659999999999997 35 -29.319999999999993 35 -30 35 C-32.32923058844926 31.79730794088225 -34.26978364126407 28.553122879546976 -36 25 C-35.536259765625005 24.511203613281253 -35.07251953125001 24.022407226562507 -34.5947265625 23.518798828125 C-32.47781672732441 21.285252656453594 -30.363888221536314 19.048905964480028 -28.25 16.8125 C-27.520390625000005 16.043574218749995 -26.79078125000001 15.274648437500005 -26.0390625 14.482421875 C-22.52367385746095 10.759305721765458 -19.197886023646333 7.00114649404091 -16 3 C-11.043694697083424 -0.42221080439477987 -5.858803833994841 -1.0563452655616743 0 0 Z "
        fill="#282D2A" transform="translate(255,82)" />
    <path
        d="M0 0 C2.5653604241776407 0.9365461569187516 4.524771059644422 2.214527664196737 6.771240234375 3.77001953125 C7.6700390624999955 4.387883300781247 8.568837890624991 5.005747070312502 9.494873046875 5.642333984375 C10.447167968749994 6.305798339843747 11.399462890624989 6.969262695312494 12.380615234375 7.65283203125 C13.356113281250003 8.325964355468756 14.331611328125007 8.999096679687497 15.336669921875 9.692626953125 C17.32162537454394 11.062688328046931 19.305030579658762 12.434998480437756 21.286865234375 13.8095703125 C23.873591157927336 15.599936417898263 26.46807717583289 17.37797058224713 29.068115234375 19.14892578125 C29.802558593750007 19.6498876953125 30.537001953125014 20.150849609375 31.293701171875 20.6669921875 C32.655728387439865 21.59593681393227 34.01833274287782 22.524035959067803 35.381591796875 23.451171875 C37.805187601042405 25.112455476734198 40.04784309493377 26.695059891808768 42.130615234375 28.77783203125 C41.513154296875 29.311503906249996 40.895693359375 29.845175781249992 40.259521484375 30.39501953125 C35.59326083303773 34.500192524359505 31.38553973365339 38.59035522868258 27.443115234375 43.40283203125 C23.612669689820564 47.744003648411706 23.612669689820564 47.744003648411706 19.568115234375 48.02783203125 C17.866552734375006 47.409082031249994 17.866552734375006 47.409082031249994 16.130615234375 46.77783203125 C10.361230077626402 45.107422439926424 5.189018984289021 44.42505244751737 -0.806884765625 44.46533203125 C-1.9904858398437568 44.46617797851562 -1.9904858398437568 44.46617797851562 -3.197998046875 44.467041015625 C-8.974971566596707 44.558369487263505 -13.481510146361387 45.641261061542025 -18.869384765625 47.77783203125 C-21.844669403382568 47.59409931457573 -22.797066932279222 46.84879050682612 -24.947509765625 44.73876953125 C-25.664228515624984 43.88541015625 -26.380947265624997 43.03205078125001 -27.119384765625 42.15283203125 C-30.60011050773045 38.1370525800275 -34.175405685580586 34.569135662156015 -38.240478515625 31.15283203125 C-39.869384765625 29.77783203125 -39.869384765625 29.77783203125 -41.869384765625 27.77783203125 C-34.337367706897794 22.254660723930726 -26.73188236544675 16.850243023347872 -19.056884765625 11.52783203125 C-17.56125 10.487558593749995 -17.56125 10.487558593749995 -16.035400390625 9.42626953125 C-14.13619042434675 8.10705781814653 -12.23387784938808 6.79229685011137 -10.327880859375 5.48291015625 C-8.862548280431895 4.4666358035847935 -7.407835294205029 3.4343201149725218 -5.977294921875 2.36962890625 C-2.354226917289168 -0.27978927709718704 -2.354226917289168 -0.27978927709718704 0 0 Z "
        fill="#4E96A1" transform="translate(195.869384765625,58.22216796875)" />
    <path
        d="M0 0 C0.3299999999999841 0 0.6599999999999682 0 1 0 C1.4081836369272196 7.059737315715395 1.6868037779363476 14.116412018612564 1.87890625 21.185302734375 C1.9590165174071785 23.58489596596388 2.0679570008081782 25.983716470296088 2.20703125 28.380615234375 C3.2989936590133766 47.6947003437993 3.2989936590133766 47.6947003437993 -0.457916259765625 53.0960693359375 C-4.143603683860647 56.63570618749989 -8.40219883201081 58.894106689332204 -13.00640869140625 61.035125732421875 C-15.717517877441253 62.34727004150048 -18.062988043150852 64.03283189527775 -20.48046875 65.8203125 C-21.265830078124992 66.37122558593751 -22.051191406249984 66.92213867187502 -22.8603515625 67.48974609375 C-23.628310546875014 68.02937988281252 -24.39626953125 68.56901367187498 -25.1875 69.125 C-32.772350808341685 74.44495044133589 -40.373749731829605 79.73955729677297 -48 85 C-48.66 84.67000000000002 -49.31999999999999 84.34 -50 84 C-49.49479528105482 77.55863983344898 -49.49479528105482 77.55863983344898 -47.0625 74.8125 C-44.76928842787282 71.68539331073566 -44.56402639568208 70.09323744437262 -44.0625 66.3125 C-43.4816328093097 62.05453603967203 -42.64826696845424 58.880622071175026 -40.5625 55.125 C-37.26334900468362 49.04914420803905 -36.219580788638126 42.75248120262921 -35 36 C-34.718896551288395 34.51534998348316 -34.43629620414504 33.03098275356979 -34.15234375 31.546875 C-33.419451419332376 27.70066278015878 -32.70525124024138 23.85137202117636 -32 20 C-31.177578124999997 19.82984375000001 -30.355156249999993 19.65968749999999 -29.5078125 19.484375 C-13.4649319895546 16.056842281950793 -13.4649319895546 16.056842281950793 -2 5 C-0.562982767686151 2.2214608449009745 -0.562982767686151 2.2214608449009745 0 0 Z "
        fill="#5099A4" transform="translate(259,111)" />
    <path
        d="M0 0 C5.444866884315161 2.773800110877545 8.538801111097087 6.48215087810479 11 12 C11.631846303348766 14.73180607624326 11.849105003262025 17.183293394224535 12 20 C11.419921875 20.112148437499997 10.83984375 20.224296874999993 10.2421875 20.33984375 C5.482886248777078 21.541449511447382 2.5286460941961195 22.889993323241782 -0.375 26.9375 C-3.53437083604706 32.255774240679216 -4.837510814987581 37.97341133033035 -6 44 C-9.625522929098565 40.8066586121185 -11.637659270334495 37.23814623674923 -13.6875 32.9375 C-14.148662109374982 32.000673828125 -14.148662109374982 32.000673828125 -14.619140625 31.044921875 C-15.913636619338263 28.390780197330514 -17.06515080802302 25.804547575930968 -18 23 C-18.531093749999997 24.10859375000001 -19.062187499999993 25.217187499999994 -19.609375 26.359375 C-20.322484976110815 27.823127056227463 -21.036050713586917 29.28665713635897 -21.75 30.75 C-22.098046874999994 31.479609374999995 -22.44609374999999 32.20921874999999 -22.8046875 32.9609375 C-24.761387460405302 36.94680778971451 -26.566094462016338 40.06107183686083 -30 43 C-30.14695312500001 42.3825390625 -30.293906249999992 41.765078125 -30.4453125 41.12890625 C-32.56489756237724 33.12564541102381 -35.84445431576896 25.657455770801278 -43 21 C-45.64934822008112 20.285668793474656 -45.64934822008112 20.285668793474656 -48 20 C-47.97116770408826 13.772224083062838 -46.81362127679873 9.625451110328896 -42.8203125 4.79296875 C-32.31162423325236 -5.557863684414528 -12.991490792529618 -6.16228824039905 0 0 Z "
        fill="#FAF8E9" transform="translate(214,107)" />
    <path
        d="M0 0 C2.8343928008496846 1.4171964004248423 3.2542872344735088 3.2176966905413735 4.625 6.0625 C5.148359374999984 7.1375781250000045 5.671718749999997 8.212656250000009 6.2109375 9.3203125 C6.637778320312492 10.2025146484375 6.637778320312492 10.2025146484375 7.0732421875 11.1025390625 C8.066706439996551 13.136575988317475 9.081423521269443 15.15890264404328 10.1015625 17.1796875 C10.457827148437502 17.886013183593747 10.814091796875005 18.592338867187493 11.18115234375 19.320068359375 C11.881123758502895 20.706740830857854 12.581938347538653 22.0929880783587 13.28369140625 23.478759765625 C16.38480295337689 29.652454484134466 18.289933670553467 34.01948209120229 18.3125 41 C18.329257812500003 42.19624999999999 18.346015625000007 43.392499999999984 18.36328125 44.625 C17.968741964281435 48.29039723506273 17.388126620620653 50.19631830662817 15 53 C12.73828125 53.48828125 12.73828125 53.48828125 10.3125 53.3125 C9.504257812499986 53.26738281249999 8.696015625000001 53.222265625000006 7.86328125 53.17578125 C6.940957031250008 53.088769531249994 6.940957031250008 53.088769531249994 6 53 C6 51.68000000000001 6 50.360000000000014 6 49 C7.53125 47.76171875 7.53125 47.76171875 9.5 46.6875 C11.44232568994741 45.494867027252894 11.44232568994741 45.494867027252894 13 44 C13.834459201040374 40.37111630214633 13.834459201040374 40.37111630214633 13 37 C8.83262975146954 34.22175316764637 5.39764939443873 34.632277339367675 0.5 34.625 C-0.36753906249998636 34.600507812499984 -1.2350781250000011 34.576015625 -2.12890625 34.55078125 C-7.057500696544679 34.39898570797186 -7.057500696544679 34.39898570797186 -11.08984375 36.8671875 C-12.153931924233802 38.99698874527428 -12.153931924233802 38.99698874527428 -12.0625 41.5 C-10.568816295217204 45.01454989360656 -8.242706467342657 46.13716862514357 -5 48 C-5 46.349999999999994 -5 44.69999999999999 -5 43 C-6.319999999999993 42.34 -7.639999999999986 41.68000000000001 -9 41 C-9 41.66 -9 42.31999999999999 -9 43 C-7.680000000000007 43.329999999999984 -6.360000000000014 43.66 -5 44 C-5 44.66 -5 45.31999999999999 -5 46 C-7.4375 45.3125 -7.4375 45.3125 -10 44 C-10.9375 41.5625 -10.9375 41.5625 -11 39 C-9 36 -9 36 -7.076416015625 35.61181640625 C-6.309987792968741 35.6084326171875 -5.54355957031251 35.60504882812501 -4.75390625 35.6015625 C-3.9166601562500034 35.59769531250001 -3.079414062500007 35.593828125000016 -2.216796875 35.58984375 C-1.3408789062499977 35.601445312500005 -0.46496093749999545 35.61304687500001 0.4375 35.625 C1.3095507812500102 35.613398437499995 2.181601562499992 35.60179687499999 3.080078125 35.58984375 C4.337880859374991 35.59564453125 4.337880859374991 35.59564453125 5.62109375 35.6015625 C6.772427978515623 35.60663818359376 6.772427978515623 35.60663818359376 7.947021484375 35.61181640625 C10.481588484455102 36.091060255712165 11.377434858382259 37.0482702397662 13 39 C11.523076923076928 43.67692307692309 11.523076923076928 43.67692307692309 8.875 45.3125 C8.256249999999994 45.53937500000001 7.637499999999989 45.766250000000014 7 46 C7.659999999999997 44.68000000000001 8.319999999999993 43.360000000000014 9 42 C7.514999999999986 42.495000000000005 7.514999999999986 42.495000000000005 6 43 C5.1978737198518274 44.8738721633145 5.1978737198518274 44.8738721633145 4.8125 47.0625 C4.653945312500014 47.795976562500016 4.495390624999999 48.529453125 4.33203125 49.28515625 C4.167675781250011 50.13400390625 4.167675781250011 50.13400390625 4 51 C-1.749267195331953 52.49055075434532 -7.0533699224511395 53.615168628711956 -13 53 C-15.512527042950921 50.65497475991248 -15.97646583336953 49.176400239968956 -16.43359375 45.75 C-16.45049364999025 29.52609600936296 -10.348229701579356 18.457854074302105 -2.059814453125 4.894287109375 C-0.8570667304695689 2.8832498320361424 -0.8570667304695689 2.8832498320361424 0 0 Z "
        fill="#F6F4E8" transform="translate(195,134)" />
    <path
        d="M0 0 C10.695489991909994 4.861586359959077 18.585910324576787 13.657332242701642 26.12109375 22.37890625 C24.406743611123744 25.931163294518356 22.343673518305565 29.119122589818502 20.12109375 32.37890625 C15.985510217454248 31.000378405818083 14.827995932865775 28.128476653925603 12.68359375 24.56640625 C9.043299184280954 18.456682104416984 9.043299184280954 18.456682104416984 4.12109375 13.37890625 C0.5244609725336886 12.929327152816711 -1.9310802026101044 13.014357770234653 -5.31640625 14.31640625 C-7.849413496722605 17.659975815673818 -7.184355580403235 21.33170262215718 -6.87890625 25.37890625 C-6.769335937499989 24.752421874999996 -6.659765625000006 24.125937499999992 -6.546875 23.48046875 C-6.388320312500014 22.663203124999995 -6.229765624999999 21.845937500000005 -6.06640625 21.00390625 C-5.915585937499998 20.191796874999994 -5.7647656249999955 19.379687500000003 -5.609375 18.54296875 C-4.87890625 16.37890625 -4.87890625 16.37890625 -1.87890625 14.37890625 C0.53125 13.984375 0.53125 13.984375 3.12109375 14.37890625 C9.614170207796462 19.584659723120296 15.400636606105934 27.49627018142172 18.12109375 35.37890625 C18.288968779476193 38.8623131116308 17.929096301957344 41.99264100952418 17.12109375 45.37890625 C9.35373716532223 45.34647469849821 3.8913008028389413 43.708639482011534 -1.87890625 38.37890625 C-7.6278107624789016 31.180698078912968 -9.366620066136846 26.12007770568431 -9.28125 16.890625 C-8.79139416351299 12.615087165030843 -7.835565350289613 10.394353573003727 -4.74609375 7.4453125 C-1.3884287491403882 5.527650271475579 1.3447937870569149 5.923145909644802 5.12109375 6.37890625 C2.267849377225673 4.9522840636128365 0.2865482596776019 5.068567572580633 -2.87890625 5.37890625 C-6.366539712317888 7.598309362384114 -8.383949110968985 9.545171720129346 -9.87890625 13.37890625 C-10.751371830099572 22.046908441898267 -10.17737002594393 28.614458573636526 -5.19140625 35.81640625 C-4.75828125000001 36.33203125 -4.325156249999992 36.84765625 -3.87890625 37.37890625 C-4.2089062500000125 38.03890625 -4.538906249999997 38.69890624999999 -4.87890625 39.37890625 C-11.725609028484712 31.88963266058954 -16.441399125991467 24.053662608907956 -16.1328125 13.5 C-15.553624521897689 8.661552736776116 -14.310792409973686 4.066486367111835 -11.12890625 0.31640625 C-7.303499819061926 -1.2775130962241974 -3.9534993527847746 -1.3068740064298936 0 0 Z "
        fill="#F1F0E6" transform="translate(146.87890625,83.62109375)" />
    <path
        d="M0 0 C10.427434912826868 4.083471014813327 18.390137834069378 12.782520332835617 25.11328125 21.4453125 C26.888650652817518 23.26699682354817 26.888650652817518 23.26699682354817 29.29296875 22.8671875 C30.632949218750014 22.437929687500002 30.632949218750014 22.437929687500002 32 22 C37.4548933602091 20.255740686016964 42.14203695598195 19.64903580977031 47.8125 19.6875 C48.60422607421873 19.688789062500007 49.395952148437516 19.690078125 50.211669921875 19.69140625 C55.45801617912085 19.777438370647673 60.03426483284784 20.40692386866145 64.95703125 22.34375 C67.54969508121928 23.176575093011166 69.29171112084433 23.408559908675116 72 23 C74.32440387972832 21.062959231549897 74.32440387972832 21.062959231549897 76.375 18.4375 C80.0768811115741 14.078333464930353 83.89886320765675 9.98245437713075 88 6 C88.99000000000001 6.4950000000000045 88.99000000000001 6.4950000000000045 90 7 C89.35933593750002 7.629062500000003 88.71867187499998 8.258125000000007 88.05859375 8.90625 C82.81386016091972 14.096269527793282 77.75821515223072 19.359466806296055 73 25 C74.07886090135821 27.242154394996618 75.10659314099556 29.13939103053265 76.625 31.125 C78 33 78 33 78 35 C78.66 35 79.32 35 80 35 C80.26296875 34.2884375 80.5259375 33.576875 80.796875 32.84375 C83.82243460715969 25.69242729216799 88.16713127755224 17.98584008809452 95 14 C98.9541920511457 13.931824274980244 101.11622521519718 14.433477702049487 104.4375 16.5625 C106.7356622824324 20.147633160594552 106.28061483000613 22.790777549907972 106 27 C105.34 27.33 104.68 27.659999999999997 104 28 C103.00999999999999 23.049999999999997 103.00999999999999 23.049999999999997 102 18 C99.29409604165713 17.046325483996227 99.29409604165713 17.046325483996227 96 17 C91.1384971281858 20.39978925666469 88.16991667234907 24.171484155735243 85.1875 29.25 C84.59787475585938 30.238187255859373 84.59787475585938 30.238187255859373 83.996337890625 31.246337890625 C81.16129349882402 36.2132967037459 79.89837810219038 40.20755182485189 80 46 C79.67000000000002 46 79.34 46 79 46 C78.69062500000001 44.0509375 78.69062500000001 44.0509375 78.375 42.0625 C76.95038821116884 35.83350776469683 74.31015751665223 30.115470384761892 68.78125 26.58203125 C58.40459153926108 21.791473927292202 44.728592341518095 21.05649969320227 33.67578125 23.8359375 C27.954588166243155 26.446834190596533 23.847293566288215 30.38505744270438 21 36 C20.047723517273994 38.977019683861926 19.41563500607569 41.90423581681563 19 45 C19.680624999999992 44.87625 20.361249999999984 44.7525 21.0625 44.625 C25.489859613992877 45.190194844339516 28.119485684171735 47.68469107046181 31 51 C31.9375 53.875 31.9375 53.875 32 56 C30.344224637791967 54.34422463779197 28.734567885692485 52.69795655958109 27.1875 50.9375 C24.605318700370248 48.65042513461364 22.3000228594463 47.900006234394425 19 47 C19 48.650000000000006 19 50.30000000000001 19 52 C20.97999999999999 52 22.960000000000008 52 25 52 C26 55 26 55 26 58 C28.310000000000002 58.99000000000001 30.620000000000005 59.97999999999999 33 61 C32.504999999999995 61.99000000000001 32.504999999999995 61.99000000000001 32 63 C24.25 62.25 24.25 62.25 22 60 C22 58.68000000000001 22 57.360000000000014 22 56 C21.00999999999999 55.504999999999995 21.00999999999999 55.504999999999995 20 55 C20.622311069852316 57.854776509759404 21.247765359174196 60.708804807874145 21.875 63.5625 C22.04902343750001 64.36236328125 22.223046874999994 65.1622265625 22.40234375 65.986328125 C23.444436033285484 70.71433941027675 24.617317226406783 75.35991591744619 26 80 C25.00999999999999 80.495 25.00999999999999 80.495 24 81 C20.52631088275959 73.57893688589547 19.018767643290346 66.28109444700368 18.21875 58.15234375 C17.907109328789176 55.086022145764986 17.453982489751695 52.0481681454757 17 49 C16.417343749999986 48.98582031250001 15.834687500000001 48.97164062499999 15.234375 48.95703125 C5.44519761484608 48.38753508136682 -3.9239986474060515 45.35776492558054 -10.6015625 37.8984375 C-15.680375926725134 31.003735473775393 -17.195944038936716 24.59473317059924 -17.3125 16.125 C-17.34150390625001 15.430195312500004 -17.370507812499994 14.735390625000008 -17.400390625 14.01953125 C-17.476036347608897 7.839857603026019 -15.245012547499499 4.577606998980926 -11.3125 0.0625 C-7.452334076455088 -1.7110897486557803 -4.0336078628596965 -1.040931061383148 0 0 Z M-11.8125 3.0625 C-15.840473950836412 8.471493591123192 -16.74157075001193 14.373706524087055 -16 21 C-14.62929964091606 28.70084383558077 -11.360825385612003 34.32915097762971 -6 40 C-5.340000000000003 40.33 -4.680000000000007 40.66 -4 41 C-5.086324118873392 38.743788368493696 -6.23345964990267 36.62646456015574 -7.5625 34.5 C-10.975654227690882 28.564079604015845 -10.612603760908343 21.66413550717857 -10 15 C-8.573611913212403 11.179822005187646 -6.3986540490928405 9.265769366061889 -3 7 C-0.73828125 7.0234375 -0.73828125 7.0234375 1.6875 7.375 C2.899863281249992 7.541289062499999 2.899863281249992 7.541289062499999 4.13671875 7.7109375 C4.751601562500014 7.806328124999993 5.366484374999999 7.901718750000001 6 8 C4.430709201227785 8 2.8708610588950023 7.7473902951231395 1.3125 7.5625 C-2.156139427697724 7.606248605394384 -3.974543079953463 8.220089949645427 -6.5 10.625 C-9.87854073193921 15.200880716609987 -9.83634180675142 19.965962723793467 -9.578125 25.48828125 C-8.372431966281738 32.81205177238317 -4.7317390103456205 37.91460879172351 1 42.5 C6.219365706636381 46.012652966063285 10.687359763240124 47.300601916036186 17 47 C18.64564626483235 40.749309985678735 18.27656974550399 36.60211613517558 15.0625 30.9375 C13.753370431597205 28.92825939004581 12.398542229666134 26.94806254709546 11 25 C10.338710937499997 24.077031250000005 9.677421874999993 23.154062499999995 8.99609375 22.203125 C7.117678020406856 19.8358065462662 5.398057005277423 17.838510370712697 3 16 C-0.8339030069562909 15.473529319524175 -0.8339030069562909 15.473529319524175 -4 17 C-6.296338244726542 20.444507367089813 -6.540164848434301 22.938122827836196 -7 27 C-7.6177076183939505 18.815374056280035 -7.6177076183939505 18.815374056280035 -5.4375 15.9375 C-1.8356422495726292 14.552170095989482 0.15594555584445402 14.283311883293038 4 15 C9.492938094818896 19.384606904955206 12.982915071072455 25.91859380391152 16.51953125 31.875 C17.252363281249984 32.926874999999995 17.252363281249984 32.926874999999995 18 34 C18.659999999999997 34 19.319999999999993 34 20 34 C21.584558661846387 32.21276059071823 21.584558661846387 32.21276059071823 23.125 30 C23.66382812500001 29.257499999999993 24.20265624999999 28.515 24.7578125 27.75 C25.16773437500001 27.1725 25.57765624999999 26.595 26 26 C21.732379573889887 15.840153644658301 10.231186530441164 6.24194532899719 0.4296875 1.84765625 C-4.333274413466853 0.18597982681301062 -7.685759992410254 0.036223994434195106 -11.8125 3.0625 Z "
        fill="#1D2725" transform="translate(147,82)" />
    <path
        d="M0 0 C3.6923896153791986 3.797886461532883 4.494207650397271 6.727830610669869 4.5625 12 C4.465043353410124 17.715136203591726 3.3409459113811693 21.530857167583434 0.1875 26.25 C-0.34874999999999545 27.136875000000003 -0.8849999999999909 28.023750000000007 -1.4375 28.9375 C-7.117461008045126 34.467988349938665 -14.025508694288249 36.81738937190491 -21.8125 37.25 C-23.420582162675288 32.26142394790517 -23.468849459675113 28.170301789695742 -21.12109375 23.45703125 C-17.416663572108888 16.823345056774713 -13.419445945302755 10.239099438673378 -6.8125 6.25 C-3.5 6.1875 -3.5 6.1875 -0.8125 7.25 C1.4838382447265417 10.694507367089813 1.7276648484343013 13.188122827836196 2.1875 17.25 C2.626209328101254 12.079973162745617 2.626209328101254 12.079973162745617 1.125 7.3125 C-1.9242325144059862 5.640340234035435 -4.3449105754267805 5.309786024561603 -7.8125 5.25 C-12.355339068067508 8.149529115792276 -14.811459419377314 11.882559994606055 -17.5625 16.375 C-18.159980468750007 17.324394531249993 -18.159980468750007 17.324394531249993 -18.76953125 18.29296875 C-20.199289819246758 20.575735821577055 -21.60719477111408 22.83938954222816 -22.8125 25.25 C-23.472499999999997 25.25 -24.132499999999993 25.25 -24.8125 25.25 C-27.141730588449263 22.04730794088225 -29.08228364126407 18.803122879546976 -30.8125 15.25 C-28.648279434136157 12.770304571031446 -26.452490872309482 10.320724413425722 -24.25 7.875 C-23.64091796874999 7.176328124999998 -23.031835937500006 6.4776562499999955 -22.404296875 5.7578125 C-16.64296763764608 -0.5826979834371144 -8.291413433911373 -5.159101692211522 0 0 Z "
        fill="#F7F6EA" transform="translate(249.8125,91.75)" />
    <path
        d="M0 0 C6.493076457796462 5.205753473120296 12.279542856105934 13.117363931421721 15 21 C15.167875029476193 24.483406861630783 14.808002551957344 27.613734759524178 14 31 C6.223131104733426 30.967528731126237 0.784156686474887 29.321424151556897 -5 24 C-11 16.73814432989691 -11 16.73814432989691 -11 12 C-10.340000000000003 12 -9.680000000000007 12 -9 12 C-9.123750000000001 10.143749999999997 -9.123750000000001 10.143749999999997 -9.25 8.25 C-9.24442437163728 5.105345603420233 -9.134120909489667 4.198697643688391 -7.3125 1.5 C-4.496254554280739 -0.32675380262870135 -3.3053399232782112 -0.45607806063037515 0 0 Z "
        fill="#F7F4E7" transform="translate(150,98)" />
    <path
        d="M0 0 C2.8993235689316066 2.3950933830304564 3.501682760471084 4.312452427485994 4 8 C4.659999999999997 8 5.319999999999993 8 6 8 C6.1211718749999875 8.903632812500007 6.242343750000003 9.807265625000014 6.3671875 10.73828125 C6.534765625000006 11.917773437499989 6.702343750000011 13.097265625000006 6.875 14.3125 C7.037421875000007 15.484257812500005 7.199843750000014 16.65601562500001 7.3671875 17.86328125 C7.823006214964522 21.14530895044649 7.823006214964522 21.14530895044649 10 24 C11.907065764400102 24.400873307659538 11.907065764400102 24.400873307659538 14 24.25 C15.051874999999995 24.22679687499999 15.051874999999995 24.22679687499999 16.125 24.203125 C18.08936627964883 24.10043334105643 18.08936627964883 24.10043334105643 20 23 C22.332986601280993 22.95977609308136 24.66706665524137 22.956797530652608 27 23 C27.12375 21.721249999999998 27.247500000000002 20.442499999999995 27.375 19.125 C27.75 15.25 27.75 15.25 30 13 C32.125 13.375 32.125 13.375 34 14 C32.68000000000001 15.319999999999993 31.360000000000014 16.639999999999986 30 18 C32.58333229168619 15.750416661458445 32.58333229168619 15.750416661458445 35 13 C35 11.680000000000007 35 10.360000000000014 35 9 C28.069999999999993 9 21.139999999999986 9 14 9 C13.669999999999987 10.650000000000006 13.340000000000003 12.300000000000011 13 14 C14.513436549977229 16.017915399969638 15.749398670386313 16.874699335193156 18 18 C17.670000000000016 17.340000000000003 17.340000000000003 16.680000000000007 17 16 C16.00999999999999 15.669999999999987 15.02000000000001 15.340000000000003 14 15 C14 14.340000000000003 14 13.680000000000007 14 13 C17.875 13.875 17.875 13.875 19 15 C19.040807829325047 16.9995836369269 19.042543562981166 19.000452539885885 19 21 C11.928571428571416 17.85714285714286 11.928571428571416 17.85714285714286 10 14 C10.137849158041746 11.174092260144306 10.527510386267096 9.598217619210544 12.285400390625 7.37255859375 C14.434956918012091 5.651811506042435 15.579467665130636 5.613796814821711 18.30859375 5.6015625 C19.138105468749984 5.597695312500008 19.967617187499997 5.5938281249999875 20.822265625 5.58984375 C21.68529296874999 5.6014453125000045 22.54832031250001 5.613046875000009 23.4375 5.625 C24.29666015625 5.6133984374999955 25.155820312499998 5.601796874999991 26.041015625 5.58984375 C29.68068294203104 5.606785568388034 32.288633337176634 5.636725865783802 35.5625 7.30859375 C37 9 37 9 37.5625 12.4375 C37 16 37 16 34.6875 18.3125 C33.800625 18.86937499999999 32.91374999999999 19.42625000000001 32 20 C31.00999999999999 20.659999999999997 30.02000000000001 21.319999999999993 29 22 C29 22.659999999999997 29 23.319999999999993 29 24 C30.458232116898245 24.027004298461065 31.91660675393041 24.046397866368324 33.375 24.0625 C34.593164062499994 24.079902343750007 34.593164062499994 24.079902343750007 35.8359375 24.09765625 C38.04937142416395 24.14466334445177 38.04937142416395 24.14466334445177 40 23 C38.6048549726373 27.439097814335867 36.523041891373225 29.980249807394387 33 33 C27.237293400554734 34.97015610237446 20.445400537778482 34.738234124612376 14.6875 33 C9.944148647395252 29.470064109689503 6.280566804113448 24.46711220164181 4 19 C3.69140625 16.6328125 3.69140625 16.6328125 3.5625 14.125 C3.217424099768863 9.785990069315858 2.146626789955178 6.826595582094029 0 3 C0 2.009999999999991 0 1.0200000000000102 0 0 Z "
        fill="#192726" transform="translate(172,162)" />
    <path
        d="M0 0 C0.9900000000000091 0.3300000000000125 1.9799999999999898 0.6599999999999966 3 1 C3.3300000000000125 2.6500000000000057 3.6599999999999966 4.300000000000011 4 6 C6.018229166666657 6.162760416666657 8.036458333333343 6.325520833333343 10.0546875 6.48828125 C12 7 12 7 14 10 C16.1154128488852 18.602678918799853 13.262583289042368 25.063681480287926 10 33 C3.687494546360284 23.53124181954044 0 11.33496928732231 0 0 Z "
        fill="#F2F3E8" transform="translate(167,137)" />
    <path
        d="M0 0 C0.3300000000000125 0 0.6599999999999966 0 1 0 C1.3618838540730849 9.783342813562285 -1.8187432488742843 19.21936082263599 -6 28 C-6.659999999999997 28 -7.319999999999993 28 -8 28 C-13.702074815863568 14.376250775520589 -13.702074815863568 14.376250775520589 -12.4375 9.375 C-10.09803921568627 3.882352941176464 -10.09803921568627 3.882352941176464 -9 2 C-7.329374999999999 2.0618749999999864 -7.329374999999999 2.0618749999999864 -5.625 2.125 C-1.956339754813257 2.4112185883866175 -1.956339754813257 2.4112185883866175 0 0 Z "
        fill="#F1F0E7" transform="translate(222,141)" />
    <path
        d="M0 0 C2.4588075158247307 2.4588075158247307 2.186106473044674 3.1349409136863073 2.25 6.5 C2.78847406143845 13.245611424201826 5.83888450745647 19.293103044249136 11.01171875 23.72265625 C15.904395835678798 26.865888876752393 21.39243840783911 26.45361028221106 27 26 C30.59347950063264 25.020538330801003 33.33433962477926 23.66566037522074 36 21 C36.4375 24.16015625 36.4375 24.16015625 36 28 C33.99607161524523 30.313314649514183 31.580116818970765 31.82119129776831 29 33.4375 C28.33226562499999 33.88287109375 27.66453125000001 34.328242187499995 26.9765625 34.787109375 C25.331850919920186 35.879667781767296 23.667669900007496 36.94281640267383 22 38 C20.183811437198784 36.880964542853945 18.3721447414311 35.754587163441045 16.5625 34.625 C15.553164062500002 33.99851562500001 14.543828125000005 33.37203124999999 13.50390625 32.7265625 C11 31 11 31 10 29 C10.990000000000009 28.670000000000016 11.97999999999999 28.340000000000003 13 28 C12.552695312499992 27.648085937500014 12.105390625000013 27.296171875 11.64453125 26.93359375 C1.5100835970339688 18.657488310584228 1.5100835970339688 18.657488310584228 0.47265625 11.21875 C0.17087700003767736 7.480138734704269 0.0530851886796313 3.7497446912792896 0 0 Z "
        fill="#5C9C9E" transform="translate(174,169)" />
    <path
        d="M0 0 C3.4377978546589816 3.3223681456704384 4.796188700668154 4.931983247076772 5.69921875 9.6640625 C5.67175799926963 18.945796246868582 4.63711521898432 26.203714502184567 -1 34 C-3.203125 35.82421875 -3.203125 35.82421875 -5 37 C-3.9631122527689513 34.28813973801107 -2.9352434168791035 31.89788384969397 -1.375 29.4375 C0.8686939620278622 23.82826509493033 1.1865062185880788 17.523010772115285 -0.76171875 11.73828125 C-2.6065191266073384 8.260139828491333 -4.371082908422721 6.393714535170986 -8 5 C-10.362222318728413 4.7602023766867205 -10.362222318728413 4.7602023766867205 -12.75 4.875 C-13.948828125000006 4.902070312500001 -13.948828125000006 4.902070312500001 -15.171875 4.9296875 C-16.076796875000014 4.964492187499999 -16.076796875000014 4.964492187499999 -17 5 C-11.383468201005826 0.18582988657641408 -7.441436707914335 -2.12612477368981 0 0 Z "
        fill="#EAEAE5" transform="translate(255,84)" />
    <path
        d="M0 0 C0.3299999999999841 0 0.6599999999999966 0 1 0 C1 2.3100000000000023 1 4.6200000000000045 1 7 C1.6599999999999966 7.3300000000000125 2.319999999999993 7.659999999999997 3 8 C1.6800000000000068 8 0.36000000000001364 8 -1 8 C-1.3300000000000125 9.650000000000006 -1.6599999999999966 11.300000000000011 -2 13 C-4.969999999999999 13.659999999999997 -7.939999999999998 14.319999999999993 -11 15 C-11 15.330000000000013 -11 15.659999999999997 -11 16 C-9.349999999999994 16 -7.699999999999989 16 -6 16 C-6 15.340000000000003 -6 14.680000000000007 -6 14 C-4.680000000000007 14 -3.3600000000000136 14 -2 14 C-2.6599999999999966 15.319999999999993 -3.319999999999993 16.639999999999986 -4 18 C-4.659999999999997 17.670000000000016 -5.319999999999993 17.340000000000003 -6 17 C-6 17.659999999999997 -6 18.319999999999993 -6 19 C-7.319999999999993 19 -8.639999999999986 19 -10 19 C-10 19.659999999999997 -10 20.319999999999993 -10 21 C-10.659999999999997 21 -11.319999999999993 21 -12 21 C-12 20.00999999999999 -12 19.02000000000001 -12 18 C-14.783918302052797 19.391959151026413 -14.978989974163113 21.155757785168703 -16 24 C-17.235570196389375 20.293289410831846 -17.066359433135062 18.767803330410516 -16 15 C-13.36578070691695 10.63402543090865 -10.867750565122947 6.908543785929396 -6 5 C-3.25 4.875 -3.25 4.875 -1 5 C-0.6700000000000159 3.3499999999999943 -0.3400000000000034 1.7000000000000028 0 0 Z "
        fill="#3A3B35" transform="translate(227,122)" />
    <path
        d="M0 0 C0.8295117187500125 -0.003867187499992042 1.6590234374999966 -0.0077343750000125056 2.513671875 -0.01171875 C3.376699218749991 -0.00011718749999545253 4.23972656250001 0.011484375000009095 5.12890625 0.0234375 C5.988066406249999 0.011835937499995453 6.847226562499998 0.00023437499999090505 7.732421875 -0.01171875 C11.372089192031012 0.00522306838803388 13.980039587176634 0.03516336578380219 17.25390625 1.70703125 C18.69140625 3.3984375 18.69140625 3.3984375 19.25390625 6.8359375 C18.69140625 10.3984375 18.69140625 10.3984375 16.50390625 12.5859375 C15.575781250000006 13.18406250000001 14.647656250000011 13.782187499999992 13.69140625 14.3984375 C12.763281250000006 15.140937500000007 11.835156250000011 15.883437500000014 10.87890625 16.6484375 C10.157031249999989 17.225937499999986 9.435156250000006 17.8034375 8.69140625 18.3984375 C8.80550218269164 16.939210571364725 8.933061686301443 15.48103152387742 9.06640625 14.0234375 C9.136015624999999 13.211328124999994 9.205624999999998 12.399218749999989 9.27734375 11.5625 C9.69140625 9.3984375 9.69140625 9.3984375 11.69140625 7.3984375 C13.81640625 7.7734375 13.81640625 7.7734375 15.69140625 8.3984375 C14.371406250000007 9.718437499999993 13.051406250000014 11.038437499999986 11.69140625 12.3984375 C14.27473854168619 10.148854161458445 14.27473854168619 10.148854161458445 16.69140625 7.3984375 C16.69140625 6.078437500000007 16.69140625 4.758437500000014 16.69140625 3.3984375 C9.761406249999993 3.3984375 2.8314062499999864 3.3984375 -4.30859375 3.3984375 C-4.6385937500000125 5.048437500000006 -4.968593749999997 6.698437500000011 -5.30859375 8.3984375 C-3.7951572000227713 10.416352899969638 -2.559195079613687 11.273136835193156 -0.30859375 12.3984375 C-0.6385937500000125 11.738437500000003 -0.9685937499999966 11.078437500000007 -1.30859375 10.3984375 C-2.298593750000009 10.068437499999987 -3.2885937499999898 9.738437500000003 -4.30859375 9.3984375 C-4.30859375 8.738437500000003 -4.30859375 8.078437500000007 -4.30859375 7.3984375 C-0.43359375 8.2734375 -0.43359375 8.2734375 0.69140625 9.3984375 C0.7322140793250469 11.3980211369269 0.7339498129811659 13.398890039885885 0.69140625 15.3984375 C-6.380022321428584 12.255580357142861 -6.380022321428584 12.255580357142861 -8.30859375 8.3984375 C-8.170744591958254 5.572529760144306 -7.781083363732904 3.996655119210544 -6.023193359375 1.77099609375 C-3.873636831987909 0.050249006042434985 -2.729126084869364 0.012234314821711223 0 0 Z "
        fill="#33322D" transform="translate(190.30859375,167.6015625)" />
    <path
        d="M0 0 C4.013496450849061 0.2800113802917963 5.720351415057223 0.7576378930495764 8.8125 3.4375 C11 6 11 6 12 8 C12.659999999999997 7.6699999999999875 13.319999999999993 7.340000000000003 14 7 C18.889141557703226 17.233086981239325 18.889141557703226 17.233086981239325 19 22 C17.50390625 24.16796874999997 17.50390625 24.16796874999997 16 26 C15.496632333265893 24.376040027560208 14.997410242957756 22.750794590408248 14.5 21.125 C14.221562500000005 20.220078124999986 13.943125000000009 19.31515625 13.65625 18.3828125 C13 16 13 16 13 14 C10.030000000000001 13.009999999999991 7.060000000000002 12.02000000000001 4 11 C4.659999999999997 10.669999999999987 5.319999999999993 10.340000000000003 6 10 C6 8.680000000000007 6 7.360000000000014 6 6 C3.030000000000001 5.5049999999999955 3.030000000000001 5.5049999999999955 0 5 C0 3.3499999999999943 0 1.6999999999999886 0 0 Z "
        fill="#444440" transform="translate(166,129)" />
    <path
        d="M0 0 C0.9900000000000091 0.3300000000000125 1.9799999999999898 0.6599999999999966 3 1 C2.3400000000000034 1 1.6800000000000068 1 1 1 C1.0618749999999864 2.1756249999999966 1.0618749999999864 2.1756249999999966 1.125 3.375 C0.9962303652953324 7.10931940643556 0.4154739718816245 10.444623990310248 -0.37109375 14.0859375 C-0.8295349616253134 16.21014336256195 -1.2547531541630974 18.341599450918153 -1.66015625 20.4765625 C-2.9891597700935506 27.25956407249936 -4.394682044617468 33.06867046049973 -8 39 C-8.990000000000009 39.495000000000005 -8.990000000000009 39.495000000000005 -10 40 C-9.564200039224687 35.96885036282842 -8.479543106885671 32.55424307466018 -7 28.8125 C-4.880856483717963 23.222875072995237 -4.230004798537237 17.94562404218749 -4 12 C-4.659999999999997 12.659999999999997 -5.319999999999993 13.319999999999993 -6 14 C-8.688393845932552 14.2699190608366 -11.291419363690153 14.087373568913222 -14 14 C-13.669999999999987 12.680000000000007 -13.340000000000003 11.360000000000014 -13 10 C-12.340000000000003 10 -11.680000000000007 10 -11 10 C-11 10.990000000000009 -11 11.97999999999999 -11 13 C-10.340000000000003 13 -9.680000000000007 13 -9 13 C-9.330000000000013 12.009999999999991 -9.659999999999997 11.02000000000001 -10 10 C-8.349999999999994 10.330000000000013 -6.699999999999989 10.659999999999997 -5 11 C-5 10.340000000000003 -5 9.680000000000007 -5 9 C-4.009999999999991 8.669999999999987 -3.0200000000000102 8.340000000000003 -2 8 C-1.6699999999999875 7.340000000000003 -1.3400000000000034 6.680000000000007 -1 6 C-2.319999999999993 6 -3.6399999999999864 6 -5 6 C-5 6.659999999999997 -5 7.319999999999993 -5 8 C-7.310000000000002 8.330000000000013 -9.620000000000005 8.659999999999997 -12 9 C-9.481692531737906 5.877298739354984 -8.273845103167872 5.054769020633557 -4.25 4.25 C-2.6412500000000136 4.126249999999999 -2.6412500000000136 4.126249999999999 -1 4 C-0.6699999999999875 2.680000000000007 -0.3400000000000034 1.3600000000000136 0 0 Z "
        fill="#203635" transform="translate(226,130)" />
    <path
        d="M0 0 C1.3326141404512555 0.19254500888649773 2.665926980311582 0.3803374189983799 4 0.5625 C4.990000000000009 0.7068749999999966 5.97999999999999 0.8512499999999932 7 1 C3.947191407668896 4.2633471159401495 2.0550992890429427 5.834574051036782 -2.5234375 6.203125 C-12.122026887280242 6.360910031023792 -12.122026887280242 6.360910031023792 -16 3 C-16.330000000000013 2.3400000000000034 -16.659999999999997 1.6800000000000068 -17 1 C-10.869203513465806 -0.71719068257093 -6.271097606150988 -1.1126140914138887 0 0 Z "
        fill="#E8EBE4" transform="translate(201,188)" />
    <path
        d="M0 0 C3.7315285752535488 1.1747404773946357 5.264154845873236 1.7695815595622406 7.375 5.0625 C7.6966815450237505 7.820523738482251 7.561269095457789 10.268463568133186 7.375 13.0625 C6.384999999999991 13.557500000000005 6.384999999999991 13.557500000000005 5.375 14.0625 C4.715000000000003 10.762500000000003 4.055000000000007 7.462500000000006 3.375 4.0625 C0.6690960416571272 3.1088254839962275 0.6690960416571272 3.1088254839962275 -2.625 3.0625 C-7.722286869846357 6.570310319034064 -10.497026744130494 10.538083244245513 -13.5 15.875 C-13.902187499999997 16.56787109375 -14.304374999999993 17.2607421875 -14.71875 17.974609375 C-15.697805063462766 19.664644901215496 -16.662885068789052 21.362763621527307 -17.625 23.0625 C-18.61500000000001 22.402500000000003 -19.60499999999999 21.742500000000007 -20.625 21.0625 C-19.965000000000003 21.0625 -19.305000000000007 21.0625 -18.625 21.0625 C-18.230546874999987 19.995156250000008 -18.230546874999987 19.995156250000008 -17.828125 18.90625 C-14.58998271261774 11.252459138914645 -9.285224982953878 0.1600900859129979 0 0 Z "
        fill="#282722" transform="translate(245.625,95.9375)" />
    <path
        d="M0 0 C0.6599999999999966 0.9900000000000091 1.3199999999999932 1.9799999999999898 2 3 C-4.511667491953432 16.370110175786067 -4.511667491953432 16.370110175786067 -8.25 22.25 C-13.414711076608853 30.706353602767535 -14.512975776608897 39.22592765470279 -15 49 C-15.330000000000013 49 -15.659999999999997 49 -16 49 C-18.184762922780067 34.0628708866449 -13.444102407928028 25.22639234360551 -5.8857421875 12.72412109375 C-3.3813624938426017 8.560740047166007 -1.2948224343150514 4.729910186527377 0 0 Z "
        fill="#282821" transform="translate(194,131)" />
    <path
        d="M0 0 C3.3801889936787006 2.5351417452590397 5.5007629681652475 5.072795031654067 7 9 C7.139588566387033 11.62426504807604 7.189313691714972 14.132927467906413 7.125 16.75 C7.115976562500009 17.447382812499995 7.106953125000018 18.144765625000005 7.09765625 18.86328125 C7.074198875665502 20.575669576417866 7.03833104389696 22.28788003926809 7 24 C4.218928421031649 19.828392631547445 4.663538659631911 16.14902881271587 4.5390625 11.2265625 C3.897324914734952 7.385437533123678 2.739815474995396 5.724978929101937 0 3 C-4.358463130525337 1.575117822712869 -7.12578478332955 1.781443697204935 -11.1875 3.6875 C-14.268228936255014 5.404333407194542 -16.688184480143207 7.302881893500427 -19 10 C-19.659999999999997 9.670000000000002 -20.319999999999993 9.340000000000003 -21 9 C-15.40758926474075 1.5982799092157052 -9.488297847906836 -1.710744854046638 0 0 Z "
        fill="#33332E" transform="translate(255,82)" />
    <path
        d="M0 0 C0.6599999999999966 0.3299999999999983 1.3199999999999932 0.6599999999999966 2 1 C1.0390039062500023 1.9435937500000051 1.0390039062500023 1.9435937500000051 0.05859375 2.90625 C-5.186139839080283 8.096269527793297 -10.241784847769281 13.359466806296055 -15 19 C-13.925096252721715 21.23860389107088 -12.919374995413335 23.102331736590756 -11.375 25.0625 C-10 27 -10 27 -10 30 C-9.340000000000003 30 -8.680000000000007 30 -8 30 C-8 33.3 -8 36.599999999999994 -8 40 C-8.330000000000013 40 -8.659999999999997 40 -9 40 C-9.206250000000011 38.700625 -9.412499999999994 37.401250000000005 -9.625 36.0625 C-10.823794910267452 30.581053707400315 -13.457988079132718 26.31201451236018 -17 22 C-17.659999999999997 21.67 -18.319999999999993 21.340000000000003 -19 21 C-19 19 -19 19 -16.95703125 16.83203125 C-15.97271520725684 15.886601766970145 -14.986876435597736 14.942756532857558 -14 14 C-12.813723134829587 12.819095461419678 -11.630282786503642 11.635336818219102 -10.44921875 10.44921875 C-6.966145833333343 6.966145833333329 -3.483072916666657 3.4830729166666714 0 0 Z "
        fill="#19221F" transform="translate(235,88)" />
    <path
        d="M0 0 C2.4588075158247307 2.4588075158247307 2.186106473044674 3.1349409136863073 2.25 6.5 C2.78847406143845 13.245611424201826 5.83888450745647 19.293103044249136 11.01171875 23.72265625 C15.100469177084136 26.34941732987528 19.010621651658624 26.119268831492462 23.6875 26.0625 C24.38939453124999 26.057988281250005 25.09128906250001 26.05347656250001 25.814453125 26.048828125 C27.543005381843585 26.03706926610991 29.271513654967237 26.01913453518486 31 26 C30.670000000000016 26.659999999999997 30.340000000000003 27.319999999999993 30 28 C12.994007407087736 29.032984926903566 12.994007407087736 29.032984926903566 8.75 25.4375 C7.2890625 23.7421875 7.2890625 23.7421875 6 22 C5.512734375000008 21.528203125000005 5.0254687499999875 21.05640625000001 4.5234375 20.5703125 C-0.6209021277601323 15.023622286828441 0.1009869180252565 7.133348664147519 0 0 Z "
        fill="#5B8D91" transform="translate(174,169)" />
    <path
        d="M0 0 C0.3299999999999841 0 0.660000000000025 0 1 0 C1 15.180000000000007 1 30.360000000000014 1 46 C0.6700000000000159 46 0.339999999999975 46 0 46 C-0.3299999999999841 33.46000000000001 -0.660000000000025 20.919999999999987 -1 8 C-2.6499999999999773 9.650000000000006 -4.300000000000011 11.299999999999997 -6 13 C-6.659999999999997 12.670000000000002 -7.319999999999993 12.340000000000003 -8 12 C-7.590078124999991 11.552695312499992 -7.18015625000001 11.105390624999998 -6.7578125 10.64453125 C-3.7435992581105495 7.262555148454183 -1.339494546546291 4.420332003602795 0 0 Z "
        fill="#5B9092" transform="translate(259,111)" />
    <path
        d="M0 0 C0.9900000000000091 0.3300000000000125 1.9799999999999898 0.6599999999999966 3 1 C-5.107390945457638 7.0751382817962565 -13.133184906206964 13.055446641814228 -22 18 C-21.669999999999987 16.680000000000007 -21.340000000000003 15.360000000000014 -21 14 C-19.680000000000007 13.669999999999987 -18.360000000000014 13.340000000000003 -17 13 C-17 12.340000000000003 -17 11.680000000000007 -17 11 C-11.70588235294116 7 -11.70588235294116 7 -8 7 C-8 6.340000000000003 -8 5.680000000000007 -8 5 C-6.209635416666657 3.990885416666657 -4.419270833333343 2.981770833333343 -2.62890625 1.97265625 C-1.0212185411206463 1.102748695370309 -1.0212185411206463 1.102748695370309 0 0 Z "
        fill="#679A9C" transform="translate(242,171)" />
    <path
        d="M0 0 C0.0427210013209276 1.6661190515158069 0.0406383207578358 3.333828848928249 0 5 C-1.917116068785532 6.917116068785532 -5.181080976011003 6.899916345513532 -7.7734375 7.40234375 C-10.260682078834463 7.9426539995936025 -10.260682078834463 7.9426539995936025 -13 10 C-11.2275239477392 3.7963338170871737 -6.7901057816145 -0.9985449678844702 0 0 Z "
        fill="#E3E4E1" transform="translate(226,129)" />
    <path
        d="M0 0 C0 4.13122742155079 -1.427759399396166 5.818544520305807 -4 9 C-9.261895475555178 11.823456108834478 -15.183431853623773 11.186295776930194 -21 11 C-21 10.340000000000003 -21 9.680000000000007 -21 9 C-20.275546875000003 8.962617187500001 -19.551093750000007 8.925234375000002 -18.8046875 8.88671875 C-13.138088478862784 8.50139001656268 -8.850963819903342 8.015463996156143 -4 5 C-4.659999999999997 4.340000000000003 -5.319999999999993 3.680000000000007 -6 3 C-4.02000000000001 2.009999999999991 -2.039999999999992 1.0200000000000102 0 0 Z "
        fill="#102120" transform="translate(211,185)" />
    <path
        d="M0 0 C5.75 1.875 5.75 1.875 8 3 C8 3.6599999999999966 8 4.319999999999993 8 5 C9.319999999999993 5.3300000000000125 10.639999999999986 5.659999999999997 12 6 C12 6.659999999999997 12 7.319999999999993 12 8 C13.650000000000006 8 15.300000000000011 8 17 8 C17.329999999999984 8.990000000000009 17.659999999999997 9.97999999999999 18 11 C18.99000000000001 11.330000000000013 19.97999999999999 11.659999999999997 21 12 C22.35368596380195 13.31266517702008 23.6879959588575 14.645673247852898 25 16 C25.659999999999997 16.329999999999984 26.319999999999993 16.659999999999997 27 17 C26.670000000000016 17.659999999999997 26.340000000000003 18.319999999999993 26 19 C22.97833023170608 16.93872340368887 19.95781955377666 14.875754404090628 16.9375 12.8125 C16.089941406250006 12.23435546875001 15.242382812500011 11.656210937499992 14.369140625 11.060546875 C4.093669257840332 4.038313546863861 4.093669257840332 4.038313546863861 0 1 C0 0.6699999999999875 0 0.3400000000000034 0 0 Z "
        fill="#639898" transform="translate(150,174)" />
    <path
        d="M0 0 C1.77734375 1.5546875 1.77734375 1.5546875 3 3 C2.5049999999999955 2.8349999999999937 2.009999999999991 2.6700000000000017 1.5 2.5 C-2.077835795595007 1.7844328408809957 -5.4088611048287305 1.2803471658486103 -9 2 C-12.417536012344243 4.763114222746424 -13.668845391400538 6.339284350904137 -14.5234375 10.625 C-14.78262607349967 13.090793996537485 -14.946127921663987 15.521884396543527 -15 18 C-15.330000000000013 18 -15.659999999999997 18 -16 18 C-17.597051597051603 9.21621621621621 -17.597051597051603 9.21621621621621 -15.3125 4.5625 C-14.549374999999998 3.7168750000000017 -13.786249999999995 2.8712500000000034 -13 2 C-12.443125000000009 1.3606249999999989 -11.88624999999999 0.7212499999999977 -11.3125 0.0625 C-7.626286228691981 -1.631165786817192 -3.848349788341011 -1.1197776548027178 0 0 Z "
        fill="#33322D" transform="translate(153,89)" />
    <path
        d="M0 0 C4.8534989313247365 2.4743327885184954 7.272439517301223 4.817318551903696 9 10 C9.225720074689377 13.350689108722406 9.178854942575185 16.648125890997818 9 20 C8.670000000000016 20 8.340000000000003 20 8 20 C7.902031249999993 19.347734375 7.804062499999986 18.695468750000003 7.703125 18.0234375 C6.737582053490314 12.380005450572767 5.650502943881605 8.449050462855723 2 4 C-1.9676942151393177 2.016152892430341 -6.855294857821718 2.673694354502956 -11 4 C-7.433630777793866 0.271523085875387 -5.244934021733883 -0.5043205790128695 0 0 Z "
        fill="#232320" transform="translate(247,88)" />
    <path
        d="M0 0 C3.9578178572311344 0.27612682724867454 5.699565084886899 0.7405334824023271 8.75 3.375 C11 6 11 6 13 9 C12.669999999999987 9.990000000000009 12.340000000000003 10.97999999999999 12 12 C11.504999999999995 11.216250000000002 11.009999999999991 10.432500000000005 10.5 9.625 C7.142557632094196 6.099685513698915 4.727082505848273 5.866631792738843 0 5 C0 3.3499999999999943 0 1.6999999999999886 0 0 Z "
        fill="#EAEBE5" transform="translate(166,129)" />
    <path
        d="M0 0 C0.10312500000000568 0.6393750000000011 0.20625000000001137 1.2787500000000023 0.3125 1.9375 C0.5393750000000068 2.618124999999992 0.7662500000000136 3.2987500000000125 1 4 C1.990000000000009 4.3300000000000125 2.9799999999999898 4.659999999999997 4 5 C3.7446242786467963 7.106098596101077 3.470146264719915 9.209887542937253 3.1875 11.3125 C3.0366796874999977 12.484257812500005 2.8858593749999955 13.656015625000009 2.73046875 14.86328125 C2.001350046666886 17.99420274078335 1.5082853573191812 19.096451934308476 -1 21 C-1.3300000000000125 20.340000000000003 -1.6599999999999966 19.680000000000007 -2 19 C-1.6699999999999875 18.340000000000003 -1.3400000000000034 17.680000000000007 -1 17 C-0.9539721870595201 14.491484194743663 -0.9531443220205063 12.006778771903214 -1 9.5 C-1.1351351351351298 2.2702702702702595 -1.1351351351351298 2.2702702702702595 0 0 Z "
        fill="#2C3C3A" transform="translate(213,165)" />
    <path
        d="M0 0 C2.5327864043126453 1.3116215308047643 4.595813092426084 3.0512557184780107 6.75 4.90625 C6.097734375000016 4.787656249999998 5.445468750000003 4.669062500000003 4.7734375 4.546875 C-1.1275703703765032 3.6522312823782954 -1.1275703703765032 3.6522312823782954 -6.625 5.71875 C-7.491250000000008 6.440624999999997 -8.357499999999987 7.162499999999994 -9.25 7.90625 C-11.5 9.21875 -11.5 9.21875 -13.25 9.90625 C-13.909999999999997 9.576250000000002 -14.569999999999993 9.246250000000003 -15.25 8.90625 C-13.176927676740974 7.369420373075329 -11.093525129089102 5.8522536529731894 -9 4.34375 C-8.413476562499994 3.9061132812500006 -7.826953124999989 3.468476562500001 -7.22265625 3.017578125 C-2.828134686918787 -0.11783894528828398 -2.828134686918787 -0.11783894528828398 0 0 Z "
        fill="#629699" transform="translate(196.25,58.09375)" />
    <path
        d="M0 0 C2.7114424450211345 1.3557212225105673 2.7454920864475127 2.6134229272493315 3.75 5.4375 C5.600762860349192 10.335336314840418 8.038419206757226 14.51558151527783 10.92578125 18.87109375 C11.2802734375 19.573632812499994 11.634765625 20.27617187499999 12 21 C11.669999999999987 21.99000000000001 11.340000000000003 22.97999999999999 11 24 C9.537040032018211 21.606886472128537 8.07954779585532 19.210719141939364 6.625 16.8125 C6.212500000000006 16.13896484374999 5.800000000000011 15.465429687500006 5.375 14.771484375 C0 5.885395665322591 0 5.885395665322591 0 0 Z "
        fill="#262620" transform="translate(195,129)" />
    <path
        d="M0 0 C0.3300000000000125 0 0.6599999999999966 0 1 0 C1.1469531250000102 0.7618359374999955 1.293906249999992 1.5236718750000051 1.4453125 2.30859375 C3.0542186432682854 9.715109961252267 5.423548329172064 14.99579739008368 10 21 C10.659999999999997 21.989999999999995 11.319999999999993 22.980000000000004 12 24 C11.009999999999991 24 10.02000000000001 24 9 24 C6.9921875 21.734375 6.9921875 21.734375 4.875 18.75 C4.171171874999999 17.77546875 3.4673437499999977 16.800937500000003 2.7421875 15.796875 C0.2483769098597861 11.793358447218836 -0.1309428657100966 8.90411486828711 -0.0625 4.25 C-0.053476562500009095 3.4507812500000057 -0.04445312499998977 2.651562499999997 -0.03515625 1.828125 C-0.023554687499995453 1.2248437500000051 -0.011953124999990905 0.621562499999996 0 0 Z "
        fill="#151814" transform="translate(136,101)" />
    <path
        d="M0 0 C1.3199999999999932 0 2.6399999999999864 0 4 0 C3.3400000000000034 1.3199999999999932 2.680000000000007 2.6399999999999864 2 4 C1.3400000000000034 3.6699999999999875 0.6800000000000068 3.3400000000000034 0 3 C0 3.6599999999999966 0 4.319999999999993 0 5 C-1.3199999999999932 5 -2.6399999999999864 5 -4 5 C-4 5.659999999999997 -4 6.319999999999993 -4 7 C-4.659999999999997 7 -5.319999999999993 7 -6 7 C-6 6.009999999999991 -6 5.02000000000001 -6 4 C-8.783918302052797 5.391959151026413 -8.978989974163113 7.155757785168703 -10 10 C-11 7 -11 7 -10 3 C-6.699999999999989 2.6699999999999875 -3.4000000000000057 2.3400000000000034 0 2 C0 1.3400000000000034 0 0.6800000000000068 0 0 Z "
        fill="#6F706D" transform="translate(221,136)" />
    <path
        d="M0 0 C0.6599999999999966 1.3199999999999932 1.3199999999999932 2.6400000000000006 2 4 C1.1750000000000114 4.618750000000006 0.3499999999999943 5.237499999999997 -0.5 5.875 C-2.4901300673089395 7.809070065412911 -2.96918043721314 8.762508074995381 -3.33203125 11.55859375 C-3.314322586499344 14.055515303592443 -3.217319910942706 16.51289435254469 -3 19 C-3.6599999999999966 19.33 -4.319999999999993 19.659999999999997 -5 20 C-5.861403453491306 6.026121754474417 -5.861403453491306 6.026121754474417 -2.5 2.125 C-1.2624999999999886 1.0731250000000045 -1.2624999999999886 1.0731250000000045 0 0 Z "
        fill="#DFDED7" transform="translate(143,91)" />
    <path
        d="M0 0 C0.3300000000000125 0 0.6599999999999966 0 1 0 C1.0863671875000023 0.8572265625000028 1.1727343750000045 1.7144531250000057 1.26171875 2.59765625 C2.150802628613633 9.832678271378782 3.1408874437514385 14.501530528455561 8 20 C7.6699999999999875 20.659999999999997 7.340000000000003 21.319999999999993 7 22 C-2 12.15533980582525 -2 12.15533980582525 -2 7 C-1.3400000000000034 7 -0.6800000000000068 7 0 7 C0 4.689999999999998 0 2.3799999999999955 0 0 Z "
        fill="#C6C9C5" transform="translate(135,101)" />
    <path
        d="M0 0 C0.6599999999999966 0 1.3199999999999932 0 2 0 C0.6509670006676629 3.6017244671169664 -0.9571698158665356 6.829488701213037 -2.9375 10.125 C-3.4415234374999955 10.973203124999998 -3.945546874999991 11.821406249999995 -4.46484375 12.6953125 C-5.831917123621679 14.747661839533833 -7.186746924314718 16.34371510101583 -9 18 C-9.659999999999997 17.340000000000003 -10.319999999999993 16.680000000000007 -11 16 C-10.340000000000003 16 -9.680000000000007 16 -9 16 C-8.7421875 15.294882812499992 -8.484375 14.589765624999998 -8.21875 13.86328125 C-6.896698138865872 10.757306845476549 -5.302521463451058 8.040219349995638 -3.5 5.1875 C-2.5873437500000023 3.7237695312499994 -2.5873437500000023 3.7237695312499994 -1.65625 2.23046875 C-1.1096875000000068 1.4944140624999989 -0.5631250000000136 0.7583593749999977 0 0 Z "
        fill="#272720" transform="translate(236,101)" />
    <path
        d="M0 0 C0 0.6599999999999966 0 1.3199999999999932 0 2 C-1.9799999999999898 2.6599999999999966 -3.960000000000008 3.319999999999993 -6 4 C-6.659999999999997 7.299999999999997 -7.319999999999993 10.599999999999994 -8 14 C-8.659999999999997 13.670000000000002 -9.319999999999993 13.340000000000003 -10 13 C-10.293554544282813 9.947032739458649 -10.419271695354894 7.04496068751493 -10 4 C-6.950508398070326 0.4277384091681 -4.650768895464807 -0.531516445195976 0 0 Z "
        fill="#1D1C17" transform="translate(149,96)" />
    <path
        d="M0 0 C0.9900000000000091 0.3300000000000125 1.9799999999999898 0.6599999999999966 3 1 C2.3400000000000034 1 1.6800000000000068 1 1 1 C1.0618749999999864 2.2993749999999977 1.0618749999999864 2.2993749999999977 1.125 3.625 C0.9954227895078134 7.123584683288954 0.23980343902815093 9.74551597255109 -1 13 C-1.3300000000000125 13 -1.6599999999999966 13 -2 13 C-1.6699999999999875 10.689999999999998 -1.3400000000000034 8.379999999999995 -1 6 C-2.319999999999993 6 -3.6399999999999864 6 -5 6 C-5 6.659999999999997 -5 7.319999999999993 -5 8 C-7.310000000000002 8.330000000000013 -9.620000000000005 8.659999999999997 -12 9 C-9.481692531737906 5.877298739354984 -8.273845103167844 5.054769020633557 -4.25 4.25 C-2.6412500000000136 4.126249999999999 -2.6412500000000136 4.126249999999999 -1 4 C-0.6699999999999875 2.680000000000007 -0.3400000000000034 1.3600000000000136 0 0 Z "
        fill="#0B1412" transform="translate(226,130)" />
    <path
        d="M0 0 C0.3300000000000125 0 0.6599999999999966 0 1 0 C2.2834790951955597 6.026771403526922 2.21024415216948 9.834662725227844 -0.9921875 15.17578125 C-2.1084880216102704 16.982629141168786 -2.1084880216102704 16.982629141168786 -2.4453125 19.16796875 C-2.6283593750000023 19.7725390625 -2.8114062500000045 20.377109375000003 -3 21 C-3.990000000000009 21.33 -4.97999999999999 21.659999999999997 -6 22 C-6.3300000000000125 21.010000000000005 -6.659999999999997 20.019999999999996 -7 19 C-5.7051317882216495 17.303276136290435 -4.366393415306021 15.639672098367214 -3 14 C-0.6618221783775198 9.56976833797846 -0.40699033365936543 4.9160148197276925 0 0 Z "
        fill="#3A3C39" transform="translate(254,101)" />
    <path
        d="M0 0 C0.3299999999999841 0 0.660000000000025 0 1 0 C1.40625 2.19921875 1.40625 2.19921875 1 5 C-1.1644877549239823 6.870141205834045 -3.1031958162637636 8.315120255274962 -5.5 9.8125 C-6.1200390625000125 10.219199218749992 -6.740078124999997 10.625898437500013 -7.37890625 11.044921875 C-8.909210687248077 12.045505545508377 -10.45336222118408 13.024853378466332 -12 14 C-12.330000000000013 13.009999999999991 -12.659999999999997 12.02000000000001 -13 11 C-12.113124999999997 10.422500000000014 -11.226249999999993 9.844999999999999 -10.3125 9.25 C-8.171789077924132 7.832980949926139 -6.247765829472314 6.3845356786591765 -4.25 4.75 C-2 3 -2 3 0 3 C0 2.009999999999991 0 1.0200000000000102 0 0 Z "
        fill="#659A9D" transform="translate(259,157)" />
    <path
        d="M0 0 C2.625 0.375 2.625 0.375 5 1 C5 2.6500000000000057 5 4.300000000000011 5 6 C3.0199999999999996 6 1.0399999999999991 6 -1 6 C-1.625 4.125 -1.625 4.125 -2 2 C-1.3399999999999999 1.3400000000000034 -0.6799999999999997 0.6800000000000068 0 0 Z "
        fill="#F5F1E1" transform="translate(27,125)" />
    <path
        d="M0 0 C0.6599999999999966 0.3300000000000125 1.3199999999999932 0.6599999999999966 2 1 C0.3010225868314649 2.4692224604980595 -1.4096347137256657 3.9249445446694438 -3.125 5.375 C-4.076328125000003 6.187109375000006 -5.027656250000007 6.999218750000011 -6.0078125 7.8359375 C-8.989164374028377 9.992163267900423 -11.470019718018023 11.04680057667548 -15 12 C-10.58990583204536 7.1488964152498795 -5.419956473655276 3.651893002637621 0 0 Z "
        fill="#E5F9F1" transform="translate(220,189)" />
    <path
        d="M0 0 C1.0060434429205998 3.1299129335307896 0.8594135088720805 4.870108910256448 0 8 C-0.13019531250000682 8.648398437499992 -0.26039062500001364 9.296796875000013 -0.39453125 9.96484375 C-1.3718875725981547 14.577600225813711 -2.6949677140236474 17.47463222829188 -6 21 C-6.659999999999997 20.670000000000016 -7.319999999999993 20.340000000000003 -8 20 C-7.381249999999994 19.422500000000014 -6.762499999999989 18.845 -6.125 18.25 C-3.434964547229015 14.135828131056144 -3.0812699924509843 10.563046264752018 -2.4921875 5.7421875 C-2 3 -2 3 0 0 Z "
        fill="#598E92" transform="translate(218,168)" />
    <path
        d="M0 0 C5.958651867097899 5.8058659217877135 5.958651867097899 5.8058659217877135 6.09765625 9.8203125 C6.0860546874999955 10.910859375000001 6.074453124999991 12.001406250000002 6.0625 13.125 C6.053476562500009 14.220703125 6.04445312499999 15.31640625 6.03515625 16.4453125 C6.0235546874999955 17.288359375 6.011953124999991 18.131406249999998 6 19 C5.340000000000003 18.67 4.680000000000007 18.340000000000003 4 18 C4.08250000000001 16.824375000000003 4.164999999999992 15.648750000000007 4.25 14.4375 C4.2842162152120125 9.613013655107153 2.5270703372906667 7.02751835005698 0 3 C0 2.010000000000005 0 1.019999999999996 0 0 Z "
        fill="#DAD9D4" transform="translate(248,91)" />
    <path
        d="M0 0 C0.3299999999999841 0 0.660000000000025 0 1 0 C1 4.290000000000006 1 8.579999999999998 1 13 C0.6700000000000159 13 0.339999999999975 13 0 13 C-0.3299999999999841 11.349999999999994 -0.660000000000025 9.700000000000003 -1 8 C-2.6499999999999773 9.650000000000006 -4.300000000000011 11.299999999999997 -6 13 C-6.659999999999997 12.670000000000002 -7.319999999999993 12.340000000000003 -8 12 C-7.590078124999991 11.552695312499992 -7.18015625000001 11.105390624999998 -6.7578125 10.64453125 C-3.7435992581105495 7.262555148454183 -1.339494546546291 4.420332003602795 0 0 Z "
        fill="#578184" transform="translate(259,111)" />
    <path
        d="M0 0 C2.7556967308976823 -0.5010357692541305 4.467707833602532 -0.33282268088430556 6.85546875 1.16015625 C9.850606507241565 3.574793081095777 11.72627464719261 5.1605755847240005 12.9375 8.875 C12.958124999999995 9.576249999999987 12.978749999999991 10.277500000000003 13 11 C11.344224637791939 9.344224637791939 9.734567885692485 7.697956559581087 8.1875 5.9375 C5.605318700370276 3.65042513461367 3.3000228594462726 2.9000062343944535 0 2 C0 1.3400000000000034 0 0.6800000000000068 0 0 Z "
        fill="#303029" transform="translate(166,127)" />
    <path
        d="M0 0 C0.6599999999999966 0.3299999999999983 1.3199999999999932 0.6599999999999966 2 1 C-0.6689269700461864 4.453905490647998 -3.841517425612267 5.124529984339432 -8 6 C-10.22265625 5.546875 -10.22265625 5.546875 -12 5 C-10.04578965011956 4.136442215419805 -8.08648653269779 3.2844006558824503 -6.125 2.4375 C-5.034453124999999 1.9618359374999983 -3.9439062499999977 1.4861718749999966 -2.8203125 0.99609375 C-1.889609374999992 0.6673828124999943 -0.9589062500000125 0.33867187500000284 0 0 Z "
        fill="#1E3431" transform="translate(241,125)" />
    <path
        d="M0 0 C1.9375 0.625 1.9375 0.625 4 2 C4.9375 4.875 4.9375 4.875 5 8 C3.50390625 10.1953125 3.50390625 10.1953125 2 12 C1.470266893368489 10.3778794135917 0.9514689348355034 8.752184161407428 0.4375 7.125 C0.1474609375 6.220078124999986 -0.142578125 5.315156250000001 -0.44140625 4.3828125 C-1 2 -1 2 0 0 Z "
        fill="#5A5B53" transform="translate(180,143)" />
    <path
        d="M0 0 C0.3300000000000125 0 0.6599999999999966 0 1 0 C1.026924841687105 2.291603192480977 1.0463612356637384 4.583295464250568 1.0625 6.875 C1.0741015625000045 8.151171874999989 1.085703125000009 9.427343750000006 1.09765625 10.7421875 C1 14 1 14 0 16 C-0.6599999999999966 16 -1.3199999999999932 16 -2 16 C-2.2067494353052552 10.211015811452683 -1.5916207900155257 5.570672765054297 0 0 Z "
        fill="#517F85" transform="translate(227,131)" />
    <path
        d="M0 0 C0.6599999999999966 0.3300000000000125 1.3199999999999932 0.6599999999999966 2 1 C1 3 1 3 -1 5 C-3.7537290893013164 5.3693364459023485 -6.203656606589078 5.183366779895806 -9 5 C-8.669999999999987 3.680000000000007 -8.340000000000003 2.3600000000000136 -8 1 C-7.340000000000003 1 -6.680000000000007 1 -6 1 C-6 1.990000000000009 -6 2.9799999999999898 -6 4 C-5.340000000000003 4 -4.680000000000007 4 -4 4 C-4.3300000000000125 3.009999999999991 -4.659999999999997 2.0200000000000102 -5 1 C-3.3499999999999943 1.3300000000000125 -1.6999999999999886 1.6599999999999966 0 2 C0 1.3400000000000034 0 0.6800000000000068 0 0 Z "
        fill="#181916" transform="translate(221,139)" />
    <path
        d="M0 0 C2.4680004686068173 1.151733552016509 4.047835654825292 2.0478356548252776 6 4 C8.221285546903005 4.023085972499516 8.221285546903005 4.023085972499516 10.625 3.625 C11.442265625000005 3.514140624999996 12.259531250000009 3.4032812500000063 13.1015625 3.2890625 C13.72804687499999 3.193671875000007 14.354531250000008 3.0982812499999994 15 3 C9 7 9 7 6 7 C2.919327124010806 5.459663562005403 1.72462117117135 2.8948998230376333 0 0 Z "
        fill="#5C9196" transform="translate(169,99)" />
    <path
        d="M0 0 C4.4550000000000125 0.9900000000000091 4.4550000000000125 0.9900000000000091 9 2 C9 2.990000000000009 9 3.9799999999999898 9 5 C6.360000000000014 4.6699999999999875 3.719999999999999 4.340000000000003 1 4 C0.6699999999999875 2.680000000000007 0.3400000000000034 1.3600000000000136 0 0 Z "
        fill="#1A1B17" transform="translate(170,140)" />
    <path
        d="M0 0 C0.9900000000000091 0.3299999999999983 1.9799999999999898 0.6599999999999966 3 1 C-2.444999999999993 4.959999999999994 -2.444999999999993 4.959999999999994 -8 9 C-8.330000000000013 8.010000000000005 -8.659999999999997 7.019999999999996 -9 6 C-7.571405933380419 4.966740140495261 -6.131776166836232 3.948723663861415 -4.6875 2.9375 C-3.886992187499999 2.3690234375000045 -3.0864843749999977 1.8005468749999949 -2.26171875 1.21484375 C-1.5153515625000011 0.813945312499996 -0.7689843750000023 0.41304687500000625 0 0 Z "
        fill="#E3F8F3" transform="translate(179,66)" />
    <path
        d="M0 0 C0.6599999999999966 1.3199999999999932 1.3199999999999932 2.6400000000000006 2 4 C-1.4650000000000034 5.484999999999999 -1.4650000000000034 5.484999999999999 -5 7 C-3.750232441536866 3.3468332906462166 -3.3290124661068603 2.2193416440712355 0 0 Z "
        fill="#12201F" transform="translate(247,121)" />
    <path
        d="M0 0 C0.6599999999999966 0.6599999999999966 1.3199999999999932 1.3199999999999932 2 2 C1.9825211247221546 4.592699832880328 1.8623140772583895 7.052515402519049 1.625 9.625 C1.5682812500000125 10.331406249999986 1.5115624999999966 11.037812500000001 1.453125 11.765625 C1.3115907879926567 13.51121361475731 1.1570261333699818 15.25573673472789 1 17 C0.6699999999999875 17 0.3400000000000034 17 0 17 C-0.1956186927344561 14.91741330196541 -0.3811931347836435 12.833881438182885 -0.5625 10.75 C-0.6669140625000125 9.58984375 -0.7713281249999966 8.4296875 -0.87890625 7.234375 C-0.9819808669162455 4.481285232043575 -0.8621347276420863 2.5800179997585815 0 0 Z "
        fill="#63655E" transform="translate(178,163)" />
    <path
        d="M0 0 C1.3986409151825114 3.178729352687526 0.8928251749534866 4.301110222749685 -0.3125 7.6875 C-2 11 -2 11 -4 12 C-3.4566020822017265 7.435457490494599 -2.2053617917402164 4.027182402308227 0 0 Z "
        fill="#172A2A" transform="translate(220,158)" />
    <path
        d="M0 0 C4.819385238578491 -0.23509196285749567 8.462985064363437 0.5481552205962998 13 2 C12.669999999999987 2.6599999999999966 12.340000000000003 3.319999999999993 12 4 C7.682254201709668 3.492029906083502 3.9669788561838004 2.8031722073562833 0 1 C0 0.6699999999999875 0 0.3400000000000034 0 0 Z "
        fill="#21221D" transform="translate(193,185)" />
    <path
        d="M0 0 C0.3300000000000125 0 0.6599999999999966 0 1 0 C1 1.9799999999999898 1 3.960000000000008 1 6 C3.3100000000000023 6 5.6200000000000045 6 8 6 C8 6.3300000000000125 8 6.659999999999997 8 7 C4.699999999999989 7.659999999999997 1.4000000000000057 8.319999999999993 -2 9 C-2 7.680000000000007 -2 6.360000000000014 -2 5 C-1.3400000000000034 5 -0.6800000000000068 5 0 5 C0 3.3499999999999943 0 1.6999999999999886 0 0 Z "
        fill="#BABAB4" transform="translate(191,178)" />
    <path
        d="M0 0 C0.6599999999999966 1.3199999999999932 1.3199999999999932 2.6399999999999864 2 4 C0.719375152513436 5.7074997966487615 -0.6176755679837242 7.373735962333797 -2 9 C-2.6599999999999966 9 -3.319999999999993 9 -4 9 C-3.649374999999992 8.381249999999994 -3.2987500000000125 7.762499999999989 -2.9375 7.125 C-2.6281250000000114 6.4237500000000125 -2.3187499999999943 5.722499999999997 -2 5 C-2.3300000000000125 4.340000000000003 -2.6599999999999966 3.680000000000007 -3 3 C-2.009999999999991 2.009999999999991 -1.0200000000000102 1.0200000000000102 0 0 Z "
        fill="#DAD7D2" transform="translate(206,171)" />
    <path
        d="M0 0 C2.1897577285556906 3.2846365928335217 2.9980656323007224 6.2069627508527105 4 10 C3.009999999999991 10.495000000000005 3.009999999999991 10.495000000000005 2 11 C1.4700730778023967 9.544946417016746 0.9513210978043958 8.085818726493244 0.4375 6.625 C0.1474609375 5.812890624999994 -0.142578125 5.000781249999989 -0.44140625 4.1640625 C-1 2 -1 2 0 0 Z "
        fill="#233837" transform="translate(169,152)" />
    <path
        d="M0 0 C1.3199999999999932 0 2.6399999999999864 0 4 0 C3.3400000000000034 1.3199999999999932 2.680000000000007 2.6399999999999864 2 4 C1.3400000000000034 3.6699999999999875 0.6800000000000068 3.3400000000000034 0 3 C0 3.6599999999999966 0 4.319999999999993 0 5 C-0.9900000000000091 5 -1.9799999999999898 5 -3 5 C-3 4.009999999999991 -3 3.0200000000000102 -3 2 C-2.009999999999991 2 -1.0200000000000102 2 0 2 C0 1.3400000000000034 0 0.6800000000000068 0 0 Z "
        fill="#8F9190" transform="translate(221,136)" />
    <path
        d="M0 0 C0.9900000000000091 0.3299999999999983 1.9799999999999898 0.6599999999999966 3 1 C0.6899999999999977 3.3100000000000023 -1.6200000000000045 5.6200000000000045 -4 8 C-4.3300000000000125 7.010000000000005 -4.659999999999997 6.019999999999996 -5 5 C-3.3499999999999943 3.3499999999999943 -1.6999999999999886 1.7000000000000028 0 0 Z "
        fill="#518189" transform="translate(229,91)" />
    <path
        d="M0 0 C1 3 1 3 1 7 C-0.3199999999999932 7.3300000000000125 -1.6399999999999864 7.659999999999997 -3 8 C-3.75 6.25 -3.75 6.25 -4 4 C-2.0625 1.75 -2.0625 1.75 0 0 Z "
        fill="#588E90" transform="translate(209,190)" />
    <path
        d="M0 0 C0.6599999999999966 0.9900000000000091 1.3199999999999932 1.9799999999999898 2 3 C-0.688418585608531 5.252458814969316 -2.6464187472208494 6.88213958240695 -6 8 C-6 7.009999999999991 -6 6.02000000000001 -6 5 C-4.363681079809282 3.9510776152623635 -2.6951413727191778 2.950932965183938 -1 2 C-0.6699999999999875 1.3400000000000034 -0.3400000000000034 0.6800000000000068 0 0 Z "
        fill="#34342F" transform="translate(207,175)" />
    <path
        d="M0 0 C2.1537756446015237 2.621987741254017 3.4007217351313557 4.644041716735657 4 8 C2.680000000000007 8.329999999999998 1.3600000000000136 8.659999999999997 0 9 C0 6.030000000000001 0 3.0600000000000023 0 0 Z "
        fill="#5E888B" transform="translate(131,110)" />
    <path
        d="M0 0 C2.4749999999999943 0.9899999999999949 2.4749999999999943 0.9899999999999949 5 2 C3.3499999999999943 3.6500000000000057 1.6999999999999886 5.299999999999997 0 7 C-0.6599999999999966 6.340000000000003 -1.3199999999999932 5.680000000000007 -2 5 C-1.3400000000000034 3.3499999999999943 -0.6800000000000068 1.7000000000000028 0 0 Z "
        fill="#5C878A" transform="translate(233,84)" />
    <path
        d="M0 0 C0 0.6599999999999966 0 1.3199999999999932 0 2 C-1.53125 3.5078125 -1.53125 3.5078125 -3.5 5.125 C-4.149687499999999 5.663828124999995 -4.799374999999998 6.202656250000004 -5.46875 6.7578125 C-5.974062500000002 7.167734374999995 -6.4793750000000045 7.577656250000004 -7 8 C-7.659999999999997 7.670000000000002 -8.319999999999993 7.340000000000003 -9 7 C-3.340425531914889 0 -3.340425531914889 0 0 0 Z "
        fill="#464745" transform="translate(243,84)" />
    <path
        d="M0 0 C0.6599999999999966 0.6599999999999966 1.3199999999999932 1.3199999999999932 2 2 C0.3840516766448445 4.041197882132806 -1.2856381999372957 6.040729371356903 -3 8 C-3.6599999999999966 8 -4.319999999999993 8 -5 8 C-3.8141762978707163 4.624963309324329 -2.7242631099849177 2.3527726858960563 0 0 Z "
        fill="#383731" transform="translate(172,108)" />
    <path
        d="M0 0 C3.4031273843941108 1.058750741811508 6.013532313386889 2.0090215422579263 9 4 C8.669999999999987 4.989999999999995 8.340000000000003 5.980000000000004 8 7 C6.663826476974435 6.024712629398749 5.3311248992771425 5.044666809362482 4 4.0625 C3.257499999999993 3.5172265624999994 2.5149999999999864 2.971953124999999 1.75 2.41015625 C1.1725000000000136 1.944804687499996 0.5949999999999989 1.4794531250000063 0 1 C0 0.6700000000000017 0 0.3400000000000034 0 0 Z "
        fill="#DCF4EC" transform="translate(226,78)" />
    <path
        d="M0 0 C-0.9973013613452224 2.49325340336307 -1.6507453095507572 3.7746743932585503 -3.9375 5.25 C-6 6 -6 6 -9 6 C-3.1999999999999886 0 -3.1999999999999886 0 0 0 Z "
        fill="#E6F8F1" transform="translate(205,201)" />
    <path
        d="M0 0 C2.3100000000000023 0 4.6200000000000045 0 7 0 C5.824375000000003 0.9281249999999943 5.824375000000003 0.9281249999999943 4.625 1.875 C2.031623528656496 3.898586614998152 2.031623528656496 3.898586614998152 0 6 C0 4.02000000000001 0 2.039999999999992 0 0 Z "
        fill="#639CA3" transform="translate(228,131)" />
    <path
        d="M0 0 C0.6599999999999966 0 1.3199999999999932 0 2 0 C1.398162511795448 2.0204544246867044 0.7269390393784647 4.021110392803081 0 6 C-0.9900000000000091 6.4950000000000045 -0.9900000000000091 6.4950000000000045 -2 7 C-2.6599999999999966 6.340000000000003 -3.319999999999993 5.680000000000007 -4 5 C-3.3400000000000034 5 -2.680000000000007 5 -2 5 C-1.3400000000000034 3.3499999999999943 -0.6800000000000068 1.7000000000000028 0 0 Z "
        fill="#393830" transform="translate(229,112)" />
</svg>