<?xml version="1.0" encoding="UTF-8"?>
<svg width="1949" height="2000" viewBox="0 0 1949 2000" xmlns="http://www.w3.org/2000/svg">
  

    <!-- Generator: visioncortex VTracer 0.6.4 -->

    <path
      d="M 0 0C 3.3502538071065993 0 6.7005076142131985 0 10.152284263959391 0C 10.649587614213198 9.789022842639595 11.146890862944161 19.57804568527919 11.659263959390863 29.663705583756347C 12.41830578680203 42.4888959390863 13.17734771573604 55.31408629441624 13.959390862944163 68.52791878172589C 14.66608497461929 81.24841370558377 15.372779187817258 93.96890862944163 16.100888324873097 107.07487309644671C 19.888881116751268 138.66530335025382 22.160087614213197 157.26952598984772 40.609137055837564 182.74111675126903C 54.01015228426397 189.44162436548223 67.41116751269035 196.14213197969545 81.21827411167513 203.0456852791878C 84.56852791878173 166.19289340101525 87.91878172588832 129.34010152284264 91.37055837563452 91.37055837563452C 134.9238578680203 71.26903553299492 178.47715736040607 51.16751269035533 223.3502538071066 30.456852791878173C 205.13783685279188 66.88168680203046 200.28060416243656 74.91084923857868 171.3197969543147 97.71573604060914C 149.30925939086293 118.44410639593909 142.70587086294418 128.14610223350255 138.16624365482232 158.47081218274113C 138.3090263959391 183.7433582741117 139.45089076142133 208.37974203045687 142.13197969543148 233.502538071066C 168.9340101522843 246.9035532994924 195.73604060913706 260.3045685279188 223.3502538071066 274.11167512690355C 226.7005076142132 247.30964467005077 230.0507614213198 220.50761421319797 233.502538071066 192.89340101522842C 243.55329949238578 196.243654822335 253.60406091370558 199.59390862944164 263.9593908629442 203.0456852791878C 264.7446065989848 212.4486437563452 264.7446065989848 212.4486437563452 265.5456852791878 222.04156091370558C 274.9013279187817 291.88993837563453 298.7881454822335 328.0733078172589 348.4295685279188 377.53807106598987C 365.48223350253807 395.93908629441626 365.48223350253807 395.93908629441626 365.48223350253807 416.24365482233503C 388.9340101522843 419.5939086294416 412.38578680203045 422.9441624365482 436.5482233502538 426.39593908629445C 437.9812420304568 414.99068050761423 437.9812420304568 414.99068050761423 439.4432106598985 403.35501269035535C 447.7908481218274 371.46977431472084 458.1018078172589 360.718132893401 481.5989847715736 338.1979695431472C 522.911854822335 293.92208629441626 532.1305511675127 252.0560792893401 538.0710659898477 192.89340101522842C 548.1218274111676 196.243654822335 558.1725888324872 199.59390862944164 568.5279187817259 203.0456852791878C 573.5532994923858 238.2233502538071 573.5532994923858 238.2233502538071 578.6802030456853 274.11167512690355C 588.3121827411168 269.0862944162437 597.9441624365483 264.0609137055838 607.8680203045685 258.88324873096445C 639.5939086294417 243.6548223350254 639.5939086294417 243.6548223350254 659.8984771573604 243.6548223350254C 667.1994148223351 173.551227106599 667.1994148223351 173.551227106599 637.0558375634517 112.94416243654823C 623.236040609137 102.26522842639594 623.236040609137 102.26522842639594 609.1370558375635 91.37055837563452C 595.2300306598985 78.2152642639594 581.5725390862945 64.77230974619289 568.5279187817259 50.76142131979695C 568.5279187817259 44.06091370558376 568.5279187817259 37.360406091370564 568.5279187817259 30.456852791878173C 619.1395222335026 48.415808832487315 664.0832365482233 75.10622842639594 710.6598984771574 101.5228426395939C 710.6598984771574 135.0253807106599 710.6598984771574 168.5279187817259 710.6598984771574 203.0456852791878C 747.4917764467004 184.10492507614214 747.4917764467004 184.10492507614214 771.5736040609137 152.28426395939087C 773.9261753299493 126.43502446700508 775.8268557360406 100.77195685279189 777.2842639593908 74.87309644670052C 777.9418821319797 64.11564081218273 777.9418821319797 64.11564081218273 778.6127855837564 53.140862944162436C 779.6898224365482 35.42959015228426 780.7129836548223 17.71505614213198 781.7258883248732 0C 791.7766497461929 5.025380710659898 791.7766497461929 5.025380710659898 802.0304568527919 10.152284263959391C 821.333237461929 71.27775614213198 838.6021137055837 137.4622371573604 810.4526887309645 198.24714467005077C 788.2590041624366 228.24149177664975 768.0720447715736 240.22101675126902 735.1681472081218 257.61421319796955C 724.0442576649747 263.63420050761425 712.9203680203046 269.6541878172589 701.4593908629441 275.8565989847716C 689.8381979695431 281.9812817258883 678.2170050761421 288.1059644670051 666.2436548223351 294.4162436548223C 643.278216142132 306.60198659898475 620.35460071066 318.86694538071066 597.4777918781726 331.21827411167516C 587.3043405076143 336.5839149238579 577.1308891370559 341.9495558375635 566.6491513705585 347.4777918781726C 535.487339390863 367.1100036548223 512.7694750253808 389.77185644670055 487.3096446700508 416.24365482233503C 477.25888324873097 422.9441624365482 467.2081218274112 429.6446700507614 456.8527918781726 436.5482233502538C 463.88047269035536 441.55397370558376 463.88047269035536 441.55397370558376 471.0501269035533 446.6608502538071C 512.904507817259 477.18311614213195 551.9024259898476 509.4004048730965 590.1015228426396 544.4162436548223C 625.3423503553299 576.6659514720812 659.6789238578681 604.7295223350254 700.5076142131979 629.4416243654822C 671.3197969543147 689.0862944162436 671.3197969543147 689.0862944162436 659.8984771573604 700.5076142131979C 405.3036202030457 721.1598214213199 405.3036202030457 721.1598214213199 319.79695431472084 656.7258883248732C 294.49580954314723 629.5271576649747 281.83692 614.7313458883249 274.11167512690355 578.6802030456853C 277.9187817258883 539.9746192893401 277.9187817258883 539.9746192893401 284.26395939086296 507.61421319796955C 278.1392766497462 507.58803939086295 272.0145939086294 507.56186548223354 265.7043147208122 507.53489847715736C 199.4327145177665 504.3282081218274 199.4327145177665 504.3282081218274 167.51269035532997 470.81218274111677C 151.55211390862945 434.9008856852792 145.255669035533 404.52835005076145 142.13197969543148 365.48223350253807C 212.15948101522844 377.3091004060914 263.12830365482233 395.1079990862944 314.7208121827411 446.7005076142132C 297.6801168527919 390.9309590862944 265.3862428426396 367.9705675126903 216.0086849746193 339.24888954314724C 206.2605587817259 334.1907915736041 196.5124325888325 329.1326935025381 186.46890862944164 323.9213197969543C 175.77688771573605 318.28085340101524 165.0848667005076 312.640387106599 154.06884517766497 306.82899746192896C 131.66617248730967 295.13718842639594 109.24640365482233 283.4780808121828 86.80996192893402 271.8512055837563C 76.14411482233503 266.21073918781724 65.47826771573604 260.570272893401 54.48921319796955 254.75888324873097C 44.76398913705584 249.70078517766498 35.038765076142134 244.64268720812186 25.01883725888325 239.43131350253807C -1.0524118781725889 222.67380761421322 -14.944250558375636 209.42918944162437 -30.456852791878173 182.74111675126903C -35.52172578680203 122.97561512690355 -27.375769340101524 67.6058074111675 -10.152284263959391 10.152284263959391C -6.802030456852792 6.802030456852792 -3.451776649746193 3.451776649746193 0 0Z M 426.39593908629445 517.7664974619289C 426.39593908629445 531.1675126903554 426.39593908629445 544.5685279187818 426.39593908629445 558.3756345177665C 439.79695431472084 555.0253807106599 453.1979695431472 551.6751269035533 467.005076142132 548.2233502538071C 463.6548223350254 538.1725888324873 460.30456852791883 528.1218274111676 456.8527918781726 517.7664974619289C 446.8020304568528 517.7664974619289 436.751269035533 517.7664974619289 426.39593908629445 517.7664974619289Z "
      fill="#000000" transform="translate(81,19)" />
    <path
      d="M 0 0C -4.817440101522843 50.58312152284264 -18.6187261928934 82.33781421319797 -50.76142131979695 121.8274111675127C -69.79695431472081 133.88324873096448 -69.79695431472081 133.88324873096448 -91.37055837563452 131.9796954314721C -113.92874111675127 116.75570020304569 -132.23605177664976 99.89956274111674 -152.28426395939087 81.21827411167513C -115.69612913705585 24.811566294416245 -66.75980050761422 0 0 0Z "
      fill="#000000" transform="translate(146,55)" />
    <path
      d="M 0 0C 22.701779796954312 10.930486598984773 43.62964802030457 22.291746802030456 64.72081218274111 36.16751269035533C 94.34263015228426 52.38898446700507 119.09688081218273 56.113877461928936 152.28426395939087 60.91370558375635C 153.80125248730965 105.69209380710659 154.90061025380712 150.45649553299492 155.63035370558376 195.2530140101523C 155.9348394923858 210.4576554314721 156.34914984771572 225.66054101522843 156.87956060913706 240.85897847715736C 161.72214944162437 383.2880621319797 161.72214944162437 383.2880621319797 124.563769035533 434.4067258883249C 107.78870558375635 452.3219384771574 107.78870558375635 452.3219384771574 91.37055837563452 467.005076142132C 83.16505390862945 474.5169732994924 74.9595495431472 482.0288705583757 66.50539340101523 489.76840101522845C 59.00658314720812 495.2387373604061 51.507772791878175 500.7090736040609 43.78172588832487 506.34517766497464C 32.415728121827414 514.7862468020305 32.415728121827414 514.7862468020305 20.82011421319797 523.3978426395939C 3.9079323857868022 535.3169040609137 -13.241534720812183 546.8987558375635 -30.456852791878173 558.3756345177665C -35.65948203045685 578.7642814213198 -35.65948203045685 578.7642814213198 -35.778374822335024 602.6183772588832C -36.18258710659899 611.76338 -36.58679939086294 620.9083828426396 -37.00326060913706 630.3305069035533C -37.433672284263956 645.162956142132 -37.433672284263956 645.162956142132 -37.87277918781726 660.2950507614213C -38.280365482233506 670.4066459898478 -38.687951675126904 680.5182411167513 -39.107889137055835 690.9362483248731C -40.38100984771574 723.3109768527919 -41.44902294416244 755.6888437563451 -42.51269035532995 788.0710659898477C -43.33863126903554 809.9888790862944 -44.177874720812184 831.9061951269035 -45.03093279187818 853.8229695431472C -47.09562568527919 907.6199683248731 -48.99186578680203 961.4209552284264 -50.76142131979695 1015.2284263959391C -70.86294416243655 1015.2284263959391 -90.96446700507616 1015.2284263959391 -111.6751269035533 1015.2284263959391C -112.5445897461929 1003.0862101522843 -113.41405258883249 990.9439939086294 -114.30986274111676 978.433831675127C -117.54358913705585 933.4197993908629 -120.82896111675127 888.4096603045687 -124.1300166497462 843.4005194923859C -125.55197553299493 823.9132570558376 -126.95989329949239 804.4249646700508 -128.35352558375635 784.9356559390862C -130.35818467005078 756.9355621319797 -132.41317522842638 728.9395502538072 -134.47810913705584 700.943845177665C -135.09191675126903 692.2182886294418 -135.70572436548224 683.4927321827411 -136.33813228426396 674.5027648730966C -136.94713461928933 666.3748106598986 -137.55613685279187 658.2468565482234 -138.18359370558375 649.87260071066C -138.70211218274113 642.7260639593909 -139.2206306598985 635.5795273096446 -139.75486172588833 628.2164288324874C -141.78017106598983 606.8674220304569 -141.78017106598983 606.8674220304569 -152.28426395939087 578.6802030456853C -276.24365482233503 578.6802030456853 -400.2030456852792 578.6802030456853 -527.9187817258884 578.6802030456853C -511.16751269035535 541.8274111675127 -494.4162436548224 504.9746192893401 -477.15736040609136 467.005076142132C -482.79782680203044 474.20288710659895 -488.4382930964467 481.40069796954316 -494.24968274111677 488.81662436548226C -518.3247990862944 518.4537827411168 -543.3858781725888 546.7048985786802 -569.1624365482234 574.8730964467005C -573.9440731979696 580.2698187817259 -578.7257098477157 585.6665411167513 -583.6522445685279 591.2268004060913C -608.3340966497461 618.6538038578681 -631.318802538071 640.9812862944162 -661.2071700507614 663.0710659898477C -707.6517833502538 698.918798781726 -735.9350642639594 723.853523248731 -746.9116830456853 781.9291322842639C -754.5473140101523 859.6148111675127 -754.1850356345178 937.287787817259 -751.269035532995 1015.2284263959391C -771.3705583756346 1015.2284263959391 -791.4720812182741 1015.2284263959391 -812.1827411167512 1015.2284263959391C -820.7270015228426 940.1609957360407 -824.4129595939087 864.837998680203 -826.1421319796955 789.3401015228427C -826.7212286294416 776.5656230456852 -826.7212286294416 776.5656230456852 -827.3120241624366 763.533074213198C -828.0797543147207 706.3371736040609 -816.6133657868021 673.3133495431472 -783.7781567512691 626.5962087309645C -760.4669540101522 593.2485012182741 -751.3405983756346 558.199476751269 -751.269035532995 517.7664974619289C -759.7166594923858 496.83846436548225 -770.4574508629441 478.8079908629442 -782.1224619289341 459.5098350253807C -801.4814670050762 413.9453474111675 -794.7920307614214 363.28511573604067 -791.8781725888325 314.7208121827411C -799.7695907614212 311.8547747208122 -807.6610088324873 308.98873725888325 -815.7915609137056 306.0358502538071C -844.1317360406091 293.7704568527919 -859.5619515736041 281.4425605076142 -875.9914340101523 255.1157994923858C -892.3857441624366 206.29121472081218 -885.9611752284264 152.3058261928934 -883.248730964467 101.5228426395939C -826.1110905583756 118.28321715736041 -778.2679809137055 135.92860913705584 -730.9644670050761 172.58883248730965C -727.6142131979695 179.28934010152284 -724.263959390863 185.98984771573606 -720.8121827411168 192.89340101522842C -713.615189746193 191.25129817258886 -706.418196751269 189.60919532994924 -699.0031130964468 187.91733177664975C -669.6717854822335 182.67336192893404 -642.6792939086295 181.33961746192895 -612.9045050761422 181.13995086294415C -601.6898248730964 181.0357665989848 -590.4751447715737 180.9315823350254 -578.920625786802 180.82424101522844C -560.8986977664974 180.71305329949237 -560.8986977664974 180.71305329949237 -542.5126903553299 180.5996192893401C -516.9997211167513 180.31477512690358 -491.48682 180.0237661928934 -465.9739847715736 179.7271573604061C -425.8043945177665 179.3075794923858 -385.6360943147208 178.93300964467005 -345.4651808121827 178.66632294416246C -306.6610991878173 178.3864626395939 -267.8627821319797 177.92089675126905 -229.06091370558377 177.4270304568528C -217.04629502538072 177.39400639593907 -205.0316763451777 177.36098233502537 -192.6529782741117 177.32695756345177C -181.43829807106601 177.1587700507614 -170.22361796954314 176.9905826395939 -158.66909898477158 176.8172985786802C -143.9180852791878 176.69414852791877 -143.9180852791878 176.69414852791877 -128.86907126903554 176.56851055837564C -96.39177715736041 171.84211197969543 -77.1888366497462 161.32250802030455 -50.76142131979695 142.13197969543148C -36.498204263959394 118.61142934010152 -36.498204263959394 118.61142934010152 -27.918781725888326 92.00507614213198C -23.12896578680203 78.99012527918782 -23.12896578680203 78.99012527918782 -18.242385786802032 65.7122461928934C -11.219397563451777 43.920327005076146 -5.172514416243655 22.29353705583756 0 0Z M -609.1370558375635 213.19796954314722C -609.1370558375635 226.5989847715736 -609.1370558375635 240 -609.1370558375635 253.80710659898477C -585.6852791878173 253.80710659898477 -562.2335025380711 253.80710659898477 -538.0710659898477 253.80710659898477C -538.0710659898477 240.40609137055839 -538.0710659898477 227.00507614213197 -538.0710659898477 213.19796954314722C -561.5228426395939 213.19796954314722 -584.9746192893401 213.19796954314722 -609.1370558375635 213.19796954314722Z M -446.7005076142132 213.19796954314722C -450.0507614213198 223.248730964467 -453.4010152284264 233.2994923857868 -456.8527918781726 243.6548223350254C -428.5418267005076 257.81030497461927 -406.8955463959391 256.41219228426394 -375.6345177664975 253.80710659898477C -368.9340101522843 243.756345177665 -362.2335025380711 233.7055837563452 -355.3299492385787 223.3502538071066C -365.3063816243655 211.11053969543147 -365.3063816243655 211.11053969543147 -384.2401649746193 212.20653553299493C -405.0602791878173 212.53701350253806 -425.8803934010152 212.86749157360407 -446.7005076142132 213.19796954314722Z M -304.56852791878174 233.502538071066C -304.56852791878174 243.55329949238578 -304.56852791878174 253.60406091370558 -304.56852791878174 263.9593908629442C -271.1983519796954 272.07646071065994 -256.74891451776654 275.0922777664975 -223.3502538071066 263.9593908629442C -226.7005076142132 250.55837563451777 -230.0507614213198 237.15736040609136 -233.502538071066 223.3502538071066C -270.34368771573605 221.8122540101523 -270.34368771573605 221.8122540101523 -304.56852791878174 233.502538071066Z M -527.9187817258884 274.11167512690355C -524.5685279187818 284.16243654822335 -521.2182741116752 294.21319796954316 -517.7664974619289 304.56852791878174C -493.9559440609137 312.38133360406096 -493.9559440609137 312.38133360406096 -467.005076142132 314.7208121827411C -448.3707624365482 301.17984010152287 -448.3707624365482 301.17984010152287 -436.5482233502538 284.26395939086296C -470.3611625380711 261.7219998984772 -490.2368725888325 255.27072060913707 -527.9187817258884 274.11167512690355Z M -385.78680203045684 294.4162436548223C -385.78680203045684 304.46700507614213 -385.78680203045684 314.51776649746193 -385.78680203045684 324.8730964467005C -355.6345177664975 329.8984771573604 -355.6345177664975 329.8984771573604 -324.8730964467005 335.02538071065993C -318.1725888324873 324.97461928934007 -311.4720812182741 314.9238578680203 -304.56852791878174 304.56852791878174C -316.5913021319797 290.19518 -316.5913021319797 290.19518 -350.88832487309645 293.7817258883249C -368.16307106598987 294.0958121827411 -368.16307106598987 294.0958121827411 -385.78680203045684 294.4162436548223Z M -638.3248730964467 319.16243654822335C -642.0939086294417 324.3972081218274 -645.8629441624365 329.6319796954315 -649.746192893401 335.02538071065993C -621.5112633502539 358.71991908629445 -621.5112633502539 358.71991908629445 -592.005076142132 351.52284263959393C -584.2576142131979 349.4289340101523 -576.510152284264 347.33502538071065 -568.5279187817259 345.1776649746193C -565.1776649746193 335.1269035532995 -561.8274111675128 325.07614213197974 -558.3756345177665 314.7208121827411C -600.7860502538072 302.1565108629442 -600.7860502538072 302.1565108629442 -638.3248730964467 319.16243654822335Z "
      fill="#000000" transform="translate(109,84)" />
    <path
      d="M 0 0C 10.272131776649745 20.880553604060914 20.396089035532995 41.8340454822335 30.456852791878173 62.81725888324873C 36.11040609137056 74.47771258883249 41.763959390862944 86.1381661928934 47.588832487309645 98.15196700507614C 68.13993604060914 150.32485776649747 68.13993604060914 150.32485776649747 60.91370558375635 182.74111675126903C 43.346305685279184 207.49623918781728 22.6722069035533 228.5478511675127 1.2690355329949239 250C -9.9307530964467 261.5376012182741 -21.114734416243653 273.0905727918782 -32.28109137055838 284.66053299492387C -37.27866233502538 289.70718 -42.27623329949238 294.7538269035533 -47.42524588832487 299.9534026395939C -63.17908883248731 316.4517990862944 -63.17908883248731 316.4517990862944 -81.21827411167513 345.1776649746193C -87.91878172588832 345.1776649746193 -94.61928934010153 345.1776649746193 -101.5228426395939 345.1776649746193C -107.74947086294416 304.2598223350254 -107.69492131979695 283.99002649746194 -85.34263959390863 248.2154187817259C -72.22635604060913 230.6489676142132 -58.78800182741117 213.31755167512694 -45.01110406091371 196.2642766497462C -28.366097461928934 174.2728676142132 -28.366097461928934 174.2728676142132 -31.725888324873097 151.92734771573603C -41.723036548223355 129.47839431472082 -53.22914375634518 109.44052060913705 -66.6243654822335 88.83248730964468C -73.55389431472082 78.07503167512691 -73.55389431472082 78.07503167512691 -80.62341370558376 67.1002538071066C -84.16997147208122 61.70843908629442 -87.71652923857867 56.316624365482234 -91.37055837563452 50.76142131979695C -79.99250131979696 42.24308984771574 -68.56095969543148 33.7961592893401 -57.10659898477157 25.380710659898476C -50.74635147208122 20.669416243654826 -44.38610406091371 15.958121827411167 -37.83312182741117 11.104060913705585C -20.304568527918782 0 -20.304568527918782 0 0 0Z "
      fill="#000000" transform="translate(117,136)" />
    <path
      d="M 0 0C 19.159263959390863 3.7690355329949243 19.159263959390863 3.7690355329949243 38.70558375634518 7.614213197969543C 19.794709847715737 52.37665411167512 -12.655149238578682 79.49970862944163 -47.74746192893401 112.1113578680203C -67.78254527918781 148.64902294416245 -61.550277766497466 167.13991725888326 -50.682106598984774 206.22570984771573C -37.0727807106599 247.4376885279188 -21.998996852791876 287.8214385786802 -5.710659898477157 328.0456852791878C -0.7638008121827412 340.50116984771574 -0.7638008121827412 340.50116984771574 4.282994923857868 353.20828040609143C 12.311857461928934 373.39850822335023 20.423778578680203 393.5556750253807 28.553299492385786 413.70558375634516C 8.451776649746193 413.70558375634516 -11.649746192893401 413.70558375634516 -32.36040609137056 413.70558375634516C -80.14682751269036 320.26712203045685 -125.84293715736041 227.16519553299491 -164.34010152284264 129.44162436548223C -60.369239086294414 -1.153552385786802 -60.369239086294414 -1.153552385786802 0 0Z "
      fill="#000000" transform="translate(58.1875,143.25)" />


  
</svg>