<?xml version="1.0" encoding="UTF-8"?>
<svg width="1949" height="2000" viewBox="0 0 1949 2000" xmlns="http://www.w3.org/2000/svg">
  <g transform="scale(10.152284263959391)">

    <!-- Generator: visioncortex VTracer 0.6.4 -->

    <path
      d="M0 0 C0.33 0 0.66 0 1 0 C1.04898438 0.96421875 1.09796875 1.9284375 1.1484375 2.921875 C1.22320312 4.18515625 1.29796875 5.4484375 1.375 6.75 C1.44460937 8.00296875 1.51421875 9.2559375 1.5859375 10.546875 C1.95905479 13.65853238 2.18276863 15.49104831 4 18 C5.32 18.66 6.64 19.32 8 20 C8.33 16.37 8.66 12.74 9 9 C13.29 7.02 17.58 5.04 22 3 C20.20607693 6.58784615 19.72763951 7.37871865 16.875 9.625 C14.70696205 11.66674448 14.05652828 12.62239107 13.609375 15.609375 C13.6234391 18.09872079 13.73591274 20.52540459 14 23 C16.64 24.32 19.28 25.64 22 27 C22.33 24.36 22.66 21.72 23 19 C23.99 19.33 24.98 19.66 26 20 C26.07734375 20.92619141 26.07734375 20.92619141 26.15625 21.87109375 C27.0777808 28.75115893 29.43063233 32.31522082 34.3203125 37.1875 C36 39 36 39 36 41 C38.31 41.33 40.62 41.66 43 42 C43.14115234 40.87658203 43.14115234 40.87658203 43.28515625 39.73046875 C44.10739854 36.58977277 45.12302807 35.53073609 47.4375 33.3125 C51.5068177 28.9513255 52.41485929 24.82752381 53 19 C53.99 19.33 54.98 19.66 56 20 C56.495 23.465 56.495 23.465 57 27 C57.94875 26.505 58.8975 26.01 59.875 25.5 C63 24 63 24 65 24 C65.71914236 17.09479587 65.71914236 17.09479587 62.75 11.125 C61.38875 10.073125 61.38875 10.073125 60 9 C58.63015802 7.70420353 57.2848951 6.38007251 56 5 C56 4.34 56 3.68 56 3 C60.98524294 4.76895717 65.4121988 7.3979635 70 10 C70 13.3 70 16.6 70 20 C73.62793998 18.13433512 73.62793998 18.13433512 76 15 C76.23172827 12.45384991 76.41894529 9.92603775 76.5625 7.375 C76.62727539 6.31539062 76.62727539 6.31539062 76.69335938 5.234375 C76.79944751 3.48981463 76.90022889 1.74493303 77 0 C77.99 0.495 77.99 0.495 79 1 C80.90132389 7.02085898 82.6023082 13.54003036 79.82958984 19.52734375 C77.64351191 22.48178694 75.65509641 23.66177015 72.4140625 25.375 C71.31835938 25.96796875 70.22265625 26.5609375 69.09375 27.171875 C67.9490625 27.77515625 66.804375 28.3784375 65.625 29 C63.36290429 30.20029568 61.10492817 31.40839412 58.8515625 32.625 C57.84947754 33.15351562 56.84739258 33.68203125 55.81494141 34.2265625 C52.74550293 36.16033536 50.50779329 38.39252786 48 41 C47.01 41.66 46.02 42.32 45 43 C45.69222656 43.49306641 45.69222656 43.49306641 46.3984375 43.99609375 C50.52109402 47.00253694 54.36238896 50.17593988 58.125 53.625 C61.59622151 56.80159622 64.978374 59.56585795 69 62 C66.125 67.875 66.125 67.875 65 69 C39.92240659 71.03424241 39.92240659 71.03424241 31.5 64.6875 C29.00783724 62.00842503 27.76093662 60.55103757 27 57 C27.375 53.1875 27.375 53.1875 28 50 C27.39671875 49.99742188 26.7934375 49.99484375 26.171875 49.9921875 C19.64412238 49.6763285 19.64412238 49.6763285 16.5 46.375 C14.92788322 42.83773724 14.3076834 39.84604248 14 36 C20.89770888 37.16494639 25.91813791 38.91813791 31 44 C29.32149151 38.50669947 26.14054492 36.2451009 21.27685547 33.41601562 C20.31666504 32.91779297 19.35647461 32.41957031 18.3671875 31.90625 C17.31402344 31.35066406 16.26085937 30.79507813 15.17578125 30.22265625 C12.96911799 29.07101306 10.76077076 27.92259096 8.55078125 26.77734375 C7.50019531 26.22175781 6.44960937 25.66617188 5.3671875 25.09375 C4.40925293 24.59552734 3.45131836 24.09730469 2.46435547 23.58398438 C-0.10366257 21.93337005 -1.47200868 20.62877516 -3 18 C-3.49888999 12.11309809 -2.69651328 6.65917203 -1 1 C-0.67 0.67 -0.34 0.34 0 0 Z M42 51 C42 52.32 42 53.64 42 55 C43.32 54.67 44.64 54.34 46 54 C45.67 53.01 45.34 52.02 45 51 C44.01 51 43.02 51 42 51 Z "
      fill="#000000" transform="translate(81,19)" />
    <path
      d="M0 0 C-0.47451785 4.98243747 -1.83394453 8.1102747 -5 12 C-6.875 13.1875 -6.875 13.1875 -9 13 C-11.221981 11.50043647 -13.0252511 9.84010693 -15 8 C-11.39606872 2.44393928 -6.57584035 0 0 0 Z "
      fill="#000000" transform="translate(146,55)" />
    <path
      d="M0 0 C2.23612531 1.07665293 4.29752033 2.19573706 6.375 3.5625 C9.29274907 5.16031497 11.73104276 5.52721693 15 6 C15.14942337 10.41067124 15.25771011 14.81996481 15.32958984 19.23242188 C15.35958169 20.73007906 15.40039126 22.22756329 15.45263672 23.72460938 C15.92963172 37.75387412 15.92963172 37.75387412 12.26953125 42.7890625 C10.6171875 44.55371094 10.6171875 44.55371094 9 46 C8.19175781 46.73992187 7.38351563 47.47984375 6.55078125 48.2421875 C5.81214844 48.78101563 5.07351562 49.31984375 4.3125 49.875 C3.19294922 50.70644531 3.19294922 50.70644531 2.05078125 51.5546875 C0.38493134 52.72871505 -1.30429117 53.86952745 -3 55 C-3.51245898 57.00828172 -3.51245898 57.00828172 -3.52416992 59.35791016 C-3.56398483 60.25869293 -3.60379974 61.15947571 -3.64482117 62.08755493 C-3.68721672 63.54855118 -3.68721672 63.54855118 -3.73046875 65.0390625 C-3.770616 66.03505463 -3.81076324 67.03104675 -3.85212708 68.05722046 C-3.97752947 71.24613122 -4.08272876 74.43535111 -4.1875 77.625 C-4.26885518 79.78390459 -4.35152066 81.94276022 -4.43554688 84.1015625 C-4.63891913 89.40056688 -4.82569878 94.69996409 -5 100 C-6.98 100 -8.96 100 -11 100 C-11.08564209 98.8039917 -11.17128418 97.6079834 -11.25952148 96.37573242 C-11.57804353 91.94185024 -11.90165267 87.50835154 -12.22680664 83.07495117 C-12.36686959 81.15545582 -12.50554949 79.23585902 -12.64282227 77.31616211 C-12.84028119 74.55815287 -13.04269776 71.8005457 -13.24609375 69.04296875 C-13.3065538 68.18350143 -13.36701385 67.32403412 -13.42930603 66.43852234 C-13.48929276 65.63791885 -13.54927948 64.83731537 -13.61108398 64.01245117 C-13.66215805 63.3085173 -13.71323212 62.60458344 -13.76585388 61.87931824 C-13.96534685 59.77644107 -13.96534685 59.77644107 -15 57 C-27.21 57 -39.42 57 -52 57 C-50.35 53.37 -48.7 49.74 -47 46 C-47.55558594 46.70898438 -48.11117187 47.41796875 -48.68359375 48.1484375 C-51.05499271 51.0676976 -53.523509 53.85043251 -56.0625 56.625 C-56.53349121 57.15657715 -57.00448242 57.6881543 -57.48974609 58.23583984 C-59.92090852 60.93739968 -62.18490205 63.1366567 -65.12890625 65.3125 C-69.70370066 68.84350168 -72.48960383 71.29957204 -73.57080078 77.02001953 C-74.32291043 84.6720589 -74.28722601 92.3228471 -74 100 C-75.98 100 -77.96 100 -80 100 C-80.84160965 92.60585808 -81.20467652 85.18654287 -81.375 77.75 C-81.43204102 76.49171387 -81.43204102 76.49171387 -81.49023438 75.20800781 C-81.5658558 69.5742116 -80.43641653 66.32136493 -77.20214844 61.71972656 C-74.90599497 58.43497737 -74.00704894 54.98264846 -74 51 C-74.83209096 48.93858874 -75.89005891 47.1625871 -77.0390625 45.26171875 C-78.9459245 40.77361672 -78.28701503 35.7835839 -78 31 C-78.77730469 30.71769531 -79.55460937 30.43539062 -80.35546875 30.14453125 C-83.146976 28.93639 -84.66685223 27.72209221 -86.28515625 25.12890625 C-87.8999958 20.31968465 -87.26717576 15.00212388 -87 10 C-81.37194242 11.65089689 -76.65939612 13.388968 -72 17 C-71.67 17.66 -71.34 18.32 -71 19 C-70.29109619 18.83825287 -69.58219238 18.67650574 -68.85180664 18.50985718 C-65.96267087 17.99332615 -63.30391045 17.86195232 -60.37109375 17.84228516 C-59.26644775 17.83202301 -58.16180176 17.82176086 -57.02368164 17.81118774 C-55.24852173 17.80023575 -55.24852173 17.80023575 -53.4375 17.7890625 C-50.92447253 17.76100535 -48.41145177 17.73234097 -45.8984375 17.703125 C-41.94173286 17.66179658 -37.98515529 17.62490145 -34.02832031 17.59863281 C-30.20611827 17.57106657 -26.38448404 17.52520833 -22.5625 17.4765625 C-21.37906006 17.47330963 -20.19562012 17.47005676 -18.97631836 17.46670532 C-17.87167236 17.45013885 -16.76702637 17.43357239 -15.62890625 17.41650391 C-14.1759314 17.40437363 -14.1759314 17.40437363 -12.69360352 17.39199829 C-9.49459005 16.92644803 -7.60310041 15.89026704 -5 14 C-3.59507312 11.68322579 -3.59507312 11.68322579 -2.75 9.0625 C-2.27820313 7.78052734 -2.27820313 7.78052734 -1.796875 6.47265625 C-1.10511066 4.32615221 -0.50949267 2.1959134 0 0 Z M-60 21 C-60 22.32 -60 23.64 -60 25 C-57.69 25 -55.38 25 -53 25 C-53 23.68 -53 22.36 -53 21 C-55.31 21 -57.62 21 -60 21 Z M-44 21 C-44.33 21.99 -44.66 22.98 -45 24 C-42.21136993 25.39431504 -40.07921132 25.25660094 -37 25 C-36.34 24.01 -35.68 23.02 -35 22 C-35.98267859 20.79438816 -35.98267859 20.79438816 -37.84765625 20.90234375 C-39.8984375 20.93489583 -41.94921875 20.96744792 -44 21 Z M-30 23 C-30 23.99 -30 24.98 -30 26 C-26.71303767 26.79953138 -25.28976808 27.09658936 -22 26 C-22.33 24.68 -22.66 23.36 -23 22 C-26.62885324 21.84850702 -26.62885324 21.84850702 -30 23 Z M-52 27 C-51.67 27.99 -51.34 28.98 -51 30 C-48.65466049 30.76956136 -48.65466049 30.76956136 -46 31 C-44.1645201 29.66621425 -44.1645201 29.66621425 -43 28 C-46.33057451 25.77961699 -48.28833195 25.14416598 -52 27 Z M-38 29 C-38 29.99 -38 30.98 -38 32 C-35.03 32.495 -35.03 32.495 -32 33 C-31.34 32.01 -30.68 31.02 -30 30 C-31.18424326 28.58422523 -31.18424326 28.58422523 -34.5625 28.9375 C-36.2640625 28.9684375 -36.2640625 28.9684375 -38 29 Z M-62.875 31.4375 C-63.24625 31.953125 -63.6175 32.46875 -64 33 C-61.21885944 35.33391203 -61.21885944 35.33391203 -58.3125 34.625 C-57.549375 34.41875 -56.78625 34.2125 -56 34 C-55.67 33.01 -55.34 32.02 -55 31 C-59.17742595 29.76241632 -59.17742595 29.76241632 -62.875 31.4375 Z "
      fill="#000000" transform="translate(109,84)" />
    <path
      d="M0 0 C1.01180498 2.05673453 2.00901477 4.12065348 3 6.1875 C3.556875 7.33605469 4.11375 8.48460937 4.6875 9.66796875 C6.7117837 14.80699849 6.7117837 14.80699849 6 18 C4.26961111 20.43837956 2.23321238 22.51196334 0.125 24.625 C-0.97817918 25.76145372 -2.07980134 26.89942142 -3.1796875 28.0390625 C-3.67194824 28.53615723 -4.16420898 29.03325195 -4.67138672 29.54541016 C-6.22314025 31.17050221 -6.22314025 31.17050221 -8 34 C-8.66 34 -9.32 34 -10 34 C-10.61332288 29.9695925 -10.60794975 27.97301761 -8.40625 24.44921875 C-7.11429607 22.71892331 -5.79061818 21.01177884 -4.43359375 19.33203125 C-2.7940606 17.16587746 -2.7940606 17.16587746 -3.125 14.96484375 C-4.1097191 12.75362184 -5.24307066 10.77989128 -6.5625 8.75 C-7.24505859 7.69039062 -7.24505859 7.69039062 -7.94140625 6.609375 C-8.29074219 6.07828125 -8.64007813 5.5471875 -9 5 C-7.87926138 4.16094435 -6.75325453 3.32892169 -5.625 2.5 C-4.99851562 2.0359375 -4.37203125 1.571875 -3.7265625 1.09375 C-2 0 -2 0 0 0 Z "
      fill="#000000" transform="translate(117,136)" />
    <path
      d="M0 0 C1.8871875 0.37125 1.8871875 0.37125 3.8125 0.75 C1.94977892 5.15910043 -1.2465322 7.8307213 -4.703125 11.04296875 C-6.67658071 14.64192876 -6.06270236 16.46328185 -4.9921875 20.31323242 C-3.6516689 24.37261232 -2.16690119 28.3504117 -0.5625 32.3125 C-0.07523438 33.53936523 -0.07523438 33.53936523 0.421875 34.79101562 C1.21271796 36.77975306 2.01174219 38.76523399 2.8125 40.75 C0.8325 40.75 -1.1475 40.75 -3.1875 40.75 C-7.89446251 31.54631152 -12.39552931 22.37577176 -16.1875 12.75 C-5.94637005 -0.11362491 -5.94637005 -0.11362491 0 0 Z "
      fill="#000000" transform="translate(58.1875,143.25)" />


  </g>
</svg>