<?xml version="1.0" encoding="UTF-8"?>
<svg width="1953" height="2000" viewBox="0 0 1953 2000" xmlns="http://www.w3.org/2000/svg">
  <g transform="scale(9.30232558139535) translate(0 0)">
    
<!-- Generator: visioncortex VTracer 0.6.4 -->

<path d="M0 0 C2.29220225 1.47382818 3.34505509 2.77138721 5 5 C5.495 5.495 5.495 5.495 6 6 C9.49907865 5.90840108 12.9893021 5.73698357 16.484375 5.546875 C20.97934549 6.12622675 22.09676647 7.61530153 25 11 C25.81339844 11.67417969 26.62679687 12.34835938 27.46484375 13.04296875 C35.39319717 19.9192184 37.6072476 27.11780746 40.3828125 36.97363281 C41.16685578 39.54782553 42.23941656 41.9382272 43.375 44.375 C46.07789207 50.83502421 45.94835121 58.31541293 44 65 C37.97702515 64.06588122 33.6951731 62.54516354 28.82421875 58.828125 C26.97001839 57.73265385 26.97001839 57.73265385 24.85546875 58.75390625 C22.93412734 59.91348118 22.93412734 59.91348118 21.625 61.6875 C20 63 20 63 17.125 62.8125 C14.2823192 62.07340299 11.70996803 61.11613938 9 60 C8.68708601 56.72920614 8.37474841 53.45835746 8.0625 50.1875 C7.97548828 49.27806641 7.88847656 48.36863281 7.79882812 47.43164062 C7.66831055 46.06362305 7.66831055 46.06362305 7.53515625 44.66796875 C7.456604 43.84578857 7.37805176 43.0236084 7.29711914 42.17651367 C6.85519586 37.45189267 6.4296142 32.72575617 6 28 C5.34 42.19 4.68 56.38 4 71 C-0.41498377 69.52833874 -3.8401683 68.1605984 -7.8515625 65.98828125 C-9.50091797 65.09786133 -9.50091797 65.09786133 -11.18359375 64.18945312 C-12.31925781 63.57005859 -13.45492187 62.95066406 -14.625 62.3125 C-15.73746094 61.71244141 -16.84992188 61.11238281 -17.99609375 60.49414062 C-20.23231139 59.28231372 -22.45909832 58.05291944 -24.67602539 56.80615234 C-27.97872012 54.95806523 -27.97872012 54.95806523 -31.44702148 53.44775391 C-39.32972593 49.65357449 -39.32972593 49.65357449 -41.17675781 45.09692383 C-41.74191376 41.57979079 -41.86914484 38.31112075 -41.8125 34.75 C-41.82200684 33.53449463 -41.83151367 32.31898926 -41.84130859 31.06665039 C-41.69546212 24.4521103 -41.36459845 19.62256643 -37.125 14.4375 C-35.43012644 12.94292968 -33.72203055 11.46319773 -32 10 C-31.11054687 8.58847656 -31.11054687 8.58847656 -30.203125 7.1484375 C-23.83719471 -2.7269159 -10.66260715 -2.51074708 0 0 Z M24 32 C23.67 33.32 23.34 34.64 23 36 C25.475 36.495 25.475 36.495 28 37 C28 35.68 28 34.36 28 33 C26.68 32.67 25.36 32.34 24 32 Z " fill="#000000" transform="translate(135,53)"/>
<path d="M0 0 C-3.73591044 5.79710241 -3.73591044 5.79710241 -5.6184082 7.2434082 C-7.78009322 9.99183084 -7.36862932 12.94832868 -7.29296875 16.29296875 C-7.28872391 16.99899734 -7.28447906 17.70502594 -7.28010559 18.43244934 C-7.26333034 20.68452303 -7.22568243 22.93569742 -7.1875 25.1875 C-7.17245157 26.71548185 -7.15876344 28.24347776 -7.14648438 29.77148438 C-7.11343089 33.51466872 -7.06165832 37.25718196 -7 41 C-3.83370909 42.7298553 -0.66688131 44.45872584 2.5 46.1875 C3.47437012 46.71980225 4.44874023 47.25210449 5.45263672 47.80053711 C10.84784068 50.74520838 16.2498057 53.67642923 21.6640625 56.5859375 C22.74365234 57.16706299 23.82324219 57.74818848 24.93554688 58.34692383 C27.03175643 59.47445479 29.12937415 60.59937243 31.22851562 61.72143555 C32.18693359 62.23746338 33.14535156 62.75349121 34.1328125 63.28515625 C34.97730957 63.73769775 35.82180664 64.19023926 36.69189453 64.65649414 C37.45356934 65.09985107 38.21524414 65.54320801 39 66 C39.72219727 66.41830078 40.44439453 66.83660156 41.18847656 67.26757812 C43.76315552 69.72983175 44.08152344 71.97845573 44.8515625 75.43359375 C44.99653168 76.06677017 45.14150085 76.69994659 45.29086304 77.35231018 C45.75033599 79.37771628 46.18751374 81.40724505 46.625 83.4375 C46.92571842 84.76788738 47.22778963 86.09796975 47.53125 87.42773438 C49.29353478 95.24303709 50.78485975 103.08111894 52 111 C47.35305458 111.75932417 43.63327388 112.12413858 39 111 C35.0798198 107.4927526 32.35911062 103.43616655 29.44628906 99.08349609 C26.95744398 95.49811393 24.15608521 92.17275979 21.375 88.8125 C20.27651218 87.46682422 19.1788386 86.12048331 18.08203125 84.7734375 C17.29820068 83.8138916 17.29820068 83.8138916 16.49853516 82.83496094 C15.12613175 81.15444872 13.7559963 79.47212176 12.38671875 77.7890625 C8.32157855 72.80157957 4.21407386 67.86239291 0 63 C1.65 66.63 3.3 70.26 5 74 C0.40287008 75.61408284 -4.10063603 77.08790112 -8.8671875 78.10546875 C-21.43629845 80.78965241 -31.24185872 83.99895566 -39 95 C-40.38702539 97.71602503 -41.5779678 100.49811366 -42.75 103.3125 C-43.06582031 104.05306641 -43.38164063 104.79363281 -43.70703125 105.55664062 C-44.47837159 107.36812172 -45.24016858 109.18366141 -46 111 C-50.95 111 -55.9 111 -61 111 C-61.33 90.54 -61.66 70.08 -62 49 C-64.03470837 56.12147928 -65.14085984 61.95861226 -64.73193359 69.25585938 C-64.1935572 80.23972111 -64.1935572 80.23972111 -68.375 85 C-70.21858614 86.69943743 -71.76211558 87.88105779 -74 89 C-74.08133791 87.08404032 -74.13934367 85.16708068 -74.1875 83.25 C-74.23970703 81.64898437 -74.23970703 81.64898437 -74.29296875 80.015625 C-74 77 -74 77 -72.52832031 75.14086914 C-70.67554505 72.54550393 -70.51258548 70.8895578 -70.25390625 67.73046875 C-68.60193126 51.91207507 -64.55994519 39.9874936 -56.35229492 26.37255859 C-55.11422906 24.20041127 -54.18392282 22.05851831 -53.23828125 19.75 C-50.70678752 14.58387278 -46.0535895 12.34210581 -41.1875 9.625 C-40.31029297 9.10550781 -39.43308594 8.58601563 -38.52929688 8.05078125 C-30.83516303 3.59658559 -23.70522949 1.76712927 -14.9375 0.875 C-13.77250977 0.74544922 -13.77250977 0.74544922 -12.58398438 0.61328125 C-8.36839881 0.1635236 -4.24638996 -0.09511914 0 0 Z " fill="#000000" transform="translate(98,62)"/>
<path d="M0 0 C0.74765625 0.34933594 1.4953125 0.69867188 2.265625 1.05859375 C3.74289063 1.74115234 3.74289063 1.74115234 5.25 2.4375 C6.22453125 2.88996094 7.1990625 3.34242187 8.203125 3.80859375 C16.49666753 7.34145754 23.73962262 6.01635221 32 3 C33.34455176 2.35625875 34.68215849 1.69678976 36 1 C34.55767936 4.57478396 32.83879097 6.11081448 29.625 8.1875 C28.46871094 8.95126953 28.46871094 8.95126953 27.2890625 9.73046875 C21.9138935 12.71157784 15.99993365 12.68033023 10 12 C5.20808224 10.60296791 0.62227511 8.88939713 -4 7 C-4 4 -4 4 -2 1.8125 C-1.34 1.214375 -0.68 0.61625 0 0 Z " fill="#000000" transform="translate(161,115)"/>
<path d="M0 0 C5.94 0.99 5.94 0.99 12 2 C11.03803137 6.661848 10.01768492 11.09377421 8.375 15.5625 C6.86406148 19.87512855 6.75200372 23.45340159 7 28 C10.3863251 29.50930183 10.3863251 29.50930183 14 30 C14.33 29.01 14.66 28.02 15 27 C18.47899158 28.39159663 19.48052501 29.63251488 21 33 C18.26115888 35.9590052 15.72083461 38.59544263 11.70703125 39.5390625 C7.79664832 39.68316371 5.53670601 39.31502309 2.125 37.3125 C-3.11377759 31.61147732 -3.39377415 27.41083093 -3.234375 19.86328125 C-2.30955121 4.61910242 -2.30955121 4.61910242 0 0 Z " fill="#000000" transform="translate(164,128)"/>
<path d="M0 0 C0.66 0 1.32 0 2 0 C3.51984883 1.67535459 4.96706453 3.41705622 6.375 5.1875 C7.14585938 6.15042969 7.91671875 7.11335937 8.7109375 8.10546875 C9.46632813 9.06066406 10.22171875 10.01585937 11 11 C11.76441406 11.886875 12.52882813 12.77375 13.31640625 13.6875 C15 16 15 16 14.5625 18.8125 C14.046875 19.864375 13.53125 20.91625 13 22 C12.61908203 23.06927734 12.61908203 23.06927734 12.23046875 24.16015625 C11.07643262 26.76708248 10.24511353 28.21280071 8 30 C3.2662671 30.69850769 -1.2498364 30.46280349 -6 30 C-5.31261551 23.36318424 -3.95828166 16.99207631 -2.4375 10.5 C-2.20353516 9.48679688 -1.96957031 8.47359375 -1.72851562 7.4296875 C-1.15590618 4.95227521 -0.57965985 2.47577035 0 0 Z " fill="#000000" transform="translate(107,143)"/>
<path d="M0 0 C0.64699006 3.37477931 1.29238432 6.74986193 1.9375 10.125 C2.11990234 11.07632813 2.30230469 12.02765625 2.49023438 13.0078125 C2.66748047 13.9359375 2.84472656 14.8640625 3.02734375 15.8203125 C3.27085571 17.09285889 3.27085571 17.09285889 3.51928711 18.39111328 C4.04692616 21.2546739 4.52130859 24.12785152 5 27 C0.38 27 -4.24 27 -9 27 C-10.36680153 24.73595458 -11.71844445 22.46498979 -13.0625 20.1875 C-13.45244141 19.54490234 -13.84238281 18.90230469 -14.24414062 18.24023438 C-15.24130759 16.5371085 -16.12812687 14.77054142 -17 13 C-15.59998582 8.79995746 -12.55715855 7.2404045 -9.0625 4.8125 C-8.41603516 4.34908203 -7.76957031 3.88566406 -7.10351562 3.40820312 C-2.26979013 0 -2.26979013 0 0 0 Z " fill="#000000" transform="translate(79,146)"/>


  </g>
</svg>