<?xml version="1.0" encoding="UTF-8"?>
<!-- Generator: visioncortex VTracer 0.6.4 -->
<svg version="1.1" xmlns="http://www.w3.org/2000/svg" width="133" height="142">
<path d="M0 0 C4.58732877 3.85752647 6.69491103 7.1584155 7.3359375 13.12890625 C7.52545098 29.78714103 0.93176702 42.719216 -10 55 C-9.73783691 55.54414551 -9.47567383 56.08829102 -9.20556641 56.64892578 C-8.00835225 59.13919476 -6.81664027 61.63205931 -5.625 64.125 C-5.2125 64.9809375 -4.8 65.836875 -4.375 66.71875 C-0.14662608 75.58469531 2.69821052 82.44735184 -0.5625 92.1875 C-7.00308174 108.60422757 -17.30451877 120.12246239 -33.375 127.5625 C-36.78358591 129.42910657 -38.56481426 132.00284831 -41 135 C-46.94602401 139.75681921 -54.77450861 140.26529158 -62.125 139.875 C-68.00489296 139.21162746 -73.38014951 138.01502347 -77.3984375 133.390625 C-77.84445313 132.80796875 -78.29046875 132.2253125 -78.75 131.625 C-81.34570267 128.29572918 -83.92506756 126.88134653 -87.75 125.125 C-102.36740374 118.29629962 -111.23586641 105.66251482 -117 91 C-117.5259375 89.76636719 -117.5259375 89.76636719 -118.0625 88.5078125 C-120.62739036 80.57268294 -116.44105506 73.77399855 -112.91308594 66.77050781 C-111.78856115 64.59001215 -110.64566467 62.41945011 -109.5 60.25 C-107.82477404 57.31270057 -107.82477404 57.31270057 -108.140625 55.140625 C-109.34335282 52.14473934 -111.21790819 50.00310647 -113.25 47.5 C-120.392803 38.39576062 -124.16514172 28.68694019 -124.25 17.125 C-124.270625 16.43019531 -124.29125 15.73539063 -124.3125 15.01953125 C-124.35777431 9.00936702 -122.85976585 5.07856184 -118.875 0.625 C-114.80294228 -1.67659784 -111.57276576 -1.72608105 -107 -1 C-97.31231909 1.77348929 -87.65128028 11.14964719 -82.18359375 19.30859375 C-80.37499775 21.92451247 -80.37499775 21.92451247 -78 24 C-75.49542554 23.68825299 -75.49542554 23.68825299 -72.75 22.6875 C-60.90438106 19.38673043 -49.69394997 20.68704284 -38 24 C-37.53851563 23.31035156 -37.07703125 22.62070312 -36.6015625 21.91015625 C-29.65448035 11.90141537 -20.72768309 1.50941749 -8.42578125 -1.6640625 C-5.04901362 -2.1316986 -3.08850604 -1.41556527 0 0 Z M-120 5 C-123.86122504 10.87990059 -122.63559638 20.14369255 -121.53515625 26.8203125 C-118.85568013 36.68205302 -113.67599634 44.89934062 -106.44140625 52.02734375 C-105 54 -105 54 -105.05078125 55.828125 C-106.67403023 59.54222555 -108.63859318 63.08628807 -110.6484375 66.60351562 C-113.0822678 71.17692215 -113.30071647 74.02236642 -112 79 C-110.63853685 82.32105005 -110.63853685 82.32105005 -108.9375 85.4375 C-108.11572266 87.01337891 -108.11572266 87.01337891 -107.27734375 88.62109375 C-106.85582031 89.40613281 -106.43429688 90.19117187 -106 91 C-105.34 91 -104.68 91 -104 91 C-103.72027344 90.18917969 -103.44054687 89.37835938 -103.15234375 88.54296875 C-97.26203799 72.27360333 -89.44511752 61.68282109 -73.69921875 54.12890625 C-63.96952407 50.05961282 -51.51710361 50.84970606 -41.80859375 54.6171875 C-28.04515616 61.3936227 -20.02591828 71.7404179 -15 86 C-14.32636878 87.99766499 -13.65777128 89.99705682 -13 92 C-10.19407343 89.55506983 -8.88406756 87.00420037 -7.375 83.625 C-6.94960937 82.68914062 -6.52421875 81.75328125 -6.0859375 80.7890625 C-4.04313773 76.08617845 -4.04313773 76.08617845 -4.66064453 71.17382812 C-5.6645888 69.05216949 -6.74684339 66.99572551 -7.875 64.9375 C-8.62589616 63.53181214 -9.37341172 62.12431209 -10.1171875 60.71484375 C-10.45347168 60.09730225 -10.78975586 59.47976074 -11.13623047 58.84350586 C-12.03908762 56.91657699 -12.55111119 55.0756091 -13 53 C-12.41089844 52.7628125 -11.82179688 52.525625 -11.21484375 52.28125 C-3.53776507 47.84018861 1.81520532 35.45978864 4.3125 27.1875 C5.73964211 20.37047168 6.61972194 12.09833175 3.1875 5.8125 C1.12517349 2.85506227 1.12517349 2.85506227 -2 1 C-9.01404343 0.15347752 -13.30154545 1.94985875 -19 6 C-25.2977567 11.01152803 -30.45020519 16.38082812 -35 23 C-35.99512308 24.33697713 -36.99390939 25.67125643 -38 27 C-38.7528125 26.71125 -39.505625 26.4225 -40.28125 26.125 C-54.10739503 21.29256096 -66.3479155 21.76358403 -80 27 C-80.37769531 26.32195313 -80.75539062 25.64390625 -81.14453125 24.9453125 C-87.09340771 14.88655652 -95.71358665 5.12109405 -107 1 C-112.4735802 -0.09867523 -116.11958831 0.8913288 -120 5 Z M-86.01953125 62.9453125 C-87.42197202 64.56780838 -88.72429638 66.27607619 -90 68 C-89.33613281 68.09796875 -88.67226562 68.1959375 -87.98828125 68.296875 C-82.68589374 69.19479756 -78.77074166 69.88646364 -75 74 C-71.390649 80.18745885 -70.85643216 85.19086176 -70.9375 92.25 C-70.94201172 92.99507812 -70.94652344 93.74015625 -70.95117188 94.5078125 C-70.96290754 96.3385764 -70.9808415 98.16929873 -71 100 C-69.2675 99.505 -69.2675 99.505 -67.5 99 C-59.90858974 97.13216619 -53.4434318 98.07022138 -46 100 C-46.02320313 99.24976563 -46.04640625 98.49953125 -46.0703125 97.7265625 C-46.23242153 88.53266454 -46.3739955 79.25927265 -40 72 C-35.78100933 69.2810949 -31.96163704 68.4961637 -27 68 C-32.9951133 59.60684138 -42.48341691 54.50331662 -52.51953125 52.49609375 C-64.33285324 50.89056358 -77.31803423 54.5635997 -86.01953125 62.9453125 Z M-92 70 C-92 70.66 -92 71.32 -92 72 C-91.16855469 72.31453125 -90.33710937 72.6290625 -89.48046875 72.953125 C-88.39378906 73.38109375 -87.30710937 73.8090625 -86.1875 74.25 C-85.10855469 74.66765625 -84.02960938 75.0853125 -82.91796875 75.515625 C-79.86360521 77.06938423 -78.65244828 78.04298728 -77 81 C-76.26953125 83.359375 -76.26953125 83.359375 -75.8125 85.75 C-75.57466797 86.94882813 -75.57466797 86.94882813 -75.33203125 88.171875 C-75.22246094 88.77515625 -75.11289063 89.3784375 -75 90 C-76.77395508 89.57533503 -78.54410631 89.1347591 -80.3125 88.6875 C-81.29863281 88.44386719 -82.28476563 88.20023438 -83.30078125 87.94921875 C-86.11746669 86.95869117 -87.2820096 86.40518655 -89 84 C-89.94921875 81.30078125 -89.94921875 81.30078125 -90.6875 78.3125 C-90.93886719 77.31863281 -91.19023438 76.32476562 -91.44921875 75.30078125 C-91.63097656 74.54152344 -91.81273437 73.78226562 -92 73 C-92.99 73 -93.98 73 -95 73 C-101.17680811 83.40361417 -101.17680811 83.40361417 -103 95 C-100.90058363 97.50847324 -100.90058363 97.50847324 -98 100 C-96.88282644 101.10414238 -95.77244063 102.21518344 -94.66796875 103.33203125 C-94.09755859 103.90244141 -93.52714844 104.47285156 -92.93945312 105.06054688 C-90.29296875 107.70703125 -87.64648437 110.35351563 -85 113 C-82.84147382 110.88194619 -80.86392333 108.82565177 -79 106.4375 C-77 104 -77 104 -74.8125 102.5625 C-72.78512204 101.09797976 -72.78512204 101.09797976 -72.25 98.5 C-71.26866225 84.81432487 -71.26866225 84.81432487 -77.5 73.0625 C-80.92899494 70.23357917 -83.38490371 69.87514353 -87.6875 69.9375 C-88.49574219 69.94652344 -89.30398437 69.95554687 -90.13671875 69.96484375 C-90.75160156 69.97644531 -91.36648437 69.98804687 -92 70 Z M-41.1875 75.1875 C-46.16981278 82.918675 -45.76072309 92.23709493 -44 101 C-42.25710695 103.51512874 -40.67691917 104.32036444 -38 106 C-36.42027961 108.25194184 -35.25363789 110.54094106 -34 113 C-26.8885579 109.97763711 -21.65038313 102.95249041 -17 97 C-16.34 96.67 -15.68 96.34 -15 96 C-14.24896908 87.55090212 -17.55201679 80.06069541 -22 73 C-22.99 73.33 -23.98 73.66 -25 74 C-25.77112101 76.00471389 -25.77112101 76.00471389 -26.125 78.375 C-26.61930837 81.03732753 -27.13999007 83.4199702 -28 86 C-29.890625 86.9140625 -29.890625 86.9140625 -32.25 87.625 C-33.01828125 87.86476563 -33.7865625 88.10453125 -34.578125 88.3515625 C-37.03794414 89.01015924 -39.49791046 89.52974913 -42 90 C-41.52140759 88.39566191 -41.04210442 86.79153584 -40.5625 85.1875 C-40.29566406 84.29417969 -40.02882813 83.40085937 -39.75390625 82.48046875 C-39.19612127 80.64526945 -38.60655425 78.81966274 -38 77 C-35.56640625 76.0859375 -35.56640625 76.0859375 -32.5625 75.375 C-28.6745661 74.47854964 -28.6745661 74.47854964 -25 73 C-25 72.01 -25 71.02 -25 70 C-32.07145226 69.58403222 -35.99918972 69.99918972 -41.1875 75.1875 Z M-88 76 C-88.93065133 78.60582371 -89.14917407 79.64198224 -88.0625 82.25 C-87.711875 82.8275 -87.36125 83.405 -87 84 C-86.896875 83.401875 -86.79375 82.80375 -86.6875 82.1875 C-85.91123545 79.71756736 -84.92911079 78.67748765 -83 77 C-84.65 76.67 -86.3 76.34 -88 76 Z M-31 76 C-31.66 76.66 -32.32 77.32 -33 78 C-32.34 78.66 -31.68 79.32 -31 80 C-30.30251417 81.31747324 -29.63040043 82.64914193 -29 84 C-28.67 81.69 -28.34 79.38 -28 77 C-28.99 76.67 -29.98 76.34 -31 76 Z M-115 77 C-117.98468193 84.16751575 -115.79034638 89.06354573 -113 96 C-106.64463162 109.74133705 -96.97396163 119.22019388 -83 125 C-82.99720229 120.03336838 -83.26548817 116.21962181 -86.765625 112.48828125 C-87.90725101 111.40832929 -89.06940996 110.34971422 -90.25 109.3125 C-91.4033382 108.24857791 -92.55440735 107.1821905 -93.703125 106.11328125 C-94.26451172 105.59717285 -94.82589844 105.08106445 -95.40429688 104.54931641 C-96.92365591 103.07412479 -98.27108106 101.55732647 -99.609375 99.91796875 C-101.90975171 96.97487691 -101.90975171 96.97487691 -104.57421875 94.61328125 C-107.55267303 91.40460828 -109.08663849 88.16879199 -110.8125 84.1875 C-111.27946289 83.14819336 -111.27946289 83.14819336 -111.75585938 82.08789062 C-112.5140891 80.39645509 -113.25849616 78.69883446 -114 77 C-114.33 77 -114.66 77 -115 77 Z M-3 77 C-3.51949219 78.09699219 -4.03898437 79.19398437 -4.57421875 80.32421875 C-5.27810134 81.77890943 -5.98255902 83.23332193 -6.6875 84.6875 C-7.02716797 85.40873047 -7.36683594 86.12996094 -7.71679688 86.87304688 C-9.93678578 91.41676249 -12.23564604 94.53789344 -16 98 C-17.15817665 99.22392988 -18.30584655 100.45785061 -19.4453125 101.69921875 C-20.04730469 102.35083984 -20.64929688 103.00246094 -21.26953125 103.67382812 C-22.51593846 105.02650795 -23.7607076 106.38069883 -25.00390625 107.73632812 C-25.60332031 108.38408203 -26.20273438 109.03183594 -26.8203125 109.69921875 C-27.35930176 110.28533936 -27.89829102 110.87145996 -28.45361328 111.4753418 C-30 113 -30 113 -33 115 C-33.58189266 117.42521494 -33.58189266 117.42521494 -33.6875 120.125 C-33.78611328 121.49011719 -33.78611328 121.49011719 -33.88671875 122.8828125 C-33.92410156 123.58148438 -33.96148437 124.28015625 -34 125 C-17.75320149 118.12103637 -8.24777471 105.74459572 -1.6875 89.8125 C-0.85719824 86.41581097 -0.73705323 83.48404476 -1 80 C-1.66 79.01 -2.32 78.02 -3 77 Z M-38 81 C-39.29633621 82.06645115 -39.29633621 82.06645115 -39.0625 84.5625 C-39.041875 85.366875 -39.02125 86.17125 -39 87 C-35.535 86.505 -35.535 86.505 -32 86 C-32.61875 85.731875 -33.2375 85.46375 -33.875 85.1875 C-36 84 -36 84 -38 81 Z M-79 82 C-79.66 82.66 -80.32 83.32 -81 84 C-82.31747324 84.69748583 -83.64914193 85.36959957 -85 86 C-82.29120665 87.35439668 -79.99066732 87.06501451 -77 87 C-77.33 85.35 -77.66 83.7 -78 82 C-78.33 82 -78.66 82 -79 82 Z M-79 108 C-82.07531411 112.42076403 -82.88388394 116.70662764 -82 122 C-80.18368532 127.55156068 -77.17831559 132.08512726 -72 135 C-63.52486772 138.47410381 -56.15753083 138.88064931 -47.43359375 136.0390625 C-42.11183782 133.7668521 -38.92164393 130.60544426 -36.0625 125.625 C-34.36988465 119.85019467 -34.20271752 116.01053842 -36.4375 110.375 C-40.18231494 104.61273195 -46.23137565 101.17797159 -52.8125 99.625 C-62.70298139 97.78742422 -71.87409587 101.01080386 -79 108 Z " fill="#000000" transform="translate(125,2)"/>
<path d="M0 0 C4.5115985 0.82866095 6.7426973 2.7353743 9.4140625 6.43359375 C15.98112736 16.59142215 15.98112736 16.59142215 15.0625 22.5625 C13.77284824 23.93812854 12.43560707 25.27016393 11.0625 26.5625 C9.27520447 30.13709106 8.61275909 33.61897654 8.0625 37.5625 C3.83833806 36.8085098 2.21349841 35.10716086 -0.41015625 31.8359375 C-5.80652291 23.80349404 -8.50184298 15.22633843 -6.9375 5.5625 C-5.021391 1.73028201 -4.19066623 0.802468 0 0 Z M-2.9375 2.5625 C-5.75468794 7.39679451 -5.52991915 12.11224379 -4.9375 17.5625 C-3.08867526 24.11742408 0.80099259 29.34925593 5.0625 34.5625 C6.24084588 32.22098007 7.38594975 29.87341141 8.5 27.5 C10.0625 24.5625 10.0625 24.5625 11.8125 23.0625 C13.32805851 21.55963824 13.32805851 21.55963824 13.125 19 C11.16044922 12.64410043 7.87070266 6.12793134 2.0625 2.5625 C-0.60511764 2.31125174 -0.60511764 2.31125174 -2.9375 2.5625 Z " fill="#000000" transform="translate(14.9375,8.4375)"/>
<path d="M0 0 C3.0575453 3.13800702 4.26773829 5.88291636 4.5 10.1875 C3.98652916 20.35422257 -0.89628231 28.37184014 -7.55859375 35.71875 C-9 37 -9 37 -11 37 C-11.17015625 36.33613281 -11.3403125 35.67226563 -11.515625 34.98828125 C-13.03190602 29.26049859 -13.03190602 29.26049859 -16.25 24.375 C-18 22 -18 22 -18.125 18.3125 C-16.9069858 11.76256649 -13.02376598 6.12495428 -8.5 1.375 C-5.29308689 -0.38880221 -3.59648057 -0.76520863 0 0 Z M-7.375 3.3125 C-11.22310159 7.25222306 -14.052927 11.83952456 -16 17 C-15.73212156 19.97642709 -15.4187719 21.47198326 -13.5625 23.8125 C-11.28362555 27.00292423 -10.82757122 30.18044052 -10 34 C-4.46443537 31.66119456 -2.37934662 27.09805629 -0.015625 21.7890625 C1.9235849 16.57514909 2.82098687 11.5472086 2 6 C0.95170604 3.39987862 0.95170604 3.39987862 -1 2 C-4.86876175 1.67754259 -4.86876175 1.67754259 -7.375 3.3125 Z " fill="#000000" transform="translate(121,9)"/>
<path d="M0 0 C3.85544798 1.99657127 5.59805092 3.39707638 8 7 C8.52406828 10.93051214 8.14790087 12.72532696 6.25 16.25 C3.4936966 19.61881527 1.7063122 20.80419368 -2.62109375 21.30078125 C-12.31325875 21.34110926 -12.31325875 21.34110926 -16 18 C-18.33143077 15.10581008 -18.96998941 13.18673259 -19.5625 9.5 C-18.97648738 5.85369928 -18.80314825 5.37627934 -16.1875 3.125 C-10.92972684 -0.38018211 -6.17412031 -0.71055195 0 0 Z M-16 5 C-16.96044102 7.07690578 -16.96044102 7.07690578 -17 9 C-13.535 10.98 -13.535 10.98 -10 13 C-10 13.99 -10 14.98 -10 16 C-10.66 16.66 -11.32 17.32 -12 18 C-10.26150372 19.73849628 -7.9213363 19.17216296 -5.5625 19.1875 C-4.07943359 19.20876953 -4.07943359 19.20876953 -2.56640625 19.23046875 C0.16584415 19.26150753 0.16584415 19.26150753 2 17 C1.01 16.67 0.02 16.34 -1 16 C-0.875 14.125 -0.875 14.125 0 12 C3.0625 10.75 3.0625 10.75 6 10 C5.10368306 6.98511576 4.32087126 5.28197778 1.9375 3.1875 C-4.24463628 0.68833853 -10.46975993 1.12883195 -16 5 Z M-17 11 C-16.34 12.65 -15.68 14.3 -15 16 C-13.68 15.67 -12.36 15.34 -11 15 C-12.28965176 13.62437146 -13.62689293 12.29233607 -15 11 C-15.66 11 -16.32 11 -17 11 Z M1.375 13.5 C0.92125 13.995 0.4675 14.49 0 15 C1.32 15 2.64 15 4 15 C4.33 14.01 4.66 13.02 5 12 C2.87635519 11.77390663 2.87635519 11.77390663 1.375 13.5 Z " fill="#000000" transform="translate(72,113)"/>
</svg>
