<?xml version="1.0" encoding="UTF-8"?>
<!-- Generator: visioncortex VTracer 0.6.4 -->
<svg version="1.1" xmlns="http://www.w3.org/2000/svg" width="143" height="143">
<path d="M0 0 C1.61841797 0.0009668 1.61841797 0.0009668 3.26953125 0.00195312 C11.20205357 0.04651786 11.20205357 0.04651786 14.625 1.1875 C16.76755793 0.79817144 16.76755793 0.79817144 18.625 0.1875 C19.12 1.6725 19.12 1.6725 19.625 3.1875 C21.59035445 3.96468184 21.59035445 3.96468184 24 4.4375 C39.43220825 8.70224131 52.48340514 21.95150857 60.53515625 35.37109375 C70.07467366 53.21464967 72.79124798 72.8203644 66.94921875 92.3671875 C60.9290004 110.57129125 48.73732216 125.29578133 31.98046875 134.6171875 C13.56555372 143.23511048 -6.07858587 144.60742706 -25.375 138.1875 C-43.46392166 131.3688778 -57.93067523 117.44998684 -66.375 100.1875 C-74.23613563 81.49273682 -73.89039857 62.20202869 -67.125 43.3125 C-64.63063049 37.29186407 -61.45119917 32.25386901 -57.375 27.1875 C-56.71757813 26.35476562 -56.06015625 25.52203125 -55.3828125 24.6640625 C-41.24026859 7.82770071 -21.68438375 -0.25152826 0 0 Z M-52.03466797 23.67382812 C-64.19489034 37.40668399 -71.33495173 55.27818397 -70.59375 73.77734375 C-69.53810671 85.4082707 -66.66631997 96.22777188 -60.375 106.1875 C-55.36768293 104.45250856 -54.09745768 100.52839542 -51.86499023 96.02514648 C-48.19580864 88.31039363 -45.36997625 80.26376067 -42.4375 72.25 C-35.07574774 52.17225844 -27.46820841 31.60200802 -7.375 21.1875 C-6.2096875 20.77628906 -5.044375 20.36507813 -3.84375 19.94140625 C0.54063322 17.7245278 2.09955565 15.27929014 4.5 11.125 C4.88929687 10.48755859 5.27859375 9.85011719 5.6796875 9.19335938 C7.074318 6.89560878 8.42261754 4.59226492 9.625 2.1875 C-14.3500977 1.3407837 -35.04106874 5.59374304 -52.03466797 23.67382812 Z M15.625 3.1875 C14.18111429 4.40178988 14.18111429 4.40178988 14.52734375 8.00390625 C14.53401911 9.58596682 14.54598125 11.16801159 14.5625 12.75 C14.56701172 13.55630859 14.57152344 14.36261719 14.57617188 15.19335938 C14.58799482 17.19143756 14.60593086 19.18947783 14.625 21.1875 C18.19731298 15.82903053 17.74723971 10.421725 17.625 4.1875 C16.965 3.8575 16.305 3.5275 15.625 3.1875 Z M10.625 4.1875 C9.34846071 5.89157382 8.0790296 7.60097351 6.8125 9.3125 C5.75095703 10.73949219 5.75095703 10.73949219 4.66796875 12.1953125 C0.8952707 17.7209085 -0.76416815 21.44191871 -0.375 28.1875 C-0.375 28.8475 -0.375 29.5075 -0.375 30.1875 C-1.035 28.2075 -1.695 26.2275 -2.375 24.1875 C-11.393507 31.23154097 -17.04352827 38.79210447 -19.375 50.1875 C-20.99713684 66.44197326 -16.22845328 79.5004598 -8.375 93.625 C-3.29109623 103.02068601 0.78283382 111.59504448 2.625 122.1875 C2.8415625 123.21617188 3.058125 124.24484375 3.28125 125.3046875 C3.76335897 127.59470513 4.21309216 129.88406799 4.625 132.1875 C4.955 132.1875 5.285 132.1875 5.625 132.1875 C5.73457031 131.17171875 5.84414062 130.1559375 5.95703125 129.109375 C7.37159537 116.63285851 7.37159537 116.63285851 9.125 110.625 C11.02730617 103.71962861 11.37410882 96.66899816 11.80273438 89.54663086 C12.27826344 82.62615282 13.5047338 76.42803239 16.625 70.1875 C15.96113281 69.89617187 15.29726562 69.60484375 14.61328125 69.3046875 C8.89931301 66.65207159 5.16356059 64.43826733 1.625 59.1875 C0.5098707 55.8421121 0.49200928 53.26991188 0.5 49.75 C0.49613281 48.05037109 0.49613281 48.05037109 0.4921875 46.31640625 C0.60174807 43.73528817 0.86635123 41.63805595 1.625 39.1875 C2.285 39.5175 2.945 39.8475 3.625 40.1875 C3.14160156 41.01314453 3.14160156 41.01314453 2.6484375 41.85546875 C0.57641309 46.57683735 0.70022211 52.45815553 2.34765625 57.3203125 C4.87832207 62.0537846 8.18380015 65.06662229 13.015625 67.28515625 C18.34231004 68.61682751 23.53396094 68.39619671 29 68.3125 C30.11761719 68.30347656 31.23523438 68.29445313 32.38671875 68.28515625 C35.13303462 68.26168346 37.87890472 68.22884728 40.625 68.1875 C40.625 67.5275 40.625 66.8675 40.625 66.1875 C38.315 65.5275 36.005 64.8675 33.625 64.1875 C33.625 63.1975 33.625 62.2075 33.625 61.1875 C34.51251953 61.72890625 34.51251953 61.72890625 35.41796875 62.28125 C36.20816406 62.7453125 36.99835938 63.209375 37.8125 63.6875 C38.58980469 64.1515625 39.36710937 64.615625 40.16796875 65.09375 C42.9090132 66.31392877 44.65795213 66.54835717 47.625 66.1875 C49.46815671 64.2870533 49.46815671 64.2870533 50.625 62.1875 C50.109375 61.795625 49.59375 61.40375 49.0625 61 C48.588125 60.401875 48.11375 59.80375 47.625 59.1875 C48.03515625 56.57421875 48.03515625 56.57421875 48.625 54.1875 C47.92153442 53.67364746 47.92153442 53.67364746 47.20385742 53.14941406 C45.06895184 51.58474987 42.94071799 50.01124675 40.8125 48.4375 C40.07451172 47.89867187 39.33652344 47.35984375 38.57617188 46.8046875 C37.86396484 46.27617188 37.15175781 45.74765625 36.41796875 45.203125 C35.7633667 44.72133789 35.10876465 44.23955078 34.43432617 43.74316406 C31.30097131 41.04909617 29.47613445 38.07365545 27.875 34.3125 C25.69962352 29.85339495 22.79733932 26.86040488 18.625 24.1875 C15.86735649 23.24509076 15.86735649 23.24509076 13.625 23.1875 C11.645 25.8275 9.665 28.4675 7.625 31.1875 C7.295 30.8575 6.965 30.5275 6.625 30.1875 C7.8315625 28.640625 7.8315625 28.640625 9.0625 27.0625 C13.01910737 21.47407152 13.34452344 14.89492186 12.625 8.1875 C11.68450202 5.97107499 11.68450202 5.97107499 10.625 4.1875 Z M19.625 5.1875 C17.81279991 13.61626624 17.81279991 13.61626624 17.625 22.1875 C19.34607276 24.76019166 20.80817602 25.64154051 23.51953125 27.07421875 C27.51821454 29.18855036 29.1655051 33.10768698 30.875 37.125 C34.9706803 44.29244052 42.62641906 48.72607487 49.3046875 53.29296875 C51.63029457 55.19182301 52.70956062 56.35020653 53.625 59.1875 C52.75420134 62.4027566 51.6644164 64.348763 49.046875 66.4609375 C43.01269907 69.81061784 36.79768347 69.49172924 30.09741211 69.21630859 C25.51298749 69.04733853 21.89045704 69.21732701 17.625 71.1875 C14.44587944 76.12061812 13.62210681 81.09500186 13.23046875 86.85546875 C12.54538862 95.95807708 11.71502635 104.75417043 9.5 113.625 C7.65625756 121.05551415 5.05262698 132.04275396 8.625 139.1875 C25.8562249 136.91487782 41.48020174 128.68185461 52.625 115.1875 C58.43407798 107.09478085 62.55100137 98.64595732 65.625 89.1875 C65.87121094 88.4553125 66.11742187 87.723125 66.37109375 86.96875 C70.9726158 70.46673988 67.15778451 51.25244219 59.03881836 36.51708984 C50.30673831 21.79023412 37.10567263 11.95129986 21.625 5.1875 C20.965 5.1875 20.305 5.1875 19.625 5.1875 Z M-4.375 21.1875 C-21.82407839 28.22835619 -29.75729395 44.51833918 -36.94677734 60.78955078 C-40.36898646 68.93148351 -43.40782911 77.22844848 -46.44018555 85.52197266 C-46.6875798 86.19813126 -46.93497406 86.87428986 -47.18986511 87.57093811 C-47.86512402 89.42239507 -48.53526799 91.27571524 -49.20507812 93.12915039 C-50.375 96.1875 -50.375 96.1875 -51.52197266 98.46411133 C-53.63848097 102.74013656 -51.87087811 108.39802682 -50.65625 112.78125 C-46.79469648 123.56696845 -40.47497175 128.69479319 -30.43286133 133.52416992 C-18.78118312 138.88304988 -8.16004296 140.37644152 4.625 140.1875 C5.86979333 136.45312002 4.86417027 134.73774801 3.5625 131.15234375 C2.63691814 128.22519111 1.99972288 125.29960734 1.38842773 122.29345703 C-0.52556123 113.08931519 -3.85579631 105.48980188 -8.28857422 97.24511719 C-11.57532085 91.02024064 -14.52277941 84.62113274 -17.375 78.1875 C-17.76042969 77.32125 -18.14585938 76.455 -18.54296875 75.5625 C-22.50311473 64.85337284 -21.87661827 50.32845226 -17.703125 39.8359375 C-13.89492877 32.2419462 -9.64496878 26.63850129 -2.375 22.1875 C-3.035 21.8575 -3.695 21.5275 -4.375 21.1875 Z M-57 106.6875 C-57.45375 107.1825 -57.9075 107.6775 -58.375 108.1875 C-56.81999019 112.00434226 -54.33904505 114.37945732 -51.375 117.1875 C-52.035 113.2275 -52.695 109.2675 -53.375 105.1875 C-55.49864481 104.96140663 -55.49864481 104.96140663 -57 106.6875 Z " fill="#000000" transform="translate(72.375,0.8125)"/>
<path d="M0 0 C2.31 0 4.62 0 7 0 C7.33 1.65 7.66 3.3 8 5 C5.6875 5.6875 5.6875 5.6875 3 6 C1.1875 4.75 1.1875 4.75 0 3 C0 2.01 0 1.02 0 0 Z " fill="#000000" transform="translate(90,38)"/>
</svg>
