<?xml version="1.0" encoding="UTF-8"?>
<!-- Generator: visioncortex VTracer 0.6.4 -->
<svg version="1.1" xmlns="http://www.w3.org/2000/svg" width="149" height="130">
<path d="M0 0 C6.25861644 -0.19731599 11.55487484 0.27037937 17.5625 2 C18.32828369 2.21567627 19.09406738 2.43135254 19.88305664 2.65356445 C29.12576339 5.41582913 37.97227912 9.64818608 46 15 C50.03434182 14.64402866 53.82735478 13.07608058 57.62109375 11.71875 C69.17686553 8.22735097 81.6242625 9.46736357 93 13 C94.04800781 13.57621094 94.04800781 13.57621094 95.1171875 14.1640625 C96.93696818 15.15033635 96.93696818 15.15033635 98.828125 14.859375 C101.29982619 13.88136374 103.56759775 12.63755134 105.87353516 11.32055664 C116.33375567 5.35281439 129.04405851 -0.27043969 141.3125 -0.0625 C142.529375 -0.041875 143.74625 -0.02125 145 0 C148.05389564 4.58084345 147.39431341 9.52657952 146.5703125 14.6953125 C143.80210213 27.51110124 137.6987171 41.08933326 126.5625 48.65625 C120.76666667 52 120.76666667 52 118 52 C117.98541748 52.87736816 117.97083496 53.75473633 117.95581055 54.65869141 C117.8945032 57.93549321 117.82030667 61.21148944 117.73754883 64.48779297 C117.70443709 65.9017449 117.67636284 67.31582464 117.65356445 68.72998047 C117.61976225 70.77105823 117.56744036 72.81097928 117.51171875 74.8515625 C117.48553467 76.07697754 117.45935059 77.30239258 117.43237305 78.56494141 C116.72407862 84.19210263 114.50868137 88.02827705 110.1875 91.625 C109.13175781 92.51058594 109.13175781 92.51058594 108.0546875 93.4140625 C106 95 106 95 102.8125 97 C97.72403021 100.61846741 95.27523483 105.00513281 93.1875 110.8125 C90.71808925 117.2984222 86.87456919 123.4469893 80.984375 127.328125 C76.11452619 129.43711464 72.10215089 129.23439135 67 128 C62.31325686 125.56983689 60.78423109 123.84291296 59 119 C58.37351563 118.73960938 57.74703125 118.47921875 57.1015625 118.2109375 C54.09197591 116.47678909 53.68398188 114.46595078 52.5 111.25 C49.15642725 102.82580318 45.94945833 98.80726843 38.4765625 93.78125 C33.02829836 89.86262469 29.88934949 86.11737218 28.36621094 79.47241211 C27.60648564 74.34325337 27.79798315 69.1719777 27.875 64 C27.88402344 62.84371094 27.89304687 61.68742187 27.90234375 60.49609375 C27.92575078 57.66384353 27.95854005 54.83203381 28 52 C27.0925 51.72542969 26.185 51.45085938 25.25 51.16796875 C14.42556924 47.27793894 8.16891275 38.12096135 3.33935547 28.18994141 C-0.74062341 19.47562609 -3.1474511 9.44235331 0 0 Z M1 3 C-0.45472388 15.49631664 4.06221399 27.73719212 11 38 C15.60039246 43.66936332 20.31356603 47.13438544 27 50 C27.04688261 46.55077931 26.87805179 43.34594885 26 40 C23.1541623 37.6732351 23.1541623 37.6732351 20.98046875 36.44140625 C15.74582076 32.63157369 12.62779225 26.56394799 11.1171875 20.39453125 C10.63200086 17.26131896 10.24618915 14.16026475 10 11 C30.21778789 16.6807397 44.43756243 30.24537109 54.94384766 48.07421875 C57.74674161 53.18499718 59.93599339 58.55471428 62 64 C62.33 64 62.66 64 63 64 C63.93476679 48.9744893 59.80552586 32.66959063 49.98828125 21.0234375 C39.27527953 10.12101139 19.93924914 2.58105268 4.62890625 1.8359375 C2.0751777 1.70425864 2.0751777 1.70425864 1 3 Z M97 20 C86.09450115 32.06433744 82.45824822 48.16880921 83 64 C84.80326237 61.29510645 86.17516714 58.5880402 87.56176758 55.65698242 C96.59155523 36.75809287 110.74319846 19.29244855 131 12 C132.66285597 11.64814932 134.32911878 11.31152023 136 11 C134.9246306 21.79077575 132.05248361 29.75893238 123.6875 36.9375 C123.01074219 37.46214844 122.33398438 37.98679688 121.63671875 38.52734375 C119.72424385 40.00440143 119.72424385 40.00440143 119 43 C118.96045766 45.33299825 118.95598268 47.66708189 119 50 C129.69342216 45.72263113 136.02067365 37.36475438 140.78125 27.08984375 C143.90495387 19.17045348 146.78867138 10.36601413 144 2 C127.6908608 1.45844493 108.96124478 9.12790921 97 20 Z M50 17 C51.08271532 20.1497173 52.46472984 22.75739775 54.3125 25.5 C64.81907726 42.00589504 66.99796816 64.62712719 62.86816406 83.55615234 C61.68943836 88.20219889 60.18252 92.6522313 58.328125 97.06640625 C58.04662598 97.73671875 57.76512695 98.40703125 57.47509766 99.09765625 C56.67551682 100.94573971 55.82754915 102.77267304 54.9765625 104.59765625 C53.77075613 108.79868565 54.41065317 110.984808 56 115 C57.46041766 117.11670357 57.46041766 117.11670357 60 118 C63.01805202 118.2293511 65.98026447 118.17421551 69 118 C67.10166034 115.95734212 66.04120399 115.01569676 63.375 114 C62.199375 113.505 62.199375 113.505 61 113 C60.13893331 110.41679994 59.78346381 108.66678376 59.6875 106 C59.65011719 105.319375 59.61273438 104.63875 59.57421875 103.9375 C60 102 60 102 61.69140625 100.30078125 C66.93197202 97.34797516 73.72584133 97.47754652 79.5 98.75 C84.82608696 100.65217391 84.82608696 100.65217391 86 103 C86 109.97297297 86 109.97297297 82.6875 113.375 C80.49003281 114.70370109 78.34572843 115.95745403 76 117 C76 117.33 76 117.66 76 118 C81.56848124 118.21837181 85.50431881 118.07973433 89.875 114.4375 C91.70134845 110.48041169 91.0381657 107.07931414 90 103 C88.5923017 99.22294903 87.08002774 95.54030949 85.47265625 91.84375 C78.7032687 75.08063154 79.92411424 52.82825501 86 36 C88.94154332 29.2254294 92.87946751 23.09947244 97 17 C95.12699975 16.34838988 93.2514945 15.70397805 91.375 15.0625 C90.33085938 14.70285156 89.28671875 14.34320313 88.2109375 13.97265625 C76.05625784 10.29076424 61.27983655 10.76355191 50 17 Z M12 13 C11.00797806 20.27482757 14.19146743 25.93041988 18 32 C19.92033146 34.12781555 21.57831996 35.42309207 24 37 C24.33 37 24.66 37 25 37 C24.34650367 29.44961578 24.34650367 29.44961578 23 22 C23.66 22 24.32 22 25 22 C25.03738281 22.6084375 25.07476562 23.216875 25.11328125 23.84375 C25.56359036 29.84787142 26.39881517 35.71135236 27.5 41.625 C27.63059814 42.33591797 27.76119629 43.04683594 27.89575195 43.77929688 C28.31962878 47.17823404 28.31962878 47.17823404 30 50 C31.84984397 50.29893479 33.70523771 50.56378027 35.5625 50.8125 C43.65984676 52.13804431 49.50757297 54.39611801 54.6875 60.94140625 C57.09041907 64.71027039 58.56111863 68.78712138 60 73 C60.4125 74.19625 60.825 75.3925 61.25 76.625 C61.4975 77.40875 61.745 78.1925 62 79 C64.92045221 69.54638802 59.52666387 59.52082075 55.32421875 51.2109375 C51.9330593 44.86452239 47.77106165 39.36538075 43 34 C42.50338867 33.43764648 42.00677734 32.87529297 41.49511719 32.29589844 C33.44484801 23.3416689 24.39477876 14.91389966 12 13 Z M105.875 30.625 C95.13989414 41.46332803 83.19902866 59.05828033 82.9375 74.75 C82.958125 75.8225 82.97875 76.895 83 78 C86.08532132 74.91467868 87.08908643 70.73089558 88.52539062 66.67382812 C91.36009944 59.15180551 96.16493315 55.42300509 103.2890625 52 C106.88431644 50.67379682 110.25613356 50.30706437 114.06640625 50.140625 C116.00660332 50.21138123 116.00660332 50.21138123 117 49 C117.83166876 45.4469286 118.4192286 41.84140921 119.0625 38.25 C119.24876953 37.24710938 119.43503906 36.24421875 119.62695312 35.2109375 C119.80291016 34.23898438 119.97886719 33.26703125 120.16015625 32.265625 C120.32136963 31.37649414 120.48258301 30.48736328 120.64868164 29.57128906 C120.9982971 27.01246347 121.06235778 24.57900174 121 22 C121.66 22 122.32 22 123 22 C122.855625 22.66386719 122.71125 23.32773437 122.5625 24.01171875 C122.2840625 25.33623047 122.2840625 25.33623047 122 26.6875 C121.7215625 27.99267578 121.7215625 27.99267578 121.4375 29.32421875 C121.01027953 31.93712964 120.92383799 34.35813038 121 37 C127.33764847 31.9797279 131.97876649 27.08493403 134 19 C134.16798469 15.74955291 134.16798469 15.74955291 134 13 C123.54183622 13 112.89473633 23.80621032 105.875 30.625 Z M30 52 C30 54.97 30 57.94 30 61 C32.89445494 62.3481935 32.89445494 62.3481935 35.125 61 C39.26748426 59.55913591 42.7921913 59.8349965 47 61 C51.61517088 64.38445864 53.72863146 68.88624848 56 74 C56.66 74 57.32 74 58 74 C57.47063693 66.94182576 54.07576249 62.07576249 49.1875 57.1875 C42.86311039 52.84723262 37.61665365 51.59196498 30 52 Z M95.25 58.125 C88.83047827 66.32772221 85.10578956 76.44104712 84.9375 86.875 C86.09010245 93.17410644 89.33946657 99.20703425 92 105 C93.91224249 103.15294759 95.42147386 101.42047344 97 99.25 C99.44097343 96.22677603 102.23336673 94.53515553 105.5625 92.5625 C110.5558507 89.4870805 112.99198083 87.54595771 115 82 C115.27686796 78.96416712 115.24784652 76.03611983 115 73 C114.48050781 73.40992187 113.96101563 73.81984375 113.42578125 74.2421875 C104.21053518 81.3622852 104.21053518 81.3622852 97.9375 80.75 C94.980713 80.28608068 92.56844129 79.60527581 90 78 C90.73849168 72.27668948 92.8773018 66.05837401 97.0625 62 C102.20485207 59.3458828 106.94154746 59.40117744 112.4375 61 C113.283125 61.33 114.12875 61.66 115 62 C116.14352916 59.71294169 116.10334439 58.40735238 116.0625 55.875 C116.041875 54.59625 116.02125 53.3175 116 52 C107.6763311 51.47151309 101.8988223 52.98727368 95.25 58.125 Z M106 61 C106.04125 62.258125 106.0825 63.51625 106.125 64.8125 C106.2390374 68.29064073 106.05925681 68.91111478 104 72 C107.33717549 70.6190998 109.22301036 69.1798762 111 66 C110.78282648 63.79199472 110.78282648 63.79199472 110 62 C108.68 61.67 107.36 61.34 106 61 Z M36 62 C34.6215131 64.99076184 34.6215131 64.99076184 36.25 67.6875 C36.8275 68.450625 37.405 69.21375 38 70 C38.99 70 39.98 70 41 70 C40.67 67.69 40.34 65.38 40 63 C38.68 62.67 37.36 62.34 36 62 Z M43 62 C42.34 62.66 41.68 63.32 41 64 C41.3185177 66.10820797 41.3185177 66.10820797 42 68 C42.99 66.35 43.98 64.7 45 63 C44.34 62.67 43.68 62.34 43 62 Z M101 62 C100.66781808 65.00259517 100.66781808 65.00259517 102.5 66.6875 C102.995 67.120625 103.49 67.55375 104 68 C104.33 66.68 104.66 65.36 105 64 C103.68 63.34 102.36 62.68 101 62 Z M32 64 C30.93956349 66.09495303 30.93956349 66.09495303 31 69 C33.27168154 73.45665767 36.1183201 76.43439402 40.3125 79.125 C44.96686788 80.22942628 48.55265459 79.71191096 53 78 C53.66 77.34 54.32 76.68 55 76 C54.04738281 75.90203125 53.09476563 75.8040625 52.11328125 75.703125 C50.23189453 75.47882813 50.23189453 75.47882813 48.3125 75.25 C47.07113281 75.11078125 45.82976563 74.9715625 44.55078125 74.828125 C40.64903949 73.91814782 38.8303604 72.78934068 36 70 C34.1875 66.75 34.1875 66.75 33 64 C32.67 64 32.34 64 32 64 Z M114 64 C112.20917103 66.27297524 110.50354922 68.60262138 108.7890625 70.93359375 C105.75162332 74.44190233 102.21521702 74.2311127 97.8125 74.5625 C96.72582031 74.64628906 95.63914062 74.73007813 94.51953125 74.81640625 C93.68808594 74.87699219 92.85664062 74.93757813 92 75 C92.33 75.99 92.66 76.98 93 78 C97.52622173 79.71684272 99.84285666 80.28421064 104.5625 79.125 C108.91487618 76.8786123 112.48705314 73.17042246 115 69 C115.25656368 66.32710198 115.25656368 66.32710198 115 64 C114.67 64 114.34 64 114 64 Z M96 65 C93.71307976 68.23764755 93.71307976 68.23764755 93 72 C95.95664519 73.4783226 98.74229737 73.06032783 102 73 C101.360625 72.608125 100.72125 72.21625 100.0625 71.8125 C97.56221181 69.61527704 97.35049575 68.24208567 97 65 C96.67 65 96.34 65 96 65 Z M50 67 C49.401875 67.66 48.80375 68.32 48.1875 69 C46 71 46 71 43 71 C43 71.66 43 72.32 43 73 C45.97 73 48.94 73 52 73 C52.33 72.34 52.66 71.68 53 71 C52.01 69.68 51.02 68.36 50 67 Z M31 73 C30.65617609 78.73039855 30.54903898 83.14708607 34 88 C37.48930738 91.07336346 41.26189341 93.55997492 45.25 95.9375 C48.77579204 98.58184403 50.04156231 101.08312462 52 105 C54.9667491 102.47566086 56.15962184 99.76104489 57.625 96.1875 C58.05039062 95.17042969 58.47578125 94.15335938 58.9140625 93.10546875 C60.7157618 87.95312723 61.28827435 83.96072363 60.0625 78.625 C59.77052734 77.31402344 59.77052734 77.31402344 59.47265625 75.9765625 C59.31667969 75.32429688 59.16070312 74.67203125 59 74 C58.236875 74.804375 57.47375 75.60875 56.6875 76.4375 C52.57556543 80.3581818 49.00520078 80.33663315 43.57421875 80.2890625 C38.26618006 79.69301567 34.63328638 76.78512521 31 73 Z M61 103 C61 103.99 61 104.98 61 106 C64.465 107.485 64.465 107.485 68 109 C68 110.98 68 112.96 68 115 C70.70879335 116.35439668 73.00933268 116.06501451 76 116 C76.12375 115.4225 76.2475 114.845 76.375 114.25 C77.04833476 111.82599488 77.55071094 110.07041295 79 108 C82.125 106.75 82.125 106.75 85 106 C84.43923199 103.50995496 84.43923199 103.50995496 83 101 C76.35144413 97.75303085 66.50604841 97.49395159 61 103 Z M61 108 C61.71563266 110.0162233 61.71563266 110.0162233 63 112 C65.05000871 112.80528889 65.05000871 112.80528889 67 113 C67 112.01 67 111.02 67 110 C65.02 109.34 63.04 108.68 61 108 Z M78 110 C78.33 110.99 78.66 111.98 79 113 C80.99983534 112.20882096 80.99983534 112.20882096 83 111 C83.33 110.01 83.66 109.02 84 108 C81.53721199 108 80.14775881 108.85452863 78 110 Z M62 120 C64.31360898 124.62721796 65.21311387 125.34634843 70 127 C74.7042655 127.2153361 78.06474183 126.59169394 82.0625 124.0625 C84.22822515 122.22868529 84.22822515 122.22868529 84 120 C76.74 120 69.48 120 62 120 Z " fill="#000000" transform="translate(2,1)"/>
</svg>
