<?xml version="1.0" encoding="UTF-8"?>
<!-- Generator: visioncortex VTracer 0.6.4 -->
<svg version="1.1" xmlns="http://www.w3.org/2000/svg" width="154" height="140">
<path d="M0 0 C9.96899044 7.45507111 17.96444836 16.17889672 23.55859375 27.3671875 C27.84481457 27.64079235 32.12633139 27.83938479 36.41870117 27.97143555 C37.87533083 28.02649715 39.33135927 28.10138704 40.78588867 28.19702148 C45.57776074 28.50400335 49.88160439 28.56041475 54.55859375 27.3671875 C57.91605865 24.14782327 59.60932164 20.54264378 61.55859375 16.3671875 C69.82195143 4.57613508 83.79766978 -5.77744386 97.859375 -9.19140625 C103.3203875 -10.08168896 106.80245504 -9.48649573 111.55859375 -6.6328125 C116.7413174 0.10472825 116.1249473 8.23881749 115.55859375 16.3671875 C112.79828587 34.51340663 105.4438521 51.86816015 91.515625 64.125 C89.21657943 65.58427443 87.23656793 65.98792345 84.55859375 66.3671875 C84.90921875 67.6253125 85.25984375 68.8834375 85.62109375 70.1796875 C88.24401964 82.25646857 84.21355083 94.72725982 78.03125 105.14453125 C70.6151367 116.33755106 61.65543988 124.7371633 48.671875 128.984375 C36.35753746 131.21506831 26.02546919 128.66779477 15.87109375 121.6796875 C3.0151573 111.71313648 -4.85485198 98.49788049 -7.44140625 82.3671875 C-8.05142193 76.71962294 -6.98528151 71.77075091 -5.44140625 66.3671875 C-6.16457031 66.2846875 -6.88773438 66.2021875 -7.6328125 66.1171875 C-14.98529054 64.15379976 -21.12346523 56.37602916 -25.00390625 50.0703125 C-32.75770844 35.48979316 -40.30113608 17.62235751 -36.75390625 0.8046875 C-34.96722088 -3.87472655 -33.28726387 -6.5973314 -28.87890625 -9.0703125 C-18.35031086 -10.79317356 -8.54519145 -5.71502404 0 0 Z M-31.99609375 -4.28125 C-35.54566034 -0.2328254 -35.48285424 4.99940395 -35.328125 10.10546875 C-33.85134291 28.85592364 -27.30772703 47.79801286 -13.33984375 60.91015625 C-10.86678797 62.80820112 -8.48881569 63.75770561 -5.44140625 64.3671875 C-5.00737906 61.26699332 -4.86457282 58.45554345 -5.44140625 55.3671875 C-6.96153564 53.58268778 -8.61801958 52.39170592 -10.50390625 51.00390625 C-18.47502009 44.27024355 -24.21132745 29.62955924 -25.44140625 19.3671875 C-25.98426339 6.45290179 -25.98426339 6.45290179 -24.44140625 3.3671875 C-14.75245605 2.47006248 -8.25748114 6.75740498 -0.75390625 12.5546875 C4.38117545 16.89695914 8.03521894 21.67637221 11.55859375 27.3671875 C12.21859375 28.3571875 12.87859375 29.3471875 13.55859375 30.3671875 C15.90171505 30.11157427 18.23702778 29.77447978 20.55859375 29.3671875 C21.05359375 28.3771875 21.05359375 28.3771875 21.55859375 27.3671875 C11.39154848 11.52244162 -0.64275993 -2.29675165 -19.7265625 -7.22265625 C-24.62271545 -8.03715646 -28.22017951 -7.56382871 -31.99609375 -4.28125 Z M64.55859375 15.3671875 C61.97714557 18.89484318 59.44238248 22.41442404 57.55859375 26.3671875 C57.88859375 27.3571875 58.21859375 28.3471875 58.55859375 29.3671875 C60.86859375 29.6971875 63.17859375 30.0271875 65.55859375 30.3671875 C66.05166016 29.44099609 66.05166016 29.44099609 66.5546875 28.49609375 C73.13547443 16.77908288 82.5793153 7.69361365 95.55859375 3.3671875 C99.12109375 3.1171875 99.12109375 3.1171875 102.55859375 3.3671875 C105.86794589 8.33121571 105.30406526 13.57582482 104.171875 19.33398438 C101.35467611 31.33525166 96.81199382 43.01003932 88.55859375 52.3671875 C87.65109375 52.7796875 86.74359375 53.1921875 85.80859375 53.6171875 C83.33645017 55.12279093 83.33645017 55.12279093 83.2421875 57.55078125 C83.24576353 59.84301398 83.34335878 62.08569681 83.55859375 64.3671875 C90.33658947 63.41732997 94.11775596 59.24901699 98.41796875 54.171875 C108.86284431 40.16834715 115.83339011 19.96340644 113.55859375 2.3671875 C112.54937915 -0.78778712 111.42001049 -2.84068738 109.55859375 -5.6328125 C94.01459488 -13.40481194 73.69799444 4.45068112 64.55859375 15.3671875 Z M-24.44140625 5.3671875 C-26.22995828 20.01520223 -21.30864221 34.14099348 -13.15234375 46.203125 C-11.36683251 48.46151137 -9.62019931 50.48119667 -7.44140625 52.3671875 C-6.45140625 52.3671875 -5.46140625 52.3671875 -4.44140625 52.3671875 C-4.19390625 51.1709375 -3.94640625 49.9746875 -3.69140625 48.7421875 C-1.73877078 41.01357438 2.76231336 36.72931752 9.37109375 32.6171875 C10.09296875 32.2046875 10.81484375 31.7921875 11.55859375 31.3671875 C7.43065998 20.06968456 -2.5288288 10.94114955 -13.25390625 5.8046875 C-16.52832346 4.51138088 -21.58809709 2.51387834 -24.44140625 5.3671875 Z M69.87109375 24.8671875 C68.24387945 27.13280742 67.45840257 28.66776103 66.55859375 31.3671875 C67.22246094 31.7075 67.88632813 32.0478125 68.5703125 32.3984375 C76.28077714 36.63075094 80.35762638 40.90347084 82.87109375 49.3671875 C83.09796875 50.3571875 83.32484375 51.3471875 83.55859375 52.3671875 C89.95749541 50.29985004 92.33714092 46.03666066 95.55859375 40.3671875 C100.80007963 29.4262505 104.44687725 18.63789449 103.55859375 6.3671875 C103.06359375 5.3771875 103.06359375 5.3771875 102.55859375 4.3671875 C88.97489098 2.89069807 77.55614428 14.89689412 69.87109375 24.8671875 Z M1.55859375 39.3671875 C-2.5212015 45.2003779 -3.58866985 51.14430859 -3.50390625 58.1796875 C-3.49488281 59.15550781 -3.48585937 60.13132812 -3.4765625 61.13671875 C-3.46496094 61.87277344 -3.45335937 62.60882813 -3.44140625 63.3671875 C0.46573853 61.52486638 3.88954693 59.15410175 7.4375 56.70703125 C11.94349722 53.86070152 16.39773024 53.88998437 21.55859375 54.3671875 C26.77299799 56.13811724 28.88480044 58.61377718 31.55859375 63.3671875 C36.39200925 77.86743401 30.0104764 94.1769177 23.6328125 107.1484375 C22.33834152 111.02714329 22.59358028 113.42240074 23.55859375 117.3671875 C26.31945207 121.1024664 27.79781267 122.20505383 32.37109375 123.1796875 C33.42296875 123.2415625 34.47484375 123.3034375 35.55859375 123.3671875 C34.38296875 122.1915625 34.38296875 122.1915625 33.18359375 120.9921875 C28.55859375 116.3671875 28.55859375 116.3671875 28.37109375 113.3671875 C28.55859375 110.3671875 28.55859375 110.3671875 29.55859375 108.3671875 C32.86194441 107.26607061 35.45691512 107.16492222 38.93359375 107.1171875 C40.61582031 107.07851562 40.61582031 107.07851562 42.33203125 107.0390625 C45.84965432 107.39678688 47.7062535 108.33743227 50.55859375 110.3671875 C50.43808635 116.51306488 50.43808635 116.51306488 47.93359375 118.9453125 C46.18071658 120.17515374 44.42118919 121.31187885 42.55859375 122.3671875 C45.68727518 123.36052696 46.38870866 123.43306131 49.62109375 122.1796875 C53.31538089 119.9127016 53.31538089 119.9127016 55.55859375 116.3671875 C56.05785449 109.95307378 54.84108407 105.65671998 52.18359375 99.8671875 C46.93967271 88.16429055 43.05523744 74.97217011 47.55859375 62.3671875 C49.78669254 58.57785047 52.4773105 56.04021354 56.55859375 54.3671875 C64.23520644 53.08775205 70.12650728 55.25930034 76.55859375 59.3671875 C78.24349407 60.67740369 79.91487501 62.00566472 81.55859375 63.3671875 C82.29819767 50.73594704 82.29819767 50.73594704 77.1171875 39.625 C65.11013522 28.42584683 48.39532111 28.81764494 33.0234375 29.0546875 C21.9832339 29.44020312 9.71745642 31.18961185 1.55859375 39.3671875 Z M3.55859375 60.3671875 C2.54796875 60.9859375 1.53734375 61.6046875 0.49609375 62.2421875 C-1.76171023 64.27624912 -1.76171023 64.27624912 -1.65625 67.50390625 C-1.43004317 71.57151631 -0.80611421 75.33560005 0.05859375 79.3046875 C0.20167969 79.98853516 0.34476563 80.67238281 0.4921875 81.37695312 C0.84143146 83.04168264 1.19912321 84.70463625 1.55859375 86.3671875 C2.39261719 86.44195312 3.22664063 86.51671875 4.0859375 86.59375 C13.63615755 87.70958327 19.89587993 90.43548213 26.55859375 97.3671875 C27.20903094 95.63974734 27.85374219 93.9101506 28.49609375 92.1796875 C28.85574219 91.21675781 29.21539062 90.25382812 29.5859375 89.26171875 C32.30831263 81.16019277 33.55100921 70.71250954 29.93359375 62.7421875 C27.73515631 59.17259918 25.4262395 57.11857426 21.55859375 55.3671875 C14.38186848 53.94538344 9.43350826 56.43542653 3.55859375 60.3671875 Z M49.55859375 61.3671875 C45.04637559 68.95591803 46.58153649 78.23171051 48.55859375 86.3671875 C49.48375745 89.72651979 50.48051369 93.0538881 51.55859375 96.3671875 C54.32841911 95.08055895 56.11342747 93.89498859 58.49609375 91.8671875 C62.96670738 88.21770699 66.66368864 87.154771 72.37109375 86.7421875 C73.34691406 86.66742188 74.32273437 86.59265625 75.328125 86.515625 C76.06417969 86.46664062 76.80023438 86.41765625 77.55859375 86.3671875 C80.14233198 75.41972354 80.14233198 75.41972354 79.55859375 64.3671875 C76.41775049 60.13123181 71.76241803 56.4822927 66.55859375 55.3671875 C59.01348784 54.32069165 54.46917861 55.36536156 49.55859375 61.3671875 Z M81.55859375 67.3671875 C79.82954757 78.31649644 79.82954757 78.31649644 79.55859375 89.3671875 C78.07359375 88.8721875 78.07359375 88.8721875 76.55859375 88.3671875 C69.24049517 87.31960693 63.6272138 89.27086896 57.55859375 93.3671875 C54.55874833 95.90459203 54.55874833 95.90459203 53.55859375 99.3671875 C54.05691949 101.70005755 54.84877484 103.780651 55.73046875 105.99609375 C57.06252695 109.81005284 57.37487061 113.4013141 56.55859375 117.3671875 C53.46644896 121.64162294 50.55140503 123.01521485 45.55859375 124.3671875 C41.90234375 124.66796875 41.90234375 124.66796875 38.05859375 124.6796875 C36.79015625 124.69644531 35.52171875 124.71320313 34.21484375 124.73046875 C30.28371262 124.33987559 27.89759952 123.44238696 24.55859375 121.3671875 C22.08230932 117.93234136 21.32451942 115.44236146 21.74609375 111.3046875 C22.15814589 108.86478325 22.69911831 107.03929687 23.68359375 104.7421875 C24.91443917 101.40132136 24.72832996 99.7387801 23.55859375 96.3671875 C19.40319179 91.67704212 14.80793161 88.57103555 8.4453125 88.171875 C7.38957031 88.19507812 6.33382812 88.21828125 5.24609375 88.2421875 C4.17746094 88.26023437 3.10882813 88.27828125 2.0078125 88.296875 C0.79544922 88.33167969 0.79544922 88.33167969 -0.44140625 88.3671875 C-0.37953125 87.4596875 -0.31765625 86.5521875 -0.25390625 85.6171875 C-0.21936421 80.03289174 -1.96786316 74.70878118 -3.44140625 69.3671875 C-3.77140625 69.3671875 -4.10140625 69.3671875 -4.44140625 69.3671875 C-7.65875633 81.83441905 -3.49302364 93.8948538 2.8046875 104.73828125 C9.3235938 114.50938134 18.49915282 123.66004808 30.0859375 126.9296875 C42.24798456 129.08158208 52.13196194 126.61478875 62.24609375 119.7421875 C74.00657079 110.66216107 81.19289445 98.04971939 84.16015625 83.5625 C84.75784284 78.76928796 84.69969992 74.07746787 83.55859375 69.3671875 C82.56859375 68.3771875 82.56859375 68.3771875 81.55859375 67.3671875 Z M29.55859375 110.3671875 C30.22727689 113.48050998 30.22727689 113.48050998 32.62109375 114.5546875 C33.26046875 114.8228125 33.89984375 115.0909375 34.55859375 115.3671875 C34.22859375 117.0171875 33.89859375 118.6671875 33.55859375 120.3671875 C36.54453799 121.86015962 39.26712999 121.48473978 42.55859375 121.3671875 C43.21859375 121.0371875 43.87859375 120.7071875 44.55859375 120.3671875 C44.22859375 118.7171875 43.89859375 117.0671875 43.55859375 115.3671875 C45.53859375 114.3771875 47.51859375 113.3871875 49.55859375 112.3671875 C47.25496415 109.50321557 46.12993471 108.45135508 42.4296875 107.90625 C41.29660156 107.93460937 40.16351563 107.96296875 38.99609375 107.9921875 C37.29259766 108.01152344 37.29259766 108.01152344 35.5546875 108.03125 C32.37949775 108.15542206 32.37949775 108.15542206 29.55859375 110.3671875 Z M29.55859375 115.3671875 C30.54859375 116.8521875 30.54859375 116.8521875 31.55859375 118.3671875 C32.21859375 118.3671875 32.87859375 118.3671875 33.55859375 118.3671875 C33.22859375 117.3771875 32.89859375 116.3871875 32.55859375 115.3671875 C31.56859375 115.3671875 30.57859375 115.3671875 29.55859375 115.3671875 Z M48.55859375 114.3671875 C47.23859375 115.3571875 45.91859375 116.3471875 44.55859375 117.3671875 C45.54859375 117.8621875 45.54859375 117.8621875 46.55859375 118.3671875 C47.54859375 117.7071875 48.53859375 117.0471875 49.55859375 116.3671875 C49.22859375 115.7071875 48.89859375 115.0471875 48.55859375 114.3671875 Z " fill="#000000" transform="translate(37.44140625,9.6328125)"/>
<path d="M0 0 C5.69974592 -0.34198476 10.18325317 -0.47253841 15 3 C18.63129131 8.00529343 19.57058462 11.88083081 20 18 C13.22362963 17.06870859 7.55755275 16.13860311 2 12 C-0.40450399 8.13188489 -0.17534981 4.47142025 0 0 Z M2 2 C2.58174845 7.3086849 2.58174845 7.3086849 5 12 C5.66 11.67 6.32 11.34 7 11 C6.835 10.38125 6.67 9.7625 6.5 9.125 C6 7 6 7 6 5 C7.65 4.67 9.3 4.34 11 4 C9.04366025 1.58878141 9.04366025 1.58878141 5.375 1.875 C3.704375 1.936875 3.704375 1.936875 2 2 Z M14 8 C13.01 9.485 13.01 9.485 12 11 C9.375 11.6875 9.375 11.6875 7 12 C10.00617269 15.00617269 12.82381598 14.59585316 17 15 C16.67 12.69 16.34 10.38 16 8 C15.34 8 14.68 8 14 8 Z " fill="#000000" transform="translate(41,77)"/>
<path d="M0 0 C-0.12774106 5.22577059 -0.42562348 9.78154251 -4.203125 13.78125 C-8.71165124 16.83920693 -14.61879295 18 -20 18 C-19.73241334 11.97930006 -19.13425804 7.69294156 -15 3 C-10.11251817 -0.40987104 -5.72976937 -0.34378616 0 0 Z M-11 4 C-10.0409375 4.3403125 -10.0409375 4.3403125 -9.0625 4.6875 C-7 6 -7 6 -6.25 8.625 C-6.1675 9.40875 -6.085 10.1925 -6 11 C-3.47740939 9.02579865 -3.0070192 8.03254358 -2.3125 4.8125 C-2.209375 3.884375 -2.10625 2.95625 -2 2 C-7.0205829 1.49708619 -7.0205829 1.49708619 -11 4 Z M-16 8 C-16.66 10.31 -17.32 12.62 -18 15 C-13.545 14.505 -13.545 14.505 -9 14 C-9.78375 13.38125 -10.5675 12.7625 -11.375 12.125 C-14 10 -14 10 -16 8 Z " fill="#000000" transform="translate(113,77)"/>
</svg>
