<?xml version="1.0" encoding="UTF-8"?>
<!-- Generator: visioncortex VTracer 0.6.4 -->
<svg version="1.1" xmlns="http://www.w3.org/2000/svg" width="123" height="144">
<path d="M0 0 C5.50769925 1.36819905 10.26493856 3.55781793 15.125 6.4375 C17.5143866 7.69815796 18.55686603 8.07552544 21.24609375 7.6171875 C23.54498353 6.8547581 23.54498353 6.8547581 25.62890625 5.89453125 C31.22524182 3.78322837 36.85626706 3.90056919 42.75 4.25 C43.8026001 4.30800781 43.8026001 4.30800781 44.87646484 4.3671875 C49.13790119 4.66397482 52.61164663 5.45182214 56.625 7 C60.97405866 8.39909019 63.44679491 7.7304823 67.55029297 5.75390625 C69.37007814 4.78586529 71.15457102 3.77515687 72.93359375 2.734375 C77.56588835 0.11432557 81.13167592 -0.19595589 86.4375 -0.3125 C87.54996094 -0.34988281 88.66242188 -0.38726562 89.80859375 -0.42578125 C93.72434255 0.09663811 95.26336284 1.19070875 98 4 C101.53600919 10.56854688 101.64079223 17.86612075 100 25 C98.01389223 30.83046229 95.57627591 34.79190156 90.6875 38.5625 C87.79842654 40.7954485 87.79842654 40.7954485 86.55859375 44.078125 C86.60343689 45.58696483 86.69990783 47.09501925 86.84375 48.59765625 C87.16882852 53.59573847 85.93263793 58.84240478 83.953125 63.421875 C80.52632127 72.69109821 83.43217422 83.21599123 87 92 C89.87903721 98.40619302 89.87903721 98.40619302 94 104 C94.60835075 109.4918239 92.91120942 113.08500394 90.4375 117.8125 C90.07543457 118.51737549 89.71336914 119.22225098 89.34033203 119.94848633 C85.12372115 127.95341537 80.24647449 134.52095831 73 140 C73.0721875 139.34515625 73.144375 138.6903125 73.21875 138.015625 C73.93351253 130.98712682 74.11091604 124.06165482 74 117 C73.63390625 117.54527344 73.2678125 118.09054688 72.890625 118.65234375 C65.52218376 128.91552977 53.90722757 137.57731548 42 142 C36.84879068 141.88323926 33.02347025 139.59975201 28.75 136.9375 C28.09467285 136.5348291 27.4393457 136.1321582 26.76416016 135.71728516 C18.51458818 130.55953216 11.21582042 125.34531267 6 117 C5.87847513 124.73708326 6.15199233 132.307359 7 140 C-2.0190214 136.49825806 -7.75351739 123.52639995 -11.671875 115.1953125 C-13.39699525 111.04487613 -14.31083021 108.50703803 -14 104 C-12.98603298 101.96765741 -11.79172339 100.19526142 -10.4765625 98.34375 C-4.29852911 88.5373478 -2.11636487 77.41237239 -3 66 C-3.61471042 63.97107849 -4.40320041 62.13898969 -5.26953125 60.20703125 C-6.58280037 56.23913259 -6.58257684 52.10250356 -6.7890625 47.953125 C-7.01465281 43.12591076 -7.01465281 43.12591076 -9.70703125 39.359375 C-10.40183594 38.82828125 -11.09664062 38.2971875 -11.8125 37.75 C-17.1076426 33.32789166 -20.3045087 27.954913 -21 21 C-21.46741335 13.98879969 -20.66051222 7.49842067 -16.30078125 1.765625 C-11.67131575 -1.78703783 -5.53768069 -0.58848891 0 0 Z M-7 2 C-6.29875 2.515625 -5.5975 3.03125 -4.875 3.5625 C-0.57939713 7.20442418 2.87989387 11.31984081 6 16 C9.11198065 14.50163895 12.0534615 12.80066242 15 11 C14.31228062 7.88020766 14.31228062 7.88020766 11.85546875 6.6484375 C10.97503906 6.22820313 10.09460938 5.80796875 9.1875 5.375 C8.31480469 4.94960937 7.44210938 4.52421875 6.54296875 4.0859375 C1.87742643 2.09358609 -1.91292756 1.90217168 -7 2 Z M74.9375 3.75 C73.91527344 4.07484375 72.89304687 4.3996875 71.83984375 4.734375 C68.83106877 6.0752871 67.15480521 7.54031827 65 10 C66.09283577 11.03295436 67.19970579 12.05107835 68.3125 13.0625 C68.92738281 13.63097656 69.54226562 14.19945312 70.17578125 14.78515625 C71.07876953 15.38650391 71.07876953 15.38650391 72 16 C75.42242447 14.85919184 75.88074799 14.117411 77.875 11.25 C80.34921793 7.81083708 82.91872717 4.90002148 86 2 C81.95381047 1.79135671 78.77766129 2.48774724 74.9375 3.75 Z M-15 3 C-18.77612656 9.07463838 -19.61102628 15.58631016 -18.6328125 22.65234375 C-17.06874269 28.91827775 -14.01274901 33.87121963 -9 38 C-6.87595574 38.74505546 -6.87595574 38.74505546 -5 39 C-4.78085937 38.32195313 -4.56171875 37.64390625 -4.3359375 36.9453125 C-1.98702034 30.05133611 1.03101264 24.09901057 5 18 C-0.31684517 8.72200466 -0.31684517 8.72200466 -9.15625 3.48046875 C-11.09392074 3.22461434 -13.04811973 3.10095932 -15 3 Z M78 12.0625 C75.91107919 14.77294297 75.91107919 14.77294297 75.375 17.4375 C76.11764187 20.48233167 77.65233436 22.37442989 79.5546875 24.8203125 C82.43648766 29.16637869 84.12988339 34.1536127 86 39 C92.07673144 35.51451692 95.56780389 31.91947068 97.875 25.3125 C99.64398865 18.64863935 99.52033013 11.58141295 96.4375 5.3125 C95.963125 4.549375 95.48875 3.78625 95 3 C87.5744551 1.88616827 82.72068152 6.91388134 78 12.0625 Z M9.3125 16.375 C8.549375 17.24125 7.78625 18.1075 7 19 C6.26136719 19.75216797 6.26136719 19.75216797 5.5078125 20.51953125 C-1.61632991 28.08671734 -5.15757592 38.84780416 -4.9296875 49.19140625 C-4.62233745 53.31088842 -4.30950675 57.07147975 -3 61 C-2.34 61 -1.68 61 -1 61 C-0.90203125 60.2265625 -0.8040625 59.453125 -0.703125 58.65625 C0.42940609 50.76758515 1.62905061 44.13016729 7.625 38.5625 C12.11278503 35.61000985 15.69814923 35.38329166 21 36 C26.03346264 38.46080396 27.34328908 42.56228539 29.203125 47.5625 C33.83510587 61.73091206 29.00531795 74.45023476 24.296875 87.87890625 C24.01859863 88.68247559 23.74032227 89.48604492 23.45361328 90.31396484 C22.91400628 91.85965113 22.36092983 93.40072179 21.79248047 94.93603516 C20.24615686 99.32446749 19.60291646 102.38826792 21 107 C23.45117929 110.06397411 25.0193494 111.71670094 28.8125 112.8125 C29.534375 112.874375 30.25625 112.93625 31 113 C31 113.66 31 114.32 31 115 C34.23872132 116.07957377 36.66028205 116.13326784 40.0625 116.125 C41.12597656 116.12757812 42.18945312 116.13015625 43.28515625 116.1328125 C45.96704384 116.18438455 45.96704384 116.18438455 48 115 C48 114.34 48 113.68 48 113 C48.886875 112.95875 49.77375 112.9175 50.6875 112.875 C54.22548428 111.94043811 55.91270931 110.80037202 58.09594727 107.85009766 C60.508681 102.91256153 59.23358425 97.13492877 57.57421875 92.1328125 C56.95787394 90.4588629 56.32859378 88.78962817 55.6875 87.125 C55.04204861 85.35758079 54.39879663 83.58935673 53.7578125 81.8203125 C53.29810059 80.56589355 53.29810059 80.56589355 52.82910156 79.28613281 C48.49357506 67.3315185 46.99845626 56.04234352 52 44 C54.54305557 39.17696357 56.77452495 36.74182502 62 35 C66.72640874 35 70.05907236 35.96374074 73.5859375 39.2265625 C78.55237758 45.45519177 80.61228071 53.30446575 82 61 C85.84624542 54.28885573 85.55630283 46.22713779 83.875 38.875 C80.62257347 27.73834307 75.51256903 18.70252413 65.44140625 12.3984375 C48.02820075 3.33402916 24.59941096 2.86563683 9.3125 16.375 Z M54.875 41.0625 C50.05583049 48.61253223 48.89505594 57.20175384 50 66 C51.35221551 71.45337943 53.1139799 76.711549 55 82 C55.48203238 83.37751267 55.9638065 84.75511574 56.4453125 86.1328125 C57.60624074 89.43074643 58.79486434 92.71792842 60 96 C62.43785185 93.76173836 63.99388244 91.49614845 65.625 88.625 C68.51101384 83.6889713 71.69288967 79.02651493 75.01611328 74.37939453 C79.85071175 67.54903364 79.61179849 61.17187986 79 53 C77.5983464 46.65878401 75.01968478 41.99076719 69.796875 38.0625 C63.54955527 34.36843268 59.69989267 36.37951594 54.875 41.0625 Z M5 43 C0.26992612 50.65411954 -0.93561262 58.77527884 1.11279297 67.47607422 C2.85461907 72.43121958 5.98866353 76.55248687 9 80.8125 C10.27259827 82.65112341 11.54350149 84.49092149 12.8125 86.33203125 C13.37582031 87.13358643 13.93914063 87.9351416 14.51953125 88.76098633 C15.86077501 90.78944058 16.96913034 92.80091616 18 95 C18.66 95 19.32 95 20 95 C21.29945055 91.66965002 22.58811185 88.33522222 23.875 85 C24.23980469 84.06542969 24.60460937 83.13085938 24.98046875 82.16796875 C29.84843186 69.51126466 32.36979716 57.99217873 27 45 C25.16263677 41.47838713 23.36321191 39.24214127 20 37 C13.05630873 36.0741745 9.43095163 37.53440992 5 43 Z M0 72 C-0.15855469 72.94359375 -0.31710938 73.8871875 -0.48046875 74.859375 C-2.23942663 84.53850234 -4.2873543 94.30798316 -10.375 102.3125 C-12.6150653 106.01722338 -11.91708195 107.81070078 -11 112 C-9.9582125 114.61166531 -8.67750983 117.04417857 -7.3125 119.5 C-6.95671875 120.15492432 -6.6009375 120.80984863 -6.234375 121.48461914 C-3.6252222 126.16928754 -0.75756912 130.14849165 3 134 C3.83546434 131.12960631 4.07414707 128.73347347 3.921875 125.75390625 C3.47976641 113.17279406 5.01682992 102.15878262 8.42749023 90.04858398 C8.61641846 89.37255127 8.80534668 88.69651855 9 88 C9.33330322 86.97193237 9.33330322 86.97193237 9.67333984 85.9230957 C10.24572411 82.55338656 8.04631343 80.44544224 6.1875 77.75 C5.09501953 76.13351563 5.09501953 76.13351563 3.98046875 74.484375 C3.32691406 73.66453125 2.67335938 72.8446875 2 72 C1.34 72 0.68 72 0 72 Z M79 72 C77.62773493 73.54971314 76.30214573 75.14091992 75 76.75 C74.278125 77.63171875 73.55625 78.5134375 72.8125 79.421875 C70.72172034 82.39582883 69.73772125 84.38688856 70.32958984 88.02709961 C70.53793457 88.72843018 70.7462793 89.42976074 70.9609375 90.15234375 C71.18523437 90.92900391 71.40953125 91.70566406 71.640625 92.50585938 C71.88296875 93.30830078 72.1253125 94.11074219 72.375 94.9375 C72.8427036 96.5294911 73.30889212 98.12192822 73.7734375 99.71484375 C74.08933838 100.76853149 74.08933838 100.76853149 74.41162109 101.84350586 C75.62599532 106.29436377 76.12134707 110.33732183 76.09765625 114.95703125 C76.09282227 116.62475586 76.09282227 116.62475586 76.08789062 118.32617188 C76.07951172 119.47666016 76.07113281 120.62714844 76.0625 121.8125 C76.05798828 122.98232422 76.05347656 124.15214844 76.04882812 125.35742188 C76.0370693 128.23833358 76.02063426 131.11914044 76 134 C83.12858974 127.08815792 89.07557146 118.60260116 92 109 C91.71013126 104.6864771 89.76845871 101.54218403 87.6875 97.8125 C83.32545017 89.63463599 81.65225835 81.05150228 80 72 C79.67 72 79.34 72 79 72 Z M11 87 C9.60629165 91.31643653 8.28169155 95.64899448 7 100 C6.71898438 100.92683594 6.43796875 101.85367188 6.1484375 102.80859375 C4.76714518 108.14237917 4.88840381 111.30283518 7.6640625 116.11328125 C13.68016528 124.6097071 21.38235528 130.2695813 30.3125 135.4375 C31.19204346 135.95050659 31.19204346 135.95050659 32.08935547 136.47387695 C36.79011644 139.12786443 36.79011644 139.12786443 42 140 C44.59857165 138.81802112 46.79981919 137.64104079 49.1875 136.125 C49.84733887 135.71660889 50.50717773 135.30821777 51.18701172 134.88745117 C59.37003053 129.6856028 70.86356388 121.69443892 74 112 C74.33567785 105.93147098 73.45957031 101.21982685 71.5 95.5 C71.14228516 94.40945312 71.14228516 94.40945312 70.77734375 93.296875 C70.19539824 91.52776065 69.59919543 89.76334654 69 88 C68.34 88 67.68 88 67 88 C63.77810691 93.32929487 60.8826876 98.13984504 60 104.375 C59.38917934 108.19111719 59.08339829 108.90884373 56.3125 111.9375 C48.69825581 116.67844449 43.01979021 118.0439029 34 117 C27.74713936 115.33570476 23.47468737 112.5805585 20 107 C19.42954322 104.85239801 19.04532306 102.71283975 18.66796875 100.5234375 C17.36946261 95.61796986 14.57680957 91.33519849 12 87 C11.67 87 11.34 87 11 87 Z " fill="#000000" transform="translate(22,1)"/>
<path d="M0 0 C10.72268102 -0.85857766 10.72268102 -0.85857766 14.5625 1.9375 C17.64168015 5.80621352 18.38959634 9.16939169 19 14 C15.55033225 15.72483387 12.19867814 14.04147915 8.63671875 13.0078125 C5.13409504 11.66903188 3.73506894 10.31926232 2 7 C1.17171514 4.67014609 0.56838919 2.41565405 0 0 Z M3 2 C3.66 4.31 4.32 6.62 5 9 C5.66 9 6.32 9 7 9 C7.144375 8.21625 7.28875 7.4325 7.4375 6.625 C8 4 8 4 9 2 C7.02 2 5.04 2 3 2 Z M13 5 C12.34 6.98 11.68 8.96 11 11 C12.65 11 14.3 11 16 11 C15.65555119 8.52733235 15.65555119 8.52733235 15 6 C14.34 5.67 13.68 5.34 13 5 Z " fill="#000000" transform="translate(26,50)"/>
<path d="M0 0 C1.22589844 0.01353516 1.22589844 0.01353516 2.4765625 0.02734375 C3.41628906 0.04474609 3.41628906 0.04474609 4.375 0.0625 C5.50194899 3.44334697 5.35289268 3.96155669 3.9375 7.0625 C2.24217998 10.25369063 0.86551917 11.71887622 -2.5 13.0625 C-5.91530579 14.06662549 -9.05862959 14.32997778 -12.625 14.0625 C-11.05322384 4.38366788 -11.05322384 4.38366788 -6.625 1.0625 C-4.21954362 -0.14022819 -2.67503047 -0.03821472 0 0 Z M-2.625 2.0625 C-1.965 4.0425 -1.305 6.0225 -0.625 8.0625 C0.035 8.0625 0.695 8.0625 1.375 8.0625 C1.705 6.0825 2.035 4.1025 2.375 2.0625 C0.725 2.0625 -0.925 2.0625 -2.625 2.0625 Z M-8.625 6.0625 C-8.955 7.7125 -9.285 9.3625 -9.625 11.0625 C-7.975 11.0625 -6.325 11.0625 -4.625 11.0625 C-5.59385372 9.37753702 -6.59486723 7.71071244 -7.625 6.0625 C-7.955 6.0625 -8.285 6.0625 -8.625 6.0625 Z " fill="#000000" transform="translate(91.625,49.9375)"/>
<path d="M0 0 C1.20269531 -0.02578125 2.40539062 -0.0515625 3.64453125 -0.078125 C8.44260883 0.36623941 11.77839516 1.84089516 15.1875 5.25 C15.67715911 9.49371232 15.44752933 11.75780163 13.4375 15.5625 C11.37551409 18.02542762 10.16215309 19.1876239 7.1875 20.25 C7.1875 21.24 7.1875 22.23 7.1875 23.25 C2.5675 23.25 -2.0525 23.25 -6.8125 23.25 C-6.8125 22.59 -6.8125 21.93 -6.8125 21.25 C-8.33870876 19.74153848 -8.33870876 19.74153848 -10.25 18.25 C-13.62683731 15.52124257 -14.68210171 14.40185155 -15.1875 9.9375 C-14.8125 6.25 -14.8125 6.25 -12.5 3.375 C-8.35653087 0.0987686 -5.1551776 0.06588086 0 0 Z M-11.8125 5.25 C-12.78156827 7.83414426 -12.78156827 7.83414426 -12.8125 10.25 C-9.3475 11.735 -9.3475 11.735 -5.8125 13.25 C-5.8125 15.56 -5.8125 17.87 -5.8125 20.25 C-3.56737738 21.37256131 -2.29793351 21.38413762 0.1875 21.375 C0.88875 21.37757812 1.59 21.38015625 2.3125 21.3828125 C4.27903775 21.36377236 4.27903775 21.36377236 6.1875 20.25 C6.1875 17.94 6.1875 15.63 6.1875 13.25 C8.4975 12.59 10.8075 11.93 13.1875 11.25 C13.52175735 8.87625139 13.52175735 8.87625139 13.1875 6.25 C8.50392718 1.72792969 3.31279441 1.96799013 -2.8515625 2.03515625 C-6.52345023 2.3015861 -8.89928394 2.9666685 -11.8125 5.25 Z M-11.8125 12.25 C-11.1525 13.9 -10.4925 15.55 -9.8125 17.25 C-8.8225 17.25 -7.8325 17.25 -6.8125 17.25 C-7.1425 15.93 -7.4725 14.61 -7.8125 13.25 C-9.1325 12.92 -10.4525 12.59 -11.8125 12.25 Z M7.1875 14.25 C7.1875 15.24 7.1875 16.23 7.1875 17.25 C9.17241642 16.98323796 9.17241642 16.98323796 11.1875 16.25 C11.5175 15.26 11.8475 14.27 12.1875 13.25 C9.2620356 13.0263932 9.2620356 13.0263932 7.1875 14.25 Z " fill="#000000" transform="translate(61.8125,90.75)"/>
</svg>
