<?xml version="1.0" encoding="UTF-8"?>
<svg width="2000" height="1779" viewBox="0 0 2000 1779" xmlns="http://www.w3.org/2000/svg">
  <g transform="scale(1)">
    

  <g transform="scale(13.793103448275861)">
    
<!-- Generator: visioncortex VTracer 0.6.4 -->

<path d="M0 0 C25.86079182 -1.23598404 25.86079182 -1.23598404 32.30859375 3.5390625 C36.19849955 7.37298129 38.81098015 11.52068965 39.234375 17.07421875 C39.0770135 19.03861479 38.89433948 21.00113346 38.6875 22.9609375 C39.44426599 30.32048674 47.61819173 36.61468391 52.65234375 41.65625 C54.87562265 44.05815131 56.62412243 46.02754096 58 49 C57.6110369 53.18570741 56.03872412 56.36575265 54 60 C53.608125 60.7425 53.21625 61.485 52.8125 62.25 C51.92773524 63.86339456 50.97211146 65.43767801 50 67 C44.72 67 39.44 67 34 67 C34 67.66 34 68.32 34 69 C26.78078306 66.11564774 21.28928635 58.10113335 17.0625 51.8125 C16.0415625 50.4203125 16.0415625 50.4203125 15 49 C14.01 49 13.02 49 12 49 C13.30653125 52.76858764 14.8364418 55.22821896 17.5625 58.125 C22.26182362 63.24375324 26.64022667 68.59125864 31 74 C32.15242188 75.24523437 32.15242188 75.24523437 33.328125 76.515625 C35 79 35 79 35.015625 81.29296875 C33.57022431 85.14551752 31.71306503 88.70084151 29.75 92.3125 C29.36714844 93.03373047 28.98429687 93.75496094 28.58984375 94.49804688 C25.94141416 99.43617228 23.24518004 104.42380117 20 109 C19.67 109 19.34 109 19 109 C18.99226563 108.03513672 18.99226563 108.03513672 18.984375 107.05078125 C18.4337889 100.61810029 16.40492018 96.70645931 11.9375 92.15625 C11.41387878 91.60644974 10.89025757 91.05664948 10.35076904 90.4901886 C8.58196631 88.64511901 6.79396133 86.8206075 5 85 C4.35357544 84.34220551 3.70715088 83.68441101 3.0411377 83.00668335 C-1.85746902 78.03490028 -6.79999724 73.10802522 -11.75 68.1875 C-13.23721562 66.70531534 -14.7241962 65.22289481 -16.2109375 63.74023438 C-19.80459702 60.15744041 -23.4013902 56.57782152 -27 53 C-25.61757439 48.08724783 -24.22990723 43.17601805 -22.83740234 38.26611328 C-22.3646102 36.59627236 -21.89324259 34.92602741 -21.42333984 33.25537109 C-20.7469261 30.8514567 -20.06537076 28.44905093 -19.3828125 26.046875 C-19.07018967 24.9294693 -19.07018967 24.9294693 -18.75125122 23.78948975 C-16.68980126 16.57207998 -16.68980126 16.57207998 -15 14 C-12.53807112 12.63354299 -10.19881298 11.47666995 -7.625 10.375 C-6.28374676 9.77888745 -4.94259794 9.18253988 -3.6015625 8.5859375 C-1.81878906 7.80089844 -1.81878906 7.80089844 0 7 C1.33919529 6.34518842 2.67630559 5.68560582 4 5 C2.68 3.35 1.36 1.7 0 0 Z M10.8125 22.0625 C8.65323697 23.99053425 8.65323697 23.99053425 8.5625 27.5 C8.73133801 30.87039897 8.73133801 30.87039897 10.1875 32.875 C12.4225789 34.26229035 14.40905378 34.64987213 17 35 C19.98155665 30.68399164 19.98155665 30.68399164 21 25.75 C19.67871864 23.43775761 18.28719299 22.34540764 16 21 C13.04443999 20.78154802 13.04443999 20.78154802 10.8125 22.0625 Z M25 28 C23.63092584 30.57637588 22.27971545 33.15968104 20.9375 35.75 C20.54755859 36.47960938 20.15761719 37.20921875 19.75585938 37.9609375 C19.39169922 38.66992188 19.02753906 39.37890625 18.65234375 40.109375 C18.31195068 40.75874023 17.97155762 41.40810547 17.62084961 42.07714844 C16.84648344 44.47546065 17.11498417 45.66331862 18 48 C19.90277406 50.44784252 19.90277406 50.44784252 22.25 52.875 C26.89871918 57.85131348 26.89871918 57.85131348 28.11987305 59.64404297 C29.73143016 61.94529622 31.0933624 63.77258098 33.89404297 64.47509766 C36.06434791 64.58996341 38.1448134 64.5260988 40.3125 64.375 C41.42334961 64.33439453 41.42334961 64.33439453 42.55664062 64.29296875 C44.37235998 64.22268284 46.18656801 64.11507089 48 64 C48.82011312 62.44148245 49.63076213 60.87798284 50.4375 59.3125 C50.88996094 58.44238281 51.34242188 57.57226562 51.80859375 56.67578125 C53.53579785 52.97747012 53.53579785 52.97747012 54 49 C52.192936 46.62860372 50.48470701 44.69085628 48.375 42.625 C47.29554716 41.53774389 46.220003 40.44659294 45.1484375 39.3515625 C44.61702148 38.81047852 44.08560547 38.26939453 43.53808594 37.71191406 C41.95320909 35.94792097 40.66519478 34.12039585 39.3515625 32.1484375 C36.81521242 28.70343016 36.81521242 28.70343016 33 28 C31.58465222 27.93543121 30.16662311 27.91388961 28.75 27.9375 C27.5125 27.958125 26.275 27.97875 25 28 Z " fill="#000000" transform="translate(87,1)"/>
<path d="M0 0 C2.125 0.375 2.125 0.375 4 1 C3.67 2.65 3.34 4.3 3 6 C1.0625 5.6875 1.0625 5.6875 -1 5 C-1.33 4.01 -1.66 3.02 -2 2 C-1.34 1.34 -0.68 0.68 0 0 Z " fill="#000000" transform="translate(121,39)"/>
<path d="M0 0 C3.55936984 2.07219224 6.19538155 4.7225414 9.06469727 7.65356445 C9.66962509 8.26036545 10.27455292 8.86716644 10.89781189 9.49235535 C12.17286932 10.77411922 13.44433179 12.05946803 14.71240234 13.34814453 C16.64441762 15.31124692 18.58683226 17.26354386 20.53149414 19.21411133 C21.77235224 20.46414353 23.01260682 21.71477517 24.25219727 22.96606445 C24.82833267 23.54644974 25.40446808 24.12683502 25.99806213 24.72480774 C28.40683559 27.17611138 30.6613171 29.59635001 32.80078125 32.29296875 C34.57464618 34.71294249 34.57464618 34.71294249 37.59204102 36.5090332 C37.93261719 39.30639648 37.93261719 39.30639648 37.88500977 42.8293457 C37.8753418 44.08618164 37.86567383 45.34301758 37.85571289 46.63793945 C37.83057617 47.95665039 37.80543945 49.27536133 37.77954102 50.6340332 C37.76449585 51.97386224 37.75080714 53.31370724 37.73852539 54.65356445 C37.70306974 57.93912162 37.6536495 61.22387902 37.59204102 64.5090332 C34.62204102 64.5090332 31.65204102 64.5090332 28.59204102 64.5090332 C28.08469818 62.13539351 27.58601715 59.76045895 27.09204102 57.3840332 C26.94895508 56.71887695 26.80586914 56.0537207 26.65844727 55.3684082 C25.83081272 51.34846898 25.43873444 47.60998421 25.59204102 43.5090332 C24.29073242 43.52643555 24.29073242 43.52643555 22.96313477 43.54418945 C21.66504883 43.55321289 20.36696289 43.56223633 19.02954102 43.5715332 C18.30516846 43.57918701 17.5807959 43.58684082 16.83447266 43.59472656 C12.16961208 43.6101933 7.54031869 43.46927436 2.88414001 43.17042542 C0.12707494 42.99471868 -2.63127303 42.84584948 -5.38986206 42.69625854 C-6.76826663 42.61362746 -8.14595124 42.51785829 -9.52249146 42.40847778 C-17.5305486 41.60519203 -17.5305486 41.60519203 -24.98217773 43.96606445 C-26.96714667 45.7093213 -28.66122454 47.53248627 -30.40795898 49.5090332 C-31.6794925 50.49392308 -32.96891214 51.45662474 -34.28295898 52.3840332 C-38.23181199 55.69423345 -38.86764598 59.54697502 -39.40795898 64.5090332 C-42.04795898 64.5090332 -44.68795898 64.5090332 -47.40795898 64.5090332 C-48.22624123 55.39103101 -48.56226448 46.28693091 -48.65795898 37.1340332 C-48.67922852 36.12469727 -48.70049805 35.11536133 -48.72241211 34.07543945 C-48.763039 25.26520772 -46.99484699 18.29840735 -41.98217773 11.0168457 C-38.10868816 7.30675395 -33.24495838 6.0662371 -28.09155273 5.19262695 C-26.32714844 4.88228516 -26.32714844 4.88228516 -24.52709961 4.56567383 C-23.3121582 4.36135742 -22.0972168 4.15704102 -20.84545898 3.9465332 C-18.42666262 3.53338078 -16.00865348 3.11558644 -13.59155273 2.69262695 C-11.99138306 2.42276978 -11.99138306 2.42276978 -10.35888672 2.14746094 C-7.40154821 1.62143463 -7.40154821 1.62143463 -4.83398438 0.31005859 C-2.40795898 -0.4909668 -2.40795898 -0.4909668 0 0 Z " fill="#000000" transform="translate(63.407958984375,64.490966796875)"/>
<path d="M0 0 C0 3.22863769 -0.66522367 5.03295731 -1.875 8 C-2.22304687 8.86625 -2.57109375 9.7325 -2.9296875 10.625 C-4 13 -4 13 -6 16 C-6.36887189 18.90644244 -6.36887189 18.90644244 -6.4140625 22.19921875 C-6.47207031 24.01196289 -6.47207031 24.01196289 -6.53125 25.86132812 C-6.57765625 27.7552832 -6.57765625 27.7552832 -6.625 29.6875 C-6.68300781 31.59885742 -6.68300781 31.59885742 -6.7421875 33.54882812 C-6.83657686 36.69907292 -6.9221583 39.84930991 -7 43 C-10.96 44.98 -10.96 44.98 -15 47 C-15.08078641 44.87561661 -15.13909141 42.7503677 -15.1875 40.625 C-15.22230469 39.44164062 -15.25710938 38.25828125 -15.29296875 37.0390625 C-15.19628906 36.03617188 -15.09960938 35.03328125 -15 34 C-14.01 33.34 -13.02 32.68 -12 32 C-11.51298261 29.69880522 -11.51298261 29.69880522 -11.515625 27.01953125 C-11.46664063 26.01986328 -11.41765625 25.02019531 -11.3671875 23.99023438 C-11.28980106 21.89177216 -11.22701173 19.79271469 -11.1796875 17.69335938 C-10.8886292 12.28452599 -10.50738806 8.84109109 -6.609375 4.88671875 C-4.48505795 3.05700467 -2.3410336 1.56068907 0 0 Z " fill="#000000" transform="translate(16,76)"/>
<path d="M0 0 C-1.12451727 2.9719385 -2.22293791 5.33440687 -4 8 C-4.0255089 10.5254223 -4.0255089 10.5254223 -3.625 13.1875 C-3.51414062 14.08855469 -3.40328125 14.98960938 -3.2890625 15.91796875 C-3.19367187 16.60503906 -3.09828125 17.29210937 -3 18 C-5.64 18 -8.28 18 -11 18 C-11.89434157 16.59546357 -12.76493192 15.17578131 -13.625 13.75 C-14.11226562 12.96109375 -14.59953125 12.1721875 -15.1015625 11.359375 C-16 9 -16 9 -15.3125 6.875 C-10.88517759 0.5502537 -7.40249026 -0.63814571 0 0 Z " fill="#000000" transform="translate(48,111)"/>


  </g>

  </g>
</svg>