<?xml version="1.0" encoding="UTF-8"?>
<!-- Generator: visioncortex VTracer 0.6.4 -->
<svg version="1.1" xmlns="http://www.w3.org/2000/svg" width="78" height="160">
<path d="M0 0 C3.4020328 1.13401093 3.75688688 1.71006483 5.62890625 4.60546875 C6.10650391 5.34216797 6.58410156 6.07886719 7.07617188 6.83789062 C7.56666016 7.61326172 8.05714844 8.38863281 8.5625 9.1875 C9.05685547 9.94353516 9.55121094 10.69957031 10.06054688 11.47851562 C14.38241516 18.22156587 16.23090906 24.25180728 17.0703125 32.2421875 C17.15626678 33.01055939 17.24222107 33.77893127 17.33078003 34.57058716 C17.60166349 37.00475927 17.86346724 39.43980732 18.125 41.875 C18.30799299 43.53392055 18.49158065 45.19277561 18.67578125 46.8515625 C19.12407029 50.90031659 19.56422367 54.94988083 20 59 C21.65 59 23.3 59 25 59 C25.03738281 58.10023437 25.07476562 57.20046875 25.11328125 56.2734375 C25.33974236 51.8419044 25.65839676 47.42384693 26 43 C26.05961914 42.1224707 26.11923828 41.24494141 26.18066406 40.34082031 C27.40254072 23.78350614 31.81248983 11.55410911 44 0 C53.10262301 21.01350205 53.10262301 21.01350205 51 30 C49.86576931 32.59397736 48.69612936 35.07582828 47.40234375 37.5859375 C47.04862198 38.28772125 46.69490021 38.989505 46.33045959 39.71255493 C45.20697476 41.93726357 44.0724534 44.15612397 42.9375 46.375 C42.17048627 47.88894941 41.40420235 49.40326879 40.63867188 50.91796875 C38.76753342 54.61631433 36.88648105 58.30945852 35 62 C35.78375 62.78375 36.5675 63.5675 37.375 64.375 C40.98840783 67.98840783 42.25625185 69.45434153 43.3125 74.4375 C44.6009597 79.9433407 46.52306446 84.75490997 49.01171875 89.8203125 C50 92 50 92 50 94 C49.46375 94.18433594 48.9275 94.36867188 48.375 94.55859375 C44.03883631 96.16325959 39.97092632 97.9613181 35.984375 100.3046875 C34.93636719 100.92065796 34.93636719 100.92065796 33.8671875 101.54907227 C32.47284823 102.38114165 31.08704844 103.22771786 29.7109375 104.08959961 C26.64269703 105.92122093 24.66684639 106.98412271 21.046875 107.0703125 C16.84248086 105.5933843 13.26555883 103.42176489 9.5 101.0625 C4.75913694 98.11716592 0.43392217 95.50464617 -5 94 C-4.0044151 88.69178949 -2.44939482 83.6404861 -0.8125 78.5 C-0.53341797 77.56285156 -0.25433594 76.62570313 0.03320312 75.66015625 C1.95749377 69.67064232 3.73317108 66.51618564 9 63 C7.6488228 58.57596423 5.89417393 54.67750545 3.70703125 50.60546875 C3.06987738 49.39054296 2.43384379 48.17502912 1.79882812 46.95898438 C0.80846378 45.07069623 -0.18783659 43.18687896 -1.20385742 41.31225586 C-8.06959987 28.59970918 -8.06959987 28.59970918 -6.65405273 22.16967773 C-6.43821533 21.45368408 -6.22237793 20.73769043 -6 20 C-5.77836182 19.15445557 -5.55672363 18.30891113 -5.32836914 17.43774414 C-4.59067315 14.7491166 -3.77803709 12.09562542 -2.9375 9.4375 C-2.65583984 8.52419922 -2.37417969 7.61089844 -2.08398438 6.66992188 C-1.39648178 4.44427788 -0.70174718 2.22118518 0 0 Z M1 8 C0.13161176 10.72535688 -0.71992619 13.45416373 -1.5625 16.1875 C-1.80935547 16.95642578 -2.05621094 17.72535156 -2.31054688 18.51757812 C-2.53935547 19.26845703 -2.76816406 20.01933594 -3.00390625 20.79296875 C-3.21861572 21.4789917 -3.4333252 22.16501465 -3.65454102 22.87182617 C-4.4219798 27.59957448 -2.52797221 31.29642519 -0.3828125 35.4140625 C0.14183594 36.42210938 0.66648437 37.43015625 1.20703125 38.46875 C2.03267578 40.03109375 2.03267578 40.03109375 2.875 41.625 C3.41769531 42.67429688 3.96039063 43.72359375 4.51953125 44.8046875 C7.58012383 50.89885297 7.58012383 50.89885297 12 56 C9.42048386 39.90190854 6.84551626 23.85469832 3 8 C2.34 8 1.68 8 1 8 Z M42 8 C37.71077606 23.84275057 34.72629573 39.82105661 32 56 C34.74993503 53.5634131 36.21911478 50.96973261 37.8828125 47.7109375 C38.41003906 46.68742187 38.93726563 45.66390625 39.48046875 44.609375 C40.02316406 43.54203125 40.56585938 42.4746875 41.125 41.375 C42.2093866 39.25701774 43.29524374 37.13978751 44.3828125 35.0234375 C45.10041748 33.61457275 45.10041748 33.61457275 45.83251953 32.17724609 C47 30 47 30 48 29 C48.31606155 23.77839985 47.51893706 19.54651224 46 14.5625 C45.62875 13.32628906 45.2575 12.09007812 44.875 10.81640625 C44.58625 9.88699219 44.2975 8.95757812 44 8 C43.34 8 42.68 8 42 8 Z M11 76 C10.67 77.32 10.34 78.64 10 80 C12.475 80.495 12.475 80.495 15 81 C14.73323796 79.01508358 14.73323796 79.01508358 14 77 C13.01 76.67 12.02 76.34 11 76 Z M32 76 C31.01 76.66 30.02 77.32 29 78 C29.66 79.32 30.32 80.64 31 82 C32.32 81.34 33.64 80.68 35 80 C35 79.01 35 78.02 35 77 C34.01 76.67 33.02 76.34 32 76 Z M17 97 C17.37904208 100.29075996 17.37904208 100.29075996 19 103 C21.95817107 103.25005386 21.95817107 103.25005386 25 103 C25.66 102.34 26.32 101.68 27 101 C27 100.01 27 99.02 27 98 C24.71294169 96.85647084 23.40735238 96.89665561 20.875 96.9375 C18.956875 96.9684375 18.956875 96.9684375 17 97 Z " fill="#000000" transform="translate(8,1)"/>
<path d="M0 0 C3.18062697 0.62801337 5.41166191 1.74112219 8.125 3.49609375 C16.76427204 9.2482025 16.76427204 9.2482025 26.6015625 10.5 C29.68057299 8.90878011 32.27298657 7.13382622 35 5 C36.64780434 3.98941305 38.31334013 3.00681119 40 2.0625 C40.680625 1.64097656 41.36125 1.21945313 42.0625 0.78515625 C44 0 44 0 45.98828125 -0.03125 C49.14852958 1.58876079 50.4848981 4.45075934 52.1875 7.4375 C52.54263672 8.03626953 52.89777344 8.63503906 53.26367188 9.25195312 C56.69671434 15.06923381 57.2096177 18.41456468 57.25 25.0625 C57.270625 25.88427734 57.29125 26.70605469 57.3125 27.55273438 C57.36946223 36.60260862 55.2529109 43.40909392 49 50 C52.77243357 49.72056048 54.45158781 47.7277873 56.8515625 44.9609375 C59.99931086 39.5862107 60.35862521 33.62807603 60.625 27.5625 C60.68300781 26.46518555 60.68300781 26.46518555 60.7421875 25.34570312 C60.83533984 23.56416468 60.91870286 21.78211878 61 20 C62.98 19.67 64.96 19.34 67 19 C70.68878908 27.76087405 70.63782153 33.58957523 67.1171875 42.48828125 C64.02427168 49.44193465 58.72636936 52.8102747 52 56 C46.72336284 57.63250798 41.52633446 58.29085971 36 58 C36.52959056 50.39130211 37.60600446 43.07051791 39.25 35.625 C39.46744873 34.62782959 39.68489746 33.63065918 39.90893555 32.60327148 C41.61341412 25.07948673 43.82141673 18.04698673 47 11 C39.25264539 19.26229953 31.52777448 27.5362324 24 36 C15.26539806 28.78445927 7.17489093 20.77589965 0 12 C-0.70125 11.154375 -1.4025 10.30875 -2.125 9.4375 C-3.1602089 6.55370379 -2.83294422 5.92779718 -1.6875 3.1875 C-1.130625 2.135625 -0.57375 1.08375 0 0 Z " fill="#000000" transform="translate(7,101)"/>
<path d="M0 0 C6.81242909 7.28225179 7.85171677 17.35627519 9.6875 26.8125 C9.91244141 27.93076172 10.13738281 29.04902344 10.36914062 30.20117188 C11.23169407 34.57161745 12 38.53146846 12 43 C5.38715208 40.92167637 2.13507412 36.55183597 -1.375 30.8125 C-4.39919557 24.97401447 -4.40368693 21.29059698 -3 15 C-2.74394883 13.68035165 -2.49161742 12.35997835 -2.2421875 11.0390625 C-1.53611988 7.35004297 -0.77894865 3.6742861 0 0 Z " fill="#000000" transform="translate(6,115)"/>
<path d="M0 0 C2.06896247 1.61479998 4.0365454 3.2622788 6 5 C6.64582031 5.5465625 7.29164062 6.093125 7.95703125 6.65625 C11.12601903 9.70260892 12.8231314 11.80106288 13.4765625 16.23046875 C13.5109009 21.29538345 13.10098539 26.05474061 12 31 C10.02 31 8.04 31 6 31 C5.18381232 27.14660485 4.37271415 23.29215519 3.5625 19.4375 C3.33240234 18.35146484 3.10230469 17.26542969 2.86523438 16.14648438 C1.73899991 10.77646788 0.67972026 5.44557493 0 0 Z " fill="#000000" transform="translate(16,128)"/>
<path d="M0 0 C1.5198254 3.03965081 0.48555883 5.25145853 -0.21484375 8.5390625 C-0.34943497 9.17991791 -0.48402618 9.82077332 -0.62269592 10.48104858 C-1.05462926 12.53043344 -1.49594242 14.57766946 -1.9375 16.625 C-2.23173908 18.01288968 -2.52536665 19.40090917 -2.81835938 20.7890625 C-3.53847948 24.19424376 -4.26702579 27.59755963 -5 31 C-7.31 31 -9.62 31 -12 31 C-13.78976008 15.15730893 -13.78976008 15.15730893 -10.82226562 9.92236328 C-7.69890218 6.04265595 -3.97967022 2.96698628 0 0 Z " fill="#000000" transform="translate(44,128)"/>
</svg>
