<?xml version="1.0" encoding="UTF-8"?>
<svg width="2000" height="1812" viewBox="0 0 2000 1812" xmlns="http://www.w3.org/2000/svg">
  <g transform="scale(13.422818791946309)">
    
<!-- Generator: visioncortex VTracer 0.6.4 -->

<path d="M0 0 C0.33 0 0.66 0 1 0 C1 1.98 1 3.96 1 6 C2.03125 6.185625 3.0625 6.37125 4.125 6.5625 C9.94188794 8.21101075 12.66386286 13.06044608 15.9375 17.8125 C16.288125 18.534375 16.63875 19.25625 17 20 C16.67 20.66 16.34 21.32 16 22 C13.69 20.68 11.38 19.36 9 18 C10.72678758 21.00137521 12.45687227 24.00083769 14.1875 27 C14.91163086 28.25876953 14.91163086 28.25876953 15.65039062 29.54296875 C16.13056641 30.37441406 16.61074219 31.20585938 17.10546875 32.0625 C17.58330811 32.89136719 18.06114746 33.72023437 18.5534668 34.57421875 C20.31632518 37.53046531 22.21829158 40.38163454 24.17773438 43.2109375 C25.22531985 45.4902446 24.98988355 46.61370849 24.3125 49 C23.879375 49.99 23.44625 50.98 23 52 C20.00781209 53.02347168 17.16744584 53.82373404 14 54 C11.25 51.875 11.25 51.875 9 49 C5.82206748 45.91286555 3.2084547 44.67851984 -1 43.5625 C-5.565961 42.29191264 -8.13331745 40.94168851 -11 37 C-11.92053874 34.65725326 -12.46591771 32.47619969 -13 30 C-12.93853355 31.35533527 -12.84939173 32.70941719 -12.75 34.0625 C-12.70359375 34.81660156 -12.6571875 35.57070313 -12.609375 36.34765625 C-12.13374424 39.24148121 -12.13374424 39.24148121 -9.765625 41.97265625 C-7.55813762 45.64998052 -8.0917964 48.16209748 -9 52.2734375 C-9.63877527 54.64830323 -10.30649178 57.01553662 -11 59.375 C-11.31839844 60.55578125 -11.63679688 61.7365625 -11.96484375 62.953125 C-13.34123508 67.91697806 -14.7654296 72.53922585 -17.07714844 77.14282227 C-19.61301795 82.75129531 -19.69934887 88.17260215 -19.828125 94.25390625 C-19.8668573 95.39536606 -19.9055896 96.53682587 -19.94549561 97.71287537 C-20.06426467 101.32912077 -20.15752185 104.94549645 -20.25 108.5625 C-20.32643583 111.02674568 -20.40454367 113.49094011 -20.484375 115.95507812 C-20.67559652 121.96959426 -20.84592542 127.98442373 -21 134 C-23.33294775 134.04241723 -25.66702567 134.04092937 -28 134 C-30.17782681 131.82217319 -29.26089916 126.74896922 -29.31640625 123.71484375 C-29.3475779 122.31861534 -29.3475779 122.31861534 -29.37937927 120.8941803 C-29.44497931 117.90869818 -29.50380802 114.92312516 -29.5625 111.9375 C-29.6056753 109.91861024 -29.64928925 107.8997298 -29.69335938 105.88085938 C-29.80067129 100.92066703 -29.90190888 95.96038291 -30 91 C-30.68094727 91.21221191 -31.36189453 91.42442383 -32.06347656 91.64306641 C-38.42213728 93.51771819 -44.13096763 94.48598177 -50.75 94.375 C-51.60400391 94.36992432 -52.45800781 94.36484863 -53.33789062 94.35961914 C-60.1356445 94.22698933 -66.44630024 93.19754695 -73.03125 91.55859375 C-75.92892092 91.01337409 -77.33962688 90.80601991 -80 92 C-81.67978314 93.49712018 -81.67978314 93.49712018 -83.1875 95.4375 C-84.08275391 96.50871094 -84.08275391 96.50871094 -84.99609375 97.6015625 C-85.65738281 98.39304687 -86.31867188 99.18453125 -87 100 C-88.5757251 101.77760669 -90.15918898 103.54838111 -91.75 105.3125 C-92.48734375 106.13363281 -93.2246875 106.95476562 -93.984375 107.80078125 C-96 110 -96 110 -97.59619141 111.34790039 C-99.43410513 113.51088511 -99.40823263 114.82017716 -99.4765625 117.6328125 C-99.5075 118.52097656 -99.5384375 119.40914063 -99.5703125 120.32421875 C-99.58835937 121.24847656 -99.60640625 122.17273438 -99.625 123.125 C-99.67578975 124.96104946 -99.7302738 126.79700175 -99.7890625 128.6328125 C-99.80662598 129.44637207 -99.82418945 130.25993164 -99.84228516 131.09814453 C-100 133 -100 133 -101 134 C-104.5 134.125 -104.5 134.125 -108 134 C-109.83427123 132.16572877 -109.15649533 129.23277942 -109.17700195 126.77124023 C-109.18685875 125.79543251 -109.18685875 125.79543251 -109.19691467 124.7999115 C-109.21670218 122.63613782 -109.22832708 120.47243398 -109.23828125 118.30859375 C-109.24235678 117.56928179 -109.2464323 116.82996983 -109.25063133 116.06825447 C-109.27152314 112.14926556 -109.28580685 108.23031191 -109.29516602 104.3112793 C-109.30618965 100.27511363 -109.34053274 96.23950555 -109.38033772 92.20353603 C-109.40658473 89.09183277 -109.41486535 85.98026009 -109.41844749 82.86845589 C-109.42329886 81.38179861 -109.43487135 79.8951466 -109.45348549 78.40859795 C-109.56024308 69.31145475 -109.46969287 62.17964409 -103.25390625 54.9765625 C-102.41666016 54.30753906 -102.41666016 54.30753906 -101.5625 53.625 C-101.00691406 53.16351563 -100.45132813 52.70203125 -99.87890625 52.2265625 C-95.16253095 49.14768133 -90.79812523 48.70823319 -85.27734375 48.69140625 C-83.75325183 48.66621918 -82.22916338 48.64082161 -80.70507812 48.61523438 C-78.33147317 48.58670723 -75.95792922 48.5626632 -73.58422852 48.54370117 C-54.6893823 48.36371258 -44.05547351 45.35812826 -30.578125 31.70507812 C-29.72734375 30.83302734 -28.8765625 29.96097656 -28 29.0625 C-18.41008125 19.27642383 -18.41008125 19.27642383 -13.68359375 15.23828125 C-10.3983118 12.42427246 -7.74013392 9.52263038 -5.0625 6.125 C-4.31097656 5.17882812 -3.55945313 4.23265625 -2.78515625 3.2578125 C-2.19605469 2.51273437 -1.60695313 1.76765625 -1 1 C-0.67 0.67 -0.34 0.34 0 0 Z M3 24 C3 25.32 3 26.64 3 28 C4.32 27.67 5.64 27.34 7 27 C6.67 26.01 6.34 25.02 6 24 C5.01 24 4.02 24 3 24 Z " fill="#000000" transform="translate(124,1)"/>
<path d="M0 0 C-2.58708477 3.31470237 -5.15886253 6.22695619 -8.375 8.9375 C-12.64869969 12.56933225 -16.55754506 16.51783967 -20.5 20.5 C-22.43415287 22.43842043 -24.37053679 24.37456536 -26.30859375 26.30908203 C-27.71041455 27.71049815 -29.10602555 29.11812271 -30.5 30.52734375 C-33.71775751 33.60055356 -35.17918194 34.88870264 -39.6875 35.5 C-45.31875 34.65 -45.31875 34.65 -48 34 C-44.18765077 30.6497537 -40.66714289 28.83025211 -36 27 C-38.31 26.34 -40.62 25.68 -43 25 C-40.06810006 22.60926851 -37.27856712 21.15892693 -33.75 19.8125 C-32.85796875 19.46832031 -31.9659375 19.12414062 -31.046875 18.76953125 C-30.37140625 18.51558594 -29.6959375 18.26164062 -29 18 C-29 17.67 -29 17.34 -29 17 C-30.65 16.67 -32.3 16.34 -34 16 C-34 15.34 -34 14.68 -34 14 C-29.38 12.02 -24.76 10.04 -20 8 C-21.98 7.34 -23.96 6.68 -26 6 C-18.68593753 -0.67805704 -9.32651369 -0.38920536 0 0 Z " fill="#000000" transform="translate(114,9)"/>
<path d="M0 0 C0.66 0.33 1.32 0.66 2 1 C1.65066406 1.6290625 1.30132813 2.258125 0.94140625 2.90625 C0.48636719 3.7621875 0.03132812 4.618125 -0.4375 5.5 C-1.11619141 6.75296875 -1.11619141 6.75296875 -1.80859375 8.03125 C-4.19816959 13.98560291 -4.10286245 20.27639195 -4 26.61328125 C-3.99884155 28.04101575 -4.00022357 29.46875416 -4.00390625 30.89648438 C-4.0083095 33.10275657 -4.00018027 35.30477155 -3.94873047 37.51049805 C-3.73466102 47.58415583 -4.88490712 53.6125051 -11.96875 61.18041992 C-14 63 -14 63 -15 63 C-15.25059721 55.42639541 -15.16648449 48.70428076 -11.94018555 41.69873047 C-10.78879453 38.3937509 -10.79331439 35.69218121 -10.83203125 32.1953125 C-10.82494141 30.88949219 -10.81785156 29.58367187 -10.81054688 28.23828125 C-10.8063798 26.18170753 -10.81246576 24.12713409 -10.84545898 22.07080078 C-11.00068141 10.61730876 -11.00068141 10.61730876 -8.49365234 6.56542969 C-6.74828971 4.79298938 -5.06737859 3.37562894 -3 2 C-2.01 1.34 -1.02 0.68 0 0 Z " fill="#000000" transform="translate(15,55)"/>
<path d="M0 0 C1.07314453 1.07894531 1.07314453 1.07894531 2.16796875 2.1796875 C3.97794752 3.98217671 5.81199244 5.76102065 7.67578125 7.5078125 C15.68970792 15.46237675 15.68970792 15.46237675 16.3125 21.5 C15.73208512 27.93062832 11.36132909 31.44697025 6.796875 35.4921875 C4.18926877 37.83029253 2.10126913 40.20831387 0 43 C-0.66 42.67 -1.32 42.34 -2 42 C-2.61328104 37.79464427 -2.94153061 34.38332574 -0.4765625 30.76171875 C0.76793908 29.4130854 2.04967801 28.09758301 3.37109375 26.82421875 C5.16052464 24.8202278 5.81618185 23.67617599 6 21 C3.72926391 18.31256494 3.72926391 18.31256494 1 16 C0.34 15.34 -0.32 14.68 -1 14 C-0.9765625 10.7421875 -0.9765625 10.7421875 -0.625 6.875 C-0.51414062 5.59367187 -0.40328125 4.31234375 -0.2890625 2.9921875 C-0.19367188 2.00476563 -0.09828125 1.01734375 0 0 Z " fill="#000000" transform="translate(108,84)"/>
<path d="M0 0 C0.33 0 0.66 0 1 0 C0.93039063 0.97900269 0.93039063 0.97900269 0.859375 1.9777832 C0.54948968 9.79892898 2.24111812 15.92213371 5 23.1875 C5.3815625 24.23486328 5.763125 25.28222656 6.15625 26.36132812 C7.08864521 28.91376002 8.03657377 31.45915549 9 34 C6.36 34 3.72 34 1 34 C0.18595703 32.35451172 0.18595703 32.35451172 -0.64453125 30.67578125 C-1.3670797 29.22130061 -2.08974196 27.7668765 -2.8125 26.3125 C-3.16892578 25.59126953 -3.52535156 24.87003906 -3.89257812 24.12695312 C-4.24384766 23.42119141 -4.59511719 22.71542969 -4.95703125 21.98828125 C-5.29943848 21.29814941 -5.6418457 20.60801758 -5.99462891 19.89697266 C-7.06008955 17.80222452 -7.06008955 17.80222452 -8.88671875 15.23046875 C-10 13 -10 13 -9.44140625 10.984375 C-7.72078954 8.6156127 -5.89696966 6.42639824 -3.9375 4.25 C-3.22464844 3.45078125 -2.51179688 2.6515625 -1.77734375 1.828125 C-0.89755859 0.92320313 -0.89755859 0.92320313 0 0 Z " fill="#000000" transform="translate(41,101)"/>


  </g>
</svg>