<?xml version="1.0" encoding="UTF-8"?>
<svg width="2000" height="1856" viewBox="0 0 2000 1856" xmlns="http://www.w3.org/2000/svg">
  <g transform="scale(13.071895424836601)">
    
<!-- Generator: visioncortex VTracer 0.6.4 -->

<path d="M0 0 C8.04624814 4.59601693 12.87956256 11.17083183 17.6875 18.9375 C18.71746094 18.64875 19.74742188 18.36 20.80859375 18.0625 C37.74703674 13.54665325 51.87263409 14.22344498 68.6875 18.9375 C69.11160156 18.29683594 69.53570312 17.65617187 69.97265625 16.99609375 C81.0828487 0.61161214 81.0828487 0.61161214 90.6875 -2.0625 C96.44088779 -2.75404723 102.41192523 -3.18495469 107.6875 -0.4375 C113.94076703 4.51300306 117.84636367 10.01497842 118.97265625 17.9453125 C119.30867614 25.39618828 116.39034858 32.24457804 111.6875 37.9375 C106.18948716 42.24926241 100.83376845 45.9375 93.6875 45.9375 C93.84605469 46.5975 94.00460938 47.2575 94.16796875 47.9375 C97.30619987 66.05901503 91.82161628 79.53481616 82.81835938 94.91748047 C78.96456312 101.52628993 75.62926998 108.21103535 72.5 115.1875 C68.24252898 124.46108031 63.30831922 134.13388757 53.25 138.125 C44.98403161 140.06393086 36.34665156 139.79037949 28.6875 135.9375 C26 133.75 26 133.75 23.6875 130.9375 C23.25888672 130.42598389 22.83027344 129.91446777 22.38867188 129.38745117 C17.93129988 123.79351063 14.86527404 117.70293697 11.76455688 111.27993774 C10.25371301 108.1506991 8.7178689 105.03384134 7.1796875 101.91796875 C6.87913956 101.30837814 6.57859161 100.69878754 6.26893616 100.07072449 C3.84887994 95.19310497 1.2419017 90.45223601 -1.5 85.75 C-4.45783213 80.64419479 -6.97139476 75.71553286 -8.3125 69.9375 C-8.539375 68.968125 -8.76625 67.99875 -9 67 C-9.69165733 60.2217582 -9.47873596 53.64335676 -8.3125 46.9375 C-9.0859375 46.65777344 -9.859375 46.37804688 -10.65625 46.08984375 C-19.28637222 42.76810116 -26.4450394 39.1797845 -30.8125 30.6875 C-33.39445602 23.90986546 -33.39445602 16.96513454 -30.8125 10.1875 C-24.80597304 -1.78249638 -12.03180245 -5.62837384 0 0 Z M-26.3125 5.9375 C-30.63250833 11.94138255 -31.33612349 18.74014735 -30.3125 25.9375 C-28.43702732 32.63059313 -23.91716773 37.05356359 -18.3125 40.9375 C-14.35009501 43.11105225 -10.87685155 44.9375 -6.3125 44.9375 C-6.580625 44.40125 -6.84875 43.865 -7.125 43.3125 C-7.516875 42.52875 -7.90875 41.745 -8.3125 40.9375 C-8.828125 40.03 -9.34375 39.1225 -9.875 38.1875 C-11.97039725 33.45008012 -12.90475779 29.20782154 -11.5625 24.0625 C-10.3125 21.9375 -10.3125 21.9375 -7.3125 19.9375 C-1.55489449 19.2856956 1.1081587 20.5296181 5.6875 23.9375 C6.3475 23.9375 7.0075 23.9375 7.6875 23.9375 C5.69009705 14.82553796 1.85452994 8.5610043 -5.1875 2.4375 C-13.52503073 -1.56451475 -19.63623689 -0.64529542 -26.3125 5.9375 Z M83.38671875 10.625 C80.19299219 14.97140488 78.6875 18.43641307 78.6875 23.9375 C81.18111571 22.73368552 83.36893083 21.48321278 85.6875 19.9375 C87.84375 19.6015625 87.84375 19.6015625 90.1875 19.5625 C90.9609375 19.53414062 91.734375 19.50578125 92.53125 19.4765625 C94.6875 19.9375 94.6875 19.9375 96.44140625 21.66015625 C98.61019103 25.62379739 98.32346054 29.54666604 97.6875 33.9375 C96.59900996 36.53124427 95.25130398 38.56810003 93.6875 40.9375 C93.05068453 43.05520895 93.05068453 43.05520895 92.6875 44.9375 C100.93519345 43.1295505 107.88930846 39.96328384 113.1015625 33.06640625 C116.39814204 27.55234334 117.47600118 22.32435955 116.6875 15.9375 C114.79157051 9.18753415 111.42153015 4.89200355 105.6875 0.9375 C96.75455912 -3.52897044 88.69785378 4.28085442 83.38671875 10.625 Z M88.6875 0.9375 C81.0976607 5.54943454 76.3303099 10.39293391 71.6875 17.9375 C70.6975 19.4225 70.6975 19.4225 69.6875 20.9375 C67.07282846 20.44605626 64.51894258 19.89102631 61.953125 19.18359375 C45.80740553 14.85436586 31.33907247 16.72030918 15.6875 21.9375 C15.48125 21.2775 15.275 20.6175 15.0625 19.9375 C11.82066442 12.8644042 6.75972238 7.68030091 0.6875 2.9375 C-0.3025 3.4325 -0.3025 3.4325 -1.3125 3.9375 C-0.92578125 4.39898437 -0.5390625 4.86046875 -0.140625 5.3359375 C4.7757016 11.49351488 9.49645428 18.73826849 8.6875 26.9375 C7.57900628 28.11317515 6.45545527 29.27855908 5.2578125 30.36328125 C0.03984302 35.59423075 -3.8918938 41.67662387 -5.3125 48.9375 C-4.80460937 48.53917969 -4.29671875 48.14085937 -3.7734375 47.73046875 C-3.08507812 47.20066406 -2.39671875 46.67085937 -1.6875 46.125 C-0.67816406 45.34189453 -0.67816406 45.34189453 0.3515625 44.54296875 C7.68654071 39.50170446 13.94240304 38.91789228 22.6875 39.9375 C29.02993374 41.89459384 32.60874554 45.35250073 35.8125 51.0703125 C40.13378841 60.2916333 37.78865427 70.11365991 34.60644531 79.27514648 C31.49563167 87.8103749 27.95718132 96.19737377 24.38354492 104.54736328 C20.83957831 112.96880777 20.83957831 112.96880777 19.6875 121.9375 C21.84504261 124.67816224 23.57543005 126.38146502 26.6875 127.9375 C31.24297083 128.19535684 34.5655636 127.93601462 38.6875 125.9375 C35.82799655 123.95578949 35.82799655 123.95578949 33.1875 122.625 C30.23165673 120.62980579 29.09979774 119.20808425 27.6875 115.9375 C27.1875 112.375 27.1875 112.375 27.6875 108.9375 C31.18075269 105.34983507 34.05124065 104.0363217 39.05078125 103.734375 C41.00564453 103.71117188 41.00564453 103.71117188 43 103.6875 C44.29550781 103.66171875 45.59101562 103.6359375 46.92578125 103.609375 C50.93369054 103.95897456 53.30216312 104.80337556 56.6875 106.9375 C58.3125 109.625 58.3125 109.625 58.6875 112.9375 C57.39446597 118.08943248 54.9220914 121.1140238 50.4375 123.875 C49.73109375 124.25527344 49.0246875 124.63554688 48.296875 125.02734375 C47.50023438 125.47787109 47.50023438 125.47787109 46.6875 125.9375 C46.6875 126.2675 46.6875 126.5975 46.6875 126.9375 C53.70759446 129.0048102 53.70759446 129.0048102 60.6875 127.6875 C63.68537922 126.10928298 63.68537922 126.10928298 65.6875 123.9375 C66.68438615 117.69137013 65.17171606 112.40111995 62.73046875 106.71875 C62.27502434 105.60457703 62.27502434 105.60457703 61.81037903 104.46789551 C60.84656368 102.11805834 59.86176824 99.77777848 58.875 97.4375 C57.59251789 94.34586484 56.31770414 91.25108599 55.04296875 88.15625 C54.73943985 87.42220947 54.43591095 86.68816895 54.1231842 85.93188477 C49.61354822 74.97589589 45.11657926 63.62810373 49.6875 51.9375 C52.44901238 46.84001976 55.89797917 42.86675554 61.29296875 40.56640625 C69.54321415 38.39953919 77.25564443 39.22830473 84.65234375 43.42578125 C87.5772257 45.5983903 89.03545366 47.70850033 90.6875 50.9375 C91.99060976 47.02817073 91.10673843 46.01569014 89.3125 42.375 C86.95530747 37.73881564 84.37919129 34.39597375 80.6875 30.75 C76.79124947 26.63035568 76.79124947 26.63035568 76.34765625 23.66796875 C77.91572079 14.9751061 83.61827947 6.98694324 90.6875 1.9375 C89.6975 1.4425 89.6975 1.4425 88.6875 0.9375 Z M-9.125 22.125 C-11.11653035 25.16470421 -11.47446476 27.9414924 -10.89453125 31.5078125 C-10.51361328 32.77238281 -10.51361328 32.77238281 -10.125 34.0625 C-9.88394531 34.91070312 -9.64289062 35.75890625 -9.39453125 36.6328125 C-8.13558568 39.31432111 -6.78709175 40.36974622 -4.3125 41.9375 C-3.60673828 40.79861328 -3.60673828 40.79861328 -2.88671875 39.63671875 C-2.26410156 38.64285156 -1.64148437 37.64898437 -1 36.625 C-0.38511719 35.63886719 0.22976562 34.65273438 0.86328125 33.63671875 C2.35074661 31.43577965 3.7278386 29.70421012 5.6875 27.9375 C4.2310664 24.09781141 2.40535783 22.62743538 -1.3125 20.9375 C-4.50624554 20.55425053 -6.40020367 20.33978861 -9.125 22.125 Z M79.6875 25.9375 C80.06261719 26.43378906 80.43773438 26.93007813 80.82421875 27.44140625 C84.17913919 31.89491524 87.46461236 36.38754098 90.6875 40.9375 C93.85625 40.21458333 93.85625 40.21458333 95.375 37.5 C97.03601081 32.99154208 97.52327681 28.69815024 96.6875 23.9375 C94.64967126 21.20632716 93.92521691 20.97407183 90.4375 20.4375 C85.53233075 21.09152257 83.48584072 22.8368137 79.6875 25.9375 Z M-1.6875 48.4375 C-5.646738 53.30360257 -6.58902271 56.71031162 -6.5625 63.0625 C-6.56765625 64.30257812 -6.5728125 65.54265625 -6.578125 66.8203125 C-6.64117066 70.03850687 -6.64117066 70.03850687 -4.3125 71.9375 C-3.98636719 71.38320312 -3.66023438 70.82890625 -3.32421875 70.2578125 C-2.88722656 69.53335938 -2.45023438 68.80890625 -2 68.0625 C-1.57074219 67.34320313 -1.14148438 66.62390625 -0.69921875 65.8828125 C0.6875 63.9375 0.6875 63.9375 3.6875 61.9375 C6.2109375 61.671875 6.2109375 61.671875 9.0625 61.6875 C9.99835937 61.68234375 10.93421875 61.6771875 11.8984375 61.671875 C14.92076607 61.95971582 17.01823793 62.48820994 19.6875 63.9375 C21.76953629 66.998507 22.67032902 70.68484232 23.8125 74.1875 C24.16570313 75.26515625 24.51890625 76.3428125 24.8828125 77.453125 C25.14835937 78.27296875 25.41390625 79.0928125 25.6875 79.9375 C9.1242713 75.74557175 9.1242713 75.74557175 5.6015625 71.3125 C4.66112898 68.82353309 4.01065979 66.57490086 3.6875 63.9375 C-1.68193424 68.92843152 -1.68193424 68.92843152 -3.53369141 75.71655273 C-3.27926466 79.42146671 -2.3333699 81.3484997 -0.4609375 84.53515625 C0.14363281 85.58509766 0.74820313 86.63503906 1.37109375 87.71679688 C2.01175781 88.80025391 2.65242188 89.88371094 3.3125 91 C8.27084704 99.48301753 12.72368019 107.9467775 16.6875 116.9375 C17.3475 116.9375 18.0075 116.9375 18.6875 116.9375 C19.18056641 115.60525391 19.18056641 115.60525391 19.68359375 114.24609375 C23.18889037 104.81939902 26.81668724 95.44538682 30.52709961 86.09741211 C37.23679297 70.11128269 37.23679297 70.11128269 35.73828125 53.24609375 C32.46253411 46.97360633 28.42294449 43.2409637 21.6875 40.9375 C12.08235225 39.79813075 4.855006 41.12436229 -1.6875 48.4375 Z M53.375 48.125 C48.8831816 55.611364 48.10394526 62.44719288 49.6875 70.9375 C50.80527151 74.77764759 52.21662036 78.47016924 53.6875 82.1875 C54.08251709 83.21294922 54.47753418 84.23839844 54.88452148 85.29492188 C58.99768592 95.90388144 63.30820399 106.43595129 67.6875 116.9375 C69.71569646 114.34092883 71.39318316 111.78247246 72.88671875 108.84765625 C73.48818726 107.68012817 73.48818726 107.68012817 74.10180664 106.48901367 C74.52196045 105.66763916 74.94211426 104.84626465 75.375 104 C78.99385717 96.98884014 82.82968905 90.27251087 87.19140625 83.69921875 C88.8340827 80.66691522 89.44505739 78.36899535 89.6875 74.9375 C88.36302193 71.21634732 86.87647086 68.2209563 84.6875 64.9375 C83.6975 64.9375 82.7075 64.9375 81.6875 64.9375 C81.295625 66.195625 80.90375 67.45375 80.5 68.75 C79.44159608 71.5028212 78.84114389 72.79782374 76.625 74.8125 C73.12447598 76.15312622 69.6877062 76.82044582 65.9921875 77.41015625 C63.42957619 77.85296088 63.42957619 77.85296088 60.6875 79.9375 C64.42324914 66.85194294 64.42324914 66.85194294 69.6875 62.9375 C73.41802567 61.69399144 76.81302043 61.41551129 80.6875 61.9375 C85.6231393 64.40531965 87.95947516 67.32084258 90.6875 71.9375 C93.29595923 69.32904077 93.04530384 68.0753953 93.125 64.4375 C92.99678174 56.81767189 90.65581893 50.90581893 85.25 45.5 C83.9815625 44.7265625 83.9815625 44.7265625 82.6875 43.9375 C81.8625 43.36 81.0375 42.7825 80.1875 42.1875 C69.60278786 38.40724566 61.2440759 40.68127955 53.375 48.125 Z M6.6875 62.9375 C5.88280151 64.63862992 5.88280151 64.63862992 5.6875 66.9375 C7.04564007 70.15462945 7.04564007 70.15462945 8.6875 72.9375 C9.3475 72.6075 10.0075 72.2775 10.6875 71.9375 C10.501875 71.31875 10.31625 70.7 10.125 70.0625 C9.6875 67.9375 9.6875 67.9375 10.6875 65.9375 C12.75 64.8125 12.75 64.8125 14.6875 63.9375 C13.50325674 62.52172523 13.50325674 62.52172523 10.125 62.875 C8.4234375 62.9059375 8.4234375 62.9059375 6.6875 62.9375 Z M70.6875 64.9375 C73.1625 65.9275 73.1625 65.9275 75.6875 66.9375 C75.3575 68.9175 75.0275 70.8975 74.6875 72.9375 C77.72595237 72.26215483 77.72595237 72.26215483 78.875 70.1875 C79.79569096 67.63789426 79.83698718 65.62826919 79.6875 62.9375 C74.6669171 62.43458619 74.6669171 62.43458619 70.6875 64.9375 Z M16.6875 64.9375 C17.6875 66.9375 17.6875 66.9375 17.6875 66.9375 Z M67.6875 65.9375 C64.29957295 70.42624483 64.29957295 70.42624483 63.6875 75.9375 C67.90628192 76.13372241 70.85760894 75.73980168 74.6875 73.9375 C74.06875 73.73125 73.45 73.525 72.8125 73.3125 C69.84096355 71.38974112 69.55725341 69.27155473 68.6875 65.9375 C68.3575 65.9375 68.0275 65.9375 67.6875 65.9375 Z M17.6875 66.9375 C17.275 67.72125 16.8625 68.505 16.4375 69.3125 C14.6875 71.9375 14.6875 71.9375 10.6875 73.9375 C16.6275 75.4225 16.6275 75.4225 22.6875 76.9375 C22.2853125 75.019375 22.2853125 75.019375 21.875 73.0625 C21.72417969 72.34320313 21.57335938 71.62390625 21.41796875 70.8828125 C20.76441162 68.56703451 20.76441162 68.56703451 17.6875 66.9375 Z M28.6875 108.9375 C28.6875 110.2575 28.6875 111.5775 28.6875 112.9375 C29.25339844 113.10765625 29.81929687 113.2778125 30.40234375 113.453125 C31.13582031 113.69546875 31.86929688 113.9378125 32.625 114.1875 C33.35589844 114.41953125 34.08679688 114.6515625 34.83984375 114.890625 C36.6875 115.9375 36.6875 115.9375 37.44140625 118.046875 C37.52261719 118.67078125 37.60382813 119.2946875 37.6875 119.9375 C37.0275 119.6075 36.3675 119.2775 35.6875 118.9375 C35.6875 117.9475 35.6875 116.9575 35.6875 115.9375 C33.7075 115.9375 31.7275 115.9375 29.6875 115.9375 C31.70834967 119.65586339 32.96348968 121.61098554 36.875 123.375 C41.36316402 124.03718813 45.24036484 123.6837313 49.6875 122.9375 C49.6875 121.9475 49.6875 120.9575 49.6875 119.9375 C49.0275 119.9375 48.3675 119.9375 47.6875 119.9375 C48.1875 117.5625 48.1875 117.5625 49.6875 114.9375 C52.35275288 113.85508097 54.8282915 113.44477893 57.6875 112.9375 C56.79077864 109.92125543 56.10388051 108.26499029 53.6015625 106.296875 C49.94499156 104.59112877 46.70483667 104.45960705 42.75 104.5 C42.05970703 104.48001953 41.36941406 104.46003906 40.65820312 104.43945312 C35.56743346 104.4442785 32.48641872 105.55473826 28.6875 108.9375 Z M49.6875 116.9375 C50.0175 117.9275 50.3475 118.9175 50.6875 119.9375 C51.6775 119.9375 52.6675 119.9375 53.6875 119.9375 C54.3475 118.2875 55.0075 116.6375 55.6875 114.9375 C53.60321791 114.9375 51.58932036 116.15726601 49.6875 116.9375 Z M33.6875 129.9375 C39.6275 129.9375 45.5675 129.9375 51.6875 129.9375 C48.10467765 127.54895176 46.37356967 127.66851198 42.125 127.6875 C40.96871094 127.68234375 39.81242187 127.6771875 38.62109375 127.671875 C35.56515778 127.63286818 35.56515778 127.63286818 33.6875 129.9375 Z M25.6875 129.9375 C29.76851489 134.94003438 33.34641857 136.16888407 39.6875 136.9375 C45.97963257 137.4368756 51.92478941 136.68067307 57.6875 133.9375 C59.47430085 131.93218224 59.47430085 131.93218224 60.6875 129.9375 C59.76066406 130.09992188 58.83382812 130.26234375 57.87890625 130.4296875 C52.80496263 131.15216601 47.74052486 131.08303053 42.625 131.0625 C41.17383789 131.06830078 41.17383789 131.06830078 39.69335938 131.07421875 C34.91269065 131.06767437 30.38708765 130.93606331 25.6875 129.9375 Z " fill="#000000" transform="translate(33.3125,3.0625)"/>


  </g>
</svg>