<?xml version="1.0" encoding="UTF-8"?>
<svg width="2000" height="1688" viewBox="0 0 2000 1688" xmlns="http://www.w3.org/2000/svg">
  <g transform="scale(14.184397163120567)">
    
<!-- Generator: visioncortex VTracer 0.6.4 -->

<path d="M0 0 C3.98853136 0.24331131 7.45443003 0.96224326 11.31469727 1.984375 C12.00083603 2.16194336 12.68697479 2.33951172 13.39390564 2.52246094 C15.56629747 3.08511569 17.73561723 3.6585075 19.90454102 4.234375 C22.07713128 4.80980608 24.250239 5.38252604 26.42588806 5.94628906 C28.3972478 6.45717682 30.36594576 6.97830338 32.33447266 7.5 C38.05807276 8.69834267 41.79037768 8.65788872 46.90454102 5.796875 C55.35710115 1.10991038 65.19608495 0.97640591 74.54125977 3.05859375 C79.0262564 4.40961737 82.93112719 5.62709912 86.84204102 8.234375 C95.36965146 7.83368005 103.7448222 5.19882266 112.01147461 3.17016602 C113.9979052 2.6844295 115.9862117 2.20705829 117.97485352 1.73046875 C119.73659912 1.30012329 119.73659912 1.30012329 121.53393555 0.86108398 C129.49439466 -0.64699709 129.49439466 -0.64699709 132.69360352 1.4453125 C135.31724068 5.53247515 134.21331877 10.91488707 133.47875977 15.50390625 C130.0441784 28.47120326 116.74415311 38.56082154 107.50854492 47.59960938 C106.95859863 48.13908203 106.40865234 48.67855469 105.84204102 49.234375 C105.29854004 49.72486328 104.75503906 50.21535156 104.19506836 50.72070312 C100.96274821 54.33679568 100.85212909 59.8407226 100.71704102 64.484375 C100.31319231 68.74642119 98.7264488 71.11574243 96.21704102 74.546875 C92.38644819 79.88234358 90.25820108 85.06914819 88.21704102 91.296875 C81.50160612 111.68003899 81.50160612 111.68003899 73.84204102 116.234375 C67.79894474 118.24874042 60.40988481 118.30778066 54.46704102 115.859375 C49.55984865 112.97818114 47.29546385 108.19263972 44.84204102 103.234375 C44.47336914 102.49832031 44.10469727 101.76226562 43.72485352 101.00390625 C41.77712038 96.85931131 40.32876188 92.66665958 38.96704102 88.296875 C36.67974363 81.19899186 32.94902013 75.39484367 28.84204102 69.234375 C28.43982305 67.14228294 28.11498118 65.03472429 27.84204102 62.921875 C26.76502145 54.64228711 25.54645801 50.40496961 19.06616211 45.07763672 C15.38942939 42.03050917 12.04187887 38.65828108 8.65454102 35.296875 C7.9694043 34.63236328 7.28426758 33.96785156 6.57836914 33.28320312 C-1.02631658 25.73707129 -5.28412784 19.47725405 -5.34545898 8.609375 C-5.35963867 7.46210938 -5.37381836 6.31484375 -5.38842773 5.1328125 C-5.05581621 0.94979979 -4.15170931 0.30812841 0 0 Z M-3.15795898 3.234375 C-3.59243152 13.03414442 -2.96438231 19.20602799 3.65454102 26.796875 C9.8674489 33.45209255 16.3637597 39.83903043 22.84204102 46.234375 C24.56631688 42.93452878 25.50552721 39.87139155 26.34204102 36.234375 C27.63417585 30.61639747 27.63417585 30.61639747 28.99829102 28.109375 C29.99349381 26.28986543 29.99349381 26.28986543 29.71801758 24.35375977 C28.43809373 21.25704324 26.45773679 20.26345886 23.67016602 18.44921875 C22.61313477 17.75376953 21.55610352 17.05832031 20.46704102 16.34179688 C19.3421581 15.6183075 18.21715702 14.89500183 17.09204102 14.171875 C15.99375977 13.45193359 14.89547852 12.73199219 13.76391602 11.99023438 C10.80070794 10.05372036 7.83205028 8.1292311 4.84204102 6.234375 C3.96128906 5.66404541 3.08053711 5.09371582 2.1730957 4.50610352 C-0.15432203 2.99491351 -0.15432203 2.99491351 -3.15795898 3.234375 Z M3.84204102 3.234375 C7.93744105 7.68837808 13.3105589 10.64007394 18.34204102 13.921875 C19.92952148 14.9747168 19.92952148 14.9747168 21.54907227 16.04882812 C22.56356445 16.71205078 23.57805664 17.37527344 24.62329102 18.05859375 C25.55206055 18.66791748 26.48083008 19.27724121 27.43774414 19.9050293 C29.82172352 21.47630941 29.82172352 21.47630941 32.84204102 21.234375 C34.35178425 19.57826536 34.35178425 19.57826536 35.59204102 17.421875 C36.26493164 16.36033203 36.26493164 16.36033203 36.95141602 15.27734375 C38.17012173 13.10362488 38.17012173 13.10362488 36.84204102 10.234375 C34.13572058 9.15276506 34.13572058 9.15276506 30.79516602 8.41015625 C28.93891602 7.95092773 28.93891602 7.95092773 27.04516602 7.48242188 C26.07160156 7.25220337 26.07160156 7.25220337 25.07836914 7.01733398 C23.11039392 6.55122186 21.14810331 6.0655161 19.18579102 5.57617188 C11.60469021 3.66032333 11.60469021 3.66032333 3.84204102 3.234375 Z M113.01000977 4.765625 C112.3733992 4.92099731 111.73678864 5.07636963 111.08088684 5.2364502 C109.06240695 5.73038585 107.04599675 6.23224695 105.02954102 6.734375 C103.6553214 7.07214125 102.28097358 7.40938637 100.90649414 7.74609375 C97.55017171 8.56949526 94.19565763 9.40001268 90.84204102 10.234375 C91.55364868 13.37802334 92.46200653 15.39432902 94.40454102 17.984375 C94.85958008 18.59796875 95.31461914 19.2115625 95.78344727 19.84375 C96.1327832 20.30265625 96.48211914 20.7615625 96.84204102 21.234375 C100.69300991 19.83176199 103.93229499 18.03032533 107.36157227 15.79296875 C108.3831543 15.12716797 109.40473633 14.46136719 110.45727539 13.77539062 C111.51237305 13.08123047 112.5674707 12.38707031 113.65454102 11.671875 C114.72897461 10.97384766 115.8034082 10.27582031 116.91040039 9.55664062 C120.91496753 6.95209231 120.91496753 6.95209231 124.84204102 4.234375 C124.84204102 3.904375 124.84204102 3.574375 124.84204102 3.234375 C120.65689593 3.04116138 117.06871332 3.76435893 113.01000977 4.765625 Z M128.84204102 3.234375 C126.29077315 4.60511537 123.94019989 6.021049 121.52954102 7.609375 C120.82764648 8.06038574 120.12575195 8.51139648 119.40258789 8.97607422 C117.94124697 9.9164924 116.48278475 10.86139755 115.02709961 11.81054688 C112.91593593 13.18622359 110.79691567 14.54868229 108.67407227 15.90625 C105.39085208 18.00662655 102.11460451 20.11743549 98.84204102 22.234375 C99.37894446 25.84298566 100.05681567 29.13460171 101.34204102 32.546875 C102.93593368 37.11862567 103.45963031 41.41600014 103.84204102 46.234375 C106.96628465 44.84591804 109.10499948 43.22812137 111.52172852 40.8203125 C112.20364258 40.14097656 112.88555664 39.46164063 113.58813477 38.76171875 C114.29067383 38.05144531 114.99321289 37.34117188 115.71704102 36.609375 C116.4118457 35.92230469 117.10665039 35.23523437 117.82250977 34.52734375 C125.45670049 26.86439901 131.90373614 20.12764299 131.96704102 8.859375 C131.93520235 7.31747406 131.89686826 5.77562975 131.84204102 4.234375 C130.85204102 3.904375 129.86204102 3.574375 128.84204102 3.234375 Z M44.84204102 8.234375 C44.41410103 12.05686862 44.41410103 12.05686862 46.12719727 13.76953125 C46.7137207 14.27355469 47.30024414 14.77757812 47.90454102 15.296875 C53.81459208 20.83378638 59.88998591 28.68220685 60.21704102 36.984375 C60.20324895 41.84607647 60.20324895 41.84607647 57.34204102 44.921875 C56.87797852 45.37949219 56.41391602 45.83710937 55.93579102 46.30859375 C54.25542758 49.26723365 54.70352506 51.87190022 54.84204102 55.234375 C55.12402306 63.4682507 53.05433467 69.6377346 49.84204102 77.234375 C44.89030533 87.85545648 44.89030533 87.85545648 44.84204102 99.234375 C47.58025037 102.83316443 50.75796755 105.2944401 54.84204102 107.234375 C57.55157653 107.48633629 57.55157653 107.48633629 59.84204102 107.234375 C59.42954102 106.821875 59.01704102 106.409375 58.59204102 105.984375 C58.01454102 105.406875 57.43704102 104.829375 56.84204102 104.234375 C56.14079102 103.55375 55.43954102 102.873125 54.71704102 102.171875 C52.1649409 99.53470488 51.8747364 98.58748514 51.52954102 94.859375 C51.84204102 91.234375 51.84204102 91.234375 53.65454102 88.859375 C58.24553879 85.44891951 63.35365996 85.74784666 68.84204102 86.234375 C72.9548001 87.77665966 74.39985039 88.57108907 76.84204102 92.234375 C77.34866382 96.89530477 76.68259161 99.51227422 73.84204102 103.234375 C71.15454102 105.546875 71.15454102 105.546875 68.84204102 107.234375 C73.83609634 106.92861651 77.47988206 106.02106529 81.44360352 102.85546875 C83.62930445 100.32176515 84.05745921 98.24630278 84.17797852 94.9375 C83.30459222 87.90978705 80.11737898 81.3135059 77.42797852 74.8203125 C74.50438496 67.38310083 73.24049724 60.94319621 73.29418945 53.0065918 C73.24882713 47.97674604 72.06355602 45.96883026 68.84204102 42.234375 C67.77643262 37.66748187 67.98718873 33.18601889 69.87719727 28.87109375 C73.27322091 23.54529622 77.65401619 18.9704816 81.98657227 14.3984375 C84.03485775 12.28498234 84.03485775 12.28498234 84.84204102 9.234375 C83.44926084 8.58198342 82.0526489 7.93776948 80.65454102 7.296875 C79.87723633 6.93722656 79.09993164 6.57757813 78.29907227 6.20703125 C67.29374414 1.85039102 55.46018116 3.87821494 44.84204102 8.234375 Z M40.84204102 11.234375 C39.2304435 13.58373948 37.62776597 15.93843734 36.02954102 18.296875 C35.57772461 18.95365234 35.1259082 19.61042969 34.66040039 20.28710938 C31.84139352 24.46417795 29.50646079 28.4630383 27.84204102 33.234375 C28.17204102 34.224375 28.50204102 35.214375 28.84204102 36.234375 C30.32704102 35.4609375 30.32704102 35.4609375 31.84204102 34.671875 C36.0804859 32.87374687 39.45266992 32.93812488 43.84204102 34.234375 C49.23169526 36.92920212 51.23423823 40.01876944 53.84204102 45.234375 C56.96401579 43.9254178 56.96401579 43.9254178 58.84204102 41.234375 C59.51574309 33.41943093 57.6642776 28.7200478 52.74829102 22.6484375 C49.03250143 18.42482334 45.30860136 14.66897872 40.84204102 11.234375 Z M81.09204102 16.609375 C75.37010479 22.48887179 69.66538002 28.54890207 69.21704102 37.109375 C69.43449577 40.34258379 69.76444649 41.13495702 71.84204102 43.796875 C72.50204102 44.27125 73.16204102 44.745625 73.84204102 45.234375 C74.2171582 44.69167969 74.59227539 44.14898437 74.97875977 43.58984375 C78.80314064 38.24341709 81.57821113 35.11309843 88.09204102 33.359375 C92.85196691 33.2007108 96.46836463 34.47895387 100.84204102 36.234375 C99.81749003 27.17518733 94.1335449 18.70563614 87.84204102 12.234375 C84.61976275 12.234375 83.3311234 14.40421811 81.09204102 16.609375 Z M28.46704102 37.984375 C26.28091525 41.01131836 25.84204102 42.4549723 25.84204102 46.234375 C27.46031358 53.28237788 29.96725377 57.82182635 35.29125977 62.6328125 C38.23335426 65.67124762 38.84204102 69.19552545 38.84204102 73.32421875 C38.79997088 74.82033804 38.75698504 76.31643183 38.71313477 77.8125 C38.9440196 82.15033633 40.41290188 86.15962712 41.84204102 90.234375 C44.67948498 88.81565302 44.84527428 87.14609645 45.97094727 84.2109375 C46.36604492 83.19 46.76114258 82.1690625 47.16821289 81.1171875 C47.57620117 80.04210937 47.98418945 78.96703125 48.40454102 77.859375 C48.81639648 76.79203125 49.22825195 75.7246875 49.65258789 74.625 C53.74303269 63.99386034 55.76857524 54.61498939 51.95141602 43.43359375 C49.52055539 38.61466934 45.8924074 35.91783046 40.84204102 34.234375 C36.05720531 34.234375 32.34448027 35.1273145 28.46704102 37.984375 Z M79.02954102 39.484375 C73.59435677 46.31717805 74.11633176 54.86150442 74.84204102 63.234375 C75.79416421 67.40532376 77.26337707 71.26379599 78.84204102 75.234375 C79.37923768 76.66802282 79.91287403 78.103008 80.44360352 79.5390625 C81.88936379 83.44543666 83.36002673 87.34161747 84.84204102 91.234375 C89.03774003 87.03867599 88.95763741 81.31162625 89.27954102 75.671875 C89.7843118 68.42303551 91.54018453 64.61631681 96.40454102 59.296875 C99.69043392 55.69903024 100.9492641 52.99585187 101.84204102 48.234375 C99.81846159 50.15145025 98.07381354 52.18288748 96.34204102 54.359375 C93.40565953 57.73621371 92.07246663 58.11025984 87.70532227 58.55078125 C85.94768555 58.67259766 85.94768555 58.67259766 84.15454102 58.796875 C82.38530273 58.92255859 82.38530273 58.92255859 80.58032227 59.05078125 C79.67668945 59.11136719 78.77305664 59.17195313 77.84204102 59.234375 C81.80828574 50.23859441 81.80828574 50.23859441 85.02954102 47.109375 C90.74312387 45.33181589 97.08407806 45.69891821 102.84204102 47.234375 C102.66563776 42.73609198 102.29970931 40.73563075 99.21704102 37.359375 C91.64396217 32.59114017 85.82175684 34.05060234 79.02954102 39.484375 Z M92.84204102 47.234375 C92.90391602 48.1625 92.96579102 49.090625 93.02954102 50.046875 C92.84204102 53.234375 92.84204102 53.234375 91.34204102 55.109375 C90.59954102 55.66625 90.59954102 55.66625 89.84204102 56.234375 C92.97710713 55.89847506 93.86729001 55.20772328 96.09204102 52.859375 C98.11939111 50.34415941 98.11939111 50.34415941 97.84204102 47.234375 C96.19204102 47.234375 94.54204102 47.234375 92.84204102 47.234375 Z M88.84204102 48.234375 C89.50204102 48.894375 90.16204102 49.554375 90.84204102 50.234375 C90.84204102 49.574375 90.84204102 48.914375 90.84204102 48.234375 C90.18204102 48.234375 89.52204102 48.234375 88.84204102 48.234375 Z M83.84204102 50.234375 C82.85204102 52.214375 81.86204102 54.194375 80.84204102 56.234375 C83.48204102 56.564375 86.12204102 56.894375 88.84204102 57.234375 C88.84204102 56.574375 88.84204102 55.914375 88.84204102 55.234375 C87.85204102 54.904375 86.86204102 54.574375 85.84204102 54.234375 C84.65454102 52.171875 84.65454102 52.171875 83.84204102 50.234375 Z M30.84204102 61.234375 C30.26694741 66.60191529 30.49681607 69.34696219 33.77954102 73.734375 C35.34378778 75.71407615 35.34378778 75.71407615 36.84204102 77.234375 C37.17204102 77.234375 37.50204102 77.234375 37.84204102 77.234375 C38.01863817 72.73114768 38.09645775 69.20644257 35.84204102 65.234375 C33.32797791 62.93860257 33.32797791 62.93860257 30.84204102 61.234375 Z M94.34204102 63.609375 C91.12409309 66.98822032 90.71501346 68.3424462 90.77954102 72.859375 C90.78856445 73.67664063 90.79758789 74.49390625 90.80688477 75.3359375 C90.81848633 75.96242188 90.83008789 76.58890625 90.84204102 77.234375 C96.54361525 71.86687347 96.54361525 71.86687347 97.96704102 64.484375 C97.90516602 62.875625 97.90516602 62.875625 97.84204102 61.234375 C96.38816116 61.11958342 96.38816116 61.11958342 94.34204102 63.609375 Z M53.84204102 90.234375 C52.41541883 93.08761937 52.53170234 95.06892049 52.84204102 98.234375 C54.51931439 101.1446597 54.51931439 101.1446597 56.84204102 103.234375 C57.83204102 103.234375 58.82204102 103.234375 59.84204102 103.234375 C59.84204102 102.244375 59.84204102 101.254375 59.84204102 100.234375 C57.36704102 99.244375 57.36704102 99.244375 54.84204102 98.234375 C54.84204102 97.574375 54.84204102 96.914375 54.84204102 96.234375 C57.77954102 97.859375 57.77954102 97.859375 60.84204102 100.234375 C61.71704102 103.484375 61.71704102 103.484375 61.84204102 106.234375 C63.49204102 106.234375 65.14204102 106.234375 66.84204102 106.234375 C68.07343502 103.77158699 67.91363298 101.9548695 67.84204102 99.234375 C69.49204102 98.574375 71.14204102 97.914375 72.84204102 97.234375 C71.52204102 98.224375 70.20204102 99.214375 68.84204102 100.234375 C69.17204102 101.554375 69.50204102 102.874375 69.84204102 104.234375 C72.47293395 102.61536396 74.45087845 101.30677574 75.53735352 98.328125 C75.91239848 96.18957071 76.07707107 94.39399074 75.84204102 92.234375 C73.68313644 89.22732934 72.35435154 88.40514518 68.84204102 87.234375 C63.21976518 86.73885238 58.37474937 86.43274864 53.84204102 90.234375 Z M77.84204102 106.234375 C77.02413086 106.55921875 77.02413086 106.55921875 76.18969727 106.890625 C66.91626836 110.31466029 59.3405932 109.45533084 49.84204102 107.234375 C51.38746991 110.56563283 52.71014935 112.24135303 55.84204102 114.234375 C61.03809928 115.96639442 67.72754898 116.48610418 72.89282227 114.41015625 C75.12129448 112.92266487 76.95161954 111.12479648 78.84204102 109.234375 C78.51204102 108.244375 78.18204102 107.254375 77.84204102 106.234375 Z " fill="#000000" transform="translate(6.157958984375,0.765625)"/>
<path d="M0 0 C5.41414013 2.46097279 7.64450191 5.72368429 10 11 C9.59765625 13.21875 9.59765625 13.21875 9 15 C-4.05121001 14.57763074 -4.05121001 14.57763074 -9 10 C-13 4.84210526 -13 4.84210526 -13 1 C-9.04626902 -0.97686549 -4.30934862 -0.42666818 0 0 Z M-10 2 C-9.5206753 6.31392226 -8.2542015 8.16569547 -5 11 C-4.01 10.67 -3.02 10.34 -2 10 C-2.66 9.67 -3.32 9.34 -4 9 C-4.125 4.25 -4.125 4.25 -3 2 C-5.31 2 -7.62 2 -10 2 Z M3 6 C2.67 6.99 2.34 7.98 2 9 C-0.0625 10.6875 -0.0625 10.6875 -2 12 C0.97 12 3.94 12 7 12 C6.34 10.02 5.68 8.04 5 6 C4.34 6 3.68 6 3 6 Z " fill="#000000" transform="translate(47,46)"/>


  </g>
</svg>