<?xml version="1.0" encoding="UTF-8"?>
<svg width="1676" height="2000" viewBox="0 0 1676 2000" xmlns="http://www.w3.org/2000/svg">
  <g transform="scale(13.513513513513514)">
    
<!-- Generator: visioncortex VTracer 0.6.4 -->

<path d="M0 0 C6.52918015 3.46446293 11.77894623 8.88045779 14 16 C15.55533922 30.65293269 12.21855467 42.80653522 3.0625 54.51171875 C2.381875 55.33285156 1.70125 56.15398438 1 57 C0.34 57.81082031 -0.32 58.62164062 -1 59.45703125 C-4.35614286 63.44944286 -4.35614286 63.44944286 -6 65 C-6.66 65 -7.32 65 -8 65 C-9.11328125 63.35546875 -9.11328125 63.35546875 -10.3125 61.1875 C-12.44418625 57.66585458 -14.04780305 55.54232076 -18 54 C-21.79963824 53.43409643 -23.64876592 53.83140764 -27.125 55.5 C-32.93898916 60.55564275 -35.02612485 67.51834735 -36 75 C-36.11988281 75.91394531 -36.23976563 76.82789062 -36.36328125 77.76953125 C-37.31764995 92.94586493 -31.52176069 109.03419295 -26 123 C-23.96012076 117.21282635 -21.93509164 111.4206528 -19.91943359 105.625 C-19.11139641 103.31803881 -18.28772807 101.01761674 -17.45703125 98.71875 C-14.88135154 91.47430805 -13.1765954 84.722035 -13 77 C-14.0828125 77.99 -14.0828125 77.99 -15.1875 79 C-18.21597933 81.1535853 -19.39703406 81.41176754 -23 81 C-23 80.34 -23 79.68 -23 79 C-21.3603125 78.4121875 -21.3603125 78.4121875 -19.6875 77.8125 C-17.01010868 76.65265841 -15.99542286 75.99453697 -14.0625 73.6875 C-12.84659672 70.61197994 -12.77123579 68.27895374 -13 65 C-13.66 65 -14.32 65 -15 65 C-15.0825 66.093125 -15.165 67.18625 -15.25 68.3125 C-16 72 -16 72 -17.5625 73.875 C-19.95284192 74.97823473 -21.54084304 75.24674324 -24.125 75.5 C-25.40375 75.665 -26.6825 75.83 -28 76 C-28.66 76.99 -29.32 77.98 -30 79 C-30.66 79 -31.32 79 -32 79 C-30.5300299 66.66980302 -30.5300299 66.66980302 -25 62 C-21.35974405 60.95992687 -18.94465617 60.80677487 -15.25 61.5625 C-11.90468516 63.69978448 -11.23075719 65.17817503 -10 69 C-7.82352322 87.50005264 -16.57938597 105.71354534 -22.80932617 122.65649414 C-24.32217579 126.90469498 -25.67440443 131.19731528 -26.98950195 135.51049805 C-28.99274758 140.44577121 -32.50130662 142.84573633 -37.20703125 145.01953125 C-44.38226466 147.69649227 -50.34201481 147.43394328 -57.59375 145.2421875 C-65.54903635 141.13540007 -68.09826361 136.35616401 -70.81665039 127.86962891 C-71.21160946 126.55907262 -71.60604921 125.24835973 -72 123.9375 C-72.42282113 122.58963119 -72.84789149 121.242466 -73.27514648 119.89599609 C-74.12776715 117.20259053 -74.96960392 114.50617011 -75.80419922 111.80712891 C-76.87498539 108.39801506 -77.99607381 105.01489361 -79.16015625 101.63671875 C-79.48435547 100.69513916 -79.80855469 99.75355957 -80.14257812 98.78344727 C-80.73533956 97.07044852 -81.331439 95.3585994 -81.93164062 93.64819336 C-84.6451237 85.66268067 -87.29400648 75.00138188 -84.17578125 66.84375 C-82.75928704 64.27405047 -81.6740077 62.33700385 -79 61 C-74.4323877 60.87436823 -70.94265208 61.36473447 -67.125 63.9375 C-64.31909584 67.98130305 -62.80691576 72.1420378 -62 77 C-62.495 78.485 -62.495 78.485 -63 80 C-63.24105469 79.34902344 -63.48210938 78.69804688 -63.73046875 78.02734375 C-64.35888672 77.02380859 -64.35888672 77.02380859 -65 76 C-67.02758876 75.48444039 -67.02758876 75.48444039 -69.3125 75.5625 C-72.95232318 75.30502055 -73.86889106 75.09763432 -76.9375 72.8125 C-79.06721894 69.90833782 -80.11139748 67.47362803 -81 64 C-81.44606967 71.05540541 -81.44606967 71.05540541 -78 77 C-75.7017587 78.26658632 -73.48657865 79.10858501 -71 80 C-71 80.33 -71 80.66 -71 81 C-77.625 80.25 -77.625 80.25 -81 78 C-81 77.34 -81 76.68 -81 76 C-81.66 76 -82.32 76 -83 76 C-80.16878712 91.97311145 -74.66288364 106.85906712 -69 122 C-67.06103978 119.09155967 -66.28949139 117.01838592 -65.34375 113.6953125 C-65.0439624 112.64303467 -64.7441748 111.59075684 -64.43530273 110.5065918 C-57.16910594 84.56791094 -57.16910594 84.56791094 -64 59 C-65.82164472 56.23379876 -66.89909358 55.29385096 -70.078125 54.4453125 C-73.85135309 53.83309999 -76.30355436 53.71233767 -79.875 55.1875 C-83.20869086 58.03094221 -85.16523855 61.0482061 -87 65 C-88.69566176 63.35732767 -90.3508939 61.68893958 -92 60 C-92.61617187 59.3915625 -93.23234375 58.783125 -93.8671875 58.15625 C-103.07766108 48.55155382 -108.9128003 36.58023075 -109.0234375 23.15625 C-108.6593344 16.18080112 -107.22938692 10.30147145 -102.25 5.2109375 C-97.3940251 0.94172624 -94.25272168 -0.49239528 -87.72265625 -0.3984375 C-79.26051875 0.83992409 -72.88863641 8.50193596 -68 15 C-67.53851563 15.99773438 -67.07703125 16.99546875 -66.6015625 18.0234375 C-64.71879162 21.7411932 -63.44527391 23.58960186 -60 26 C-51.95573414 28.10828601 -43.03312479 28.17516252 -35 26 C-30.57033766 23.39868079 -28.43383291 19.19025519 -26.06884766 14.78369141 C-24.24545853 11.74082229 -21.82898853 9.35029727 -19.3125 6.875 C-18.46300781 6.00617187 -17.61351563 5.13734375 -16.73828125 4.2421875 C-11.48035634 -0.06316043 -6.78579559 -1.85067153 0 0 Z M-18.57910156 9.21313477 C-19.31338379 9.97388306 -19.31338379 9.97388306 -20.0625 10.75 C-20.5790918 11.277146 -21.09568359 11.80429199 -21.62792969 12.34741211 C-28.9237134 19.17451091 -28.9237134 19.17451091 -32 28 C-30.42274653 28.70133599 -28.83788667 29.385583 -27.25 30.0625 C-25.92742187 30.63677734 -25.92742187 30.63677734 -24.578125 31.22265625 C-21.68187415 32.09591977 -20.67983996 32.39351678 -18 31 C-16.3505618 28.91787467 -14.91804731 26.91620576 -13.5 24.6875 C-10.94570288 20.75144147 -8.33694057 17.3141887 -5 14 C-5 13.34 -5 12.68 -5 12 C-1.66666667 10.33333333 1.66666667 8.66666667 5 7 C5 6.34 5 5.68 5 5 C3.75539217 4.32332002 2.50403104 3.65905281 1.25 3 C0.55390625 2.62875 -0.1421875 2.2575 -0.859375 1.875 C-7.92694148 -1.01393228 -13.84828022 4.4908894 -18.57910156 9.21313477 Z M-100 5 C-100 5.66 -100 6.32 -100 7 C-98.2675 7.7115625 -98.2675 7.7115625 -96.5 8.4375 C-87.76909979 12.84906401 -82.74960983 21.57033668 -77.6640625 29.59375 C-76.22414614 32.08845893 -76.22414614 32.08845893 -74 33 C-72.08261219 32.26628508 -72.08261219 32.26628508 -70.0625 31.125 C-67.67865342 29.85064463 -65.58115056 28.86038352 -63 28 C-63.56612766 23.83491791 -65.9886589 20.96578723 -68.5 17.75 C-68.9434375 17.17733398 -69.386875 16.60466797 -69.84375 16.01464844 C-74.05473284 10.70605856 -78.85691095 5.07154452 -85 2 C-90.55805448 1.48846224 -95.56547627 1.1567461 -100 5 Z M-103 9 C-107.19519608 15.74879369 -107.67807401 23.32018304 -106.3125 31.0625 C-104.11145594 40.2142095 -100.68347504 48.19246974 -94 55 C-93.01 55.33 -92.02 55.66 -91 56 C-90.41637612 52.14808239 -90.99921363 51.00110516 -93.3125 47.75 C-93.76753906 47.151875 -94.22257812 46.55375 -94.69140625 45.9375 C-98.93699291 39.65149706 -100.19320583 31.45989195 -100 24 C-99.02681524 19.09664602 -97.41464728 14.73985178 -94 11 C-97.13498292 9.14223235 -99.37471432 8.79859524 -103 9 Z M6 8 C2.32519416 9.30096474 2.32519416 9.30096474 -1 11 C-0.3503125 11.85658203 -0.3503125 11.85658203 0.3125 12.73046875 C5.15340898 19.77892188 6.34302394 25.54392336 5 34 C3.37543602 39.41521327 1.43987849 44.23927902 -2.15625 48.63671875 C-4.46563164 51.59683716 -4.34065637 53.33794401 -4 57 C3.30341845 54.01151149 6.94988756 45.68740362 9.9375 38.8125 C12.86272296 30.65470001 13.89926293 20.94877256 10.6875 12.6875 C9.12051513 9.78446113 9.12051513 9.78446113 6 8 Z M-93 13 C-96.78233091 17.14836294 -98.90373832 20.70571145 -99.0703125 26.40625 C-98.7121455 33.73813925 -96.7714764 40.66676605 -93 47 C-90.95555577 48.36647396 -90.95555577 48.36647396 -89 49 C-88.46375 47.948125 -87.9275 46.89625 -87.375 45.8125 C-86.92253906 44.92498047 -86.92253906 44.92498047 -86.4609375 44.01953125 C-85.8162468 41.19491183 -86.90603612 39.65344431 -88 37 C-88.265625 33.80859375 -88.265625 33.80859375 -88.25 30.4375 C-88.25515625 29.32246094 -88.2603125 28.20742188 -88.265625 27.05859375 C-88.01167605 24.13444628 -87.52132851 22.46914032 -86 20 C-86.97566112 18.83040013 -87.955625 17.66438823 -88.9375 16.5 C-89.48277344 15.8503125 -90.02804688 15.200625 -90.58984375 14.53125 C-91.05519531 14.0259375 -91.52054688 13.520625 -92 13 C-92.33 13 -92.66 13 -93 13 Z M-3 13 C-4.98 15.31 -6.96 17.62 -9 20 C-8.34 21.32 -7.68 22.64 -7 24 C-5.2533086 29.24007421 -5.91568882 33.8571895 -7.1875 39.125 C-7.98388949 42.72797589 -8.16364647 43.62807621 -6.625 47.125 C-6.08875 47.74375 -5.5525 48.3625 -5 49 C1.01831363 44.15191402 3.3699326 37.69050179 4.38671875 30.12109375 C4.62790998 24.14121453 3.83222234 18.79348212 0 14 C-0.99 13.67 -1.98 13.34 -3 13 Z M-85 23 C-86.94976503 25.32471984 -87.98283381 27.1229636 -88.04296875 30.1953125 C-87.62858592 34.45151577 -86.9581464 37.08370721 -85 41 C-82.36 39.02 -79.72 37.04 -77 35 C-78.51890531 30.44328408 -80.95402262 26.68276708 -84 23 C-84.33 23 -84.66 23 -85 23 Z M-12 24 C-13.98 26.97 -15.96 29.94 -18 33 C-17.071875 34.134375 -16.14375 35.26875 -15.1875 36.4375 C-14.66542969 37.07558594 -14.14335938 37.71367188 -13.60546875 38.37109375 C-11.99165589 40.2548275 -11.99165589 40.2548275 -9 41 C-6.9337003 35.28728907 -6.9993291 30.96345767 -8 25 C-9.32 24.67 -10.64 24.34 -12 24 Z M-85.37109375 44.75390625 C-88.2107579 48.6695103 -89.26878354 51.99575139 -89.125 56.8125 C-89.10695313 57.60269531 -89.08890625 58.39289062 -89.0703125 59.20703125 C-89.04710938 59.79871094 -89.02390625 60.39039063 -89 61 C-88.34 61 -87.68 61 -87 61 C-86.4225 60.071875 -85.845 59.14375 -85.25 58.1875 C-82.66866631 54.5306106 -81.24360884 53.36115755 -77 52 C-72.55919134 51.81169716 -69.08388599 52.39784112 -65.1875 54.5625 C-60.46875478 59.82053039 -58.21873502 66.08977245 -57 73 C-56.82984375 73.80308594 -56.6596875 74.60617188 -56.484375 75.43359375 C-54.2612218 89.94584379 -60.65466409 105.70116903 -65.11938477 119.33984375 C-67.03390775 125.3617631 -68.23561326 130.4337263 -65.375 136.375 C-63.21727044 139.2017032 -63.21727044 139.2017032 -60.0625 139.9375 C-57.17429436 139.99644297 -54.78496588 139.73719685 -52 139 C-52.99 138.505 -52.99 138.505 -54 138 C-54.268125 137.236875 -54.53625 136.47375 -54.8125 135.6875 C-55.83292895 132.80574768 -55.83292895 132.80574768 -58.5625 131 C-61 129 -61 129 -61.9375 126.5625 C-62.01149553 123.52868316 -61.41107653 121.67361869 -60 119 C-56.24737357 117.12368679 -51.75497651 117.72879977 -47.625 117.6875 C-46.18640625 117.64399414 -46.18640625 117.64399414 -44.71875 117.59960938 C-37.68552311 117.5359381 -37.68552311 117.5359381 -34.33984375 119.80078125 C-33 122 -33 122 -32.9375 125.5 C-34.20233131 129.66650314 -35.5731579 130.47066416 -39 133 C-40.80979141 136.11662908 -40.80979141 136.11662908 -42 139 C-36.27918855 140.32525243 -36.27918855 140.32525243 -31.0625 138.25 C-28.4559928 135.4065376 -28.04012457 133.6415997 -27.80078125 129.81445312 C-28.01963285 125.62408875 -28.95257432 121.94484682 -30.1875 117.96875 C-30.64383445 116.41944899 -31.09954301 114.86996351 -31.5546875 113.3203125 C-32.27089987 110.92027023 -32.99311029 108.52246323 -33.72753906 106.12792969 C-38.39280699 90.82458142 -40.83364217 75.78436476 -33.8984375 60.5859375 C-31.39626969 56.14660752 -29.05693353 53.45873083 -24 52 C-19.44337656 51.82257395 -16.0414125 52.36609674 -12.125 54.75 C-9.97537181 57.0260769 -8.4585926 59.23635087 -7 62 C-4.763107 59.28528207 -4.763107 59.28528207 -5.1015625 56.73046875 C-6.77170148 48.6165846 -9.88754565 43.66520159 -16 38 C-16.70125 37.34 -17.4025 36.68 -18.125 36 C-39.50739297 21.12529185 -68.53663741 25.67485573 -85.37109375 44.75390625 Z M-78 64 C-78.20086443 67.71599191 -78.1519437 68.77208445 -76 72 C-75.34 71.67 -74.68 71.34 -74 71 C-74.061875 70.21625 -74.12375 69.4325 -74.1875 68.625 C-74.125625 67.75875 -74.06375 66.8925 -74 66 C-73.01 65.34 -72.02 64.68 -71 64 C-74.58327753 62.99782936 -74.58327753 62.99782936 -78 64 Z M-23 64 C-21.515 64.99 -21.515 64.99 -20 66 C-19.3125 68.625 -19.3125 68.625 -19 71 C-18.34 70.34 -17.68 69.68 -17 69 C-17.32041397 66.39719432 -17.32041397 66.39719432 -18 64 C-19.65 64 -21.3 64 -23 64 Z M-27 67 C-28.29633621 68.06645115 -28.29633621 68.06645115 -28.0625 70.5625 C-28.041875 71.366875 -28.02125 72.17125 -28 73 C-25.36 73 -22.72 73 -20 73 C-19.67 72.34 -19.34 71.68 -19 71 C-20.98 71 -22.96 71 -25 71 C-25.66 69.68 -26.32 68.36 -27 67 Z M-68 68 C-68.99 69.485 -68.99 69.485 -70 71 C-72.125 72.1875 -72.125 72.1875 -74 73 C-71.09926819 73.67801034 -71.09926819 73.67801034 -68 74 C-67.34 73.34 -66.68 72.68 -66 72 C-66.66 70.68 -67.32 69.36 -68 68 Z M-60 121 C-60.72382467 123.05925139 -60.72382467 123.05925139 -61 125 C-59.865625 125.4125 -58.73125 125.825 -57.5625 126.25 C-54 128 -54 128 -53.0625 129.9375 C-53.00128747 131.95751347 -53 133.97905928 -53 136 C-51.12356239 137.87643761 -48.50194299 137.17984987 -46.0078125 137.23046875 C-43.68325672 137.11831337 -43.68325672 137.11831337 -41 135 C-41.20625 134.05125 -41.4125 133.1025 -41.625 132.125 C-41.74875 131.09375 -41.8725 130.0625 -42 129 C-39.53721199 126.53721199 -37.29323018 126.00228745 -34 125 C-34.27617533 123.05925139 -34.27617533 123.05925139 -35 121 C-38.10403365 118.93064423 -38.81900019 118.74482091 -42.34375 118.734375 C-43.17777344 118.73179688 -44.01179688 118.72921875 -44.87109375 118.7265625 C-46.17240234 118.73816406 -46.17240234 118.73816406 -47.5 118.75 C-48.36753906 118.74226563 -49.23507813 118.73453125 -50.12890625 118.7265625 C-50.96292969 118.72914062 -51.79695313 118.73171875 -52.65625 118.734375 C-53.41744141 118.73663086 -54.17863281 118.73888672 -54.96289062 118.74121094 C-57.31136746 118.88588689 -57.31136746 118.88588689 -60 121 Z M-60 127 C-59.67 127.99 -59.34 128.98 -59 130 C-56.98491642 130.73323796 -56.98491642 130.73323796 -55 131 C-55.33 130.01 -55.66 129.02 -56 128 C-58.01508358 127.26676204 -58.01508358 127.26676204 -60 127 Z M-41 129 C-41 129.66 -41 130.32 -41 131 C-39.35 130.67 -37.7 130.34 -36 130 C-35.67 129.01 -35.34 128.02 -35 127 C-37.46278801 127 -38.85224119 127.85452863 -41 129 Z M-58 142 C-54.56939234 145.43060766 -49.68019453 144.96785581 -45 145 C-42.4703249 144.57116809 -40.41262463 143.91143597 -38 143 C-38 142.34 -38 141.68 -38 141 C-45.11680022 139.22079994 -51.16341729 139.7211391 -58 142 Z " fill="#000000" transform="translate(109,1)"/>


  </g>
</svg>