<?xml version="1.0" encoding="UTF-8"?>
<svg width="2000" height="1771" viewBox="0 0 2000 1771" xmlns="http://www.w3.org/2000/svg">
  <g transform="scale(12.738853503184714)">
    
<!-- Generator: visioncortex VTracer 0.6.4 -->

<path d="M0 0 C1.80859375 0.5703125 1.80859375 0.5703125 4 2 C5.12640995 4.2872141 6.10658264 6.52105349 7.0625 8.875 C8.71556882 12.57031304 10.07672452 15.44249934 13.65234375 17.6015625 C15.53916232 18.19685505 17.44123394 18.74593117 19.35546875 19.24609375 C23.56351824 20.44572972 26.27444132 22.61582303 29 26 C29.90867289 27.73275462 30.78100785 29.48483648 31.625 31.25 C35.33146864 38.61271412 41.42664167 42.3846633 48 47 C52.85097324 50.55291971 52.85097324 50.55291971 54.125 54.375 C53.99261057 58.21429342 53.32903486 59.96977287 50.6171875 62.7109375 C44.53666416 67.55773147 38.30785802 67.11951449 30.94091797 66.95166016 C24.02631395 66.8527179 19.13860668 68.14536878 13.25 71.625 C7.66558697 77.5196582 4.92879939 85.38495343 2.125 92.875 C-4.81550408 110.72646193 -15.06027418 124.5796968 -32.75 132.8125 C-47.2272973 139.01415123 -61.90913245 139.89963232 -77 135 C-88.48685971 130.07706013 -95.34046977 122.36464053 -100.3125 111 C-103.72557415 96.10658554 -100.48029951 83.84257619 -93.13037109 70.78564453 C-91.33664304 67.95209659 -89.22164146 65.50855502 -87 63 C-90.465 63.99 -90.465 63.99 -94 65 C-91.53627209 57.90446361 -86.31890167 52.9665376 -79.75 49.4375 C-75.55870224 47.49708437 -71.24254679 46.03945647 -66.87133789 44.56933594 C-57.11945211 41.28873508 -48.75238285 37.46078747 -40 32 C-37.11412384 30.23315096 -34.21572124 28.48816937 -31.3125 26.75 C-30.59263916 26.31091309 -29.87277832 25.87182617 -29.13110352 25.41943359 C-25.03763308 22.98111022 -21.42262738 21.42562927 -16.75 20.3125 C-14.11912248 19.65579899 -14.11912248 19.65579899 -12 18 C-10.1237143 14.15726383 -8.9290445 10.46989375 -7.90234375 6.3359375 C-7 3 -7 3 -5 1 C-2.375 1.375 -2.375 1.375 0 2 C0 1.34 0 0.68 0 0 Z M-4 3 C-6.53309233 7.64203897 -8.46515599 11.65155992 -9 17 C-8.01 17 -7.02 17 -6 17 C-5.32739649 15.23141309 -4.66211605 13.46003984 -4 11.6875 C-3.62875 10.70136719 -3.2575 9.71523437 -2.875 8.69921875 C-1.84581498 5.99728344 -1.84581498 5.99728344 -2 3 C-2.66 3 -3.32 3 -4 3 Z M1 3 C0.18325204 4.74802146 -0.62823451 6.49850189 -1.4375 8.25 C-1.88996094 9.22453125 -2.34242187 10.1990625 -2.80859375 11.203125 C-5.16732505 16.7403434 -6.29458817 22.76352957 -4 28.5 C-3.67 28.995 -3.34 29.49 -3 30 C-5.7972908 27.93243723 -6.02692273 26.85559629 -6.6875 23.3125 C-6.790625 22.219375 -6.89375 21.12625 -7 20 C-12.75811659 20.46979121 -17.18312867 21.65124604 -22.3125 24.375 C-22.98692139 24.72151611 -23.66134277 25.06803223 -24.35620117 25.42504883 C-29.94245511 28.33809481 -35.37762982 31.50348897 -40.8125 34.6875 C-49.20661901 39.60356771 -57.33069082 43.87062235 -66.64257812 46.8112793 C-75.18389158 49.50936661 -82.72015333 52.42244227 -88 60 C-86.66598223 59.56459142 -85.33283226 59.12652414 -84 58.6875 C-83.17371094 58.41550781 -82.34742187 58.14351562 -81.49609375 57.86328125 C-79.30989676 57.10717869 -77.19769307 56.26138894 -75.0625 55.375 C-66.86217112 52.30596602 -59.35744666 52.84840203 -51 55 C-52.25554688 54.94199219 -53.51109375 54.88398437 -54.8046875 54.82421875 C-68.162452 54.33871354 -68.162452 54.33871354 -80 60 C-80.62777344 60.43441406 -81.25554687 60.86882813 -81.90234375 61.31640625 C-90.93842049 68.25658773 -96.57247504 79.01560886 -99 90 C-99.12080196 92.80372921 -99.18509164 95.5716707 -99.1875 98.375 C-99.19974609 99.1175 -99.21199219 99.86 -99.22460938 100.625 C-99.23659288 105.14677483 -98.7105285 108.74058122 -97 113 C-94.58169742 112.05040154 -94.58169742 112.05040154 -93.375 108.5 C-88.58264483 98.74038618 -81.29161253 92.51453263 -71 89 C-65.80406528 88.05860171 -62.28358209 88.34654003 -57.5625 90.75 C-53.05824424 94.70495627 -51.2018796 97.61782068 -50.6875 103.6875 C-50.80355176 109.44788729 -52.88599506 113.70359198 -56.765625 117.91796875 C-63.61724311 124.24357681 -71.18779999 127.30738333 -80 130 C-72.33434655 136.48632215 -61.59620625 136.65594321 -52 136 C-42.74430033 134.74462924 -33.7866986 132.34355659 -26 127 C-24.5297604 125.09913462 -24.5297604 125.09913462 -24 123 C-24.33 122.01 -24.66 121.02 -25 120 C-26.01253496 106.75405079 -24.17965953 95.02569681 -15.90234375 84.2109375 C-10.30100925 77.70096763 -4.41366137 73.8962694 3.36328125 70.26171875 C6.13670676 69.0108499 6.13670676 69.0108499 9 67 C8.39671875 66.63648438 7.7934375 66.27296875 7.171875 65.8984375 C1.05715899 62.05208388 -2.66278842 59.01163475 -5 52 C-5.66226968 44.67160599 -5.79807563 37.91642408 -1 32 C0.74994705 30.49618151 2.52259167 29.01852641 4.3125 27.5625 C7.7821023 24.71066983 7.7821023 24.71066983 9.6015625 20.78125 C9.16018338 14.81212287 6.17777897 8.98940997 3 4 C2.01 3.505 2.01 3.505 1 3 Z M11 19 C10.855625 20.010625 10.71125 21.02125 10.5625 22.0625 C9.53201107 25.80836489 7.7460779 27.21328357 4.625 29.4375 C0.11176503 32.70796012 -2.52098659 35.5638911 -4 41 C-4.89062673 46.87813644 -4.35734368 51.96802712 -1.41015625 57.17578125 C1.80910856 61.34031495 6.0299206 64.34330687 11 66 C16.1462581 66.20006969 16.1462581 66.20006969 21.20703125 65.49609375 C25.08729701 64.80687172 28.88082428 64.89465693 32.8125 64.9375 C33.60076172 64.94201172 34.38902344 64.94652344 35.20117188 64.95117188 C37.13414761 64.96288688 39.06708393 64.98082002 41 65 C41 64.34 41 63.68 41 63 C39.865625 62.54625 38.73125 62.0925 37.5625 61.625 C34 60 34 60 33 58 C33.89203125 58.38414063 34.7840625 58.76828125 35.703125 59.1640625 C36.87359375 59.64617188 38.0440625 60.12828125 39.25 60.625 C40.41015625 61.11226562 41.5703125 61.59953125 42.765625 62.1015625 C45.88446347 63.30009736 45.88446347 63.30009736 48.421875 62.1484375 C48.94265625 61.76945312 49.4634375 61.39046875 50 61 C49.505 59.02 49.505 59.02 49 57 C48.34 57 47.68 57 47 57 C47 54.33333333 47 51.66666667 47 49 C44.71389647 46.83606209 44.71389647 46.83606209 41.8125 44.6875 C36.16549221 40.20460009 32.25344575 36.13921449 28.5625 29.9375 C25.29432388 24.57933037 21.16976194 20.78598372 15 19 C13.68 19 12.36 19 11 19 Z M49 52 C49.33 53.32 49.66 54.64 50 56 C50.66 55.67 51.32 55.34 52 55 C51.67 54.01 51.34 53.02 51 52 C50.34 52 49.68 52 49 52 Z M-12.08984375 81.9609375 C-20.16720424 90.29400586 -24.14938703 100.48931986 -24.125 112 C-24.12757812 113.216875 -24.13015625 114.43375 -24.1328125 115.6875 C-24.02616155 118.34750011 -23.79307874 120.48228971 -23 123 C-14.65410681 120.22290769 -9.7600124 112.86848057 -5.82104492 105.33862305 C-2.84812058 99.36614686 -0.26896427 93.28680709 2.125 87.0625 C4.43017418 81.08799377 7.23050622 76.14468369 11 71 C11.33 70.34 11.66 69.68 12 69 C3.06442597 69 -5.88338938 76.13731116 -12.08984375 81.9609375 Z M-89 103 C-93.4334875 109.56182073 -93.4334875 109.56182073 -94.859375 117.09375 C-93.76577764 119.51954778 -92.34385625 121.2135647 -90.5625 123.1875 C-89.94503906 123.88230469 -89.32757813 124.57710937 -88.69140625 125.29296875 C-86.73610652 127.2663313 -85.76267123 127.99266662 -82.96875 128.01953125 C-72.53765477 127.14477168 -63.39753141 123.6230659 -56 116 C-52.43454665 110.86762373 -51.36900745 106.15259534 -52.4609375 100.0078125 C-53.6061058 95.7424755 -55.02457604 93.65784407 -58.6875 91.1875 C-70.87593803 86.81805995 -81.11498288 93.9828436 -89 103 Z " fill="#000000" transform="translate(102,0)"/>
<path d="M0 0 C3.375 -0.125 3.375 -0.125 7 0 C9 2 9 2 9 6 C3.52173913 6.36521739 3.52173913 6.36521739 1.125 4.6875 C0 3 0 3 0 0 Z M3 2 C3.66 2.66 4.32 3.32 5 4 C5 3.34 5 2.68 5 2 C4.34 2 3.68 2 3 2 Z " fill="#000000" transform="translate(120,34)"/>


  </g>
</svg>