<?xml version="1.0" encoding="UTF-8"?>
<svg width="2000" height="1834" viewBox="0 0 2000 1834" xmlns="http://www.w3.org/2000/svg">
  <g transform="scale(12.738853503184714)">
    
<!-- Generator: visioncortex VTracer 0.6.4 -->

<path d="M0 0 C5.8163072 1.39555359 9.28846433 4.42084797 13.625 8.3125 C14.27984375 8.88162109 14.9346875 9.45074219 15.609375 10.03710938 C19.13252324 13.14304269 22.07944856 16.31054232 25 20 C29.10932223 23.2120903 32.88193262 24.30926673 38.0625 23.8125 C39.71243315 23.56788056 41.35911067 23.29933304 43 23 C52.3324835 21.38476247 61.61136341 21.47049514 70.9375 23.0625 C76.95083848 24.07688598 81.46194146 24.5269902 86.86328125 21.27734375 C90.03600789 18.97385729 92.56063108 16.53388297 95.25 13.6875 C107.09008238 1.47747892 107.09008238 1.47747892 115 0 C119.5634219 4.58606915 123.15245117 8.78110219 125.625 14.8125 C127.6488799 19.74140479 129.32496821 21.55623338 134 24 C136.47643425 28.95286851 134.59079321 36.0900059 133.02734375 41.14453125 C129.42568507 50.1660493 124.35403045 57.71155331 118 65 C113.28629244 64.35014905 109.42313556 62.48438608 105.1875 60.4375 C104.49462891 60.10814453 103.80175781 59.77878906 103.08789062 59.43945312 C101.38955052 58.63127749 99.69444231 57.81631623 98 57 C98.433125 58.19625 98.86625 59.3925 99.3125 60.625 C101.41629431 66.97645519 102.81762419 73.42015539 104 80 C104.17789063 80.80566406 104.35578125 81.61132812 104.5390625 82.44140625 C105.14462711 87.13885746 103.71758864 89.80927758 100.92211914 93.5925293 C98.22192489 97.04286221 95.38663176 100.3732669 92.54492188 103.70703125 C85.91349333 110.83306385 85.91349333 110.83306385 83.625 119.8125 C83.71394531 120.51246094 83.80289063 121.21242188 83.89453125 121.93359375 C84.09173856 125.79739616 82.23369689 128.94679743 80 132 C77.5625 133.6875 77.5625 133.6875 75 135 C74.21625 135.845625 73.4325 136.69125 72.625 137.5625 C67.03130436 142.75664595 60.39684763 142.38400179 53.09375 142.25 C46.30594473 141.70149048 42.61695505 138.9814515 38 134 C37.113125 133.319375 36.22625 132.63875 35.3125 131.9375 C32.92609782 129.93808196 32.08028119 128.86709701 31 126 C31.110222 124.34942548 31.28298354 122.70245396 31.5 121.0625 C31.65138939 112.91991333 26.04393368 107.79036816 21 102 C10.38179915 89.72493223 10.38179915 89.72493223 10.1875 84.0625 C10.4609375 81.66796875 10.4609375 81.66796875 11 79 C11.19851562 77.86175781 11.39703125 76.72351563 11.6015625 75.55078125 C12.85419927 69.07423617 14.60546448 63.13054752 17 57 C15.81921875 57.58910156 14.6384375 58.17820313 13.421875 58.78515625 C11.86488617 59.54489177 10.30757764 60.30397235 8.75 61.0625 C7.97269531 61.45244141 7.19539063 61.84238281 6.39453125 62.24414062 C5.64042969 62.60830078 4.88632812 62.97246094 4.109375 63.34765625 C3.41811523 63.68804932 2.72685547 64.02844238 2.01464844 64.37915039 C-0.42538269 65.13108921 -1.63658343 64.90988752 -4 64 C-13.10717401 55.37215094 -19.64628743 41.82988862 -20.4375 29.3125 C-20.36559071 25.78295252 -20.27502814 25.28246134 -17.6875 22.625 C-16.800625 22.08875 -15.91375 21.5525 -15 21 C-12.00552853 18.51639637 -10.73979266 15.6251722 -9.125 12.125 C-6.8871206 7.50972253 -4.93473387 4.26020806 -1 1 C-0.67 0.67 -0.34 0.34 0 0 Z M0 2 C-1.74782039 3.87695305 -1.74782039 3.87695305 -3.5 6.25 C-4.1084375 7.03890625 -4.716875 7.8278125 -5.34375 8.640625 C-7.64693042 11.92157069 -9 13.94615934 -9 18 C-8.40574219 17.855625 -7.81148437 17.71125 -7.19921875 17.5625 C1.63504399 15.5840648 10.09129447 15.41623013 19 17 C14.20507905 10.77956202 8.65468566 6.18636271 2 2 C1.34 2 0.68 2 0 2 Z M113 2 C106.22369625 5.82962221 100.72457823 10.87081743 96 17 C96.7425 16.835 97.485 16.67 98.25 16.5 C107.07063751 15.323915 115.3786808 15.86374392 124 18 C123.44206056 13.80791448 122.06174844 11.18406742 119.625 7.75 C119.01914063 6.87859375 118.41328125 6.0071875 117.7890625 5.109375 C116.09641896 2.74383142 116.09641896 2.74383142 113 2 Z M-10 21 C-10.8408733 27.58684085 -8.6823293 32.55456041 -5 38 C-2.72706226 40.27293774 -0.8836297 41.45138405 2 43 C5.19265548 42.20935627 5.19265548 42.20935627 7.3125 39.4375 C9.07417959 35.84889344 9.20533074 35.44913948 8.25 31.875 C7.91742187 30.91207031 7.91742187 30.91207031 7.578125 29.9296875 C7 28 7 28 7 24 C7.17273438 24.64324219 7.34546875 25.28648438 7.5234375 25.94921875 C9.44420923 32.12564527 12.08650231 36.97952517 16 42.0625 C16.42716309 42.62219482 16.85432617 43.18188965 17.29443359 43.75854492 C20.48425446 47.83478026 20.48425446 47.83478026 25 50 C27.7193293 49.21297649 27.7193293 49.21297649 30 48 C35.02919514 54.9017678 38.59400344 62.18553271 42 70 C42.66 69.67 43.32 69.34 44 69 C48.00359639 56.5888512 42.61848688 42.82214813 37.125 31.6875 C35.18449463 28.32193601 33.70719269 26.38693147 30.125 24.8125 C28.578125 24.4103125 28.578125 24.4103125 27 24 C26.61328125 24.68707031 26.2265625 25.37414063 25.828125 26.08203125 C25.30734375 26.98308594 24.7865625 27.88414063 24.25 28.8125 C23.48429687 30.15248047 23.48429687 30.15248047 22.703125 31.51953125 C21.01420872 33.97930611 19.47827164 35.37834834 17 37 C17.42152344 36.44570313 17.84304687 35.89140625 18.27734375 35.3203125 C18.82519531 34.59585938 19.37304688 33.87140625 19.9375 33.125 C20.48277344 32.40570313 21.02804688 31.68640625 21.58984375 30.9453125 C24.09973245 27.48291757 24.09225098 25.24354529 24 21 C22.75108386 20.51801537 21.50081192 20.03954323 20.25 19.5625 C19.55390625 19.29566406 18.8578125 19.02882813 18.140625 18.75390625 C10.55873458 16.08364192 -3.77585494 14.77585494 -10 21 Z M91 21 C89.79670802 23.3011621 89.79670802 23.3011621 90 26 C91.38812889 28.75950837 91.38812889 28.75950837 93.4375 31.3125 C94.09621094 32.19550781 94.75492188 33.07851563 95.43359375 33.98828125 C95.95050781 34.65214844 96.46742187 35.31601562 97 36 C93.36440339 32.56638098 90.63886654 29.2026393 88 25 C84.33091645 25.20966192 83.14430699 25.84945895 80.55859375 28.546875 C77.71813955 32.10685438 75.9818072 35.9391521 74.25 40.125 C73.94707031 40.82753906 73.64414063 41.53007813 73.33203125 42.25390625 C70.82153627 48.15635889 69.84646034 52.58828796 69.8125 59 C69.79832031 60.216875 69.78414063 61.43375 69.76953125 62.6875 C69.99019713 65.85910445 70.51330832 67.29545116 72 70 C72.29245605 69.44014404 72.58491211 68.88028809 72.88623047 68.3034668 C74.21408477 65.76389935 75.54451256 63.22568886 76.875 60.6875 C77.33519531 59.80642578 77.79539062 58.92535156 78.26953125 58.01757812 C78.71425781 57.17001953 79.15898438 56.32246094 79.6171875 55.44921875 C80.02565918 54.66893311 80.43413086 53.88864746 80.85498047 53.0847168 C82 51 82 51 84 48 C85.11375 48.5259375 85.11375 48.5259375 86.25 49.0625 C89.3101044 50.10571741 90.07427365 50.20279861 93 49 C100.36784913 41.85266749 104.65754598 33.88785881 107 24 C106.86980469 24.78503906 106.73960938 25.57007813 106.60546875 26.37890625 C105.51874882 33.72188834 105.51874882 33.72188834 108.4375 40.25 C109.7059375 41.61125 109.7059375 41.61125 111 43 C116.54604826 41.94360985 118.68648222 39.46319604 121.7421875 35.015625 C124.75621504 30.18569267 125.22372149 26.70489795 125 21 C123.948125 20.525625 122.89625 20.05125 121.8125 19.5625 C121.22082031 19.29566406 120.62914062 19.02882813 120.01953125 18.75390625 C110.97037734 15.37578883 99.2381789 15.69534237 91 21 Z M-16.125 24 C-18.33019702 25.97020972 -18.33019702 25.97020972 -18.5 29.4375 C-17.87232363 41.21184287 -11.72495113 52.39219731 -4 61 C-2.47182713 58.03314185 -1.13364127 55.02816356 0.125 51.9375 C0.47820313 51.08027344 0.83140625 50.22304688 1.1953125 49.33984375 C2.16260606 46.93957054 2.16260606 46.93957054 2 44 C0.38096887 42.88696278 0.38096887 42.88696278 -1.6875 41.9375 C-6.95592427 38.85491133 -8.94381466 34.60534005 -11 29 C-11.8125 25.375 -11.8125 25.375 -12 23 C-14.08981656 22.85806765 -14.08981656 22.85806765 -16.125 24 Z M127 23 C126.84144531 23.71285156 126.68289062 24.42570312 126.51953125 25.16015625 C124.63213733 32.90785614 122.44801254 38.84545374 115.6875 43.4375 C114.800625 43.953125 113.91375 44.46875 113 45 C113.19335938 45.56847656 113.38671875 46.13695313 113.5859375 46.72265625 C115.18136423 51.45364938 116.66900586 56.18794425 118 61 C126.84633299 53.19441206 132.42437523 41.53158145 133.21875 29.7578125 C133.24582743 26.8591505 133.24582743 26.8591505 131.125 24.625 C129.18106686 22.79751663 129.18106686 22.79751663 127 23 Z M36 28 C36.47050781 28.94359375 36.94101562 29.8871875 37.42578125 30.859375 C42.62550394 41.49131134 47.82980305 52.85513076 46 65 C45.50439035 66.411895 44.9950345 67.81899561 44.4765625 69.22265625 C42.80345646 74.04066483 42.76200223 78.20350789 43 83.25 C43.20984146 91.32333212 42.34525778 98.22435366 40 106 C40.96486328 105.7834375 40.96486328 105.7834375 41.94921875 105.5625 C52.69115634 103.35588229 63.15968551 103.62966679 74 105 C73.67 103.7625 73.34 102.525 73 101.25 C71.6910717 94.94908998 71.91368533 88.70770729 72.16210938 82.30957031 C72.28506722 77.22268512 71.6810633 73.54951905 69.70092773 68.87207031 C65.82193525 58.51187722 70.00098328 46.61925644 74 37 C75.55385351 33.5983207 77.19041823 30.27264789 79 27 C68.29481051 23.65462829 44.6476999 19.3523001 36 28 Z M10 37 C3.56183841 45.09417166 -1.31799871 52.48060264 -1 63 C2.10600335 61.54555549 5.20947021 60.08577648 8.3125 58.625 C9.19357422 58.2125 10.07464844 57.8 10.98242188 57.375 C11.82998047 56.97539063 12.67753906 56.57578125 13.55078125 56.1640625 C14.72120972 55.61419678 14.72120972 55.61419678 15.9152832 55.05322266 C18.21246293 53.94495638 18.21246293 53.94495638 21 52 C19.37879192 48.43503982 17.2405574 45.40991178 14.9375 42.25 C14.22464844 41.26515625 13.51179688 40.2803125 12.77734375 39.265625 C12.19082031 38.51796875 11.60429688 37.7703125 11 37 C10.67 37 10.34 37 10 37 Z M104 37 C102.72528295 38.55933321 101.45539786 40.12261706 100.1875 41.6875 C99.47980469 42.55761719 98.77210937 43.42773438 98.04296875 44.32421875 C96.15270354 46.79999632 94.54332599 49.29796238 93 52 C95.51956743 53.27339482 98.04058649 54.54376642 100.5625 55.8125 C101.26697266 56.16892578 101.97144531 56.52535156 102.69726562 56.89257812 C107.07378925 59.09092409 111.47874598 61.11663926 116 63 C115.84407664 53.80052188 112.07881684 45.36454832 105.76953125 38.61328125 C105.18558594 38.08089844 104.60164063 37.54851563 104 37 Z M21 54 C19.04005271 57.12328178 19.04005271 57.12328178 17.6875 60.6875 C17.19636719 61.84636719 16.70523438 63.00523438 16.19921875 64.19921875 C13.97940207 71.23466378 13.1124531 76.44809538 16.40161133 83.22729492 C16.76407959 83.9154126 17.12654785 84.60353027 17.5 85.3125 C18.04660278 86.4094519 18.04660278 86.4094519 18.60424805 87.52856445 C21.33820142 92.94016824 24.30250293 98.20909626 27.45703125 103.38671875 C29.11549284 106.19560687 30.57086786 109.06877702 32 112 C38.10560988 108.26879396 39.91015386 102.30202423 41.59375 95.65625 C43.68385038 81.99020903 41.71948166 69.36678586 35.0625 57.3125 C34.72669922 56.69938965 34.39089844 56.0862793 34.04492188 55.45458984 C32.66091092 53.10217277 31.47611521 51.29002444 29.12109375 49.85546875 C25.54850402 50.09890488 23.70150516 51.73387612 21 54 Z M84 50 C74.32881699 65.32176185 70.57394701 79.26914586 73.54296875 97.296875 C75.20462988 103.35597085 77.67157926 108.44771951 83 112 C87.05398479 104.69554948 91.05798203 97.36552209 95 90 C95.38720215 89.2776416 95.7744043 88.5552832 96.17333984 87.81103516 C100.57761832 79.95952849 100.57761832 79.95952849 100.8125 71.23828125 C100.544375 70.49964844 100.27625 69.76101562 100 69 C99.5875 67.85917969 99.175 66.71835938 98.75 65.54296875 C95.53725636 57.05265314 95.53725636 57.05265314 89 51 C86.31492671 50.21053391 86.31492671 50.21053391 84 50 Z M13 81 C12.54102901 86.05505551 13.0359919 88.8389584 16.19921875 92.88085938 C16.84310547 93.65139648 16.84310547 93.65139648 17.5 94.4375 C17.92925781 94.97826172 18.35851563 95.51902344 18.80078125 96.07617188 C19.85215429 97.39622913 20.92405156 98.69989563 22 100 C22.33 99.34 22.66 98.68 23 98 C22.29133435 96.11915852 22.29133435 96.11915852 21.12890625 94.0859375 C20.71962891 93.32539062 20.31035156 92.56484375 19.88867188 91.78125 C19.45103516 90.9871875 19.01339844 90.193125 18.5625 89.375 C18.12873047 88.57320313 17.69496094 87.77140625 17.24804688 86.9453125 C16.17243012 84.95955849 15.08952787 82.9781454 14 81 C13.67 81 13.34 81 13 81 Z M100 82 C98.63610475 84.62035018 97.28367827 87.24556999 95.9375 89.875 C95.54755859 90.62136719 95.15761719 91.36773437 94.75585938 92.13671875 C94.39169922 92.85214844 94.02753906 93.56757812 93.65234375 94.3046875 C93.31195068 94.96452637 92.97155762 95.62436523 92.62084961 96.30419922 C92.41596924 96.86381348 92.21108887 97.42342773 92 98 C92.33 98.66 92.66 99.32 93 100 C94.12629875 98.56351736 95.2509899 97.12577415 96.375 95.6875 C97.00148438 94.88699219 97.62796875 94.08648437 98.2734375 93.26171875 C101.40433418 89.16038577 102.22899495 87.15238626 102 82 C101.34 82 100.68 82 100 82 Z M35 112 C32.46087728 116.25280626 32.43761826 120.16351702 33 125 C34.59215592 128.66195861 36.40409804 131.20204902 40 133 C45.75670809 133.80198414 49.98034312 133.08901962 55 130 C55 129.34 55 128.68 55 128 C53.95199219 127.51080078 53.95199219 127.51080078 52.8828125 127.01171875 C51.97273438 126.57472656 51.06265625 126.13773438 50.125 125.6875 C49.22007813 125.25824219 48.31515625 124.82898438 47.3828125 124.38671875 C45 123 45 123 43 120 C42.875 116.8125 42.875 116.8125 43 114 C47.38778315 113.91874476 51.58003213 114.03060251 55.9375 114.5625 C60.19514351 115.04946386 63.97370157 114.78848383 68.1875 114.05859375 C68.785625 114.03925781 69.38375 114.01992187 70 114 C72 116 72 116 72.25 118.75 C70.47811041 123.35691294 67.43210995 124.42656955 63.15234375 126.60546875 C62.44207031 127.06566406 61.73179688 127.52585937 61 128 C61 128.99 61 129.98 61 131 C65.23579317 133.11789659 69.33345184 133.73970724 74 133 C77.40766001 131.29617 79.38497834 130.00639908 81.375 126.75 C82.6139912 121.29843871 82.84696264 117.60317929 80.25 112.6875 C75.84696607 107.42832058 71.80464603 105.84822457 65 105 C54.51898862 104.334903 42.85087727 103.90378282 35 112 Z M46 115 C45.34 116.32 44.68 117.64 44 119 C44.99 120.32 45.98 121.64 47 123 C48.32 122.67 49.64 122.34 51 122 C51.28875 122.639375 51.5775 123.27875 51.875 123.9375 C52.82823451 126.15206079 52.82823451 126.15206079 55 127 C58.04173894 127.16670273 58.04173894 127.16670273 61 127 C62.29633621 125.93354885 62.29633621 125.93354885 62.0625 123.4375 C62.041875 122.633125 62.02125 121.82875 62 121 C62.99 121.66 63.98 122.32 65 123 C67.11149645 123.07642709 67.11149645 123.07642709 69 122 C70.29660434 119.50965614 70.29660434 119.50965614 71 117 C70.34 116.34 69.68 115.68 69 115 C66.66045145 115.28647533 64.32787927 115.63049535 62 116 C56.55417778 116.26892949 51.36869075 115.9138197 46 115 Z M50 134 C46.125 134.6875 46.125 134.6875 43 135 C43 135.66 43 136.32 43 137 C50.28813305 140.36375371 57.66952784 141.42254932 65.546875 139.3203125 C67.39812849 138.63101599 69.20640233 137.82781431 71 137 C71 136.34 71 135.68 71 135 C70.41992188 134.87882813 69.83984375 134.75765625 69.2421875 134.6328125 C68.07042969 134.38144531 68.07042969 134.38144531 66.875 134.125 C65.63943359 133.86009766 65.63943359 133.86009766 64.37890625 133.58984375 C62 133 62 133 58.8125 131.6875 C54.94474951 130.74204988 53.42279748 132.11396873 50 134 Z " fill="#000000" transform="translate(21,1)"/>
<path d="M0 0 C2.06183633 -0.08150744 4.12461349 -0.1394194 6.1875 -0.1875 C7.33605469 -0.22230469 8.48460937 -0.25710937 9.66796875 -0.29296875 C14.09639357 0.09640037 16.68406183 1.58658493 19.6875 4.8125 C21.26374307 7.43957178 22.13417906 10.06952913 23 13 C21.21927258 14.78072742 18.72356123 14.25615294 16.3125 14.3125 C11.01185913 14.2496217 7.92812587 13.82992272 4 10 C1.67148271 6.77815218 0 4.08328736 0 0 Z M3 2 C3.60183749 4.02045442 4.27306096 6.02111039 5 8 C5.66 8.33 6.32 8.66 7 9 C7.33 6.69 7.66 4.38 8 2 C6.35 2 4.7 2 3 2 Z M11 2 C10.34 2.66 9.68 3.32 9 4 C9.33 4.99 9.66 5.98 10 7 C11.32 5.68 12.64 4.36 14 3 C13.01 2.67 12.02 2.34 11 2 Z M16 5 C15.7525 5.804375 15.505 6.60875 15.25 7.4375 C14 10 14 10 11.875 10.8125 C11.25625 10.874375 10.6375 10.93625 10 11 C11.11101184 12.33648017 11.11101184 12.33648017 13.9375 12.125 C16.91545728 12.21325664 16.91545728 12.21325664 19 11 C18.65555119 8.52733235 18.65555119 8.52733235 18 6 C17.34 5.67 16.68 5.34 16 5 Z " fill="#000000" transform="translate(39,69)"/>
<path d="M0 0 C1.63001953 0.01353516 1.63001953 0.01353516 3.29296875 0.02734375 C4.12441406 0.03894531 4.95585938 0.05054687 5.8125 0.0625 C5.8125 3.10948723 5.41144659 4.37774189 4.125 7.0625 C3.81175781 7.743125 3.49851562 8.42375 3.17578125 9.125 C1.34474091 11.72728083 -0.28901268 12.74759634 -3.1875 14.0625 C-6.51953125 14.35546875 -6.51953125 14.35546875 -10 14.25 C-11.74216797 14.20939453 -11.74216797 14.20939453 -13.51953125 14.16796875 C-14.39996094 14.13316406 -15.28039062 14.09835938 -16.1875 14.0625 C-13.41514228 4.23323171 -13.41514228 4.23323171 -9.1875 1.0625 C-5.90230525 -0.03256492 -3.45086585 -0.03710608 0 0 Z M-0.1875 2.0625 C-0.1875 4.3725 -0.1875 6.6825 -0.1875 9.0625 C1.3958253 7.8136573 1.3958253 7.8136573 2.8125 6.0625 C2.8125 4.7425 2.8125 3.4225 2.8125 2.0625 C1.8225 2.0625 0.8325 2.0625 -0.1875 2.0625 Z M-6.1875 3.0625 C-4.8675 4.7125 -3.5475 6.3625 -2.1875 8.0625 C-2.1875 6.4125 -2.1875 4.7625 -2.1875 3.0625 C-3.5075 3.0625 -4.8275 3.0625 -6.1875 3.0625 Z M-11.1875 5.0625 C-11.5175 7.3725 -11.8475 9.6825 -12.1875 12.0625 C-7.53697128 12.33182521 -7.53697128 12.33182521 -3.1875 11.0625 C-3.5175 10.4025 -3.8475 9.7425 -4.1875 9.0625 C-5.8375 9.3925 -7.4875 9.7225 -9.1875 10.0625 C-9.5175 8.4125 -9.8475 6.7625 -10.1875 5.0625 C-10.5175 5.0625 -10.8475 5.0625 -11.1875 5.0625 Z " fill="#000000" transform="translate(111.1875,68.9375)"/>


  </g>
</svg>