<?xml version="1.0" encoding="UTF-8"?>
<svg width="2000" height="1919" viewBox="0 0 2000 1919" xmlns="http://www.w3.org/2000/svg">
  <g transform="scale(13.513513513513514)">
    
<!-- Generator: visioncortex VTracer 0.6.4 -->

<path d="M0 0 C8.67712832 5.0830515 14.42730866 12.24842614 19.53515625 20.77734375 C20.9075445 23.1756221 20.9075445 23.1756221 22.98046875 25.09765625 C24.03234375 24.62328125 25.08421875 24.14890625 26.16796875 23.66015625 C31.60123528 21.20985958 36.9104858 20.92975928 42.80859375 20.89453125 C43.55703552 20.88883118 44.30547729 20.8831311 45.07659912 20.8772583 C46.65668337 20.86784153 48.23678696 20.86128758 49.81689453 20.85742188 C52.20901624 20.84774305 54.60026801 20.81670021 56.9921875 20.78515625 C64.86833072 20.73204755 71.60201868 21.03672718 78.98046875 24.09765625 C79.97046875 24.09765625 80.96046875 24.09765625 81.98046875 24.09765625 C83.66730617 21.90901075 83.66730617 21.90901075 85.23046875 19.09765625 C90.59364402 10.37549855 96.21518356 3.06480336 105.98046875 -0.90234375 C110.64499468 -1.72270369 114.47152572 -1.44813165 118.91796875 0.16015625 C123.45077095 4.41824316 124.69033353 10.56581794 125.18359375 16.5703125 C125.40794234 28.96557208 122.09073593 39.5364979 114.60546875 49.41015625 C110.18617508 53.9346712 106.46334346 56.12808634 100.24609375 56.703125 C99.44461914 56.78071045 98.64314453 56.8582959 97.81738281 56.93823242 C97.21120117 56.99084229 96.60501953 57.04345215 95.98046875 57.09765625 C96.24786865 57.88938232 96.51526855 58.6811084 96.79077148 59.49682617 C97.78654403 62.44994863 98.77956134 65.40397938 99.77075195 68.35864258 C100.40951303 70.25998685 101.05141544 72.16027485 101.69335938 74.06054688 C102.09619141 75.26259766 102.49902344 76.46464844 102.9140625 77.703125 C103.28587646 78.80809326 103.65769043 79.91306152 104.04077148 81.05151367 C106.31593343 88.42672688 106.31593343 88.42672688 104.98046875 91.09765625 C104.18125 91.37609375 103.38203125 91.65453125 102.55859375 91.94140625 C99.35291738 93.37910353 99.00792364 94.3938805 97.73046875 97.59765625 C93.76422993 106.21396817 87.00922457 112.4192642 79.828125 118.4296875 C77.38522361 120.63501286 75.39418924 123.10201114 73.40234375 125.71484375 C71.67171649 127.3979263 70.2889668 127.55166293 67.98046875 128.09765625 C67.69171875 128.84015625 67.40296875 129.58265625 67.10546875 130.34765625 C65.27476804 134.82270242 61.73284157 137.05570484 57.66796875 139.47265625 C52.35114191 140.70912761 47.09773007 139.93816853 42.23046875 137.47265625 C39.00894283 135.44346521 37.26807454 132.9132298 35.2265625 129.75390625 C33.90661524 127.8090776 33.90661524 127.8090776 30.98046875 126.09765625 C28.24724504 124.27550711 27.32667832 123.3900741 25.60546875 120.78515625 C23.71924509 117.93768399 21.73516656 115.90227116 19.10546875 113.72265625 C13.20831484 108.74727969 8.88198369 103.0044516 5.35546875 96.16015625 C3.75562493 93.10929129 3.27414615 92.26081036 0.16796875 90.53515625 C-0.55390625 90.39078125 -1.27578125 90.24640625 -2.01953125 90.09765625 C-1.46857186 83.59935443 0.1814378 78.01848212 2.41796875 71.91015625 C2.73056641 71.03423828 3.04316406 70.15832031 3.36523438 69.25585938 C4.8296743 65.17214635 6.32749782 61.10964096 7.98046875 57.09765625 C6.78421875 56.99453125 5.58796875 56.89140625 4.35546875 56.78515625 C-2.16286759 55.94741232 -7.55035612 52.92482732 -12.01953125 48.09765625 C-20.2353768 36.86333703 -22.04287709 25.70955778 -21.01953125 12.09765625 C-20.16588813 7.20740616 -19.0503823 4.1285073 -15.51953125 0.59765625 C-10.35022972 -2.50392467 -5.43085655 -2.42655293 0 0 Z M-14.01953125 2.09765625 C-19.93201519 9.65249684 -19.85326852 17.84703452 -19.01953125 27.09765625 C-17.04937479 37.4550502 -13.2331416 45.23712352 -4.70703125 51.53515625 C-0.14027906 54.40102625 3.63728233 54.92803128 8.98046875 55.09765625 C7.84327456 51.68607369 6.93703931 50.97911024 3.98046875 49.09765625 C3.32046875 49.09765625 2.66046875 49.09765625 1.98046875 49.09765625 C1.71363281 48.56269531 1.44679688 48.02773438 1.171875 47.4765625 C0.28789954 45.71150985 -0.60087016 43.94885654 -1.4921875 42.1875 C-2.01683594 41.14722656 -2.54148437 40.10695312 -3.08203125 39.03515625 C-3.60925781 37.99230469 -4.13648438 36.94945312 -4.6796875 35.875 C-6.87039456 31.33391335 -7.17300649 27.61010133 -7.14453125 22.66015625 C-7.14710937 21.34144531 -7.1496875 20.02273437 -7.15234375 18.6640625 C-7.04923435 15.89527171 -6.86035692 13.70688511 -6.01953125 11.09765625 C3.1414164 11.5884213 8.31453351 15.02894718 14.41796875 21.78515625 C17.78374744 25.70421363 17.78374744 25.70421363 18.98046875 28.09765625 C19.64046875 27.76765625 20.30046875 27.43765625 20.98046875 27.09765625 C12.22624418 11.24080566 12.22624418 11.24080566 -2.2109375 1.359375 C-6.63154991 0.17229127 -10.04409705 -0.62835577 -14.01953125 2.09765625 Z M85.49609375 21.2890625 C84.2289322 23.29093808 84.2289322 23.29093808 82.98046875 26.09765625 C83.31046875 26.75765625 83.64046875 27.41765625 83.98046875 28.09765625 C84.52574219 27.36160156 85.07101563 26.62554688 85.6328125 25.8671875 C95.60197837 12.96691645 95.60197837 12.96691645 104.1015625 11.80859375 C106.04296875 11.78515625 106.04296875 11.78515625 108.98046875 12.09765625 C112.95485388 21.78522 110.84937637 30.65226759 106.98046875 40.09765625 C103.86678015 45.5466113 99.80281504 49.19385211 94.98046875 53.09765625 C94.98046875 53.75765625 94.98046875 54.41765625 94.98046875 55.09765625 C102.49062773 54.8592385 107.34781348 53.16810675 112.98046875 48.09765625 C121.27073728 38.30827598 123.93527647 26.71475832 122.98046875 14.09765625 C121.82063911 7.61037779 121.82063911 7.61037779 118.16015625 2.35546875 C104.38733393 -5.59228893 92.14374161 11.47503501 85.49609375 21.2890625 Z M-4.01953125 13.09765625 C-7.29977467 18.01802138 -6.54051341 23.34755688 -6.01953125 29.09765625 C-3.93904496 37.89192802 0.17944404 46.09699939 7.98046875 51.09765625 C9.30046875 51.09765625 10.62046875 51.09765625 11.98046875 51.09765625 C11.98046875 50.10765625 11.98046875 49.11765625 11.98046875 48.09765625 C10.39719995 46.83349765 10.39719995 46.83349765 8.35546875 45.66015625 C2.21269172 41.27401706 -0.84934742 34.70914992 -2.6796875 27.49609375 C-3.31276963 23.14456373 -3.12005332 20.06530905 -1.01953125 16.09765625 C-0.68953125 15.10765625 -0.35953125 14.11765625 -0.01953125 13.09765625 C-1.33953125 13.09765625 -2.65953125 13.09765625 -4.01953125 13.09765625 Z M102.98046875 13.09765625 C103.47546875 14.08765625 103.97046875 15.07765625 104.48046875 16.09765625 C107.14809865 22.42375 106.45033074 28.46476921 104.16796875 34.78515625 C101.38348161 40.20757858 97.0219256 44.73668501 91.98046875 48.09765625 C91.98046875 49.08765625 91.98046875 50.07765625 91.98046875 51.09765625 C97.55885467 50.4670561 99.61154017 47.85086246 103.11328125 43.71484375 C108.25362731 36.50975617 110.70641258 27.91027667 109.98046875 19.09765625 C109.08249762 15.72944353 109.08249762 15.72944353 107.98046875 13.09765625 C106.33046875 13.09765625 104.68046875 13.09765625 102.98046875 13.09765625 Z M0.98046875 15.09765625 C-2.1722425 19.82672312 -1.66021653 24.5675307 -1.01953125 30.09765625 C1.27878251 37.6660569 5.75219724 42.43031631 11.98046875 47.09765625 C14.76467713 44.65018104 16.2082536 42.05649504 17.79296875 38.72265625 C18.25316406 37.78679688 18.71335937 36.8509375 19.1875 35.88671875 C20.20860683 33.15164862 20.20860683 33.15164862 19.390625 30.56640625 C17.74302139 27.68195893 15.85524183 25.41676189 13.60546875 22.97265625 C12.83460937 22.12445312 12.06375 21.27625 11.26953125 20.40234375 C9.23972582 18.35868299 7.43731011 16.59525278 4.98046875 15.09765625 C3.66046875 15.09765625 2.34046875 15.09765625 0.98046875 15.09765625 Z M90.98046875 21.09765625 C88.05066448 24.1951774 85.64230025 27.1485728 83.98046875 31.09765625 C84.16348926 34.55286157 85.3453717 37.08563537 86.98046875 40.09765625 C87.81578125 41.86109375 87.81578125 41.86109375 88.66796875 43.66015625 C89.10109375 44.46453125 89.53421875 45.26890625 89.98046875 46.09765625 C95.79286208 44.27090406 99.1730256 40.67872486 102.23046875 35.53515625 C104.99897592 30.09701716 105.61453983 25.1602657 104.98046875 19.09765625 C103.86481937 16.5174833 103.86481937 16.5174833 101.98046875 15.09765625 C97.1666191 15.09765625 94.43836587 17.94099155 90.98046875 21.09765625 Z M23.98046875 27.09765625 C24.43298219 32.48158147 25.8767255 37.01160746 27.8515625 41.97265625 C28.13395279 42.70081543 28.41634308 43.42897461 28.70729065 44.17919922 C29.60387765 46.48814236 30.5102795 48.79305764 31.41796875 51.09765625 C32.32056188 53.40280712 33.22095085 55.70877399 34.11793518 58.01611328 C34.6741802 59.44557924 35.23381346 60.87373324 35.79747009 62.30029297 C40.60031707 74.59449671 41.73473262 85.56111522 36.98046875 98.09765625 C37.79644531 97.93523437 38.61242188 97.7728125 39.453125 97.60546875 C43.48210889 97.02543785 47.3555567 96.95110499 51.41796875 96.97265625 C52.14306641 96.96878906 52.86816406 96.96492188 53.61523438 96.9609375 C58.17000501 96.96912217 62.48680689 97.35167286 66.98046875 98.09765625 C66.69171875 97.32421875 66.40296875 96.55078125 66.10546875 95.75390625 C59.64913252 77.64029628 67.37394347 63.11325926 74.16381836 46.17602539 C75.12263416 43.7783927 76.07331109 41.37764896 77.0234375 38.9765625 C77.32025925 38.24425919 77.61708099 37.51195587 77.92289734 36.75746155 C79.30000517 33.27183432 79.98046875 30.90086782 79.98046875 27.09765625 C73.65295786 23.71317368 68.51362063 22.93852844 61.40625 22.89453125 C60.32043892 22.88598114 60.32043892 22.88598114 59.21269226 22.8772583 C57.68388311 22.86784221 56.15505397 22.86128785 54.6262207 22.85742188 C52.31749854 22.84775892 50.00968394 22.81672227 47.70117188 22.78515625 C35.00574124 22.16395853 35.00574124 22.16395853 23.98046875 27.09765625 Z M21.98046875 33.09765625 C16.04809156 44.53641545 10.85473391 56.17126276 5.98046875 68.09765625 C8.68066157 66.7861241 10.90275261 65.42783806 13.23046875 63.53515625 C17.21335666 60.66099517 20.06086054 60.09765625 24.98046875 60.09765625 C28.23046875 61.41015625 28.23046875 61.41015625 30.98046875 63.09765625 C31.76421875 63.48953125 32.54796875 63.88140625 33.35546875 64.28515625 C33.89171875 64.55328125 34.42796875 64.82140625 34.98046875 65.09765625 C34.31600838 61.03486124 33.04396038 57.50451525 31.4765625 53.703125 C30.98349609 52.50107422 30.49042969 51.29902344 29.98242188 50.06054688 C29.4610347 48.80204306 28.93954909 47.54358002 28.41796875 46.28515625 C27.89216717 45.00733048 27.36677228 43.72933729 26.84179688 42.45117188 C25.55867823 39.33166325 24.2714349 36.21392359 22.98046875 33.09765625 C22.65046875 33.09765625 22.32046875 33.09765625 21.98046875 33.09765625 Z M80.98046875 33.09765625 C78.08944975 39.50804938 75.32224304 45.96070727 72.66796875 52.47265625 C72.29607422 53.36082031 71.92417969 54.24898437 71.54101562 55.1640625 C71.19490234 56.01613281 70.84878906 56.86820313 70.4921875 57.74609375 C70.17725342 58.51099121 69.86231934 59.27588867 69.5378418 60.06396484 C68.7300211 62.27254497 68.7300211 62.27254497 69.98046875 65.09765625 C70.74359375 64.45828125 71.50671875 63.81890625 72.29296875 63.16015625 C76.49171488 59.93786271 79.77432312 59.50986561 84.98046875 60.09765625 C88.18946918 61.83009004 91.06448808 63.91632187 93.98046875 66.09765625 C94.97046875 66.75765625 95.96046875 67.41765625 96.98046875 68.09765625 C96.30677186 63.18650354 94.3240856 59.00492493 92.29296875 54.53515625 C91.9371875 53.74318848 91.58140625 52.9512207 91.21484375 52.13525391 C88.30418713 45.70233763 85.22663478 39.3686588 81.98046875 33.09765625 C81.65046875 33.09765625 81.32046875 33.09765625 80.98046875 33.09765625 Z M12.98046875 65.09765625 C12.98046875 65.42765625 12.98046875 65.75765625 12.98046875 66.09765625 C13.86089844 66.13503906 14.74132813 66.17242187 15.6484375 66.2109375 C16.80988281 66.27667969 17.97132812 66.34242187 19.16796875 66.41015625 C20.31652344 66.46816406 21.46507812 66.52617188 22.6484375 66.5859375 C26.19401574 67.13045186 28.14538115 67.9308393 30.98046875 70.09765625 C33.09479458 74.10758455 33.98046875 76.54175581 33.98046875 81.09765625 C32.04124453 80.64667387 30.10413281 80.18660066 28.16796875 79.72265625 C26.54955078 79.33980469 26.54955078 79.33980469 24.8984375 78.94921875 C21.98046875 78.09765625 21.98046875 78.09765625 18.98046875 76.09765625 C17.99531497 73.47409163 17.55807946 70.85241502 16.98046875 68.09765625 C12.07478987 67.81463631 9.73517942 67.9327342 5.98046875 71.09765625 C8.05888687 79.16527486 11.27617429 86.4358278 14.91796875 93.91015625 C15.7059082 95.56821289 15.7059082 95.56821289 16.50976562 97.25976562 C18.96511075 102.34561817 21.31557366 106.76444808 24.98046875 111.09765625 C25.439375 110.43378906 25.89828125 109.76992187 26.37109375 109.0859375 C31.67198546 101.45755342 31.67198546 101.45755342 34.23046875 98.47265625 C39.02630003 91.96402809 39.8473873 85.03055475 38.98046875 77.09765625 C36.98455272 70.68971532 33.72156917 65.81084401 27.98046875 62.22265625 C21.55036395 59.81136695 18.52745133 61.61719659 12.98046875 65.09765625 Z M18.98046875 68.09765625 C19.23608198 70.44077755 19.57317647 72.77609028 19.98046875 75.09765625 C20.64046875 75.42765625 21.30046875 75.75765625 21.98046875 76.09765625 C22.10421875 75.29328125 22.22796875 74.48890625 22.35546875 73.66015625 C22.56171875 72.81453125 22.76796875 71.96890625 22.98046875 71.09765625 C23.64046875 70.76765625 24.30046875 70.43765625 24.98046875 70.09765625 C24.98046875 69.43765625 24.98046875 68.77765625 24.98046875 68.09765625 C23.00046875 68.09765625 21.02046875 68.09765625 18.98046875 68.09765625 Z M78.98046875 68.09765625 C79.43421875 68.53078125 79.88796875 68.96390625 80.35546875 69.41015625 C81.98046875 71.09765625 81.98046875 71.09765625 83.98046875 74.09765625 C84.36265642 72.44150968 84.69441977 70.77308601 84.98046875 69.09765625 C83.9140176 67.80132004 83.9140176 67.80132004 81.41796875 68.03515625 C80.61359375 68.05578125 79.80921875 68.07640625 78.98046875 68.09765625 Z M68.73046875 68.41015625 C64.70030541 73.4134824 63.75732504 78.06350996 64.04296875 84.41015625 C65.04160085 92.95139789 68.70124273 99.3141586 74.98046875 105.09765625 C76.03334689 106.73143267 77.05316885 108.38947222 77.98046875 110.09765625 C81.58494516 108.89616411 81.75623008 108.22053748 83.46875 104.96875 C83.92531982 104.10531982 84.38188965 103.24188965 84.85229492 102.35229492 C85.56542847 100.95781128 85.56542847 100.95781128 86.29296875 99.53515625 C86.78063721 98.59454346 87.26830566 97.65393066 87.77075195 96.68481445 C91.83301302 88.70153547 95.13604608 80.58291711 97.98046875 72.09765625 C94.34366222 68.83034606 94.34366222 68.83034606 89.66796875 67.84765625 C88.78109375 67.93015625 87.89421875 68.01265625 86.98046875 68.09765625 C86.75359375 69.35578125 86.52671875 70.61390625 86.29296875 71.91015625 C85.54099404 74.81063014 85.21328949 75.8793868 82.98046875 77.97265625 C78.74249025 79.56189819 74.43740323 80.3620457 69.98046875 81.09765625 C70.3623917 75.46429269 70.75869718 72.19525807 74.98046875 68.09765625 C78.14292416 67.04350445 80.84995093 66.78489953 84.16796875 66.53515625 C85.25464844 66.45136719 86.34132813 66.36757812 87.4609375 66.28125 C88.29238281 66.22066406 89.12382813 66.16007812 89.98046875 66.09765625 C88.0398799 63.03253188 88.0398799 63.03253188 84.9296875 61.34765625 C77.40210474 60.51559183 73.8358227 62.96034469 68.73046875 68.41015625 Z M28.98046875 71.09765625 C28.69171875 71.88140625 28.40296875 72.66515625 28.10546875 73.47265625 C26.98046875 76.09765625 26.98046875 76.09765625 24.98046875 78.09765625 C27.29046875 78.42765625 29.60046875 78.75765625 31.98046875 79.09765625 C32.31046875 78.43765625 32.64046875 77.77765625 32.98046875 77.09765625 C32.0460034 75.06620984 31.04822099 73.06232038 29.98046875 71.09765625 C29.65046875 71.09765625 29.32046875 71.09765625 28.98046875 71.09765625 Z M73.98046875 71.09765625 C71.69318141 72.93649506 71.69318141 72.93649506 71.85546875 75.72265625 C71.89671875 76.50640625 71.93796875 77.29015625 71.98046875 78.09765625 C73.96046875 78.09765625 75.94046875 78.09765625 77.98046875 78.09765625 C77.65046875 77.43765625 77.32046875 76.77765625 76.98046875 76.09765625 C76.32046875 76.09765625 75.66046875 76.09765625 74.98046875 76.09765625 C74.98046875 74.44765625 74.98046875 72.79765625 74.98046875 71.09765625 C74.65046875 71.09765625 74.32046875 71.09765625 73.98046875 71.09765625 Z M3.98046875 75.09765625 C1.38020126 81.9033376 1.38020126 81.9033376 0.98046875 89.09765625 C1.57214844 89.12730469 2.16382812 89.15695313 2.7734375 89.1875 C6.16254791 90.58513314 6.90790188 93.47724071 8.29296875 96.66015625 C11.67070811 103.90356133 15.37407002 110.71703459 22.98046875 114.09765625 C21.66417161 109.86937142 20.05258207 106.01615605 18.046875 102.0703125 C17.48033203 100.94818359 16.91378906 99.82605469 16.33007812 98.66992188 C15.44545898 96.93258789 15.44545898 96.93258789 14.54296875 95.16015625 C7.46291682 81.21035097 7.46291682 81.21035097 4.98046875 75.09765625 C4.65046875 75.09765625 4.32046875 75.09765625 3.98046875 75.09765625 Z M98.98046875 75.09765625 C98.614375 75.91363281 98.24828125 76.72960937 97.87109375 77.5703125 C92.35282921 89.64480087 86.18452361 101.36393357 79.98046875 113.09765625 C83.72923081 113.09765625 84.19983243 112.31067791 86.79296875 109.72265625 C92.19003693 104.11647657 96.77275966 97.91306103 97.98046875 90.09765625 C99.63046875 89.76765625 101.28046875 89.43765625 102.98046875 89.09765625 C102.46641706 84.12848989 101.74661993 79.80739274 99.98046875 75.09765625 C99.65046875 75.09765625 99.32046875 75.09765625 98.98046875 75.09765625 Z M29.91796875 104.91015625 C27.75046908 108.47604281 26.48282812 110.93525008 25.98046875 115.09765625 C27.38578057 119.77053358 29.60845587 123.7001008 33.98046875 126.09765625 C37.2656635 127.19272117 39.7171029 127.19726233 43.16796875 127.16015625 C44.25464844 127.15113281 45.34132813 127.14210937 46.4609375 127.1328125 C47.29238281 127.12121094 48.12382813 127.10960937 48.98046875 127.09765625 C48.98046875 126.10765625 48.98046875 125.11765625 48.98046875 124.09765625 C47.65015625 123.57171875 47.65015625 123.57171875 46.29296875 123.03515625 C42.2795938 120.68771053 40.04347844 118.25012447 37.98046875 114.09765625 C37.47511323 110.81284538 37.28898182 109.11668962 39.16796875 106.34765625 C44.97848335 102.3404048 51.17314117 102.48048311 57.98046875 103.09765625 C61.48482957 104.42689656 63.36387715 105.48106465 65.98046875 108.09765625 C66.45875152 111.10400509 66.60986856 113.16781123 64.859375 115.75390625 C63.58926161 117.22191266 62.28625657 118.66128964 60.98046875 120.09765625 C60.98046875 120.75765625 60.98046875 121.41765625 60.98046875 122.09765625 C60.01109375 122.38640625 59.04171875 122.67515625 58.04296875 122.97265625 C54.87382672 123.73980307 54.87382672 123.73980307 53.98046875 126.09765625 C58.36714803 128.29099589 64.55622129 127.85931389 69.15625 126.4140625 C73.46399115 124.19100979 75.46954538 121.63042635 76.98046875 117.09765625 C77.50868784 112.87190351 77.29662179 110.7178026 75.35546875 106.91015625 C70.13731917 100.73076859 64.13813198 98.46551534 56.18359375 97.76171875 C41.82051621 97.61273323 41.82051621 97.61273323 29.91796875 104.91015625 Z M39.98046875 107.09765625 C39.98046875 108.08765625 39.98046875 109.07765625 39.98046875 110.09765625 C41.96046875 110.75765625 43.94046875 111.41765625 45.98046875 112.09765625 C45.81546875 112.84015625 45.65046875 113.58265625 45.48046875 114.34765625 C44.86121179 117.28772203 44.86121179 117.28772203 44.98046875 121.09765625 C48.67002212 123.5573585 51.69657998 123.67516238 55.98046875 123.09765625 C58.48088147 121.89445182 58.48088147 121.89445182 59.98046875 120.09765625 C59.98046875 119.43765625 59.98046875 118.77765625 59.98046875 118.09765625 C59.32046875 117.76765625 58.66046875 117.43765625 57.98046875 117.09765625 C57.98046875 115.77765625 57.98046875 114.45765625 57.98046875 113.09765625 C59.96046875 112.10765625 61.94046875 111.11765625 63.98046875 110.09765625 C63.86740178 108.13871264 63.86740178 108.13871264 62.98046875 106.09765625 C55.833525 102.44733552 46.66290965 102.64269565 39.98046875 107.09765625 Z M38.98046875 112.09765625 C39.31046875 113.08765625 39.64046875 114.07765625 39.98046875 115.09765625 C41.99555233 115.83089421 41.99555233 115.83089421 43.98046875 116.09765625 C43.98046875 115.10765625 43.98046875 114.11765625 43.98046875 113.09765625 C42.33046875 112.76765625 40.68046875 112.43765625 38.98046875 112.09765625 Z M60.98046875 112.09765625 C60.32046875 113.41765625 59.66046875 114.73765625 58.98046875 116.09765625 C60.63046875 115.76765625 62.28046875 115.43765625 63.98046875 115.09765625 C64.31046875 114.10765625 64.64046875 113.11765625 64.98046875 112.09765625 C63.66046875 112.09765625 62.34046875 112.09765625 60.98046875 112.09765625 Z M37.98046875 129.09765625 C39.15362384 132.38249051 40.960884 134.49103171 43.9453125 136.32421875 C48.51172532 138.05963091 53.22733363 137.96070882 57.98046875 137.09765625 C60.8461648 135.52320348 63.03855907 133.73701237 64.98046875 131.09765625 C64.98046875 130.43765625 64.98046875 129.77765625 64.98046875 129.09765625 C64.07296875 129.26265625 63.16546875 129.42765625 62.23046875 129.59765625 C54.17188421 130.74187718 45.99817493 130.33114951 37.98046875 129.09765625 Z " fill="#000000" transform="translate(22.01953125,1.90234375)"/>


  </g>
</svg>