<?xml version="1.0" encoding="UTF-8"?>
<svg width="1606" height="2000" viewBox="0 0 1606 2000" xmlns="http://www.w3.org/2000/svg">
  <g transform="scale(14.598540145985401)">
    
<!-- Generator: visioncortex VTracer 0.6.4 -->

<path d="M0 0 C1.35931641 0.92039063 1.35931641 0.92039063 2.74609375 1.859375 C3.65488281 2.46265625 4.56367188 3.0659375 5.5 3.6875 C8.13829457 5.57693367 10.67142526 7.55602933 13.18359375 9.609375 C13.70824219 9.320625 14.23289063 9.031875 14.7734375 8.734375 C23.58353799 4.51256312 34.33582094 3.67324371 43.6640625 6.76171875 C44.68113281 7.18582031 45.69820313 7.60992187 46.74609375 8.046875 C49.50678656 9.24071305 49.50678656 9.24071305 52.18359375 9.609375 C55.53702111 7.90375246 57.66800928 5.35414504 60.18359375 2.609375 C63.29048091 0.284178 66.27256631 -1.21617294 70.12109375 -1.953125 C75.96447769 -0.8798504 80.00458861 2.09782995 83.62109375 6.734375 C87.42781464 13.73874143 87.32965736 22.02512057 85.41796875 29.671875 C83.63723206 34.28674193 81.412002 38.36039971 78.58984375 42.41015625 C78.13335449 43.0657251 77.67686523 43.72129395 77.20654297 44.39672852 C76.29493856 45.6765727 75.35980049 46.94007026 74.39892578 48.18334961 C71.92288556 51.58058828 71.15150856 52.99654788 71.37890625 57.33984375 C71.51151855 58.00902832 71.64413086 58.67821289 71.78076172 59.36767578 C75.17228896 78.241011 73.94961103 110.63164345 63.08105469 127.30029297 C59.70081162 131.6782231 56.80563964 133.21232234 51.44921875 134.0234375 C14.58208178 136.60222687 14.58208178 136.60222687 4.18359375 130.609375 C-3.21539638 123.86323694 -4.64884457 111.00139505 -6.06640625 101.546875 C-6.24131592 100.41580322 -6.41622559 99.28473145 -6.59643555 98.11938477 C-7.54843682 91.16094247 -7.92697929 84.43369605 -7.8203125 77.421875 C-7.80952667 76.64340714 -7.79874084 75.86493927 -7.78762817 75.06288147 C-7.72154815 71.22494457 -7.60009697 67.39772605 -7.40527344 63.56420898 C-7.04882892 54.22379486 -8.5337307 48.81159392 -14.81640625 41.609375 C-19.91922959 33.09086869 -23.97894704 24.0356648 -22.31640625 13.921875 C-20.59673549 7.78176851 -17.09056755 3.12548253 -11.81640625 -0.390625 C-7.39699025 -1.86376367 -4.23901342 -2.09304962 0 0 Z M-14.81640625 4.609375 C-20.04870295 11.35628391 -20.66792916 17.28011063 -19.81640625 25.609375 C-17.48212562 33.93113777 -13.03704338 40.80900617 -7.81640625 47.609375 C-5.80091687 44.58614093 -5.06509103 43.1738569 -4.81640625 39.609375 C-5.27015625 38.7225 -5.72390625 37.835625 -6.19140625 36.921875 C-9.31352113 30.55756391 -9.44795278 23.61233464 -7.6875 16.7890625 C-5.95932186 12.46474231 -3.06836898 7.73535637 1.18359375 5.609375 C0.69653663 3.54534532 0.69653663 3.54534532 -0.81640625 1.609375 C-6.61536281 -0.20990549 -10.30141932 0.84501865 -14.81640625 4.609375 Z M63.18359375 3.609375 C63.98068862 6.76582374 63.98068862 6.76582374 66.55859375 8.921875 C71.51595215 13.99726574 72.77715089 18.87130514 73.2578125 25.7890625 C73.12457225 30.85219186 71.52267701 35.30439562 68.9921875 39.66015625 C68.72535156 40.30339844 68.45851563 40.94664063 68.18359375 41.609375 C69.46681822 44.84331861 69.46681822 44.84331861 71.18359375 47.609375 C75.17622807 43.9884687 77.6352325 40.37998754 79.93359375 35.484375 C80.38798828 34.55431641 80.38798828 34.55431641 80.8515625 33.60546875 C84.34404926 26.38766277 85.80430971 19.07929136 83.46484375 11.18359375 C81.50377337 6.98468903 79.25817813 3.97831941 75.18359375 1.609375 C70.0417731 0.23210161 67.45176074 0.37591516 63.18359375 3.609375 Z M2.18359375 6.609375 C-2.07289014 11.10908654 -2.25848528 14.9649491 -2.25 21.0234375 C-1.74252472 24.05000177 -0.97366817 25.44221738 1.18359375 27.609375 C4.78825123 28.42252411 4.78825123 28.42252411 8.18359375 28.609375 C7.31734375 29.228125 6.45109375 29.846875 5.55859375 30.484375 C1.3475258 33.98187296 -1.63889204 38.61041241 -3.81640625 43.609375 C-3.48640625 44.599375 -3.15640625 45.589375 -2.81640625 46.609375 C-2.13578125 46.135 -1.45515625 45.660625 -0.75390625 45.171875 C3.78086189 42.75976429 7.3441487 42.05754148 12.30859375 43.546875 C19.26720217 48.53892017 21.7767049 56.42579255 23.18359375 64.609375 C24.21928151 73.64603523 22.59336027 80.47741782 19.1796875 88.7109375 C17.85076884 91.62321737 17.85076884 91.62321737 19.18359375 94.609375 C20.00150391 94.3928125 20.00150391 94.3928125 20.8359375 94.171875 C29.78915738 91.96800549 37.28964971 92.25447729 46.18359375 94.609375 C45.99023438 93.96871094 45.796875 93.32804687 45.59765625 92.66796875 C45.05482457 90.86480015 44.51736461 89.06000849 43.984375 87.25390625 C43.37196508 85.23145983 42.69745606 83.22772051 41.99609375 81.234375 C39.50414976 70.11647107 41.45060465 57.93333731 46.62109375 47.7890625 C48.99964059 44.47098966 51.29370015 43.69344371 55.18359375 42.609375 C60.72444472 42.95166695 64.83010117 45.34425557 69.18359375 48.609375 C68.60640966 44.42479038 67.20188413 41.59231149 64.93359375 38.046875 C64.3509375 37.11746094 63.76828125 36.18804687 63.16796875 35.23046875 C61.09921328 32.4979197 58.93872992 30.62822478 56.18359375 28.609375 C58.20182292 28.21875 60.22005208 27.828125 62.23828125 27.4375 C64.3065123 26.7575016 64.3065123 26.7575016 65.41796875 24.87109375 C66.8835743 20.54157533 66.75602138 16.10892243 66.18359375 11.609375 C64.40922435 8.46197731 64.40922435 8.46197731 62.18359375 6.609375 C58.30451404 7.13458 56.27506233 8.00289937 53.44921875 10.69921875 C52.79308594 11.31861328 52.13695312 11.93800781 51.4609375 12.57617188 C50.45740234 13.55166992 50.45740234 13.55166992 49.43359375 14.546875 C48.74910156 15.19333984 48.06460938 15.83980469 47.359375 16.50585938 C42.60053591 20.71500728 42.60053591 20.71500728 40.99609375 26.609375 C40.8587559 29.72561825 40.8587559 29.72561825 43.18359375 31.609375 C45.76713593 31.77624948 45.76713593 31.77624948 48.18359375 31.609375 C48.47234375 30.805 48.76109375 30.000625 49.05859375 29.171875 C50.18359375 26.609375 50.18359375 26.609375 52.18359375 25.609375 C51.52359375 27.919375 50.86359375 30.229375 50.18359375 32.609375 C44.97148914 33.03659669 44.97148914 33.03659669 42.18359375 32.609375 C40.05859375 30.546875 40.05859375 30.546875 39.18359375 27.609375 C39.84087328 20.64221202 44.15107476 17.11523503 49.18359375 12.609375 C46.62160542 9.47805593 44.06499236 8.58660656 40.18359375 7.609375 C37.50905121 7.39793786 34.9778816 7.27665312 32.30859375 7.296875 C31.60476562 7.29816406 30.9009375 7.29945312 30.17578125 7.30078125 C24.85593648 7.39929689 20.91076315 8.2457903 16.18359375 10.609375 C15.85196257 13.60229052 15.85196257 13.60229052 17.64453125 15.2578125 C18.59199219 16.11246094 18.59199219 16.11246094 19.55859375 16.984375 C22.36007968 19.68378249 24.35828676 21.68916681 25.18359375 25.609375 C24.86923816 28.98869759 24.60879921 30.18416954 22.18359375 32.609375 C18.68359375 32.859375 18.68359375 32.859375 15.18359375 32.609375 C12.82406281 30.24984406 12.69217962 28.83041883 12.18359375 25.609375 C13.17359375 25.609375 14.16359375 25.609375 15.18359375 25.609375 C15.16296875 26.41375 15.14234375 27.218125 15.12109375 28.046875 C14.88725754 30.54292385 14.88725754 30.54292385 16.18359375 31.609375 C18.64169373 31.8594523 18.64169373 31.8594523 21.18359375 31.609375 C23.40120293 29.75393334 23.40120293 29.75393334 23.74609375 26.984375 C22.37494318 18.75747157 13.70946851 13.3179195 7.63671875 8.296875 C5.26789858 6.32599924 5.26789858 6.32599924 2.18359375 6.609375 Z M-4.81640625 14.609375 C-7.93344879 21.21750517 -8.32925465 26.43735297 -6.81640625 33.609375 C-5.45184524 36.67952277 -5.45184524 36.67952277 -3.81640625 38.609375 C-0.8523612 35.80133232 1.62858394 33.42621726 3.18359375 29.609375 C2.56484375 29.361875 1.94609375 29.114375 1.30859375 28.859375 C-1.26405905 27.34604983 -1.70073855 26.34083729 -2.81640625 23.609375 C-3.23046875 21.25 -3.23046875 21.25 -3.44140625 18.859375 C-3.51617188 18.06015625 -3.5909375 17.2609375 -3.66796875 16.4375 C-3.71695312 15.83421875 -3.7659375 15.2309375 -3.81640625 14.609375 C-4.14640625 14.609375 -4.47640625 14.609375 -4.81640625 14.609375 Z M68.18359375 14.609375 C68.085625 15.35703125 67.98765625 16.1046875 67.88671875 16.875 C66.65014607 25.01932354 66.65014607 25.01932354 64.05859375 28.296875 C63.43984375 28.73 62.82109375 29.163125 62.18359375 29.609375 C63.49583923 33.54611144 65.10269702 35.83656794 68.18359375 38.609375 C71.94866946 33.86210562 72.35552912 28.48792726 72.18359375 22.609375 C71.4642222 19.68606894 70.47685218 17.35108288 69.18359375 14.609375 C68.85359375 14.609375 68.52359375 14.609375 68.18359375 14.609375 Z M-3.81640625 49.609375 C-5.1195485 52.36861047 -4.82216355 53.58975848 -3.953125 56.55078125 C-3.47488281 57.74574219 -2.99664063 58.94070312 -2.50390625 60.171875 C-1.94884606 61.58137287 -1.39560854 62.99158926 -0.84375 64.40234375 C-0.52776855 65.20462402 -0.21178711 66.0069043 0.11376953 66.83349609 C1.36281514 70.07440175 2.55469529 73.33369892 3.7421875 76.59765625 C4.1858667 77.81445068 4.6295459 79.03124512 5.08666992 80.28491211 C5.97923411 82.73643017 6.86875858 85.18905725 7.75512695 87.64282227 C8.16980225 88.77389404 8.58447754 89.90496582 9.01171875 91.0703125 C9.38200195 92.08915527 9.75228516 93.10799805 10.13378906 94.15771484 C11.05484827 96.72841674 11.05484827 96.72841674 13.18359375 98.609375 C14.31636643 96.42560734 15.43982164 94.23780372 16.55859375 92.046875 C16.87570313 91.43779297 17.1928125 90.82871094 17.51953125 90.20117188 C23.15680998 79.10277938 23.53197218 68.96309053 19.99609375 57.171875 C19.80007568 56.49777588 19.60405762 55.82367676 19.40209961 55.12915039 C17.8983615 50.51411063 15.97905409 47.6286209 12.18359375 44.609375 C6.13424862 42.79243388 0.29949592 44.95448565 -3.81640625 49.609375 Z M49.37109375 46.421875 C43.05735442 55.62189517 41.23778118 66.65371272 42.18359375 77.609375 C43.93046034 85.22343483 47.10094671 91.98343965 51.18359375 98.609375 C53.83361183 97.28436596 53.91153033 96.19396748 54.92700195 93.44433594 C55.256866 92.55961609 55.58673004 91.67489624 55.92658997 90.7633667 C56.27565903 89.79989319 56.62472809 88.83641968 56.984375 87.84375 C57.34379684 86.85820129 57.70321869 85.87265259 58.0735321 84.85723877 C58.83154774 82.76715698 59.58531862 80.67553168 60.33520508 78.58251953 C61.48894752 75.37921611 62.67259363 72.18800674 63.85742188 68.99609375 C64.58911924 66.9668226 65.31899762 64.93689447 66.046875 62.90625 C66.40606522 61.95087341 66.76525543 60.99549683 67.1353302 60.01116943 C69.08930543 54.81849348 69.08930543 54.81849348 68.01245117 49.57910156 C64.56304125 45.86399821 61.73133422 44.41961818 56.68359375 44.109375 C53.36673734 44.25789096 52.25581938 44.56282959 49.37109375 46.421875 Z M-4.81640625 58.609375 C-7.1493552 60.94232395 -6.30802329 66.69696509 -6.33984375 69.9230957 C-6.19982823 75.96064003 -4.86408208 78.91420108 -0.90625 83.51953125 C4.0915212 90.90875932 6.36545796 100.19581017 9.18359375 108.609375 C11.5591198 104.36571119 11.3279602 101.2429023 10.18359375 96.609375 C8.55672561 91.73099104 6.69507187 86.95372359 4.80859375 82.171875 C3.81824196 79.63281571 2.83269613 77.09190523 1.84765625 74.55078125 C1.38520508 73.35984863 0.92275391 72.16891602 0.44628906 70.94189453 C-1.09847397 66.86493872 -2.48813576 62.76134977 -3.81640625 58.609375 C-4.14640625 58.609375 -4.47640625 58.609375 -4.81640625 58.609375 Z M68.18359375 58.609375 C67.71518066 59.93159058 67.71518066 59.93159058 67.23730469 61.28051758 C66.05976796 64.60372495 64.88182185 67.92678665 63.70361328 71.24975586 C63.19726856 72.67808463 62.69107918 74.10646848 62.18505859 75.53491211 C61.69349724 76.92247787 61.20165742 78.309945 60.70953369 79.6973114 C60.22429242 81.06611223 59.74003597 82.43526259 59.2567749 83.80476379 C57.53349429 88.67480333 55.7207462 93.50578485 53.83203125 98.31445312 C52.78590606 102.01685403 53.34254424 104.89473967 54.18359375 108.609375 C57.02721111 105.76575764 57.76415579 102.28559416 58.99609375 98.546875 C63.89644241 84.16518775 63.89644241 84.16518775 68.80859375 78.8515625 C70.8174367 75.57577882 70.54443229 72.85074629 70.49609375 69.046875 C70.49931641 68.37462891 70.50253906 67.70238281 70.50585938 67.00976562 C70.46577024 63.33978722 70.26864297 61.73694883 68.18359375 58.609375 Z M-5.81640625 80.609375 C-5.53910211 89.51083775 -4.54851988 98.1526957 -3.00390625 106.921875 C-2.85083008 107.82760254 -2.69775391 108.73333008 -2.54003906 109.66650391 C-0.70093404 120.4466203 -0.70093404 120.4466203 5.06567383 129.3293457 C8.42781506 131.36135798 11.53130457 131.73414554 15.41381836 131.75463867 C16.65046486 131.76420845 16.65046486 131.76420845 17.91209412 131.77397156 C18.79446243 131.77508438 19.67683075 131.7761972 20.5859375 131.77734375 C21.95801109 131.78233635 21.95801109 131.78233635 23.35780334 131.78742981 C25.29020689 131.79248681 27.22261914 131.79483851 29.1550293 131.79467773 C32.10675468 131.79686438 35.05810632 131.81503351 38.00976562 131.83398438 C39.88932164 131.83691854 41.76887943 131.83890318 43.6484375 131.83984375 C44.52878159 131.84702927 45.40912567 131.85421478 46.31614685 131.86161804 C51.83720708 131.84109291 56.04381678 131.61946851 60.24609375 127.671875 C68.84467106 114.08057538 69.57266053 96.26190534 70.18359375 80.609375 C64.01340969 85.8981042 61.69728608 93.56199845 59.18359375 101.046875 C58.65354285 102.543394 58.12230388 104.03949276 57.58984375 105.53515625 C56.77709811 107.84126938 56.04835724 110.10366444 55.40234375 112.46484375 C53.71668967 117.78747974 50.58851155 120.11957948 45.74609375 122.671875 C37.68160775 126.47021208 30.28498805 127.40431003 21.80859375 124.421875 C13.58034784 120.62422304 10.91557786 116.93301821 7.74609375 108.546875 C7.31425781 107.40734375 6.88242187 106.2678125 6.4375 105.09375 C5.26963649 101.84847197 4.21504637 98.58750116 3.18359375 95.296875 C1.54551155 90.27608646 -0.48421615 85.74627768 -3.81640625 81.609375 C-4.47640625 81.279375 -5.13640625 80.949375 -5.81640625 80.609375 Z M17.18359375 97.609375 C17.51359375 98.599375 17.84359375 99.589375 18.18359375 100.609375 C19.54484375 100.7640625 19.54484375 100.7640625 20.93359375 100.921875 C24.2032095 101.61352449 25.72077112 102.43072421 28.18359375 104.609375 C27.52359375 105.269375 26.86359375 105.929375 26.18359375 106.609375 C26.11086813 109.16397714 26.11086813 109.16397714 27.18359375 111.609375 C29.39185324 113.20956961 29.39185324 113.20956961 32.18359375 113.609375 C34.9509971 112.83710327 34.9509971 112.83710327 37.18359375 111.609375 C36.85359375 108.969375 36.52359375 106.329375 36.18359375 103.609375 C40.01684992 100.90354712 42.50897524 100.28323882 47.18359375 100.609375 C46.21157369 98.12018076 45.65096035 96.8644753 43.265625 95.5625 C34.51261327 92.85072356 25.08852865 92.3394184 17.18359375 97.609375 Z M48.18359375 99.609375 C47.91546875 100.5375 47.64734375 101.465625 47.37109375 102.421875 C45.47368173 107.51492831 42.72598832 108.88393826 38.18359375 111.609375 C36.4321021 113.19182775 36.4321021 113.19182775 35.18359375 114.609375 C39.79867149 115.65152191 39.79867149 115.65152191 44.18359375 114.609375 C44.18359375 115.269375 44.18359375 115.929375 44.18359375 116.609375 C36.59359375 116.609375 29.00359375 116.609375 21.18359375 116.609375 C20.85359375 115.949375 20.52359375 115.289375 20.18359375 114.609375 C20.94671875 114.815625 21.70984375 115.021875 22.49609375 115.234375 C25.40245319 115.94328703 25.40245319 115.94328703 28.18359375 113.609375 C27.41273437 113.08988281 26.641875 112.57039063 25.84765625 112.03515625 C24.84476563 111.33777344 23.841875 110.64039062 22.80859375 109.921875 C21.81085937 109.23738281 20.813125 108.55289063 19.78515625 107.84765625 C17.07191387 105.51329005 16.16912079 103.99935053 15.18359375 100.609375 C14.19359375 101.104375 14.19359375 101.104375 13.18359375 101.609375 C12.41045531 104.24422259 12.41045531 104.24422259 11.93359375 107.359375 C11.7428125 108.40609375 11.55203125 109.4528125 11.35546875 110.53125 C11.16230389 113.9906571 11.37989494 115.65469711 13.18359375 118.609375 C19.71894412 123.10608622 27.16706589 125.66298982 35.109375 125.28125 C40.84849705 124.02695649 47.96944216 120.82352659 52.18359375 116.609375 C52.68037303 110.57870557 52.16566575 105.30783201 50.18359375 99.609375 C49.52359375 99.609375 48.86359375 99.609375 48.18359375 99.609375 Z M18.18359375 101.609375 C18.75704312 104.47662186 19.04504525 105.4708265 21.18359375 107.609375 C22.50359375 107.609375 23.82359375 107.609375 25.18359375 107.609375 C25.51359375 106.619375 25.84359375 105.629375 26.18359375 104.609375 C22.49795291 102.15357803 22.49795291 102.15357803 18.18359375 101.609375 Z M38.18359375 103.609375 C38.51359375 105.259375 38.84359375 106.909375 39.18359375 108.609375 C41.65986474 107.97015535 41.65986474 107.97015535 44.18359375 106.609375 C45.5443741 104.08564599 45.5443741 104.08564599 46.18359375 101.609375 C42.41671511 101.609375 41.2716907 101.84474817 38.18359375 103.609375 Z " fill="#000000" transform="translate(22.81640625,2.390625)"/>
<path d="M0 0 C0.80824219 0.10183594 1.61648437 0.20367187 2.44921875 0.30859375 C3.06410156 0.39238281 3.67898437 0.47617187 4.3125 0.5625 C5.3125 3.5625 5.3125 3.5625 4.45703125 5.53515625 C4.01746094 6.22480469 3.57789062 6.91445313 3.125 7.625 C2.69832031 8.31722656 2.27164063 9.00945313 1.83203125 9.72265625 C-0.52368117 12.57494559 -2.64830001 13.39559818 -6.265625 13.9765625 C-7.58820313 14.08097656 -7.58820313 14.08097656 -8.9375 14.1875 C-9.82953125 14.26226562 -10.7215625 14.33703125 -11.640625 14.4140625 C-12.31609375 14.46304688 -12.9915625 14.51203125 -13.6875 14.5625 C-13.35212741 8.07863002 -12.36101958 5.12474531 -7.6875 0.5625 C-4.59271121 -0.46909626 -3.16118607 -0.41232862 0 0 Z M-4.6875 2.5625 C-3.2025 3.5525 -3.2025 3.5525 -1.6875 4.5625 C-1.5 7.1875 -1.5 7.1875 -1.6875 9.5625 C-1.0275 9.5625 -0.3675 9.5625 0.3125 9.5625 C0.9725 7.5825 1.6325 5.6025 2.3125 3.5625 C1.18715895 2.20631501 1.18715895 2.20631501 -1.75 2.5 C-2.719375 2.520625 -3.68875 2.54125 -4.6875 2.5625 Z M-8.6875 4.5625 C-11.05730013 7.51627498 -11.05730013 7.51627498 -10.6875 11.5625 C-8.7075 11.5625 -6.7275 11.5625 -4.6875 11.5625 C-5.3475 10.9025 -6.0075 10.2425 -6.6875 9.5625 C-7.3125 6.9375 -7.3125 6.9375 -7.6875 4.5625 C-8.0175 4.5625 -8.3475 4.5625 -8.6875 4.5625 Z " fill="#000000" transform="translate(82.6875,53.4375)"/>
<path d="M0 0 C3.73761695 4.01793822 4.56814441 7.60180509 5 13 C2.91385563 12.79801781 0.83095932 12.56230679 -1.25 12.3125 C-2.99023438 12.12107422 -2.99023438 12.12107422 -4.765625 11.92578125 C-8.73435896 10.78980305 -9.8710383 9.48003354 -12 6 C-12.75 2.1875 -12.75 2.1875 -13 -1 C-8.37427797 -2.44028163 -4.45976801 -1.78718644 0 0 Z M-11 1 C-10.34414811 4.60992379 -10.34414811 4.60992379 -9 8 C-8.34 8 -7.68 8 -7 8 C-6.855625 7.21625 -6.71125 6.4325 -6.5625 5.625 C-6 3 -6 3 -5 1 C-6.98 1 -8.96 1 -11 1 Z M-1 3 C-1.4640625 4.175625 -1.4640625 4.175625 -1.9375 5.375 C-3 8 -3 8 -4 10 C-2.35 10 -0.7 10 1 10 C2.33304698 7.10813214 2.33304698 7.10813214 1.0625 4.8125 C0.711875 4.214375 0.36125 3.61625 0 3 C-0.33 3 -0.66 3 -1 3 Z " fill="#000000" transform="translate(36,55)"/>


  </g>
</svg>