<?xml version="1.0" encoding="UTF-8"?>
<svg width="1846" height="2000" viewBox="0 0 1846 2000" xmlns="http://www.w3.org/2000/svg">
  <g transform="scale(13.986013986013987)">
    
<!-- Generator: visioncortex VTracer 0.6.4 -->

<path d="M0 0 C0.66 0.66 1.32 1.32 2 2 C1.37351563 2.23074219 0.74703125 2.46148437 0.1015625 2.69921875 C-4.98834439 4.61368758 -4.98834439 4.61368758 -8.625 8.4375 C-9.0367148 11.25088447 -8.77798518 13.27705187 -8 16 C-3.94076029 17.14528549 -1.81807547 16.85506545 2 15.125 C11.97794491 10.66610587 19.68652419 11.54838816 29.72021484 15.22119141 C33.07750215 16.43863108 35.36791942 17 39 17 C40.52491998 13.95016004 40.23562548 11.3576631 40 8 C38.27513009 5.05757486 36.62432357 4.87901945 33.3125 3.8125 C32.219375 3.544375 31.12625 3.27625 30 3 C30 2.34 30 1.68 30 1 C35.25412337 1.41208811 38.28336057 2.17717087 42 6 C43.58877975 9.38256334 44.28737114 12.43498413 44.75 16.125 C46.68872645 27.22048058 53.46617813 37.08116157 62.41796875 43.8203125 C67.81496804 47.28443297 72.68508448 48.98146524 79 50 C77.38204861 43.93336636 77.38204861 43.93336636 72.8125 40 C71.884375 39.67 70.95625 39.34 70 39 C70 38.34 70 37.68 70 37 C73.92888829 37.26787875 75.54876221 37.52437097 78.3125 40.4375 C81.04415927 44.58557518 81.09225696 47.01812396 81 52 C76.64005933 52.024727 72.28015586 52.04287281 67.92016602 52.05493164 C66.43708587 52.05995903 64.95401067 52.06678185 63.47094727 52.07543945 C61.33869199 52.08757482 59.20650227 52.09324425 57.07421875 52.09765625 C55.79119873 52.10289307 54.50817871 52.10812988 53.1862793 52.11352539 C50 52 50 52 47 51 C45.86058959 48.95771502 44.81067835 46.8649052 43.8125 44.75 C40.82494259 38.81494361 37.98121412 35.81334354 32 33 C26.03765986 29.69881732 19.39862715 25.69243548 17.33984375 18.78515625 C17.22769531 18.19605469 17.11554688 17.60695313 17 17 C14.62694323 19.21859746 12.93732825 21.56437368 11.125 24.25 C7.24547256 29.36467614 2.6165091 31.56674545 -3.0390625 34.39453125 C-9.19867606 37.73437449 -11.75984669 43.0639364 -14.88671875 49.14453125 C-16 51 -16 51 -18 52 C-20.32416296 52.08586809 -22.65083307 52.10711043 -24.9765625 52.09765625 C-25.66181 52.0962413 -26.3470575 52.09482635 -27.05307007 52.09336853 C-29.24375761 52.08776675 -31.4343433 52.07521406 -33.625 52.0625 C-35.10937352 52.05748522 -36.59374865 52.05292228 -38.078125 52.04882812 C-41.71878315 52.03779677 -45.35938164 52.02053099 -49 52 C-49.19812525 46.24070382 -48.69565215 43.54037264 -45 39 C-41.77208445 36.8480563 -40.71599191 36.79913557 -37 37 C-38 39 -38 39 -40.375 39.875 C-43.40492252 41.17353822 -44.3785574 42.16247546 -46 45 C-46.36402169 46.66023405 -46.70130909 48.32677777 -47 50 C-34.0389767 47.41272348 -26.40728786 41.60857323 -18.83984375 30.8359375 C-16.02248602 26.49325871 -14.31617436 22.79376255 -13.4140625 17.67578125 C-11.32653196 5.92421228 -11.32653196 5.92421228 -5.81640625 1.91796875 C-3.84229109 0.92029765 -2.19968943 0.27552578 0 0 Z M18 14 C18.79683839 20.67203484 23.11449534 24.69908564 28 29 C31.02740399 30.70127888 31.02740399 30.70127888 34.1875 32.0625 C40.32309295 34.81024646 42.95656106 38.11890626 46 44 C47.64914286 47.5433103 47.64914286 47.5433103 50.6328125 49.62109375 C53.85835728 50.13739382 56.98534172 50.09272832 60.25 50.0625 C61.51328125 50.05347656 62.7765625 50.04445312 64.078125 50.03515625 C65.52445313 50.01775391 65.52445313 50.01775391 67 50 C63.69641243 47.33790519 63.69641243 47.33790519 60.33203125 44.75390625 C56.21868241 41.52878698 53.21189788 37.74793384 50.125 33.5625 C42.56741968 23.45108674 33.31373916 16.75241085 20.63671875 14.3671875 C19.76660156 14.24601563 18.89648438 14.12484375 18 14 Z M-12.15234375 26.10546875 C-14.16953793 28.35496936 -16.09616942 30.6540665 -18 33 C-23.47548655 39.50658467 -29.17575127 44.9301333 -36 50 C-33.79194476 50.0544452 -31.58349446 50.09299283 -29.375 50.125 C-28.14523438 50.14820313 -26.91546875 50.17140625 -25.6484375 50.1953125 C-21.95533643 49.99760902 -19.33315285 49.59894724 -16 48 C-14.43512024 45.81500735 -14.43512024 45.81500735 -13.5 43.1875 C-10.47973369 36.55625283 -6.58817344 33.69326474 -0.0625 30.6875 C6.44539866 27.56606444 10.6918524 23.18505502 13.4375 16.5 C13.7159375 15.2625 13.7159375 15.2625 14 14 C4.92767744 14 -5.80513773 19.89649589 -12.15234375 26.10546875 Z M-11 17 C-11.33 18.98 -11.66 20.96 -12 23 C-10.68 22.34 -9.36 21.68 -8 21 C-8 20.01 -8 19.02 -8 18 C-8.99 17.67 -9.98 17.34 -11 17 Z M41 18 C40.01 19.485 40.01 19.485 39 21 C41.475 21.99 41.475 21.99 44 23 C43.67 21.35 43.34 19.7 43 18 C42.34 18 41.68 18 41 18 Z " fill="#000000" transform="translate(50,0)"/>
<path d="M0 0 C5.25487408 1.79922319 8.99105454 4.97737661 13.28125 8.41796875 C15.83028891 10.20130236 15.83028891 10.20130236 18.4609375 10.0234375 C22.41240399 8.43069255 25.426375 5.81267675 28.71484375 3.15039062 C32.70972111 0 32.70972111 0 36 0 C34.65465255 4.03604235 32.67072564 4.78796377 29.125 7.0625 C28.05507812 7.75472656 26.98515625 8.44695313 25.8828125 9.16015625 C24.93148437 9.76730469 23.98015625 10.37445313 23 11 C22.01 11.66 21.02 12.32 20 13 C19.77862607 15.62697064 19.71837975 18.00893964 19.8125 20.625 C19.82603516 21.33140625 19.83957031 22.0378125 19.85351562 22.765625 C19.8888896 24.51074128 19.94269779 26.25546608 20 28 C20.51949219 27.48050781 21.03898437 26.96101563 21.57421875 26.42578125 C23.01497528 24.98502472 24.45777066 23.54630484 25.90234375 22.109375 C27.11914853 20.88577243 28.32571078 19.65144717 29.50390625 18.390625 C31.85230957 15.88762459 33.51831046 14.38685439 37 14 C37 14.66 37 15.32 37 16 C35.56640625 17.41015625 35.56640625 17.41015625 33.5625 19.0625 C32.84191406 19.69414063 32.12132813 20.32578125 31.37890625 20.9765625 C29.7825328 22.33439738 28.14236535 23.64223488 26.46484375 24.8984375 C21.87016823 28.63920069 21.87016823 28.63920069 19.60888672 33.96582031 C19.22778865 38.67699927 19.53341856 43.3053843 20 48 C20.40089844 47.45730469 20.80179688 46.91460937 21.21484375 46.35546875 C27.00411929 39.06964579 32.30629047 37.64938278 41.1875 36.0625 C46.52257329 35.01365432 50.14251178 33.5742364 53.4375 29.0078125 C57.49585431 21.97486896 57.8733017 14.9935111 58 7 C58.66 7 59.32 7 60 7 C60.66301795 24.48402878 60.66301795 24.48402878 54.625 32.3125 C49.01380787 38.05729195 43.32876861 38.95509153 35.68164062 40.109375 C31.42406793 40.9074472 28.65613116 41.83943203 25.68359375 45.078125 C22.39470711 49.63093004 22.39470711 49.63093004 19 58 C35.17 55.36 51.34 52.72 68 50 C64.95771941 44.64233338 64.95771941 44.64233338 60 42 C57.02866024 41.79997101 54.14784714 42.0320983 51.1875 42.3125 C50.39923828 42.37373047 49.61097656 42.43496094 48.79882812 42.49804688 C46.86465127 42.65043657 44.93209781 42.82319281 43 43 C43 42.34 43 41.68 43 41 C58.68989547 37.82229965 58.68989547 37.82229965 64.1875 40.625 C68.49763147 44.26466658 70.58426494 47.30934408 71.9375 52.8125 C72.36289462 58.52805843 70.87837397 63.52480278 67.4140625 68.08984375 C64.75042643 70.9337696 62.8096622 72.74159717 59.0625 73.9375 C58.381875 73.958125 57.70125 73.97875 57 74 C57 73.34 57 72.68 57 72 C57.9075 71.401875 58.815 70.80375 59.75 70.1875 C64.86644675 66.74373777 66.92929667 63.67393776 68.61328125 57.8203125 C68.87536377 56.91812988 69.13744629 56.01594727 69.4074707 55.08642578 C69.60300537 54.39790527 69.79854004 53.70938477 70 53 C68.73406006 53.21205078 67.46812012 53.42410156 66.16381836 53.64257812 C61.44779603 54.43099442 56.73056418 55.21195698 52.01293945 55.99072266 C49.97484354 56.32822111 47.93707705 56.66771536 45.8996582 57.00927734 C42.96390647 57.50107849 40.02702838 57.98558965 37.08984375 58.46875 C36.18540024 58.62186646 35.28095673 58.77498291 34.34910583 58.93273926 C29.49300664 59.72375283 24.91995562 60.1640962 20 60 C23.22575117 70.43625377 29.70806364 78.24989741 39 84 C44.83140935 86.83304295 50.84546221 88.98495874 57 91 C57 91.66 57 92.32 57 93 C43.5969226 91.28013609 33.03272335 84.97487827 24 75 C19 67.83695652 19 67.83695652 19 64 C18.34 64 17.68 64 17 64 C16.7421875 64.88816406 16.484375 65.77632813 16.21875 66.69140625 C12.43484313 76.96374316 3.4751902 83.81615808 -6.05859375 88.50390625 C-11.3538243 90.82428818 -16.21828031 92.60579184 -22 93 C-22 92.34 -22 91.68 -22 91 C-20.56720703 90.58041016 -20.56720703 90.58041016 -19.10546875 90.15234375 C-5.30179501 85.94351332 5.73962726 79.96656385 13.375 67.25 C14.62962406 64.74075189 15.56101448 62.74365948 16 60 C15.05310303 60.03158203 14.10620605 60.06316406 13.13061523 60.09570312 C8.30623214 60.09147128 3.65600661 59.27219187 -1.08984375 58.46875 C-2.03436905 58.31337769 -2.97889435 58.15800537 -3.95204163 57.9979248 C-6.94808879 57.50385295 -9.9427802 57.00204818 -12.9375 56.5 C-14.97712871 56.16224772 -17.01684149 55.82500272 -19.05664062 55.48828125 C-24.03875267 54.66472245 -29.01966404 53.83422925 -34 53 C-33.58733331 54.75345555 -33.15672031 56.50269288 -32.71875 58.25 C-32.48091797 59.22453125 -32.24308594 60.1990625 -31.99804688 61.203125 C-30.42666588 65.60668191 -27.50637238 68.06739764 -24 71 C-22.99086816 71.99078399 -21.98788011 72.98802525 -21 74 C-26.22001968 73.07744619 -29.50738229 69.81820072 -33 66 C-36.20939296 61.02132631 -36.39713008 56.09241059 -35.57421875 50.33203125 C-34.46383187 45.82250086 -32.25954744 43.04962287 -28.75 40.125 C-21.99623859 37.3620976 -14.8452271 39.42896427 -8 41 C-8.33 41.99 -8.66 42.98 -9 44 C-9.65226562 43.855625 -10.30453125 43.71125 -10.9765625 43.5625 C-19.4405263 41.54097938 -19.4405263 41.54097938 -27.75 43.1875 C-30.35321364 45.28453321 -30.88715523 46.90932658 -32 50 C-26.1294692 51.0031968 -20.25788829 51.9999142 -14.38525391 52.99072266 C-12.38886047 53.32847421 -10.39276198 53.66797414 -8.39697266 54.00927734 C-5.52322497 54.50040612 -2.64846469 54.98517497 0.2265625 55.46875 C1.11429352 55.62186646 2.00202454 55.77498291 2.91665649 55.93273926 C7.33272481 56.66914753 11.50320573 57.1801291 16 57 C12.67786283 48.04262664 12.67786283 48.04262664 5.8046875 41.95703125 C2.5834506 40.85786267 -0.5911284 40.24267988 -3.9375 39.625 C-11.20706067 38.09975815 -16.20985597 35.87990979 -20.8984375 29.890625 C-24.81496372 23.16864383 -25.37347264 15.5939437 -25 8 C-24.01 7.67 -23.02 7.34 -22 7 C-22.03480469 7.60585938 -22.06960937 8.21171875 -22.10546875 8.8359375 C-22.35518299 16.56518793 -21.52568666 24.11664323 -16.6875 30.4375 C-11.83643255 35.06293641 -7.018828 36.35477692 -0.5 37.375 C5.33171405 38.41203212 9.07688574 39.42303336 13 44 C14.01920381 45.65499286 15.02239795 47.32009762 16 49 C17.20172413 43.55515114 17.88532765 38.35795865 16 33 C11.13277138 26.04489443 4.44663099 20.45601393 -2 15 C-1.34 14.34 -0.68 13.68 0 13 C0.4439209 13.44915771 0.8878418 13.89831543 1.34521484 14.36108398 C3.35253603 16.38915607 5.36370999 18.41336416 7.375 20.4375 C8.07367188 21.14455078 8.77234375 21.85160156 9.4921875 22.58007812 C10.1625 23.25361328 10.8328125 23.92714844 11.5234375 24.62109375 C12.14138184 25.2442749 12.75932617 25.86745605 13.39599609 26.50952148 C14.94660067 28.09048151 14.94660067 28.09048151 17 29 C17 23.72 17 18.44 17 13 C14.525 12.01 14.525 12.01 12 11 C9.8338001 9.543183 7.76007335 8.07646527 5.6875 6.5 C5.13771484 6.09652344 4.58792969 5.69304688 4.02148438 5.27734375 C2.63992549 4.23731309 1.31443702 3.12366546 0 2 C0 1.34 0 0.68 0 0 Z " fill="#000000" transform="translate(48,49)"/>


  </g>
</svg>