<?xml version="1.0" encoding="UTF-8"?>
<svg width="1514" height="2000" viewBox="0 0 1514 2000" xmlns="http://www.w3.org/2000/svg">
  <g transform="scale(13.88888888888889)">
    
<!-- Generator: visioncortex VTracer 0.6.4 -->

<path d="M0 0 C0.66 -0.33 1.32 -0.66 2 -1 C7.69130337 -1.54724071 10.56117185 -0.59333707 15 3 C15.495 3.99 15.495 3.99 16 5 C17.92954332 5.27789564 17.92954332 5.27789564 20.1875 5.3125 C25.37199812 5.79132307 27.49603993 7.15419016 31 11 C31.4021875 12.5159375 31.4021875 12.5159375 31.8125 14.0625 C32.67007372 17.10020217 32.67007372 17.10020217 34.97265625 18.0234375 C36.16181641 18.47589844 36.16181641 18.47589844 37.375 18.9375 C41.47940375 20.55278148 43.56195275 21.98478948 45.4921875 25.984375 C46.43259233 29.7170588 45.7755278 33.28252433 45 37 C46.485 37.495 46.485 37.495 48 38 C51.42952449 41.93760219 51.29494371 45.63179437 51.203125 50.59765625 C51 53 51 53 50.390625 55.1328125 C49.74159843 57.23946174 49.74159843 57.23946174 51.5 59.8125 C53.36860901 63.78329415 53.08977046 65.79659967 52 70 C51.46375 70.61875 50.9275 71.2375 50.375 71.875 C48.66320189 74.52050617 49.02828229 75.391408 49.5 78.4375 C49.99427837 81.70940793 50.11162177 82.74326992 48.75 85.875 C47 88 47 88 45.375 89.375 C43.67173605 91.08894481 43.67173605 91.08894481 43.5625 94.4375 C42.92718315 98.46117337 42.22006093 99.60795473 39 102 C37.9790625 102.185625 37.9790625 102.185625 36.9375 102.375 C34.63158523 102.87068329 34.63158523 102.87068329 33.4375 105.9375 C32.963125 106.948125 32.48875 107.95875 32 109 C29 111 29 111 25.9375 110.6875 C23 110 23 110 21 109 C21.15597656 109.53367187 21.31195313 110.06734375 21.47265625 110.6171875 C23.03057104 116.58059643 23.45978454 121.95987702 22 128 C19.61954164 131.9957694 16.96526317 133.71997368 13 136 C12.29875 136.70125 11.5975 137.4025 10.875 138.125 C7.42442165 141.57557835 3.77076356 141.16294522 -0.875 141.1875 C-2.08929688 141.20167969 -3.30359375 141.21585938 -4.5546875 141.23046875 C-7.88741417 141.00753125 -10.05984738 140.54133674 -13 139 C-13.639375 138.195625 -14.27875 137.39125 -14.9375 136.5625 C-16.87475502 133.79155341 -16.87475502 133.79155341 -20.125 132.4375 C-23.34145608 130.82927196 -23.76245848 130.24156038 -25 127 C-25.22705078 124.89355469 -25.22705078 124.89355469 -25.1953125 122.671875 C-25.18886719 121.87265625 -25.18242187 121.0734375 -25.17578125 120.25 C-25.15902344 119.425 -25.14226563 118.6 -25.125 117.75 C-25.11597656 116.90953125 -25.10695313 116.0690625 -25.09765625 115.203125 C-25.07415817 113.13529396 -25.03828908 111.06761005 -25 109 C-26.485 109.99 -26.485 109.99 -28 111 C-31.1256012 110.80464992 -33.25249945 110.5412935 -35.8125 108.6875 C-37 107 -37 107 -37.25 105 C-37.62125 104.01 -37.62125 104.01 -38 103 C-40.32671865 101.98470459 -42.6603447 100.98511802 -45 100 C-47.0167129 97.45718808 -47.01630025 96.26080405 -46.8125 93 C-46.874375 92.01 -46.93625 91.02 -47 90 C-48.2065625 89.0409375 -48.2065625 89.0409375 -49.4375 88.0625 C-52 86 -52 86 -52.875 82.5625 C-53 79 -53 79 -52.375 76.3125 C-52.25125 75.549375 -52.1275 74.78625 -52 74 C-52.48082031 73.39671875 -52.96164063 72.7934375 -53.45703125 72.171875 C-55.32614217 69.54092394 -55.37505327 68.12771654 -55.3125 64.9375 C-55.30863281 64.08027344 -55.30476563 63.22304687 -55.30078125 62.33984375 C-55 60 -55 60 -53 57 C-53.28718326 55.3247643 -53.63128912 53.65919896 -54 52 C-54.4891883 46.7571776 -54.26159844 43.34879792 -51 39 C-50.13375 38.071875 -50.13375 38.071875 -49.25 37.125 C-47.6472852 34.92242671 -47.6472852 34.92242671 -48.5625 31.6875 C-49.0599883 27.49438429 -48.53966033 25.94709808 -46.30859375 22.51171875 C-44.21006257 20.08744541 -41.98565747 19.05742035 -39 18 C-37.68 18 -36.36 18 -35 18 C-34.9175 17.113125 -34.835 16.22625 -34.75 15.3125 C-33.89879084 11.55299285 -32.62034678 9.77915568 -30 7 C-27.47524538 5.73762269 -25.68799534 5.90143596 -22.875 5.9375 C-21.96492188 5.94652344 -21.05484375 5.95554687 -20.1171875 5.96484375 C-19.06917969 5.98224609 -19.06917969 5.98224609 -18 6 C-17.70480469 5.37609375 -17.40960938 4.7521875 -17.10546875 4.109375 C-13.39381301 -2.97293631 -6.76084592 -1.35216918 0 0 Z M-16 5 C-17.12778686 8.09885514 -16.96469371 10.46042374 -16.42675781 13.68237305 C-16.27619934 14.60821701 -16.12564087 15.53406097 -15.97052002 16.48796082 C-15.79977966 17.48580093 -15.62903931 18.48364105 -15.453125 19.51171875 C-15.28125671 20.55334671 -15.10938843 21.59497467 -14.93231201 22.66816711 C-14.37906797 26.00924682 -13.81459874 29.34832238 -13.25 32.6875 C-12.8846984 34.88594848 -12.52010758 37.08451519 -12.15625 39.28320312 C-11.12011338 45.52487936 -10.06364662 51.76296003 -9 58 C-8.84716553 58.90123596 -8.69433105 59.80247192 -8.53686523 60.73101807 C-8.12729573 63.14035472 -7.71316912 65.54884861 -7.296875 67.95703125 C-7.17854309 68.65374435 -7.06021118 69.35045746 -6.93829346 70.06828308 C-6.31924905 73.6417875 -6.31924905 73.6417875 -5 77 C-5.99 76.505 -5.99 76.505 -7 76 C-7.65138245 73.3875885 -7.65138245 73.3875885 -8.22094727 69.85961914 C-8.3269223 69.21895004 -8.43289734 68.57828094 -8.54208374 67.91819763 C-8.89179653 65.79177744 -9.22897524 63.66355685 -9.56640625 61.53515625 C-9.80690524 60.06149824 -10.04828513 58.58798374 -10.29051208 57.11460876 C-10.92738902 53.22855727 -11.55411606 49.34094022 -12.17822266 45.45281982 C-13.17833203 39.23184091 -14.19284571 33.01320352 -15.20899773 26.79482841 C-15.56304523 24.61831818 -15.91228158 22.44107602 -16.26087952 20.26368713 C-16.47661767 18.93236413 -16.69246751 17.60105922 -16.90844727 16.26977539 C-17.09560806 15.10474991 -17.28276886 13.93972443 -17.4756012 12.73939514 C-17.86217905 10.04974812 -17.86217905 10.04974812 -19 8 C-24.69226185 7.59374608 -24.69226185 7.59374608 -29.9375 9.5 C-32.66656298 12.80795513 -33.08594336 15.82269442 -33 20 C-32.25512367 23.31065639 -31.04742247 26.37184678 -29.7734375 29.51171875 C-29.4287442 30.4018013 -29.0840509 31.29188385 -28.72891235 32.2089386 C-27.62747278 35.04192251 -26.50186323 37.8645458 -25.375 40.6875 C-24.64029032 42.56381304 -23.90720232 44.44076193 -23.17578125 46.31835938 C-21.76919742 49.92212088 -20.35368747 53.5221247 -18.92871094 57.11865234 C-16.57519201 63.06235111 -14.2793028 69.02744695 -12 75 C-12.33 75.33 -12.66 75.66 -13 76 C-13.28085449 75.25766113 -13.56170898 74.51532227 -13.85107422 73.75048828 C-14.2482666 72.70103027 -14.64545898 71.65157227 -15.0546875 70.5703125 C-15.49989746 69.3937207 -15.94510742 68.21712891 -16.40380859 67.00488281 C-17.39001492 64.40124507 -18.38024952 61.79918706 -19.37353516 59.19824219 C-21.6588731 53.20866428 -23.93518885 47.21848984 -26.1076355 41.18685913 C-26.76727319 39.35904144 -27.43651448 37.53469867 -28.10595703 35.71044922 C-28.94076791 33.43407187 -29.7599339 31.1518854 -30.56201172 28.86376953 C-30.94115723 27.84138184 -31.32030273 26.81899414 -31.7109375 25.765625 C-32.03368652 24.86618164 -32.35643555 23.96673828 -32.68896484 23.04003906 C-33.85492151 20.76495314 -33.85492151 20.76495314 -36.47900391 20.13574219 C-39.95399115 19.94863267 -41.31812917 20.81215801 -44 23 C-46.01438505 25.64388038 -47.10767429 27.50486554 -46.86328125 30.8984375 C-45.11322475 37.57595805 -40.74158632 42.8519914 -36.69921875 48.30078125 C-32.48911455 53.9962718 -28.77320071 60.01079252 -25 66 C-24.24203125 67.175625 -24.24203125 67.175625 -23.46875 68.375 C-21.0190467 72.1989271 -18.89640438 76.08241049 -16.9140625 80.16796875 C-15.73739577 82.5263307 -14.39625988 84.7659842 -13 87 C-15.18277874 84.94195148 -16.48202435 83.23443191 -18.125 80.625 C-21.8422562 75.4031401 -26.72829439 72.56991001 -33.02734375 71.47265625 C-35.69130762 71.22237393 -38.32546812 71.05499038 -41 71 C-40.72965366 73.43717258 -40.72965366 73.43717258 -40 76 C-36.99821301 78.00119133 -35.26863116 78.46117624 -31.8125 79.1875 C-25.94455652 80.70708696 -21.92521613 83.38209867 -18 88 C-17.67 88.99 -17.34 89.98 -17 91 C-17.69738281 91.24878906 -18.39476563 91.49757813 -19.11328125 91.75390625 C-22.4063785 93.17541914 -25.20441985 94.94754467 -28.1875 96.9375 C-29.75564453 97.97197266 -29.75564453 97.97197266 -31.35546875 99.02734375 C-34.17666379 100.90178081 -34.17666379 100.90178081 -36 104 C-34.68 105.65 -33.36 107.3 -32 109 C-25.75689668 108.21151117 -22.96344675 104.60150162 -19 100 C-15.59374657 95.54925089 -12.39940552 91.07835343 -10 86 C-11.01224115 90.27390706 -12.79218373 93.2197788 -15.375 96.6875 C-22.01838033 105.99378017 -24.62229431 115.5270177 -23 127 C-21.89599804 129.41075647 -21.89599804 129.41075647 -20 131 C-17.80827182 131.72941609 -17.80827182 131.72941609 -15.4375 131.8125 C-14.65246094 131.88082031 -13.86742187 131.94914063 -13.05859375 132.01953125 C-10.93422963 132.14990974 -10.93422963 132.14990974 -9 131 C-9 130.34 -9 129.68 -9 129 C-8.34 129.33 -7.68 129.66 -7 130 C-3.01517517 130.52568536 0.98907154 130.75943682 5 131 C6.10730469 131.06703125 7.21460938 131.1340625 8.35546875 131.203125 C9.41378906 131.23921875 10.47210938 131.2753125 11.5625 131.3125 C12.53316406 131.34988281 13.50382812 131.38726562 14.50390625 131.42578125 C17.1132377 131.22665908 17.1132377 131.22665908 18.78515625 129.23046875 C22.32433448 122.73249199 20.98830664 115.83868641 19.08203125 108.98828125 C17.35722553 104.22482863 14.80452816 100.1927696 12 96 C11.03746792 94.46095131 10.07878649 92.9194838 9.125 91.375 C8.42375 90.26125 7.7225 89.1475 7 88 C7.33 87.67 7.66 87.34 8 87 C8.65226562 88.09699219 9.30453125 89.19398437 9.9765625 90.32421875 C10.85881003 91.77898861 11.74165436 93.23339665 12.625 94.6875 C13.05167969 95.40873047 13.47835937 96.12996094 13.91796875 96.87304688 C17.21147004 102.25570944 20.56894904 106.72332988 26.6875 109 C29.03394243 109.19829524 29.03394243 109.19829524 30.875 107.875 C32.23518563 106.01533694 32.23518563 106.01533694 31.82421875 103.5703125 C30.79955104 100.37490324 29.77503929 99.71323127 26.9375 98 C26.133125 97.50242187 25.32875 97.00484375 24.5 96.4921875 C23.675 95.99976562 22.85 95.50734375 22 95 C20.47789963 94.04368036 18.95695707 93.08551393 17.4375 92.125 C16.29253872 91.41525792 15.14705163 90.70635877 14 90 C19.0467314 83.360394 23.01492689 80.52560687 30.9921875 78.4921875 C35.24559319 77.443419 35.24559319 77.443419 38 74 C38 73.01 38 72.02 38 71 C30.52241699 70.34977539 24.36157291 72.80766984 18.125 76.875 C15.62362574 79.37637426 13.78900117 81.95207208 12 85 C12 85.66 12 86.32 12 87 C11.34 87 10.68 87 10 87 C14.823106 77.14465603 20.20620928 67.91315022 26.4375 58.875 C27.07953369 57.94276611 27.72156738 57.01053223 28.38305664 56.05004883 C31.29501972 51.84511064 34.23682971 47.66448473 37.22265625 43.51171875 C37.69711182 42.83705566 38.17156738 42.16239258 38.66040039 41.46728516 C39.52163551 40.24268949 40.39862574 39.02894438 41.29467773 37.82958984 C43.46974227 34.71173403 44.00472161 33.11866155 43.8515625 29.26953125 C42.86256837 25.47233821 41.92861119 23.62033633 39 21 C35.35817665 20.10944264 35.35817665 20.10944264 32 20 C28.75824785 27.51456018 25.77889672 35.11605525 22.86328125 42.76171875 C22.31122513 44.20649094 22.31122513 44.20649094 21.74801636 45.68045044 C20.20764487 49.71370148 18.66855172 53.74739007 17.1394043 57.78491211 C16.01199903 60.75879501 14.87590756 63.72923358 13.73828125 66.69921875 C13.39243484 67.6188591 13.04658844 68.53849945 12.69026184 69.48600769 C12.20416695 70.74916557 12.20416695 70.74916557 11.70825195 72.0378418 C11.42577103 72.781082 11.1432901 73.5243222 10.85224915 74.29008484 C10 76 10 76 8 77 C8.34667725 76.12077881 8.69335449 75.24155762 9.05053711 74.33569336 C9.28205475 73.74844986 9.51357239 73.16120636 9.75210571 72.5561676 C10.27765258 71.22316367 10.80326921 69.89018725 11.32894897 68.55723572 C12.79431801 64.84073358 14.25768178 61.12345991 15.7175293 57.40478516 C18.4028228 50.56794351 21.09624962 43.73633526 23.8671875 36.93359375 C24.28492432 35.8979126 24.70266113 34.86223145 25.13305664 33.79516602 C25.89859374 31.89978428 26.67330372 30.00807203 27.45874023 28.12084961 C29.41232157 23.25148907 30.60663462 19.34383753 30 14 C28.20437595 11.24670979 26.94745078 9.47372539 24 8 C21.6670134 7.95977609 19.33293334 7.95679753 17 8 C15.61625729 11.92503046 14.58182629 15.71947857 13.87084961 19.81835938 C13.57560646 21.50040466 13.57560646 21.50040466 13.2743988 23.21643066 C13.06912064 24.41344604 12.86384247 25.61046143 12.65234375 26.84375 C12.43558487 28.08620483 12.21882599 29.32865967 11.99549866 30.60876465 C11.42212694 33.90038369 10.85276778 37.19264534 10.28533936 40.48529053 C9.70866434 43.82543188 9.12650862 47.16461731 8.54492188 50.50390625 C6.23821528 63.74611118 6.23821528 63.74611118 4 77 C3.67 76.67 3.34 76.34 3 76 C3.23373194 74.06776241 3.54987557 72.14548027 3.89624023 70.23022461 C4.11654404 68.9948143 4.33684784 67.75940399 4.56382751 66.48655701 C4.68513472 65.82157133 4.80644192 65.15658566 4.93142509 64.4714489 C5.31069579 62.3908122 5.68270885 60.30899651 6.05274963 58.22669983 C6.97445696 53.0481284 7.90745334 47.87160697 8.8425293 42.69543457 C9.63028407 38.33389897 10.41251317 33.97144728 11.1870594 29.60754585 C11.55168403 27.56603095 11.924334 25.52608708 12.29722595 23.48606873 C13.97388691 14.2939035 13.97388691 14.2939035 14 5 C11.22248662 1.63331712 9.6553901 1.06664984 5.3125 0.625 C1.92446296 0.66015237 1.92446296 0.66015237 0 3 C-0.3333729 6.15776613 -0.3333729 6.15776613 -0.31884766 9.92822266 C-0.33391609 10.99667671 -0.33391609 10.99667671 -0.34928894 12.0867157 C-0.38022904 14.44582293 -0.39718577 16.80481615 -0.4140625 19.1640625 C-0.43276548 20.79789214 -0.45233823 22.43171203 -0.4727478 24.06552124 C-0.5241671 28.36940781 -0.56374018 32.67332573 -0.60089111 36.97735596 C-0.64086953 41.36779599 -0.6919899 45.75810452 -0.7421875 50.1484375 C-0.83906272 58.76553531 -0.92343015 67.38269797 -1 76 C-1.99 76.495 -1.99 76.495 -3 77 C-2.93071289 75.88254395 -2.86142578 74.76508789 -2.79003906 73.61376953 C-1.9952161 59.9197462 -1.78199789 46.24524237 -1.75976562 32.52978516 C-1.74984722 28.81782308 -1.71860614 25.10636916 -1.6875 21.39453125 C-1.68098723 19.03125323 -1.67573004 16.66797134 -1.671875 14.3046875 C-1.6595282 13.19656708 -1.6471814 12.08844666 -1.63446045 10.94674683 C-1.63746155 9.93033112 -1.64046265 8.91391541 -1.64355469 7.86669922 C-1.63990906 6.97216034 -1.63626343 6.07762146 -1.63250732 5.15597534 C-1.75377991 4.44450348 -1.87505249 3.73303162 -2 3 C-7.49141608 -0.66094406 -11.50198835 0.37347373 -16 5 Z M-47 38 C-50.27600113 41.27600113 -51.81981091 42.87882346 -52.5625 47.5 C-51.24684557 55.68629421 -45.28146037 59.40532388 -39 64 C-38.28972656 64.55171875 -37.57945313 65.1034375 -36.84765625 65.671875 C-30.56114981 70.88184159 -30.56114981 70.88184159 -23 73 C-24.40554421 69.11770653 -26.23010379 65.90341983 -28.51953125 62.47265625 C-29.21240234 61.43302734 -29.90527344 60.39339844 -30.61914062 59.32226562 C-31.34294922 58.24654297 -32.06675781 57.17082031 -32.8125 56.0625 C-33.52470703 54.99064453 -34.23691406 53.91878906 -34.97070312 52.81445312 C-40.11668676 45.12344589 -40.11668676 45.12344589 -46 38 C-46.33 38 -46.66 38 -47 38 Z M43 38 C38.18085823 43.53153663 34.14699692 49.66546352 30.1328125 55.7890625 C28.61194408 58.07872155 27.07357921 60.33907874 25.4921875 62.5859375 C24.86932861 63.47200684 24.86932861 63.47200684 24.23388672 64.37597656 C23.05491727 66.04715526 21.8713199 67.71506622 20.6875 69.3828125 C18.81936724 71.76113918 18.81936724 71.76113918 19 74 C27.22072838 71.65122046 33.22421989 66.37379102 39.75 61.0625 C40.51699219 60.45470703 41.28398438 59.84691406 42.07421875 59.22070312 C42.80769531 58.62322266 43.54117188 58.02574219 44.296875 57.41015625 C44.96041992 56.87527588 45.62396484 56.34039551 46.30761719 55.78930664 C49.12707187 52.80838002 50.02216758 50.06404378 49.9375 46 C48.7644577 42.24626464 46.9657777 40.52091104 44 38 C43.67 38 43.34 38 43 38 Z M-51 58 C-53.45639458 61.68459187 -53.80884302 64.72230442 -53 69 C-50.4474805 72.52848284 -48.92538426 73.77301895 -44.6875 74.8125 C-43.800625 74.874375 -42.91375 74.93625 -42 75 C-42.33 73.35 -42.66 71.7 -43 70 C-40.69 70 -38.38 70 -36 70 C-37.29499215 66.11502356 -39.21784589 64.8854563 -42.375 62.3125 C-43.35210937 61.50425781 -44.32921875 60.69601563 -45.3359375 59.86328125 C-47.86789434 57.71343013 -47.86789434 57.71343013 -51 58 Z M38.8125 62.9375 C37.97428711 63.64036133 37.97428711 63.64036133 37.11914062 64.35742188 C35.72161432 65.5433569 34.35766377 66.76863054 33 68 C33 68.33 33 68.66 33 69 C35.97 69.495 35.97 69.495 39 70 C39 71.65 39 73.3 39 75 C42.88382414 74.72903553 44.73173064 74.21461548 47.8125 71.75 C50.09191226 68.88445316 51 67.63328035 51 64 C49.65873157 60.73249119 49.65873157 60.73249119 48 58 C43.80802878 58 41.83707618 60.32617569 38.8125 62.9375 Z M-49 76 C-50.30059064 78.73185596 -50.30059064 78.73185596 -51 82 C-49.69132936 84.94450894 -48.90597137 86.54701431 -46 88 C-44.29297265 88.06996014 -42.58331997 88.08440154 -40.875 88.0625 C-39.96492188 88.05347656 -39.05484375 88.04445313 -38.1171875 88.03515625 C-37.41851562 88.02355469 -36.71984375 88.01195313 -36 88 C-36 83.9672397 -37.60881814 81.14181176 -40 78 C-43.35784258 76.06924052 -45.04890776 76 -49 76 Z M37 79 C34.00670897 82.62320734 34.00670897 82.62320734 33 87 C39.89353238 88.44200807 39.89353238 88.44200807 46.1875 85.9375 C48.32287799 83.10376495 48.32287799 83.10376495 47.8125 79.6875 C47.544375 78.800625 47.27625 77.91375 47 77 C42.57120938 75.60809438 40.62479837 76.11875002 37 79 Z M-37 80 C-35.75023244 83.65316671 -35.32901247 84.78065836 -32 87 C-32 84.69 -32 82.38 -32 80 C-33.65 80 -35.3 80 -37 80 Z M33 79 C31.68 79.33 30.36 79.66 29 80 C29.33 81.98 29.66 83.96 30 86 C31.32 84.68 32.64 83.36 34 82 C33.67 81.01 33.34 80.02 33 79 Z M26 83 C25.67 84.65 25.34 86.3 25 88 C25.66 87.67 26.32 87.34 27 87 C26.67 85.68 26.34 84.36 26 83 Z M-25 84 C-25 85.32 -25 86.64 -25 88 C-23.68 87.67 -22.36 87.34 -21 87 C-22.32 86.01 -23.64 85.02 -25 84 Z M20 85 C19.01 86.485 19.01 86.485 18 88 C19.32 87.67 20.64 87.34 22 87 C21.34 86.34 20.68 85.68 20 85 Z M-29 86 C-28 88 -28 88 -28 88 Z M-44 90 C-44.98678714 93.13977726 -45.11691083 94.67118829 -44 97.8125 C-42.12911953 100.33707374 -42.12911953 100.33707374 -38.80859375 100.37890625 C-34.45350881 99.94563113 -31.62530912 98.48929813 -28.0625 96.125 C-27.47404297 95.76019531 -26.88558594 95.39539063 -26.27929688 95.01953125 C-24.80806409 94.07971936 -23.39738573 93.0464633 -22 92 C-22 91.34 -22 90.68 -22 90 C-24.54126172 89.80382184 -27.08260459 89.61782752 -29.625 89.4375 C-30.33785156 89.38142578 -31.05070312 89.32535156 -31.78515625 89.26757812 C-36.03668104 88.97504202 -39.79456347 89.10452061 -44 90 Z M18 90 C20.75627868 92.93451379 23.48641158 95.11897397 26.9375 97.1875 C27.77152344 97.69667969 28.60554688 98.20585938 29.46484375 98.73046875 C32.04351525 100.02179115 34.14039823 100.67799442 37 101 C39.38451799 100.12894624 39.38451799 100.12894624 41 98 C41.81314911 94.39534252 41.81314911 94.39534252 42 91 C34.9790336 86.94451028 25.72542726 89.07952356 18 90 Z M-8.75 133 C-10.22726563 133.2784375 -10.22726563 133.2784375 -11.734375 133.5625 C-12.48203125 133.706875 -13.2296875 133.85125 -14 134 C-13.67 134.99 -13.34 135.98 -13 137 C-9.47843642 138.76078179 -5.44108049 138.184646 -1.5625 138.1875 C-0.69044922 138.19974609 0.18160156 138.21199219 1.08007812 138.22460938 C1.91861328 138.22654297 2.75714844 138.22847656 3.62109375 138.23046875 C4.77242798 138.23663208 4.77242798 138.23663208 5.94702148 138.24291992 C8.31007913 138.12050975 8.31007913 138.12050975 11 136 C11 135.34 11 134.68 11 134 C9.4176994 133.66179834 7.83410625 133.32964061 6.25 133 C5.36828125 132.814375 4.4865625 132.62875 3.578125 132.4375 C-0.73960938 131.70479356 -4.50083482 132.1906352 -8.75 133 Z " fill="#000000" transform="translate(56,2)"/>
<path d="M0 0 C2.82895639 1.76023953 4.36084861 2.76130596 5.8125 5.75 C6.3125 8.6875 6.3125 8.6875 5.8125 11.75 C3.61489993 14.49700008 1.87174737 16.29603684 -1.375 17.6875 C-2.2721875 17.7184375 -2.2721875 17.7184375 -3.1875 17.75 C-3.8475 17.09 -4.5075 16.43 -5.1875 15.75 C-5 13.25 -5 13.25 -4.1875 10.75 C-0.95958445 8.5980563 0.09650809 8.54913557 3.8125 8.75 C2.37282717 5.71069069 1.37126322 4.0508725 -1.625 2.4375 C-8.157196 1.17690077 -14.55733535 0.8138397 -20.875 3.0625 C-23.46236327 4.60803765 -23.46236327 4.60803765 -24.1875 7.75 C-22.764375 8.183125 -22.764375 8.183125 -21.3125 8.625 C-18.1875 9.75 -18.1875 9.75 -16.1875 11.75 C-16.5625 14.375 -16.5625 14.375 -17.1875 16.75 C-18.1775 17.08 -19.1675 17.41 -20.1875 17.75 C-25.82130282 14.48239437 -25.82130282 14.48239437 -27.1875 11.75 C-27.625 8.4375 -27.625 8.4375 -27.1875 4.75 C-21.09130956 -2.83165456 -8.62181362 -3.41164238 0 0 Z M-24.1875 10.75 C-23.39632096 12.74983534 -23.39632096 12.74983534 -22.1875 14.75 C-21.1975 15.08 -20.2075 15.41 -19.1875 15.75 C-19.1875 14.43 -19.1875 13.11 -19.1875 11.75 C-20.8375 11.42 -22.4875 11.09 -24.1875 10.75 Z M-3.1875 11.75 C-3.1875 12.74 -3.1875 13.73 -3.1875 14.75 C-0.75032742 14.47965366 -0.75032742 14.47965366 1.8125 13.75 C2.4725 12.76 3.1325 11.77 3.8125 10.75 C0.18364676 10.59850702 0.18364676 10.59850702 -3.1875 11.75 Z " fill="#000000" transform="translate(65.1875,109.25)"/>


  </g>
</svg>